<svg xmlns="http://www.w3.org/2000/svg" version="1.1" width="128" height="128" shape-rendering="crispEdges"><path fill="#5ADAFF" d="M13,45h1v1h-1z M0,0h128v27h-128z M0,27h36v6h-36z M89,27h39v1h-39z M36,28h61v3h-61z M108,28h20v2h-20z M97,29h11v2h-11z M108,30h5v1h-5z M114,30h14v1h-14z M36,31h41v2h-41z M77,32h36v3h-36z M114,32h14v3h-14z M51,33h26v3h-26z M0,34h51v2h-51z M77,35h35v1h-35z M115,35h13v4h-13z M0,36h36v2h-36z M105,36h7v3h-7z M36,37h69v1h-69z M23,38h22v3h-22z M77,38h28v2h-28z M0,39h23v2h-23z M45,39h32v5h-32z M105,39h6v1h-6z M116,39h12v1h-12z M77,40h5v3h-5z M0,41h14v4h-14z M30,41h15v3h-15z M82,41h27v1h-27z M118,41h10v1h-10z M14,42h16v2h-16z M82,42h25v1h-25z M120,42h8v1h-8z M14,44h4v2h-4z M94,44h11v1h-11z M122,44h6v1h-6z M18,45h64v1h-64z" /><path fill="#A8F7FF" d="M0,72h1v1h-1z M126,72h1v1h-1z M8,73h1v1h-1z M49,73h1v1h-1z M61,73h1v1h-1z M57,75h1v1h-1z M90,75h1v1h-1z M36,27h53v1h-53z M97,28h11v1h-11z M77,31h36v1h-36z M114,31h14v1h-14z M0,33h51v1h-51z M36,36h69v1h-69z M0,38h23v1h-23z M45,38h32v1h-32z M82,40h28v1h-28z M117,40h11v1h-11z M14,41h16v1h-16z M77,43h29v1h-29z M121,43h7v1h-7z M18,44h76v1h-76z M0,45h13v24h-13z M82,45h22v9h-22z M123,45h5v9h-5z M13,46h69v11h-69z M104,46h1v8h-1z M122,46h1v8h-1z M105,47h1v7h-1z M121,47h1v7h-1z M82,54h20v1h-20z M125,54h3v1h-3z M82,55h19v18h-19z M102,55h2v2h-2z M105,55h1v2h-1z M121,55h1v2h-1z M123,55h1v2h-1z M126,55h2v17h-2z M13,57h15v1h-15z M34,57h48v1h-48z M13,58h12v1h-12z M36,58h46v1h-46z M103,58h1v2h-1z M105,58h1v2h-1z M121,58h1v2h-1z M123,58h1v2h-1z M13,59h11v1h-11z M37,59h45v1h-45z M13,60h9v1h-9z M38,60h44v2h-44z M13,61h4v1h-4z M125,61h1v13h-1z M13,62h3v1h-3z M38,62h30v1h-30z M73,62h9v1h-9z M101,62h2v11h-2z M124,62h1v13h-1z M13,63h2v1h-2z M38,63h29v3h-29z M74,63h8v1h-8z M103,63h1v9h-1z M123,63h1v11h-1z M13,64h1v5h-1z M75,64h7v1h-7z M104,64h1v7h-1z M122,64h1v9h-1z M76,65h6v1h-6z M105,65h1v6h-1z M121,65h1v8h-1z M38,66h28v2h-28z M77,66h5v1h-5z M120,66h1v3h-1z M78,67h4v1h-4z M37,68h28v1h-28z M79,68h3v1h-3z M0,69h11v1h-11z M37,69h27v1h-27z M80,69h2v5h-2z M0,70h10v1h-10z M37,70h26v1h-26z M0,71h9v1h-9z M36,71h2v1h-2z M41,71h21v1h-21z M7,72h2v1h-2z M42,72h2v1h-2z M48,72h14v1h-14z M54,73h6v1h-6z M82,73h18v1h-18z M55,74h4v1h-4z M89,74h10v1h-10z M96,75h2v1h-2z" /><path fill="#D2242C" d="M113,30h1v5h-1z" /><path fill="#FC7B73" d="M111,41h1v1h-1z M105,44h1v1h-1z M109,47h1v1h-1z M112,35h1v2h-1z M111,39h2v2h-2z M110,40h1v4h-1z M109,41h1v4h-1z M107,42h2v3h-2z M106,43h1v2h-1z M109,52h1v2h-1z M106,71h1v3h-1z M105,74h1v8h-1z M104,93h1v12h-1z M103,103h1v2h-1z" /><path fill="#F63133" d="M110,44h1v1h-1z M119,44h1v1h-1z M104,45h1v1h-1z M115,53h1v1h-1z M105,57h1v1h-1z M105,60h1v1h-1z M113,35h1v2h-1z M112,38h2v1h-2z M113,39h2v6h-2z M115,40h1v5h-1z M112,41h1v4h-1z M116,41h1v4h-1z M111,42h1v3h-1z M117,43h2v2h-2z M106,47h3v1h-3z M110,47h5v1h-5z M106,48h1v6h-1z M107,52h2v2h-2z M110,52h5v2h-5z M102,54h4v1h-4z M116,54h5v1h-5z M101,55h1v6h-1z M104,55h1v6h-1z M106,55h2v2h-2z M109,55h3v2h-3z M113,55h2v2h-2z M116,55h1v5h-1z M102,57h2v1h-2z M117,57h4v1h-4z M106,58h2v2h-2z M109,58h3v2h-3z M113,58h2v2h-2z M102,60h2v1h-2z M107,71h8v11h-8z M106,74h1v8h-1z M115,78h1v4h-1z M105,93h11v12h-11z M116,103h1v2h-1z" /><path fill="#A71238" d="M113,37h1v1h-1z M115,39h1v1h-1z M116,40h1v1h-1z M117,41h1v1h-1z M122,45h1v1h-1z M121,57h1v1h-1z M123,57h1v1h-1z M116,60h1v1h-1z M121,60h1v1h-1z M123,60h1v1h-1z M114,35h1v3h-1z M118,42h2v1h-2z M119,43h2v1h-2z M120,44h2v3h-2z M105,45h15v2h-15z M115,47h6v1h-6z M115,48h1v5h-1z M120,48h1v6h-1z M116,52h4v2h-4z M106,54h10v1h-10z M121,54h4v1h-4z M108,55h1v6h-1z M112,55h1v6h-1z M115,55h1v6h-1z M117,55h4v2h-4z M122,55h1v6h-1z M124,55h2v6h-2z M106,57h2v1h-2z M109,57h3v1h-3z M113,57h2v1h-2z M117,58h4v3h-4z M106,60h2v1h-2z M109,60h3v1h-3z M113,60h2v1h-2z M115,71h6v7h-6z M116,78h5v4h-5z M121,79h1v3h-1z M116,93h6v10h-6z M122,98h1v7h-1z M117,103h5v2h-5z" /><path fill="#DA404E" d="M112,37h1v1h-1z M117,42h1v1h-1z M102,58h1v2h-1z" /><path fill="#BF303F" d="M114,38h1v1h-1z" /><path fill="#5682A4" d="M117,50h1v1h-1z M107,48h1v4h-1z M112,48h1v4h-1z M109,50h2v1h-2z" /><path fill="#C4DCDD" d="M117,49h1v1h-1z M108,48h1v4h-1z M113,48h2v4h-2z M118,48h1v4h-1z M109,49h2v1h-2z" /><path fill="#4D6D7E" d="M117,51h1v1h-1z M109,48h3v1h-3z M116,48h2v1h-2z M119,48h1v4h-1z M111,49h1v3h-1z M116,49h1v3h-1z M109,51h2v1h-2z" /><path fill="#FFFEF1" d="M23,64h1v1h-1z M35,73h1v1h-1z M37,74h1v1h-1z M72,74h1v1h-1z M40,75h1v1h-1z M43,78h1v1h-1z M55,80h1v1h-1z M102,80h1v1h-1z M73,83h1v1h-1z M50,88h1v1h-1z M61,88h1v1h-1z M92,91h1v1h-1z M103,92h1v1h-1z M28,57h6v15h-6z M25,58h3v8h-3z M34,58h2v15h-2z M24,59h1v7h-1z M36,59h1v12h-1z M22,60h2v4h-2z M37,60h1v8h-1z M17,61h5v6h-5z M16,62h1v8h-1z M68,62h5v10h-5z M15,63h1v8h-1z M67,63h1v14h-1z M73,63h1v13h-1z M14,64h1v7h-1z M74,64h1v12h-1z M75,65h1v11h-1z M27,66h1v8h-1z M66,66h1v11h-1z M76,66h1v10h-1z M17,67h4v1h-4z M26,67h1v6h-1z M77,67h1v10h-1z M17,68h3v1h-3z M25,68h1v3h-1z M65,68h1v8h-1z M78,68h1v9h-1z M11,69h3v7h-3z M17,69h2v1h-2z M64,69h1v6h-1z M79,69h1v7h-1z M10,70h1v7h-1z M63,70h1v6h-1z M9,71h1v5h-1z M38,71h3v4h-3z M62,71h1v5h-1z M104,71h2v3h-2z M1,72h6v6h-6z M14,72h1v3h-1z M28,72h5v2h-5z M36,72h2v2h-2z M41,72h1v5h-1z M44,72h4v7h-4z M68,72h1v6h-1z M70,72h3v1h-3z M103,72h1v9h-1z M127,72h1v6h-1z M0,73h1v5h-1z M7,73h1v4h-1z M42,73h2v5h-2z M48,73h1v7h-1z M50,73h4v8h-4z M60,73h1v4h-1z M71,73h2v1h-2z M100,73h3v5h-3z M121,73h2v6h-2z M126,73h1v6h-1z M8,74h1v3h-1z M29,74h3v1h-3z M49,74h1v7h-1z M54,74h1v7h-1z M59,74h1v4h-1z M61,74h1v2h-1z M69,74h1v4h-1z M80,74h9v1h-9z M99,74h1v3h-1z M104,74h1v8h-1z M123,74h1v7h-1z M125,74h1v6h-1z M55,75h2v5h-2z M58,75h1v3h-1z M70,75h1v3h-1z M81,75h9v2h-9z M91,75h5v2h-5z M98,75h1v2h-1z M124,75h1v5h-1z M11,76h2v1h-2z M57,76h1v3h-1z M71,76h1v2h-1z M90,76h1v4h-1z M96,76h2v2h-2z M17,77h9v5h-9z M72,77h2v1h-2z M82,77h8v1h-8z M91,77h4v3h-4z M1,78h5v1h-5z M14,78h3v7h-3z M26,78h2v12h-2z M83,78h7v1h-7z M101,78h2v2h-2z M2,79h2v1h-2z M13,79h1v6h-1z M28,79h1v11h-1z M45,79h3v1h-3z M85,79h5v1h-5z M122,79h1v2h-1z M12,80h1v4h-1z M29,80h1v9h-1z M61,80h10v6h-10z M11,81h1v2h-1z M30,81h1v7h-1z M60,81h1v9h-1z M71,81h1v5h-1z M17,82h7v1h-7z M25,82h1v7h-1z M31,82h1v6h-1z M59,82h1v8h-1z M72,82h1v3h-1z M17,83h6v1h-6z M24,83h1v6h-1z M32,83h7v4h-7z M58,83h1v7h-1z M17,84h4v1h-4z M23,84h1v4h-1z M39,84h1v2h-1z M57,84h1v7h-1z M93,84h4v8h-4z M15,85h2v1h-2z M22,85h1v2h-1z M54,85h3v6h-3z M90,85h3v6h-3z M97,85h3v7h-3z M101,85h3v7h-3z M52,86h2v5h-2z M61,86h6v1h-6z M89,86h1v4h-1z M100,86h1v6h-1z M104,86h1v2h-1z M32,87h5v1h-5z M51,87h1v3h-1z M61,87h2v1h-2z" /><path fill="#686877" d="M105,64h1v1h-1z M120,65h1v1h-1z M101,61h24v1h-24z M103,62h21v1h-21z M104,63h19v1h-19z M120,64h2v1h-2z M111,65h3v3h-3z" /><path fill="#B0DBEA" d="M16,77h1v1h-1z M28,78h1v1h-1z M31,81h1v1h-1z M24,82h1v1h-1z M58,82h1v1h-1z M73,82h1v1h-1z M23,83h1v1h-1z M39,83h1v1h-1z M97,84h1v1h-1z M22,64h1v13h-1z M23,65h1v12h-1z M24,66h3v1h-3z M21,67h1v10h-1z M24,67h2v1h-2z M20,68h1v9h-1z M24,68h1v9h-1z M19,69h1v8h-1z M16,70h3v7h-3z M14,71h2v1h-2z M25,71h1v6h-1z M15,72h1v6h-1z M33,72h1v11h-1z M69,72h1v2h-1z M26,73h1v5h-1z M34,73h1v10h-1z M70,73h1v2h-1z M27,74h2v4h-2z M32,74h1v9h-1z M35,74h2v9h-2z M71,74h1v2h-1z M14,75h1v3h-1z M29,75h3v5h-3z M37,75h3v8h-3z M64,75h1v5h-1z M72,75h1v2h-1z M80,75h1v21h-1z M9,76h1v20h-1z M13,76h1v3h-1z M40,76h1v20h-1z M61,76h3v4h-3z M65,76h1v4h-1z M73,76h4v1h-4z M79,76h1v20h-1z M7,77h2v19h-2z M10,77h3v3h-3z M41,77h1v19h-1z M60,77h1v4h-1z M66,77h2v3h-2z M74,77h5v19h-5z M81,77h1v19h-1z M95,77h1v7h-1z M98,77h2v8h-2z M0,78h1v18h-1z M6,78h1v18h-1z M42,78h1v18h-1z M58,78h2v4h-2z M68,78h6v2h-6z M82,78h1v18h-1z M96,78h2v6h-2z M100,78h1v8h-1z M127,78h1v18h-1z M1,79h1v17h-1z M4,79h2v17h-2z M43,79h2v17h-2z M57,79h1v5h-1z M83,79h2v17h-2z M126,79h1v17h-1z M2,80h2v16h-2z M10,80h2v1h-2z M30,80h2v1h-2z M45,80h4v16h-4z M56,80h1v5h-1z M71,80h3v1h-3z M85,80h10v4h-10z M101,80h1v5h-1z M124,80h2v16h-2z M10,81h1v15h-1z M49,81h7v4h-7z M72,81h2v1h-2z M102,81h2v4h-2z M122,81h2v15h-2z M104,82h1v4h-1z M11,83h1v13h-1z M12,84h1v12h-1z M21,84h2v1h-2z M73,84h1v12h-1z M85,84h8v1h-8z M121,84h1v4h-1z M13,85h2v11h-2z M17,85h5v11h-5z M49,85h5v1h-5z M72,85h1v11h-1z M85,85h5v1h-5z M15,86h2v10h-2z M39,86h1v10h-1z M49,86h3v1h-3z M67,86h5v10h-5z M85,86h4v10h-4z M22,87h1v9h-1z M37,87h2v9h-2z M49,87h2v1h-2z M63,87h4v9h-4z M23,88h1v8h-1z M30,88h7v8h-7z M49,88h1v8h-1z M62,88h1v8h-1z M24,89h2v7h-2z M29,89h1v7h-1z M50,89h1v7h-1z M61,89h1v7h-1z M26,90h3v6h-3z M51,90h1v6h-1z M58,90h3v6h-3z M89,90h1v6h-1z M52,91h6v5h-6z M90,91h2v5h-2z M92,92h11v4h-11z M103,93h1v3h-1z" /><path fill="#E1ECF6" d="M106,64h3v1h-3z M106,65h1v6h-1z M109,65h2v1h-2z M114,65h1v6h-1z M110,66h1v5h-1z M111,68h3v3h-3z M105,82h1v11h-1z M110,82h6v3h-6z M110,85h1v8h-1z M114,85h2v8h-2z M104,88h1v5h-1z M111,89h3v4h-3z M103,105h2v9h-2z M109,105h8v9h-8z M108,111h1v5h-1z M109,114h6v1h-6z M109,115h3v1h-3z" /><path fill="#8A92A6" d="M109,64h11v1h-11z M115,65h5v6h-5z M120,69h1v2h-1z M116,82h6v2h-6z M116,84h5v9h-5z M121,88h1v5h-1z M117,105h6v4h-6z M117,109h5v2h-5z M117,111h4v1h-4z M117,112h2v1h-2z" /><path fill="#FCFBFA" d="M107,65h2v6h-2z M109,66h1v5h-1z M106,82h4v11h-4z M105,105h4v6h-4z M105,111h3v3h-3z M106,114h2v1h-2z" /><path fill="#8A898E" d="M111,85h3v4h-3z" /><path fill="#0468A3" d="M123,107h1v1h-1z M65,112h1v1h-1z M0,96h104v4h-104z M122,96h6v2h-6z M123,98h5v2h-5z M0,100h47v2h-47z M93,100h11v2h-11z M47,101h46v1h-46z M123,101h5v2h-5z M28,102h7v2h-7z M52,102h5v2h-5z M98,102h6v1h-6z M0,103h28v1h-28z M35,103h17v1h-17z M57,103h43v3h-43z M54,104h3v2h-3z M100,104h3v2h-3z M0,105h54v1h-54z M0,107h23v1h-23z M32,107h31v1h-31z M68,107h35v1h-35z M0,108h9v1h-9z M12,108h20v1h-20z M0,109h2v2h-2z M23,109h3v2h-3z M36,109h40v1h-40z M81,109h14v1h-14z M99,109h4v2h-4z M2,110h21v1h-21z M26,110h30v1h-30z M61,110h17v1h-17z M91,110h8v1h-8z M15,112h39v1h-39z M71,112h23v1h-23z" /><path fill="#139BB9" d="M123,108h1v1h-1z M56,116h1v1h-1z M47,100h46v1h-46z M123,100h5v1h-5z M0,102h28v1h-28z M35,102h17v1h-17z M57,102h41v1h-41z M100,103h3v1h-3z M123,103h5v1h-5z M0,104h54v1h-54z M123,104h4v1h-4z M123,105h3v1h-3z M4,106h99v1h-99z M123,106h2v1h-2z M23,107h9v1h-9z M32,108h8v1h-8z M43,108h36v1h-36z M82,108h21v1h-21z M2,109h17v1h-17z M26,109h6v1h-6z M76,109h5v1h-5z M78,110h13v1h-13z M0,111h3v3h-3z M7,111h34v1h-34z M45,111h37v1h-37z M90,111h13v1h-13z M3,112h12v1h-12z M54,112h11v2h-11z M94,112h6v2h-6z M3,113h8v1h-8z M17,113h12v1h-12z M34,113h13v1h-13z M51,113h3v6h-3z M65,113h12v1h-12z M81,113h13v1h-13z M100,113h3v1h-3z M36,114h15v2h-15z M54,114h2v3h-2z M74,114h2v1h-2z M82,114h7v1h-7z M3,115h33v1h-33z M56,115h19v1h-19z M89,115h8v1h-8z M0,116h19v1h-19z M25,116h10v2h-10z M48,116h3v3h-3z M61,116h13v1h-13z M12,117h5v2h-5z M22,117h3v2h-3z M35,117h2v1h-2z M44,117h4v1h-4z M54,117h1v2h-1z M0,118h12v1h-12z M17,118h5v1h-5z M25,118h4v1h-4z M45,118h3v1h-3z M55,118h18v1h-18z M20,120h40v1h-40z M0,121h11v1h-11z M65,121h8v2h-8z M16,122h16v1h-16z M50,122h15v1h-15z M0,123h11v2h-11z M15,123h4v2h-4z M11,124h4v1h-4z M19,124h28v1h-28z M39,126h32v1h-32z M5,127h29v1h-29z" /><path fill="#D4B495" d="M122,112h1v1h-1z M81,114h1v1h-1z M77,115h1v1h-1z M78,118h1v1h-1z M77,119h1v1h-1z M87,119h1v1h-1z M76,120h1v1h-1z M90,123h1v1h-1z M111,125h1v1h-1z M122,127h1v1h-1z M127,104h1v3h-1z M126,105h1v3h-1z M125,106h1v6h-1z M124,107h1v5h-1z M122,109h2v3h-2z M126,109h2v2h-2z M121,111h1v2h-1z M119,112h2v2h-2z M77,113h4v2h-4z M117,113h2v1h-2z M127,113h1v2h-1z M76,114h1v3h-1z M100,114h6v1h-6z M124,114h3v1h-3z M75,115h1v3h-1z M84,115h5v1h-5z M97,115h7v1h-7z M117,115h2v1h-2z M125,115h2v1h-2z M74,116h1v3h-1z M80,116h8v1h-8z M95,116h1v4h-1z M116,116h2v1h-2z M121,116h3v1h-3z M73,117h1v2h-1z M79,117h8v1h-8z M115,117h2v1h-2z M120,117h3v1h-3z M87,118h4v1h-4z M94,118h1v3h-1z M118,118h4v1h-4z M90,119h4v3h-4z M116,119h5v1h-5z M85,120h2v3h-2z M112,120h7v1h-7z M75,121h1v4h-1z M84,121h1v6h-1z M89,121h1v4h-1z M106,121h2v1h-2z M112,121h4v1h-4z M127,121h1v5h-1z M88,122h1v4h-1z M90,122h2v1h-2z M103,122h4v1h-4z M113,122h2v1h-2z M126,122h1v4h-1z M73,123h2v3h-2z M85,123h1v4h-1z M87,123h1v3h-1z M100,123h4v1h-4z M113,123h1v2h-1z M125,123h1v4h-1z M72,124h1v2h-1z M86,124h1v2h-1z M97,124h4v1h-4z M112,124h1v2h-1z M124,124h1v3h-1z M71,125h1v3h-1z M83,125h1v2h-1z M123,125h1v2h-1z M82,126h1v2h-1z M79,127h3v1h-3z" /><path fill="#50DFD7" d="M0,106h4v1h-4z M63,107h5v1h-5z M40,108h3v1h-3z M79,108h3v1h-3z M19,109h4v1h-4z M32,109h4v1h-4z M95,109h4v1h-4z M3,111h4v1h-4z M41,111h4v1h-4z M66,112h5v1h-5z M100,112h3v1h-3z M71,114h3v1h-3z M0,115h3v1h-3z M57,116h4v1h-4z M17,117h5v1h-5z M37,117h7v1h-7z M5,119h5v1h-5z" /><path fill="#8A6D55" d="M126,108h1v1h-1z M126,113h1v1h-1z M87,117h1v1h-1z M119,117h1v1h-1z M125,118h1v1h-1z M121,119h1v1h-1z M124,119h1v1h-1z M88,121h1v1h-1z M72,123h1v1h-1z M86,123h1v1h-1z M77,124h1v1h-1z M75,125h1v1h-1z M82,125h1v1h-1z M81,126h1v1h-1z M99,126h1v1h-1z M115,126h1v1h-1z M97,127h1v1h-1z M101,127h1v1h-1z M127,107h1v2h-1z M126,111h2v2h-2z M123,112h3v2h-3z M121,113h2v3h-2z M115,114h6v1h-6z M123,114h1v2h-1z M78,115h6v1h-6z M104,115h4v1h-4z M112,115h5v1h-5z M119,115h2v2h-2z M124,115h1v2h-1z M127,115h1v3h-1z M77,116h3v1h-3z M88,116h7v2h-7z M96,116h7v1h-7z M108,116h8v1h-8z M118,116h1v2h-1z M125,116h2v1h-2z M76,117h3v1h-3z M96,117h6v1h-6z M103,117h6v1h-6z M112,117h3v1h-3z M117,117h1v2h-1z M126,117h1v2h-1z M75,118h3v1h-3z M81,118h6v1h-6z M91,118h3v1h-3z M96,118h5v1h-5z M104,118h2v1h-2z M115,118h2v1h-2z M73,119h4v1h-4z M88,119h2v2h-2z M96,119h4v1h-4z M107,119h3v1h-3z M113,119h3v1h-3z M73,120h3v1h-3z M87,120h1v3h-1z M95,120h3v1h-3z M105,120h3v1h-3z M119,120h2v1h-2z M73,121h2v2h-2z M79,121h3v1h-3z M102,121h4v1h-4z M111,121h1v4h-1z M116,121h4v1h-4z M122,121h3v1h-3z M78,122h3v2h-3z M100,122h3v1h-3z M110,122h1v2h-1z M112,122h1v2h-1z M115,122h3v2h-3z M121,122h3v1h-3z M96,123h4v1h-4z M107,123h3v1h-3z M114,123h1v5h-1z M120,123h3v1h-3z M90,124h1v3h-1z M96,124h1v4h-1z M106,124h1v4h-1z M115,124h2v2h-2z M120,124h2v1h-2z M89,125h1v3h-1z M94,125h2v1h-2z M97,125h2v2h-2z M104,125h2v3h-2z M107,125h1v3h-1z M113,125h1v3h-1z M72,126h3v1h-3z M86,126h3v2h-3z M95,126h1v2h-1z M102,126h2v2h-2z M111,126h2v2h-2z M126,126h2v2h-2z M72,127h2v1h-2z M83,127h3v1h-3z M93,127h2v1h-2z M109,127h2v1h-2z M123,127h3v1h-3z" /><path fill="#77EDD8" d="M9,108h3v1h-3z M56,110h5v1h-5z M82,111h8v1h-8z M11,113h6v1h-6z M29,113h5v1h-5z M47,113h4v1h-4z M61,119h4v1h-4z M60,121h4v1h-4z M44,122h5v1h-5z M11,123h4v1h-4z M29,123h7v1h-7z M60,124h7v1h-7z M2,125h3v1h-3z M22,125h2v1h-2z M51,125h4v1h-4z" /><path fill="#34C8D0" d="M64,121h1v1h-1z M50,125h1v1h-1z M0,114h36v1h-36z M56,114h15v1h-15z M89,114h11v1h-11z M19,116h6v1h-6z M35,116h13v1h-13z M0,117h12v1h-12z M55,117h18v1h-18z M29,118h16v2h-16z M0,119h5v2h-5z M10,119h19v1h-19z M45,119h16v1h-16z M65,119h8v2h-8z M5,120h15v1h-15z M60,120h5v1h-5z M11,121h49v1h-49z M0,122h16v1h-16z M32,122h12v1h-12z M49,122h1v4h-1z M19,123h10v1h-10z M36,123h13v1h-13z M50,123h22v1h-22z M47,124h2v2h-2z M50,124h10v1h-10z M67,124h5v1h-5z M0,125h2v3h-2z M5,125h17v2h-17z M24,125h23v1h-23z M55,125h16v1h-16z M2,126h3v2h-3z M22,126h17v1h-17z M34,127h37v1h-37z" /><path fill="#423833" d="M104,120h1v1h-1z M124,120h1v1h-1z M94,126h1v1h-1z M74,127h1v1h-1z M78,127h1v1h-1z M90,127h1v1h-1z M92,127h1v1h-1z M108,127h1v1h-1z M115,127h1v1h-1z M103,116h5v1h-5z M102,117h1v4h-1z M109,117h3v2h-3z M123,117h3v1h-3z M79,118h2v3h-2z M101,118h1v4h-1z M103,118h1v3h-1z M106,118h3v1h-3z M112,118h3v1h-3z M122,118h3v1h-3z M127,118h1v3h-1z M78,119h1v3h-1z M81,119h6v1h-6z M100,119h1v3h-1z M104,119h3v1h-3z M110,119h3v1h-3z M122,119h2v2h-2z M125,119h2v3h-2z M77,120h1v4h-1z M81,120h4v1h-4z M98,120h2v3h-2z M108,120h4v1h-4z M121,120h1v2h-1z M76,121h1v7h-1z M82,121h2v4h-2z M94,121h4v2h-4z M108,121h3v1h-3z M120,121h1v2h-1z M81,122h1v4h-1z M92,122h2v5h-2z M107,122h3v1h-3z M118,122h2v6h-2z M124,122h2v1h-2z M91,123h1v5h-1z M94,123h2v2h-2z M104,123h3v1h-3z M123,123h2v1h-2z M78,124h3v3h-3z M101,124h5v1h-5z M107,124h4v1h-4z M117,124h1v4h-1z M122,124h2v1h-2z M77,125h1v3h-1z M99,125h5v1h-5z M108,125h3v2h-3z M120,125h3v2h-3z M75,126h1v2h-1z M100,126h2v1h-2z M116,126h1v2h-1z M98,127h3v1h-3z M120,127h2v1h-2z" /></svg>