<svg xmlns="http://www.w3.org/2000/svg" version="1.1" width="128" height="128" shape-rendering="crispEdges"><path fill="#7699AF" d="M22,6h1v1h-1z M17,7h1v1h-1z M29,9h1v1h-1z M31,11h1v1h-1z M0,18h1v1h-1z M32,19h1v1h-1z M126,26h1v1h-1z M50,27h1v1h-1z M115,28h1v1h-1z M52,35h1v1h-1z M57,39h1v1h-1z M89,49h1v1h-1z M117,55h1v1h-1z M58,67h1v1h-1z M65,77h1v1h-1z M69,77h1v1h-1z M81,77h1v1h-1z M121,77h1v1h-1z M73,78h1v1h-1z M0,0h16v9h-16z M23,0h7v7h-7z M66,0h62v1h-62z M16,1h1v8h-1z M21,1h2v5h-2z M30,1h2v10h-2z M67,1h61v1h-61z M17,2h4v4h-4z M32,2h2v13h-2z M83,2h45v2h-45z M34,3h1v14h-1z M69,3h14v1h-14z M35,4h1v13h-1z M94,4h34v2h-34z M36,5h27v1h-27z M68,5h26v5h-26z M17,6h2v1h-2z M36,6h1v11h-1z M67,6h1v3h-1z M94,6h7v4h-7z M102,6h26v4h-26z M25,7h5v1h-5z M37,7h12v1h-12z M28,8h2v1h-2z M37,8h1v9h-1z M0,9h15v1h-15z M0,10h14v1h-14z M70,10h30v1h-30z M103,10h25v6h-25z M0,11h11v1h-11z M71,11h30v1h-30z M102,11h1v4h-1z M72,12h29v2h-29z M0,13h8v1h-8z M40,13h7v1h-7z M0,14h7v1h-7z M38,14h1v3h-1z M41,14h10v3h-10z M72,14h23v1h-23z M98,14h3v1h-3z M33,15h1v2h-1z M39,15h2v2h-2z M51,15h1v15h-1z M72,15h18v1h-18z M0,16h5v1h-5z M73,16h16v1h-16z M105,16h23v1h-23z M0,17h2v1h-2z M47,17h4v9h-4z M72,17h10v4h-10z M106,17h22v1h-22z M33,18h14v3h-14z M52,18h17v1h-17z M71,18h1v2h-1z M82,18h5v1h-5z M127,18h1v10h-1z M52,19h2v13h-2z M82,19h4v3h-4z M109,19h18v1h-18z M54,20h1v16h-1z M110,20h17v2h-17z M35,21h12v1h-12z M72,21h2v1h-2z M77,21h5v1h-5z M36,22h11v2h-11z M55,22h1v15h-1z M80,22h5v1h-5z M124,22h3v4h-3z M81,23h4v1h-4z M116,23h8v2h-8z M37,24h10v1h-10z M82,24h4v1h-4z M112,24h4v1h-4z M39,25h3v1h-3z M83,25h3v2h-3z M87,25h3v1h-3z M113,25h6v1h-6z M49,26h2v1h-2z M56,26h1v4h-1z M86,26h2v1h-2z M113,26h5v1h-5z M57,27h1v2h-1z M84,27h3v1h-3z M114,27h3v1h-3z M69,28h3v12h-3z M85,28h2v1h-2z M67,29h2v11h-2z M72,29h2v12h-2z M66,30h1v10h-1z M74,30h1v11h-1z M56,31h2v8h-2z M63,31h3v8h-3z M75,31h1v10h-1z M53,32h1v4h-1z M58,32h1v7h-1z M60,32h3v7h-3z M76,32h1v9h-1z M59,33h1v6h-1z M77,33h2v8h-2z M79,34h1v7h-1z M80,36h1v4h-1z M70,40h2v1h-2z M86,40h5v1h-5z M90,41h2v9h-2z M113,41h4v15h-4z M72,42h9v1h-9z M85,42h5v7h-5z M117,42h1v10h-1z M73,43h8v1h-8z M84,43h1v6h-1z M112,43h1v12h-1z M118,43h4v1h-4z M74,44h7v1h-7z M83,44h1v5h-1z M118,44h2v4h-2z M76,45h7v1h-7z M120,45h6v1h-6z M79,46h4v1h-4z M127,46h1v7h-1z M80,47h3v2h-3z M124,47h3v5h-3z M118,48h1v4h-1z M122,48h2v4h-2z M81,49h2v1h-2z M119,49h3v3h-3z M91,50h1v2h-1z M117,53h4v1h-4z M117,54h3v1h-3z M113,56h3v1h-3z M18,64h3v14h-3z M11,65h7v1h-7z M33,65h1v2h-1z M17,66h1v14h-1z M21,66h4v12h-4z M30,66h1v11h-1z M25,67h2v11h-2z M29,67h1v10h-1z M8,68h9v7h-9z M27,68h1v12h-1z M28,70h1v8h-1z M67,70h4v5h-4z M92,70h1v8h-1z M111,70h1v13h-1z M64,71h3v6h-3z M71,71h16v1h-16z M91,71h1v7h-1z M112,71h1v14h-1z M114,71h4v12h-4z M71,72h10v4h-10z M113,72h1v12h-1z M118,72h7v1h-7z M86,73h5v3h-5z M118,73h2v11h-2z M62,74h2v1h-2z M81,74h5v3h-5z M120,74h1v9h-1z M122,74h3v1h-3z M9,75h1v5h-1z M11,75h6v3h-6z M62,75h1v3h-1z M68,75h3v1h-3z M121,75h3v1h-3z M69,76h2v1h-2z M72,76h2v2h-2z M75,76h4v1h-4z M80,76h1v2h-1z M87,76h3v2h-3z M121,76h2v1h-2z M77,77h2v1h-2z M83,77h2v2h-2z M11,78h2v2h-2z M14,78h2v2h-2z M18,78h1v2h-1z M20,78h3v1h-3z M24,78h1v2h-1z M76,78h2v1h-2z M87,78h2v2h-2z M20,79h2v1h-2z M116,83h2v1h-2z M119,84h1v2h-1z" /><path fill="#A2C0C2" d="M40,14h1v1h-1z M51,14h1v1h-1z M72,28h1v1h-1z M74,29h1v1h-1z M96,29h1v1h-1z M56,30h1v1h-1z M59,32h1v1h-1z M77,32h1v1h-1z M80,40h1v1h-1z M91,40h1v1h-1z M16,0h7v1h-7z M30,0h13v1h-13z M17,1h4v1h-4z M32,1h11v1h-11z M34,2h8v1h-8z M35,3h8v1h-8z M36,4h8v1h-8z M40,6h5v1h-5z M42,8h12v3h-12z M54,9h3v2h-3z M41,10h1v3h-1z M57,10h2v1h-2z M38,11h1v3h-1z M40,11h1v2h-1z M42,11h10v2h-10z M39,12h1v3h-1z M52,12h10v6h-10z M47,13h5v1h-5z M62,13h3v5h-3z M65,15h1v3h-1z M95,18h2v11h-2z M54,19h12v1h-12z M92,19h3v9h-3z M98,19h1v2h-1z M55,20h11v2h-11z M91,20h1v7h-1z M97,20h1v3h-1z M86,21h1v5h-1z M88,21h3v4h-3z M56,22h10v4h-10z M85,22h1v2h-1z M87,22h1v3h-1z M105,22h19v1h-19z M73,23h2v6h-2z M106,23h10v1h-10z M66,24h1v6h-1z M70,24h3v4h-3z M75,24h3v7h-3z M106,24h6v6h-6z M67,25h3v3h-3z M78,25h1v8h-1z M90,25h1v2h-1z M112,25h1v18h-1z M57,26h9v1h-9z M79,26h1v8h-1z M88,26h2v2h-2z M58,27h8v4h-8z M80,27h1v9h-1z M87,27h1v13h-1z M113,27h1v5h-1z M67,28h2v1h-2z M81,28h1v13h-1z M88,28h1v12h-1z M114,28h1v4h-1z M57,29h1v2h-1z M85,29h2v4h-2z M115,29h1v3h-1z M82,30h1v11h-1z M107,30h5v2h-5z M116,30h1v2h-1z M58,31h5v1h-5z M76,31h2v1h-2z M119,31h3v1h-3z M83,32h1v9h-1z M108,32h4v2h-4z M127,32h1v14h-1z M86,33h1v7h-1z M89,33h1v7h-1z M113,33h9v8h-9z M124,33h3v12h-3z M90,34h4v1h-4z M109,34h3v1h-3z M122,34h2v11h-2z M85,35h1v6h-1z M90,35h3v4h-3z M111,35h1v4h-1z M84,36h1v5h-1z M90,39h2v1h-2z M117,41h5v1h-5z M81,42h4v1h-4z M118,42h4v1h-4z M81,43h3v1h-3z M81,44h2v1h-2z M120,44h2v1h-2z M126,45h1v2h-1z M120,46h6v1h-6z M120,47h4v1h-4z M119,48h3v1h-3z" /><path fill="#C1D8C1" d="M42,2h1v1h-1z M67,5h1v1h-1z M39,11h1v1h-1z M62,12h1v1h-1z M72,16h1v1h-1z M97,19h1v1h-1z M90,20h1v1h-1z M87,21h1v1h-1z M72,23h1v1h-1z M79,25h1v1h-1z M43,0h23v4h-23z M66,1h1v17h-1z M67,2h16v1h-16z M67,3h2v2h-2z M44,4h22v1h-22z M69,4h25v1h-25z M63,5h3v8h-3z M37,6h3v1h-3z M45,6h18v1h-18z M49,7h14v1h-14z M38,8h4v2h-4z M54,8h9v1h-9z M57,9h6v1h-6z M67,9h1v9h-1z M38,10h3v1h-3z M59,10h4v2h-4z M68,10h2v8h-2z M52,11h7v1h-7z M70,11h1v13h-1z M71,12h1v6h-1z M65,13h1v2h-1z M95,14h3v4h-3z M90,15h5v4h-5z M98,15h2v3h-2z M89,16h1v5h-1z M103,16h2v2h-2z M82,17h7v1h-7z M105,17h1v5h-1z M69,18h1v7h-1z M87,18h2v3h-2z M97,18h2v1h-2z M104,18h1v2h-1z M106,18h21v1h-21z M66,19h3v5h-3z M86,19h1v2h-1z M90,19h2v1h-2z M106,19h3v3h-3z M71,20h1v4h-1z M109,20h1v2h-1z M74,21h3v2h-3z M72,22h2v1h-2z M77,22h3v2h-3z M75,23h2v1h-2z M80,23h1v4h-1z M67,24h2v1h-2z M78,24h2v1h-2z M81,24h1v4h-1z M82,25h1v5h-1z M119,25h5v6h-5z M118,26h1v7h-1z M124,26h2v7h-2z M83,27h1v5h-1z M90,27h2v7h-2z M117,27h1v6h-1z M126,27h1v6h-1z M84,28h1v8h-1z M89,28h1v5h-1z M92,28h3v6h-3z M116,28h1v2h-1z M127,28h1v4h-1z M95,29h1v3h-1z M122,31h2v3h-2z M113,32h4v1h-4z M119,32h3v1h-3z M85,33h1v2h-1z" /><path fill="#56718E" d="M15,36h1v1h-1z M5,43h1v1h-1z M71,51h1v1h-1z M77,55h1v1h-1z M115,61h1v1h-1z M117,62h1v1h-1z M19,6h3v29h-3z M18,7h1v29h-1z M22,7h3v31h-3z M17,8h1v28h-1z M25,8h3v30h-3z M15,9h2v27h-2z M28,9h1v29h-1z M14,10h1v28h-1z M29,10h1v28h-1z M11,11h3v26h-3z M30,11h1v27h-1z M0,12h11v1h-11z M31,12h1v26h-1z M8,13h3v24h-3z M7,14h1v25h-1z M0,15h7v1h-7z M32,15h1v4h-1z M5,16h2v23h-2z M2,17h3v22h-3z M33,17h14v1h-14z M1,18h1v21h-1z M0,19h1v20h-1z M32,20h1v18h-1z M33,21h2v17h-2z M35,22h1v16h-1z M36,24h1v14h-1z M37,25h2v13h-2z M42,25h5v13h-5z M39,26h3v12h-3z M47,26h2v14h-2z M49,27h1v19h-1z M50,28h1v18h-1z M51,30h1v16h-1z M52,32h1v3h-1z M20,35h2v1h-2z M52,36h3v10h-3z M8,37h2v1h-2z M12,37h2v1h-2z M55,37h1v9h-1z M43,38h4v2h-4z M24,39h19v1h-19z M56,39h1v7h-1z M58,39h8v10h-8z M0,40h7v1h-7z M57,40h1v6h-1z M66,40h4v9h-4z M3,41h3v1h-3z M25,41h24v1h-24z M70,41h20v1h-20z M4,42h2v1h-2z M29,42h20v1h-20z M70,42h2v9h-2z M32,43h17v1h-17z M72,43h1v9h-1z M33,44h16v1h-16z M73,44h1v8h-1z M38,45h11v1h-11z M74,45h2v7h-2z M76,46h3v6h-3z M39,47h19v1h-19z M79,47h1v11h-1z M40,48h2v1h-2z M52,48h6v1h-6z M55,49h3v1h-3z M67,49h3v1h-3z M80,49h1v9h-1z M83,49h6v8h-6z M81,50h2v8h-2z M89,50h2v8h-2z M78,52h1v5h-1z M91,52h1v7h-1z M117,52h10v1h-10z M71,53h7v1h-7z M121,53h7v8h-7z M72,54h6v1h-6z M120,54h1v8h-1z M92,55h1v4h-1z M111,55h2v6h-2z M118,55h2v7h-2z M116,56h2v6h-2z M84,57h3v1h-3z M113,57h3v4h-3z M121,61h5v1h-5z" /><path fill="#28314C" d="M101,6h1v1h-1z M101,13h1v1h-1z M93,35h1v1h-1z M52,61h1v1h-1z M46,62h1v1h-1z M32,63h1v1h-1z M38,63h1v1h-1z M61,63h1v1h-1z M53,64h1v1h-1z M49,65h1v1h-1z M35,66h1v1h-1z M60,66h1v1h-1z M63,76h1v1h-1z M71,76h1v1h-1z M74,76h1v1h-1z M79,76h1v1h-1z M64,77h1v1h-1z M66,77h1v1h-1z M68,77h1v1h-1z M70,77h1v1h-1z M82,77h1v1h-1z M85,77h1v1h-1z M19,78h1v1h-1z M25,78h1v1h-1z M74,81h1v1h-1z M16,82h1v1h-1z M82,89h1v1h-1z M90,89h1v1h-1z M9,90h1v1h-1z M11,90h1v1h-1z M15,90h1v1h-1z M34,90h1v1h-1z M40,90h1v1h-1z M66,90h1v1h-1z M55,91h1v1h-1z M103,91h1v1h-1z M48,94h1v1h-1z M54,94h1v1h-1z M70,94h1v1h-1z M56,95h1v1h-1z M91,97h1v1h-1z M0,98h1v1h-1z M29,99h1v1h-1z M52,100h1v1h-1z M58,100h1v1h-1z M83,100h1v1h-1z M21,101h1v1h-1z M79,101h1v1h-1z M100,101h1v1h-1z M83,102h1v1h-1z M119,102h1v1h-1z M104,104h1v1h-1z M0,105h1v1h-1z M2,105h1v1h-1z M28,105h1v1h-1z M30,105h1v1h-1z M32,105h1v1h-1z M127,110h1v1h-1z M62,112h1v1h-1z M87,112h1v1h-1z M60,113h1v1h-1z M0,115h1v1h-1z M8,115h1v1h-1z M55,115h1v1h-1z M111,121h1v1h-1z M100,15h2v1h-2z M100,17h2v1h-2z M99,19h3v1h-3z M98,21h4v1h-4z M96,30h6v1h-6z M95,32h7v1h-7z M94,34h8v2h-8z M0,53h1v5h-1z M2,53h1v5h-1z M4,53h1v5h-1z M6,53h1v5h-1z M67,76h2v1h-2z M30,77h1v2h-1z M16,79h1v2h-1z M111,83h1v2h-1z M114,83h2v8h-2z M120,83h1v14h-1z M113,84h1v5h-1z M116,84h2v5h-2z M112,85h1v12h-1z M118,85h1v6h-1z M119,86h1v6h-1z M117,89h1v2h-1z M113,91h2v1h-2z M113,92h1v5h-1z M114,93h2v1h-2z M119,93h1v4h-1z M26,94h1v2h-1z M114,94h1v2h-1z M3,95h3v1h-3z M8,95h12v1h-12z M21,95h2v1h-2z M27,95h2v1h-2z M33,95h3v1h-3z M45,96h2v1h-2z M48,96h3v1h-3z M52,96h2v1h-2z M58,96h2v1h-2z M61,96h6v1h-6z M68,96h6v1h-6z M75,96h2v1h-2z M78,96h2v1h-2z M90,96h1v2h-1z M0,97h23v1h-23z M26,97h18v1h-18z M83,97h3v1h-3z M87,97h3v1h-3z M97,97h4v1h-4z M16,98h4v1h-4z M21,98h2v1h-2z M25,98h2v1h-2z M28,98h3v1h-3z M48,98h6v1h-6z M57,98h6v1h-6z M74,98h6v1h-6z M117,98h3v1h-3z M19,99h2v1h-2z M22,99h1v4h-1z M26,99h2v1h-2z M50,99h2v1h-2z M53,99h1v3h-1z M57,99h1v3h-1z M59,99h2v1h-2z M76,99h4v1h-4z M83,99h3v1h-3z M97,99h4v1h-4z M20,100h2v1h-2z M26,100h1v2h-1z M78,100h2v1h-2z M99,100h2v1h-2z M104,100h11v1h-11z M116,100h2v1h-2z M104,102h14v1h-14z M122,102h1v3h-1z M124,102h1v3h-1z M121,103h1v2h-1z M126,103h2v2h-2z M107,104h4v1h-4z M113,104h4v1h-4z M58,105h2v1h-2z M95,107h6v2h-6z M57,108h4v1h-4z M68,108h20v1h-20z M93,108h2v1h-2z M101,108h8v1h-8z M0,109h8v1h-8z M26,109h5v1h-5z M35,109h11v1h-11z M49,109h6v1h-6z M61,109h17v1h-17z M83,109h3v4h-3z M94,109h5v1h-5z M124,109h4v1h-4z M5,110h23v1h-23z M49,110h1v4h-1z M57,110h6v2h-6z M64,110h8v3h-8z M75,110h8v3h-8z M86,110h1v3h-1z M97,110h12v1h-12z M0,111h26v1h-26z M30,111h19v1h-19z M50,111h2v1h-2z M63,111h1v2h-1z M72,111h3v2h-3z M87,111h2v1h-2z M103,111h4v2h-4z M116,111h3v1h-3z M5,112h4v3h-4z M10,112h1v4h-1z M12,112h3v4h-3z M19,112h5v1h-5z M41,112h8v4h-8z M50,112h1v2h-1z M53,112h2v2h-2z M99,112h4v1h-4z M107,112h3v1h-3z M125,112h3v1h-3z M2,113h3v2h-3z M9,113h1v3h-1z M11,113h1v3h-1z M15,113h8v3h-8z M26,113h6v1h-6z M35,113h6v1h-6z M51,113h2v1h-2z M55,113h4v1h-4z M64,113h3v1h-3z M100,113h6v2h-6z M1,114h1v2h-1z M31,114h2v1h-2z M37,114h4v4h-4z M57,114h2v1h-2z M70,114h5v2h-5z M106,114h3v1h-3z M122,114h6v1h-6z M23,115h9v1h-9z M33,115h4v1h-4z M51,115h2v1h-2z M59,115h11v1h-11z M75,115h12v1h-12z M96,115h3v1h-3z M125,115h3v1h-3z M5,116h3v6h-3z M35,116h2v1h-2z M46,116h4v2h-4z M98,116h14v1h-14z M0,117h5v1h-5z M8,117h22v1h-22z M36,117h1v4h-1z M41,117h2v1h-2z M44,117h2v1h-2z M50,117h29v1h-29z M105,117h3v1h-3z M123,117h5v1h-5z M2,118h3v5h-3z M9,118h1v8h-1z M11,118h1v6h-1z M15,118h2v6h-2z M19,118h2v4h-2z M26,118h10v4h-10z M49,118h24v1h-24z M95,118h2v2h-2z M0,119h2v4h-2z M17,119h2v5h-2z M21,119h5v1h-5z M37,119h12v1h-12z M59,119h23v1h-23z M97,119h12v1h-12z M117,119h2v1h-2z M121,119h7v2h-7z M8,120h1v6h-1z M10,120h1v6h-1z M12,120h3v4h-3z M21,120h2v2h-2z M37,120h5v1h-5z M64,120h8v1h-8z M97,120h4v1h-4z M108,120h1v6h-1z M23,121h3v1h-3z M101,121h7v2h-7z M5,122h1v3h-1z M26,122h2v1h-2z M39,122h8v3h-8z M69,122h3v4h-3z M98,122h3v1h-3z M4,123h1v2h-1z M6,123h2v2h-2z M19,123h7v3h-7z M33,123h6v2h-6z M47,123h6v3h-6z M61,123h8v3h-8z M72,123h10v1h-10z M103,123h5v3h-5z M109,123h19v1h-19z M0,124h4v1h-4z M18,124h1v4h-1z M26,124h7v1h-7z M53,124h8v2h-8z M72,124h4v2h-4z M95,124h8v1h-8z M125,124h3v2h-3z M11,125h7v1h-7z M40,125h7v1h-7z M76,125h12v2h-12z M109,125h16v1h-16z M15,126h3v2h-3z M19,126h2v2h-2z M30,126h3v2h-3z M47,126h3v2h-3z M64,126h5v2h-5z M74,126h2v2h-2z M88,126h2v1h-2z M0,127h15v1h-15z M21,127h9v1h-9z M33,127h14v1h-14z M50,127h14v1h-14z M69,127h5v1h-5z M76,127h8v1h-8z M95,127h12v1h-12z M112,127h16v1h-16z" /><path fill="#8F4D33" d="M101,7h1v1h-1z M101,9h1v1h-1z M94,43h1v1h-1z M99,44h1v1h-1z M94,49h1v1h-1z M98,49h1v1h-1z M95,62h1v1h-1z M99,62h1v1h-1z M93,64h1v1h-1z M95,71h1v1h-1z M99,71h1v1h-1z M110,71h1v1h-1z M93,73h1v1h-1z M55,79h1v1h-1z M95,80h1v1h-1z M99,80h1v1h-1z M60,82h1v1h-1z M68,82h1v1h-1z M100,82h1v1h-1z M26,83h1v1h-1z M74,83h1v1h-1z M85,83h1v1h-1z M110,83h1v1h-1z M25,86h1v1h-1z M34,87h1v1h-1z M67,87h1v1h-1z M0,88h1v1h-1z M2,88h1v1h-1z M4,88h1v1h-1z M6,88h1v1h-1z M12,88h1v1h-1z M21,88h1v1h-1z M41,88h1v1h-1z M60,89h1v1h-1z M62,89h1v1h-1z M0,90h1v1h-1z M2,90h1v1h-1z M4,90h1v1h-1z M6,90h1v1h-1z M12,90h1v1h-1z M29,90h1v1h-1z M74,90h1v1h-1z M77,90h1v1h-1z M87,90h1v1h-1z M90,90h1v1h-1z M7,91h1v1h-1z M13,91h1v1h-1z M25,91h1v1h-1z M54,91h1v1h-1z M62,91h1v1h-1z M125,91h1v1h-1z M0,93h1v1h-1z M2,93h1v1h-1z M4,93h1v1h-1z M6,93h1v1h-1z M21,93h1v1h-1z M28,94h1v1h-1z M69,94h1v1h-1z M93,95h1v1h-1z M110,95h1v1h-1z M120,98h1v1h-1z M83,103h1v1h-1z M55,109h1v1h-1z M32,115h1v1h-1z M98,24h4v2h-4z M103,24h2v2h-2z M98,27h4v2h-4z M103,27h2v2h-2z M93,37h9v2h-9z M92,39h1v3h-1z M94,40h8v1h-8z M94,42h6v1h-6z M101,42h1v12h-1z M92,43h1v8h-1z M98,43h2v1h-2z M99,48h1v2h-1z M94,51h6v1h-6z M92,52h1v2h-1z M96,52h1v2h-1z M93,53h3v1h-3z M97,53h4v1h-4z M93,56h1v7h-1z M95,56h2v2h-2z M98,56h4v2h-4z M106,56h1v7h-1z M96,58h1v5h-1z M98,58h1v5h-1z M100,58h2v5h-2z M95,64h7v1h-7z M93,66h1v6h-1z M95,66h2v1h-2z M98,66h4v1h-4z M106,66h1v6h-1z M96,67h1v5h-1z M98,67h1v5h-1z M100,67h2v5h-2z M51,71h1v3h-1z M31,72h1v3h-1z M37,72h1v3h-1z M45,72h1v2h-1z M60,72h1v3h-1z M95,73h7v1h-7z M45,75h1v5h-1z M51,75h1v5h-1z M93,75h1v6h-1z M95,75h2v1h-2z M98,75h4v1h-4z M106,75h1v2h-1z M110,75h1v6h-1z M31,76h1v5h-1z M37,76h1v5h-1z M60,76h1v4h-1z M96,76h1v5h-1z M98,76h1v5h-1z M100,76h2v5h-2z M107,77h2v4h-2z M48,78h2v1h-2z M57,78h1v2h-1z M103,79h3v2h-3z M45,81h1v2h-1z M51,81h1v7h-1z M65,81h1v2h-1z M29,82h1v2h-1z M31,82h1v7h-1z M37,82h1v6h-1z M71,82h1v2h-1z M79,82h1v2h-1z M103,82h1v2h-1z M109,82h2v1h-2z M7,83h1v2h-1z M13,83h1v2h-1z M16,83h1v2h-1z M19,83h1v2h-1z M22,83h1v5h-1z M87,83h1v2h-1z M45,84h1v4h-1z M47,84h1v4h-1z M59,84h1v4h-1z M62,84h1v4h-1z M65,84h1v7h-1z M68,84h1v5h-1z M125,84h1v2h-1z M25,85h2v1h-2z M29,85h1v4h-1z M71,85h1v4h-1z M74,85h1v4h-1z M76,85h2v4h-2z M79,85h1v4h-1z M85,85h1v6h-1z M90,85h1v4h-1z M16,86h1v5h-1z M20,86h1v3h-1z M55,86h1v2h-1z M57,86h1v2h-1z M82,86h1v3h-1z M87,86h2v3h-2z M95,86h1v4h-1z M99,86h1v7h-1z M105,86h1v7h-1z M108,86h1v7h-1z M17,88h2v1h-2z M19,89h1v2h-1z M37,89h1v6h-1z M45,89h1v6h-1z M51,89h1v6h-1z M97,89h1v4h-1z M22,90h2v1h-2z M25,90h2v1h-2z M31,90h1v4h-1z M68,90h1v2h-1z M71,90h1v2h-1z M66,91h2v1h-2z M95,91h1v2h-1z M0,92h7v1h-7z M8,92h5v2h-5z M14,92h2v2h-2z M17,92h2v2h-2z M20,92h2v1h-2z M27,92h2v2h-2z M30,92h1v2h-1z M59,92h1v3h-1z M64,92h1v2h-1z M67,92h1v4h-1z M69,92h2v1h-2z M72,92h1v2h-1z M74,92h1v4h-1z M76,92h3v1h-3z M83,92h2v1h-2z M86,92h4v2h-4z M100,92h1v4h-1z M104,92h1v4h-1z M106,92h1v3h-1z M66,93h1v2h-1z M76,93h1v2h-1z M78,93h1v3h-1z M93,93h2v2h-2z M96,93h1v2h-1z M98,93h1v2h-1z M107,93h1v3h-1z M109,93h2v2h-2z M83,94h1v2h-1z M86,94h1v2h-1z M89,94h1v2h-1z M0,104h3v1h-3z M27,104h6v1h-6z M58,104h2v1h-2z M93,109h1v2h-1z M99,109h12v1h-12z M50,110h5v1h-5z M87,110h6v1h-6z M94,110h3v1h-3z M106,113h4v1h-4z M33,114h4v1h-4z M50,114h7v1h-7z M99,115h7v1h-7z M87,116h2v1h-2z M93,116h5v1h-5z M21,118h2v1h-2z M97,118h10v1h-10z M105,120h3v1h-3z M50,121h7v1h-7z M94,121h2v1h-2z M112,121h2v1h-2z M93,123h6v1h-6z M98,126h2v1h-2z M90,127h2v1h-2z" /><path fill="#633130" d="M101,8h1v1h-1z M95,52h1v1h-1z M110,64h1v1h-1z M110,73h1v1h-1z M109,76h1v1h-1z M55,78h1v1h-1z M34,79h1v1h-1z M37,81h1v1h-1z M68,81h1v1h-1z M62,82h1v1h-1z M74,82h1v1h-1z M45,83h1v1h-1z M68,83h1v1h-1z M85,84h1v1h-1z M93,84h1v1h-1z M19,85h1v1h-1z M57,85h1v1h-1z M82,85h1v1h-1z M87,85h1v1h-1z M103,85h1v1h-1z M21,86h1v1h-1z M48,86h1v1h-1z M80,86h1v1h-1z M9,88h1v1h-1z M11,88h1v1h-1z M15,88h1v1h-1z M28,88h1v1h-1z M78,88h1v1h-1z M22,89h1v1h-1z M26,89h1v1h-1z M68,89h1v1h-1z M17,90h1v1h-1z M88,90h1v1h-1z M95,90h1v1h-1z M29,91h1v1h-1z M64,91h1v1h-1z M66,92h1v1h-1z M73,92h1v1h-1z M80,92h1v1h-1z M69,93h1v1h-1z M83,93h1v1h-1z M57,94h1v1h-1z M94,95h1v1h-1z M96,95h1v1h-1z M107,96h1v1h-1z M110,56h1v7h-1z M95,58h1v4h-1z M99,58h1v4h-1z M110,66h1v5h-1z M95,67h1v4h-1z M99,67h1v4h-1z M95,76h1v4h-1z M99,76h1v4h-1z M33,77h1v4h-1z M103,77h3v2h-3z M60,80h1v2h-1z M92,82h1v3h-1z M90,83h2v1h-2z M54,84h2v1h-2z M60,84h1v4h-1z M64,84h1v4h-1z M27,85h1v4h-1z M41,85h1v3h-1z M54,85h1v3h-1z M67,85h1v2h-1z M0,86h1v2h-1z M2,86h1v2h-1z M4,86h1v2h-1z M6,86h1v2h-1z M8,86h1v3h-1z M10,86h1v3h-1z M12,86h1v2h-1z M14,86h1v3h-1z M17,86h1v2h-1z M33,86h1v3h-1z M39,86h1v3h-1z M47,91h1v4h-1z M60,91h1v4h-1z M33,92h1v2h-1z M63,92h1v3h-1z M75,92h1v3h-1z M91,92h1v3h-1z M95,93h1v2h-1z M97,93h1v2h-1z M105,93h1v4h-1z M108,93h1v4h-1z M106,95h1v2h-1z M109,95h1v3h-1z M110,96h1v2h-1z M100,117h5v1h-5z M101,120h4v1h-4z" /><path fill="#111728" d="M102,15h1v1h-1z M102,17h1v1h-1z M96,46h1v1h-1z M97,52h1v1h-1z M1,58h1v1h-1z M3,58h1v1h-1z M5,58h1v1h-1z M0,64h1v1h-1z M2,64h1v1h-1z M4,64h1v1h-1z M6,64h1v1h-1z M60,65h1v1h-1z M60,67h1v1h-1z M51,70h1v1h-1z M31,71h1v1h-1z M45,71h1v1h-1z M60,71h1v1h-1z M35,72h1v1h-1z M90,76h1v1h-1z M75,77h1v1h-1z M122,77h1v1h-1z M56,78h1v1h-1z M122,79h1v1h-1z M90,80h1v1h-1z M36,81h1v1h-1z M38,81h1v1h-1z M40,81h1v1h-1z M42,81h1v1h-1z M44,81h1v1h-1z M64,81h1v1h-1z M66,81h1v1h-1z M23,82h1v1h-1z M53,82h1v1h-1z M73,82h1v1h-1z M76,82h1v1h-1z M83,82h1v1h-1z M87,82h1v1h-1z M11,83h1v1h-1z M18,83h1v1h-1z M27,84h1v1h-1z M72,84h1v1h-1z M78,84h1v1h-1z M91,84h1v1h-1z M17,85h1v1h-1z M18,86h1v1h-1z M83,86h1v1h-1z M35,87h1v1h-1z M9,89h1v1h-1z M11,89h1v1h-1z M15,89h1v1h-1z M75,89h1v1h-1z M86,89h1v1h-1z M89,89h1v1h-1z M52,90h1v1h-1z M83,90h1v1h-1z M89,91h1v1h-1z M91,91h1v1h-1z M56,92h1v1h-1z M49,93h1v1h-1z M5,94h1v1h-1z M31,94h1v1h-1z M53,94h1v1h-1z M56,94h1v1h-1z M81,94h1v1h-1z M6,95h1v1h-1z M20,95h1v1h-1z M29,95h1v1h-1z M36,95h1v1h-1z M75,95h1v1h-1z M79,95h1v1h-1z M24,96h1v1h-1z M51,96h1v1h-1z M60,96h1v1h-1z M67,96h1v1h-1z M74,96h1v1h-1z M77,96h1v1h-1z M89,96h1v1h-1z M114,96h1v1h-1z M53,97h1v1h-1z M79,97h1v1h-1z M86,97h1v1h-1z M96,97h1v1h-1z M119,97h1v1h-1z M2,101h1v1h-1z M28,101h1v1h-1z M32,101h1v1h-1z M51,102h1v1h-1z M60,102h1v1h-1z M77,102h1v1h-1z M8,103h1v1h-1z M3,107h1v1h-1z M33,107h1v1h-1z M85,107h1v1h-1z M100,10h3v1h-3z M102,19h2v1h-2z M102,21h3v1h-3z M102,23h4v1h-4z M102,24h1v6h-1z M105,24h1v6h-1z M103,29h2v1h-2z M102,31h5v1h-5z M102,33h6v1h-6z M93,36h18v1h-18z M103,39h9v1h-9z M111,40h1v15h-1z M103,41h8v1h-8z M100,42h1v8h-1z M103,42h1v11h-1z M93,43h1v8h-1z M104,50h7v1h-7z M104,52h7v1h-7z M92,54h19v1h-19z M0,60h7v1h-7z M0,61h1v2h-1z M2,61h1v2h-1z M4,61h1v2h-1z M6,61h1v2h-1z M52,62h1v9h-1z M1,63h1v2h-1z M3,63h1v2h-1z M5,63h1v2h-1z M46,63h1v9h-1z M102,63h8v1h-8z M32,64h1v9h-1z M38,64h1v8h-1z M61,64h1v8h-1z M109,64h1v2h-1z M7,65h1v11h-1z M53,65h1v6h-1z M102,65h7v1h-7z M1,66h1v10h-1z M3,66h1v10h-1z M5,66h1v10h-1z M43,66h1v16h-1z M49,66h1v7h-1z M57,66h1v5h-1z M35,67h1v4h-1z M48,68h1v4h-1z M50,68h1v4h-1z M54,68h3v3h-3z M34,69h1v3h-1z M36,69h1v5h-1z M39,69h4v5h-4z M47,69h1v4h-1z M58,69h1v4h-1z M33,70h1v4h-1z M44,70h1v8h-1z M59,70h1v3h-1z M54,71h2v2h-2z M102,72h8v1h-8z M127,72h1v27h-1z M109,73h1v2h-1z M126,73h1v4h-1z M41,74h2v4h-2z M46,74h14v1h-14z M102,74h7v1h-7z M125,74h1v3h-1z M8,75h1v9h-1z M10,75h1v9h-1z M31,75h10v1h-10z M60,75h2v1h-2z M124,75h1v2h-1z M40,76h1v3h-1z M48,76h2v1h-2z M86,76h1v9h-1z M123,76h1v32h-1z M0,77h8v1h-8z M34,77h2v1h-2z M56,77h2v1h-2z M63,77h1v2h-1z M39,78h1v4h-1z M41,78h1v4h-1z M62,78h1v4h-1z M64,78h9v1h-9z M92,78h1v4h-1z M121,78h1v21h-1z M124,78h3v1h-3z M0,79h1v4h-1z M2,79h1v4h-1z M4,79h1v4h-1z M6,79h1v4h-1z M25,79h1v4h-1z M28,79h1v3h-1z M48,79h1v2h-1z M64,79h3v2h-3z M68,79h6v1h-6z M75,79h4v2h-4z M80,79h6v1h-6z M89,79h1v5h-1z M91,79h1v4h-1z M1,80h1v4h-1z M3,80h1v4h-1z M5,80h1v4h-1z M9,80h1v4h-1z M11,80h2v3h-2z M14,80h2v4h-2z M17,80h2v3h-2z M20,80h5v1h-5z M27,80h1v3h-1z M30,80h1v3h-1z M34,80h2v2h-2z M46,80h2v1h-2z M49,80h11v1h-11z M68,80h3v1h-3z M72,80h2v2h-2z M80,80h2v3h-2z M83,80h2v2h-2z M87,80h2v2h-2z M20,81h2v2h-2z M23,81h2v1h-2z M32,81h2v1h-2z M69,81h2v1h-2z M76,81h3v1h-3z M102,81h9v1h-9z M32,83h5v1h-5z M38,83h7v1h-7z M57,83h3v1h-3z M62,83h3v1h-3z M48,84h2v1h-2z M66,84h2v1h-2z M69,84h2v1h-2z M102,84h9v1h-9z M34,85h2v1h-2z M49,85h1v2h-1z M92,85h1v11h-1z M111,85h1v13h-1z M122,87h1v14h-1z M46,88h8v1h-8z M55,88h5v1h-5z M61,88h1v3h-1z M17,89h2v1h-2z M32,89h5v1h-5z M39,89h6v1h-6z M72,89h2v1h-2z M83,89h2v1h-2z M46,90h5v1h-5z M56,90h4v1h-4z M72,91h2v1h-2z M75,91h2v1h-2z M24,92h1v2h-1z M34,92h2v1h-2z M48,92h2v1h-2z M23,93h1v17h-1z M54,93h2v1h-2z M80,93h1v15h-1z M0,94h4v1h-4z M116,94h2v3h-2z M124,94h3v1h-3z M54,95h1v14h-1z M68,95h6v1h-6z M115,95h1v2h-1z M118,95h1v3h-1z M126,95h1v4h-1z M21,96h2v1h-2z M99,96h2v1h-2z M101,97h2v10h-2z M91,98h2v1h-2z M3,99h6v4h-6z M10,99h1v5h-1z M12,99h3v5h-3z M33,99h14v4h-14z M64,99h9v4h-9z M0,100h3v1h-3z M9,100h1v4h-1z M11,100h1v4h-1z M15,100h2v4h-2z M30,100h3v1h-3z M47,100h2v3h-2z M61,100h3v3h-3z M73,100h2v3h-2z M87,100h9v3h-9z M120,100h2v1h-2z M124,100h4v1h-4z M17,101h2v3h-2z M49,101h2v2h-2z M59,101h2v1h-2z M75,101h2v2h-2z M84,101h3v1h-3z M96,101h2v2h-2z M120,101h1v7h-1z M19,102h1v2h-1z M85,102h2v1h-2z M98,102h2v1h-2z M20,103h2v1h-2z M3,104h1v2h-1z M33,104h1v2h-1z M84,104h1v4h-1z M4,105h4v3h-4z M34,105h20v3h-20z M60,105h20v3h-20z M81,105h3v3h-3z M85,105h16v2h-16z M103,105h17v2h-17z M121,105h2v3h-2z M124,105h4v3h-4z M8,106h14v4h-14z M24,106h3v3h-3z M55,106h2v3h-2z M59,106h1v2h-1z M22,107h1v3h-1z M57,107h2v1h-2z M102,107h6v1h-6z M109,107h3v1h-3z M117,107h3v1h-3z M0,108h3v1h-3z M28,108h5v1h-5z M41,108h3v1h-3z M45,108h9v1h-9z M24,109h2v1h-2z" /><path fill="#182535" d="M101,14h1v1h-1z M92,42h1v1h-1z M104,44h1v1h-1z M106,46h1v1h-1z M105,49h1v1h-1z M108,49h1v1h-1z M1,59h1v1h-1z M3,59h1v1h-1z M5,59h1v1h-1z M0,63h1v1h-1z M2,63h1v1h-1z M4,63h1v1h-1z M6,63h1v1h-1z M93,63h1v1h-1z M110,63h1v1h-1z M60,64h1v1h-1z M93,65h1v1h-1z M110,65h1v1h-1z M35,71h1v1h-1z M37,71h1v1h-1z M93,72h1v1h-1z M110,72h1v1h-1z M47,73h1v1h-1z M49,73h1v1h-1z M33,74h1v1h-1z M36,74h1v1h-1z M45,74h1v1h-1z M93,74h1v1h-1z M110,74h1v1h-1z M1,76h1v1h-1z M3,76h1v1h-1z M5,76h1v1h-1z M7,76h1v1h-1z M48,77h1v1h-1z M67,77h1v1h-1z M85,78h1v1h-1z M89,78h1v1h-1z M122,78h1v1h-1z M1,79h1v1h-1z M3,79h1v1h-1z M5,79h1v1h-1z M49,79h1v1h-1z M56,79h1v1h-1z M45,80h1v1h-1z M16,81h1v1h-1z M31,81h1v1h-1z M93,81h1v1h-1z M64,82h1v1h-1z M27,83h1v1h-1z M60,83h1v1h-1z M65,83h1v1h-1z M26,84h1v1h-1z M29,84h1v1h-1z M71,84h1v1h-1z M74,84h1v1h-1z M77,84h1v1h-1z M79,84h1v1h-1z M7,85h1v1h-1z M13,85h1v1h-1z M16,85h1v1h-1z M48,85h1v1h-1z M18,87h1v1h-1z M21,87h1v1h-1z M25,87h1v1h-1z M37,88h1v1h-1z M45,88h1v1h-1z M60,88h1v1h-1z M62,88h1v1h-1z M0,89h1v1h-1z M2,89h1v1h-1z M4,89h1v1h-1z M6,89h1v1h-1z M12,89h1v1h-1z M31,89h1v1h-1z M52,89h1v1h-1z M71,89h1v1h-1z M74,89h1v1h-1z M60,90h1v1h-1z M62,90h1v1h-1z M89,90h1v1h-1z M0,91h1v1h-1z M2,91h1v1h-1z M4,91h1v1h-1z M6,91h1v1h-1z M9,91h1v1h-1z M19,91h1v1h-1z M26,91h1v1h-1z M34,91h1v1h-1z M74,91h1v1h-1z M77,91h1v1h-1z M83,91h1v1h-1z M85,91h1v1h-1z M90,91h1v1h-1z M1,93h1v1h-1z M3,93h1v1h-1z M5,93h1v1h-1z M48,93h1v1h-1z M56,93h1v1h-1z M70,93h1v1h-1z M4,94h1v1h-1z M27,94h1v1h-1z M30,94h1v1h-1z M33,94h1v1h-1z M35,94h1v1h-1z M72,94h1v1h-1z M115,94h1v1h-1z M118,94h1v1h-1z M45,95h1v1h-1z M51,95h1v1h-1z M53,95h1v1h-1z M76,95h1v1h-1z M96,96h1v1h-1z M1,98h1v1h-1z M20,98h1v1h-1z M27,98h1v1h-1z M31,98h1v1h-1z M2,99h1v1h-1z M9,99h1v1h-1z M11,99h1v1h-1z M15,99h1v1h-1z M18,99h1v1h-1z M21,99h1v1h-1z M28,99h1v1h-1z M32,99h1v1h-1z M47,99h1v1h-1z M52,99h1v1h-1z M58,99h1v1h-1z M63,99h1v1h-1z M73,99h1v1h-1z M17,100h1v1h-1z M27,100h1v1h-1z M49,100h1v1h-1z M75,100h1v1h-1z M86,100h1v1h-1z M96,100h1v1h-1z M1,101h1v1h-1z M19,101h1v1h-1z M31,101h1v1h-1z M51,101h1v1h-1z M77,101h1v1h-1z M98,101h1v1h-1z M20,102h1v1h-1z M27,102h1v1h-1z M121,102h1v1h-1z M83,104h1v1h-1z M117,104h1v1h-1z M1,105h1v1h-1z M27,105h1v1h-1z M29,105h1v1h-1z M31,105h1v1h-1z M22,106h1v1h-1z M86,107h1v1h-1z M94,107h1v1h-1z M101,107h1v1h-1z M108,107h1v1h-1z M27,108h1v1h-1z M44,108h1v1h-1z M61,108h1v1h-1z M101,11h1v2h-1z M100,16h3v1h-3z M99,18h5v1h-5z M99,20h6v1h-6z M98,22h7v1h-7z M97,23h5v1h-5z M97,24h1v6h-1z M98,29h4v1h-4z M102,30h5v1h-5z M96,31h6v1h-6z M102,32h6v1h-6z M95,33h7v1h-7z M102,34h7v2h-7z M109,35h2v1h-2z M102,37h9v2h-9z M102,39h1v15h-1z M93,40h1v3h-1z M103,40h8v1h-8z M94,41h8v1h-8z M104,42h7v1h-7z M104,43h2v1h-2z M108,43h3v1h-3z M109,44h2v1h-2z M110,45h1v5h-1z M104,48h1v2h-1z M109,48h1v2h-1z M94,50h7v1h-7z M92,51h2v1h-2z M100,51h1v2h-1z M104,51h7v1h-7z M93,52h2v1h-2z M98,52h2v1h-2z M103,53h8v1h-8z M93,55h18v1h-18z M94,56h1v29h-1z M102,56h4v7h-4z M107,56h3v7h-3z M0,58h1v2h-1z M2,58h1v2h-1z M4,58h1v2h-1z M6,58h1v2h-1z M1,61h1v2h-1z M3,61h1v2h-1z M5,61h1v2h-1z M95,63h7v1h-7z M102,64h7v1h-7z M0,65h7v1h-7z M95,65h7v1h-7z M0,66h1v11h-1z M2,66h1v11h-1z M4,66h1v11h-1z M6,66h1v11h-1z M102,66h4v6h-4z M107,66h3v6h-3z M60,68h1v3h-1z M52,71h2v3h-2z M56,71h2v3h-2z M34,72h1v3h-1z M38,72h1v3h-1z M46,72h1v2h-1z M48,72h1v2h-1z M50,72h1v2h-1z M61,72h1v3h-1z M95,72h7v1h-7z M32,73h1v2h-1z M35,73h1v2h-1z M54,73h2v1h-2z M58,73h2v1h-2z M102,73h7v1h-7z M39,74h2v1h-2z M95,74h7v1h-7z M46,75h5v1h-5z M52,75h8v2h-8z M102,75h4v2h-4z M107,75h3v1h-3z M32,76h5v1h-5z M38,76h2v2h-2z M46,76h2v4h-2z M50,76h1v4h-1z M61,76h1v12h-1z M107,76h2v1h-2z M32,77h1v4h-1z M36,77h1v4h-1z M52,77h3v3h-3z M58,77h2v3h-2z M79,77h1v5h-1z M90,77h1v3h-1z M102,77h1v4h-1z M124,77h3v1h-3z M0,78h8v1h-8z M13,78h1v5h-1z M34,78h2v1h-2z M38,78h1v3h-1z M42,78h1v3h-1z M44,78h1v3h-1z M74,78h2v1h-2z M7,79h1v4h-1z M19,79h1v4h-1z M26,79h1v4h-1z M29,79h1v3h-1z M40,79h1v2h-1z M63,79h1v4h-1z M67,79h1v5h-1z M74,79h1v2h-1z M124,79h3v1h-3z M71,80h1v2h-1z M82,80h1v5h-1z M85,80h1v3h-1z M122,80h1v7h-1z M124,80h1v14h-1z M126,80h1v14h-1z M22,81h1v2h-1z M46,81h5v3h-5z M52,81h8v1h-8z M75,81h1v8h-1z M90,81h1v2h-1z M95,81h7v1h-7z M125,81h1v3h-1z M24,82h1v5h-1z M28,82h1v6h-1z M32,82h5v1h-5z M38,82h7v1h-7z M52,82h1v6h-1z M54,82h6v1h-6z M66,82h1v2h-1z M69,82h2v2h-2z M72,82h1v2h-1z M77,82h2v2h-2z M84,82h1v7h-1z M88,82h1v4h-1z M102,82h1v2h-1z M0,83h1v3h-1z M2,83h1v3h-1z M4,83h1v3h-1z M6,83h1v3h-1z M12,83h1v3h-1z M17,83h1v2h-1z M20,83h2v3h-2z M23,83h1v5h-1z M25,83h1v2h-1z M30,83h1v9h-1z M53,83h4v1h-4z M73,83h1v6h-1z M76,83h1v2h-1z M80,83h2v3h-2z M83,83h1v3h-1z M1,84h1v8h-1z M3,84h1v8h-1z M5,84h1v8h-1z M8,84h4v2h-4z M14,84h2v2h-2z M18,84h1v2h-1z M32,84h5v1h-5z M38,84h7v1h-7z M46,84h1v4h-1z M50,84h1v4h-1z M53,84h1v4h-1z M56,84h3v1h-3z M63,84h1v8h-1z M89,84h2v1h-2z M95,84h7v1h-7z M32,85h2v1h-2z M36,85h1v4h-1z M38,85h3v1h-3z M42,85h3v4h-3z M55,85h2v1h-2z M58,85h1v3h-1z M66,85h1v5h-1z M69,85h2v7h-2z M72,85h1v4h-1z M78,85h1v3h-1z M86,85h1v4h-1z M89,85h1v4h-1z M91,85h1v6h-1z M101,85h2v12h-2z M9,86h1v2h-1z M11,86h1v2h-1z M15,86h1v2h-1z M32,86h1v3h-1z M34,86h2v1h-2z M38,86h1v9h-1z M40,86h1v3h-1z M56,86h1v2h-1z M81,86h1v4h-1z M103,86h1v5h-1z M125,86h1v5h-1z M48,87h2v1h-2z M80,87h1v2h-1z M83,87h1v2h-1z M34,88h2v1h-2z M64,88h1v3h-1z M67,88h1v3h-1z M8,89h1v3h-1z M10,89h1v3h-1z M14,89h1v3h-1z M20,89h2v3h-2z M27,89h3v1h-3z M46,89h5v1h-5z M56,89h4v1h-4z M76,89h4v1h-4z M87,89h2v1h-2z M113,89h1v2h-1z M116,89h1v2h-1z M18,90h1v2h-1z M24,90h1v2h-1z M27,90h2v2h-2z M32,90h2v2h-2z M35,90h2v2h-2z M39,90h1v5h-1z M41,90h4v5h-4z M72,90h2v1h-2z M75,90h2v1h-2z M78,90h1v2h-1z M84,90h1v2h-1z M86,90h1v2h-1z M11,91h2v1h-2z M15,91h3v1h-3z M22,91h2v1h-2z M40,91h1v4h-1z M46,91h1v5h-1z M48,91h3v1h-3z M52,91h2v3h-2z M56,91h4v1h-4z M61,91h1v5h-1z M87,91h2v1h-2z M32,92h1v3h-1z M36,92h1v3h-1z M50,92h1v4h-1z M54,92h2v1h-2z M57,92h2v2h-2z M81,92h1v2h-1z M103,92h1v13h-1z M125,92h1v2h-1z M25,93h1v5h-1z M34,93h2v1h-2z M73,93h1v2h-1z M99,93h1v3h-1z M117,93h2v1h-2z M6,94h17v1h-17z M24,94h1v2h-1z M49,94h1v2h-1z M52,94h1v2h-1z M55,94h1v12h-1z M58,94h1v2h-1z M47,95h2v1h-2z M57,95h1v3h-1z M59,95h2v1h-2z M62,95h5v1h-5z M81,95h2v7h-2z M91,95h1v2h-1z M95,95h1v2h-1z M97,95h2v2h-2z M124,95h2v5h-2z M0,96h21v1h-21z M26,96h19v1h-19z M47,96h1v2h-1z M56,96h1v10h-1z M83,96h6v1h-6z M92,96h3v1h-3z M104,96h1v4h-1z M24,97h1v9h-1z M44,97h3v1h-3z M48,97h5v1h-5z M58,97h21v1h-21z M105,97h4v3h-4z M112,97h6v1h-6z M68,98h2v1h-2z M83,98h8v1h-8z M93,98h8v1h-8z M109,98h8v2h-8z M25,99h1v7h-1z M117,99h5v1h-5z M126,99h2v1h-2z M115,100h1v2h-1z M118,100h2v2h-2z M104,101h11v1h-11z M116,101h2v1h-2z M121,101h2v1h-2z M124,101h4v1h-4z M52,102h1v3h-1z M78,102h1v3h-1z M81,102h1v3h-1z M84,102h1v2h-1z M118,102h1v3h-1z M125,102h3v1h-3z M4,103h4v2h-4z M34,103h18v2h-18z M60,103h18v2h-18z M85,103h15v2h-15z M104,103h14v1h-14z M119,103h1v2h-1z M125,103h1v2h-1z M8,104h14v2h-14z M105,104h2v1h-2z M111,104h2v1h-2z M57,106h2v1h-2z M112,107h5v1h-5z M3,108h5v1h-5z M33,108h8v1h-8z M66,108h2v1h-2z M46,109h3v1h-3z M88,127h2v1h-2z" /><path fill="#D09647" d="M49,77h1v1h-1z M35,79h1v1h-1z M125,80h1v1h-1z M100,83h1v1h-1z M109,83h1v1h-1z M22,88h1v1h-1z M82,90h1v1h-1z M107,92h1v1h-1z M20,93h1v1h-1z M22,93h1v1h-1z M26,93h1v1h-1z M64,94h1v1h-1z M120,97h1v1h-1z M3,103h1v1h-1z M27,103h1v1h-1z M33,103h1v1h-1z M23,113h1v1h-1z M88,117h1v1h-1z M98,26h4v1h-4z M103,26h2v1h-2z M93,39h9v1h-9z M97,56h1v7h-1z M97,66h1v6h-1z M97,75h1v6h-1z M106,77h1v4h-1z M109,77h1v4h-1z M93,82h1v2h-1z M95,82h5v2h-5z M101,82h1v2h-1z M104,82h5v2h-5z M93,85h8v1h-8z M104,85h7v1h-7z M7,86h1v5h-1z M13,86h1v5h-1z M19,86h1v3h-1z M26,86h1v3h-1z M93,86h2v7h-2z M96,86h3v3h-3z M100,86h1v6h-1z M104,86h1v6h-1z M106,86h2v6h-2z M109,86h2v7h-2z M96,89h1v4h-1z M98,89h1v4h-1z M65,91h1v4h-1z M7,92h1v2h-1z M13,92h1v2h-1z M16,92h1v2h-1z M19,92h1v2h-1z M22,92h2v1h-2z M25,92h2v1h-2z M29,92h1v3h-1z M62,92h1v3h-1z M68,92h1v3h-1z M71,92h1v3h-1z M79,92h1v3h-1z M82,92h1v3h-1z M85,92h1v4h-1z M90,92h1v4h-1z M77,93h1v3h-1z M84,93h1v3h-1z M87,94h2v2h-2z M0,101h1v3h-1z M29,101h2v3h-2z M1,102h2v2h-2z M28,102h1v2h-1z M31,102h2v2h-2z M58,102h2v2h-2z M87,107h7v1h-7z M62,108h4v1h-4z M88,108h5v2h-5z M109,108h6v1h-6z M31,109h4v1h-4z M56,109h4v1h-4z M86,109h2v1h-2z M111,109h3v2h-3z M0,110h5v1h-5z M28,110h6v1h-6z M109,110h2v1h-2z M114,110h2v1h-2z M26,111h4v1h-4z M52,111h5v1h-5z M89,111h14v1h-14z M107,111h3v1h-3z M24,112h2v2h-2z M29,112h6v1h-6z M55,112h7v1h-7z M94,112h1v2h-1z M110,112h5v1h-5z M0,113h2v1h-2z M32,113h2v1h-2z M88,113h6v1h-6z M95,113h5v1h-5z M26,114h5v1h-5z M87,114h4v1h-4z M110,114h7v1h-7z M2,115h6v1h-6z M56,115h3v1h-3z M88,115h8v1h-8z M106,115h6v1h-6z M27,116h8v1h-8z M89,116h4v2h-4z M93,117h7v1h-7z M108,117h4v1h-4z M113,118h4v1h-4z M109,119h4v1h-4z M90,120h6v1h-6z M110,120h5v1h-5z M84,121h4v1h-4z M89,121h2v4h-2z M96,121h5v1h-5z M88,122h1v2h-1z M91,122h7v1h-7z M110,122h5v1h-5z M82,123h6v1h-6z M91,123h2v3h-2z M99,123h4v1h-4z M93,124h2v2h-2z M95,125h8v1h-8z M84,127h4v1h-4z M92,127h3v1h-3z" /><path fill="#5F7D99" d="M42,65h1v1h-1z M29,66h1v1h-1z M34,66h1v1h-1z M58,68h1v1h-1z M91,70h1v1h-1z M113,71h1v1h-1z M121,74h1v1h-1z M91,78h1v1h-1z M118,84h1v1h-1z M111,113h1v1h-1z M19,35h1v29h-1z M16,36h3v28h-3z M20,36h2v28h-2z M10,37h2v28h-2z M15,37h1v28h-1z M8,38h2v30h-2z M12,38h3v27h-3z M22,38h21v1h-21z M0,39h8v1h-8z M22,39h2v27h-2z M7,40h1v25h-1z M24,40h25v1h-25z M0,41h3v12h-3z M6,41h1v12h-1z M24,41h1v25h-1z M3,42h1v16h-1z M25,42h4v25h-4z M4,43h1v10h-1z M29,43h3v21h-3z M5,44h1v14h-1z M32,44h1v19h-1z M33,45h5v19h-5z M38,46h20v1h-20z M38,47h1v16h-1z M39,48h1v21h-1z M42,48h10v14h-10z M40,49h2v20h-2z M52,49h3v12h-3z M58,49h9v13h-9z M55,50h3v15h-3z M67,50h3v20h-3z M70,51h1v19h-1z M71,52h7v1h-7z M1,53h1v5h-1z M71,54h1v17h-1z M72,55h5v16h-5z M77,56h1v15h-1z M78,57h1v14h-1z M83,57h1v14h-1z M87,57h2v16h-2z M79,58h4v13h-4z M84,58h3v13h-3z M89,58h2v15h-2z M91,59h2v11h-2z M53,61h2v3h-2z M111,61h4v9h-4z M126,61h2v11h-2z M42,62h4v1h-4z M47,62h4v3h-4z M58,62h3v1h-3z M62,62h5v9h-5z M115,62h2v9h-2z M118,62h8v10h-8z M42,63h3v2h-3z M58,63h2v4h-2z M117,63h1v8h-1z M16,64h2v1h-2z M21,64h1v2h-1z M29,64h2v2h-2z M33,64h4v1h-4z M54,64h1v4h-1z M10,65h1v3h-1z M34,65h3v1h-3z M44,65h1v5h-1z M47,65h2v1h-2z M50,65h1v3h-1z M55,65h2v1h-2z M11,66h6v2h-6z M36,66h1v3h-1z M47,66h1v3h-1z M55,66h1v2h-1z M27,67h2v1h-2z M33,67h1v3h-1z M59,67h1v3h-1z M28,68h1v2h-1z M112,70h3v1h-3z M62,71h2v3h-2z M81,72h6v1h-6z M125,72h2v1h-2z M81,73h5v1h-5z M120,73h6v1h-6z" /><path fill="#C8D6AA" d="M95,43h3v3h-3z M106,43h2v3h-2z M94,44h1v5h-1z M98,44h1v5h-1z M105,44h1v5h-1z M108,44h1v5h-1z M99,45h1v3h-1z M104,45h1v3h-1z M109,45h1v3h-1z M95,46h1v4h-1z M97,46h1v4h-1z M107,46h1v4h-1z M96,47h1v3h-1z M106,47h1v3h-1z" /><path fill="#405770" d="M61,62h1v1h-1z M60,63h1v1h-1z M43,65h1v1h-1z M57,65h1v1h-1z M63,75h1v1h-1z M67,75h1v1h-1z M55,77h1v1h-1z M71,77h1v1h-1z M74,77h1v1h-1z M76,77h1v1h-1z M16,78h1v1h-1z M26,78h1v1h-1z M28,78h1v1h-1z M78,78h1v1h-1z M22,79h1v1h-1z M30,79h1v1h-1z M82,91h1v1h-1z M34,94h1v1h-1z M7,95h1v1h-1z M20,101h1v1h-1z M27,101h1v1h-1z M52,101h1v1h-1z M58,101h1v1h-1z M78,101h1v1h-1z M83,101h1v1h-1z M99,101h1v1h-1z M21,102h1v1h-1z M60,109h1v1h-1z M63,110h1v1h-1z M9,112h1v1h-1z M11,112h1v1h-1z M34,113h1v1h-1z M110,113h1v1h-1z M0,114h1v1h-1z M60,114h1v1h-1z M109,114h1v1h-1z M87,115h1v1h-1z M96,120h1v1h-1z M88,121h1v1h-1z M110,121h1v1h-1z M114,121h1v1h-1z M51,62h1v8h-1z M45,63h1v8h-1z M31,64h1v7h-1z M37,64h1v7h-1z M42,66h1v3h-1z M48,66h1v2h-1z M56,66h1v2h-1z M34,67h1v2h-1z M29,77h1v2h-1z M23,78h1v2h-1z M80,78h3v1h-3z M0,95h3v1h-3z M30,95h3v1h-3z M37,95h8v1h-8z M92,97h4v1h-4z M2,98h14v1h-14z M32,98h16v1h-16z M63,98h5v1h-5z M70,98h4v1h-4z M0,99h2v1h-2z M16,99h2v1h-2z M30,99h2v1h-2z M48,99h2v1h-2z M61,99h2v1h-2z M74,99h2v1h-2z M86,99h11v1h-11z M18,100h2v1h-2z M28,100h2v1h-2z M50,100h2v1h-2z M59,100h2v1h-2z M76,100h2v1h-2z M84,100h2v1h-2z M97,100h2v1h-2z M26,102h1v4h-1z M53,102h1v3h-1z M57,102h1v4h-1z M79,102h1v3h-1z M82,102h1v3h-1z M100,102h1v3h-1z M22,103h1v3h-1z M0,106h4v1h-4z M27,106h7v1h-7z M0,107h3v1h-3z M27,107h6v1h-6z M115,108h13v1h-13z M78,109h5v1h-5z M114,109h10v1h-10z M34,110h15v1h-15z M55,110h2v1h-2z M72,110h3v1h-3z M116,110h11v1h-11z M110,111h6v1h-6z M119,111h9v1h-9z M0,112h5v1h-5z M15,112h4v1h-4z M26,112h3v1h-3z M35,112h6v1h-6z M51,112h2v1h-2z M88,112h6v1h-6z M95,112h4v1h-4z M115,112h10v2h-10z M59,113h1v2h-1z M61,113h3v2h-3z M67,113h21v1h-21z M112,113h3v1h-3z M125,113h3v1h-3z M23,114h3v1h-3z M49,114h1v2h-1z M64,114h6v1h-6z M75,114h12v1h-12z M91,114h9v1h-9z M117,114h5v5h-5z M50,115h1v2h-1z M53,115h2v2h-2z M112,115h5v1h-5z M122,115h3v2h-3z M0,116h5v1h-5z M8,116h19v1h-19z M41,116h5v1h-5z M51,116h2v1h-2z M55,116h32v1h-32z M112,116h3v2h-3z M125,116h3v1h-3z M30,117h6v1h-6z M43,117h1v2h-1z M79,117h1v2h-1z M82,117h6v3h-6z M115,117h2v1h-2z M122,117h1v2h-1z M0,118h2v1h-2z M8,118h1v2h-1z M10,118h1v2h-1z M12,118h3v2h-3z M17,118h2v1h-2z M23,118h3v1h-3z M37,118h6v1h-6z M44,118h5v1h-5z M73,118h6v1h-6z M80,118h2v1h-2z M88,118h7v2h-7z M107,118h6v1h-6z M123,118h5v1h-5z M49,119h6v2h-6z M57,119h2v5h-2z M113,119h4v1h-4z M42,120h7v2h-7z M55,120h2v1h-2z M59,120h5v3h-5z M72,120h9v3h-9z M83,120h7v1h-7z M109,120h1v3h-1z M115,120h6v3h-6z M36,121h6v1h-6z M49,121h1v2h-1z M64,121h8v1h-8z M81,121h3v2h-3z M91,121h3v1h-3z M121,121h7v2h-7z M6,122h2v1h-2z M19,122h7v1h-7z M28,122h11v1h-11z M47,122h2v1h-2z M50,122h7v1h-7z M64,122h5v1h-5z M84,122h4v1h-4z M0,123h4v1h-4z M26,123h7v1h-7z M53,123h4v1h-4z M59,123h2v1h-2z M11,124h7v1h-7z M76,124h13v1h-13z M109,124h16v1h-16z M0,125h8v2h-8z M26,125h14v1h-14z M88,125h3v1h-3z M8,126h7v1h-7z M21,126h9v1h-9z M33,126h14v1h-14z M50,126h14v1h-14z M69,126h5v1h-5z M90,126h8v1h-8z M100,126h28v1h-28z M107,127h5v1h-5z" /><path fill="#A71A3C" d="M114,92h1v1h-1z M119,92h1v1h-1z M116,93h1v1h-1z M24,87h1v2h-1z M23,88h1v2h-1z M25,88h1v2h-1z M54,88h1v2h-1z M53,89h1v2h-1z M55,89h1v2h-1z M80,89h1v2h-1z M79,90h1v2h-1z M81,90h1v2h-1z M115,91h4v1h-4z M116,92h2v1h-2z" /><path fill="#F5E9DD" d="M24,89h1v1h-1z M54,90h1v1h-1z M80,91h1v1h-1z M115,92h1v1h-1z M118,92h1v1h-1z M115,116h2v1h-2z M80,117h2v1h-2z M55,119h2v1h-2z M119,119h2v1h-2z M23,120h3v1h-3z M81,120h2v1h-2z" /></svg>