<svg xmlns="http://www.w3.org/2000/svg" version="1.1" width="128" height="128" shape-rendering="crispEdges"><path fill="#72E6FF" d="M108,35h1v1h-1z M116,92h1v1h-1z M124,92h1v1h-1z M102,95h1v1h-1z M42,96h1v1h-1z M0,100h1v1h-1z M47,101h1v1h-1z M96,103h1v1h-1z M64,106h1v1h-1z M74,106h1v1h-1z M62,107h1v1h-1z M81,107h1v1h-1z M0,0h128v6h-128z M0,6h24v12h-24z M25,6h103v15h-103z M0,18h23v3h-23z M0,21h22v12h-22z M25,21h44v1h-44z M72,21h56v1h-56z M25,22h43v1h-43z M74,22h54v1h-54z M26,23h41v1h-41z M82,23h46v1h-46z M26,24h38v1h-38z M84,24h44v1h-44z M26,25h37v7h-37z M90,25h38v1h-38z M100,26h28v1h-28z M63,27h1v81h-1z M101,27h27v7h-27z M64,28h37v8h-37z M27,32h36v4h-36z M0,33h11v1h-11z M15,33h7v1h-7z M0,34h10v1h-10z M17,34h4v1h-4z M101,34h4v1h-4z M107,34h21v1h-21z M0,35h7v1h-7z M101,35h3v1h-3z M112,35h16v1h-16z M0,36h6v62h-6z M29,36h34v1h-34z M64,36h36v1h-36z M113,36h15v1h-15z M36,37h27v54h-27z M64,37h35v60h-35z M117,37h11v1h-11z M6,38h1v60h-1z M27,38h9v18h-9z M125,38h3v55h-3z M7,39h1v60h-1z M15,39h4v14h-4z M99,39h1v57h-1z M117,39h8v51h-8z M8,40h7v48h-7z M100,40h1v55h-1z M110,40h7v50h-7z M101,41h9v49h-9z M15,53h2v17h-2z M29,56h7v20h-7z M31,76h5v15h-5z M8,88h6v1h-6z M8,89h5v8h-5z M101,90h6v1h-6z M112,90h7v1h-7z M122,90h3v1h-3z M32,91h2v1h-2z M41,91h22v1h-22z M101,91h4v1h-4z M115,91h3v1h-3z M123,91h2v1h-2z M42,92h21v1h-21z M101,92h3v1h-3z M43,93h20v5h-20z M101,93h2v2h-2z M8,97h4v1h-4z M64,97h34v1h-34z M0,98h3v1h-3z M8,98h3v1h-3z M45,98h18v1h-18z M64,98h33v5h-33z M0,99h2v1h-2z M8,99h2v1h-2z M46,99h17v1h-17z M47,100h16v1h-16z M51,101h12v1h-12z M52,102h11v1h-11z M53,103h10v1h-10z M64,103h28v1h-28z M54,104h9v1h-9z M64,104h23v1h-23z M89,104h2v1h-2z M55,105h8v1h-8z M64,105h3v1h-3z M72,105h4v1h-4z M78,105h6v1h-6z M56,106h2v1h-2z M60,106h3v1h-3z M80,106h3v1h-3z" /><path fill="#485774" d="M24,6h1v1h-1z M23,54h1v1h-1z M18,70h1v1h-1z M2,119h1v1h-1z M21,53h1v7h-1z M18,94h1v2h-1z M19,95h1v2h-1z M4,105h2v1h-2z M106,111h1v10h-1z M107,112h1v2h-1z M105,113h1v7h-1z" /><path fill="#45526C" d="M24,10h1v1h-1z M24,15h1v1h-1z M24,20h1v1h-1z M17,95h1v1h-1z M3,105h1v1h-1z M107,111h1v1h-1z M38,118h1v1h-1z M124,118h1v1h-1z M127,118h1v1h-1z M105,120h1v1h-1z M53,122h1v1h-1z M24,7h1v2h-1z M24,22h1v2h-1z M22,38h2v1h-2z M23,39h1v15h-1z M23,55h1v65h-1z M21,60h1v56h-1z M19,70h1v25h-1z M18,72h1v2h-1z M18,89h1v5h-1z M18,96h1v12h-1z M19,97h1v23h-1z M18,109h1v5h-1z M21,118h1v2h-1z" /><path fill="#3C4863" d="M24,9h1v1h-1z M24,12h1v1h-1z M24,16h1v1h-1z M24,19h1v1h-1z M24,21h1v1h-1z M23,22h1v1h-1z M23,26h1v1h-1z M23,28h1v1h-1z M23,30h1v1h-1z M23,32h1v1h-1z M22,39h1v1h-1z M20,42h1v1h-1z M20,55h1v1h-1z M20,57h1v1h-1z M18,71h1v1h-1z M17,72h1v1h-1z M38,104h1v1h-1z M18,108h1v1h-1z M38,110h1v1h-1z M30,114h1v1h-1z M38,114h1v1h-1z M30,116h1v1h-1z M30,118h1v1h-1z M23,120h1v1h-1z M35,120h1v1h-1z M14,121h1v1h-1z M53,121h1v1h-1z M82,121h1v1h-1z M49,122h1v1h-1z M58,122h1v1h-1z M60,122h1v1h-1z M62,122h1v1h-1z M23,24h2v1h-2z M24,25h1v6h-1z M22,34h2v1h-2z M22,36h2v1h-2z M19,38h3v1h-3z M20,40h2v1h-2z M20,44h3v1h-3z M20,46h3v1h-3z M20,48h3v1h-3z M20,50h3v1h-3z M20,52h3v1h-3z M19,54h2v1h-2z M17,56h3v1h-3z M17,58h3v1h-3z M17,60h4v1h-4z M18,62h3v1h-3z M17,64h4v1h-4z M17,66h4v1h-4z M17,68h4v1h-4z M15,70h2v1h-2z M17,74h2v1h-2z M17,76h2v1h-2z M17,78h2v1h-2z M17,80h2v1h-2z M17,82h2v1h-2z M15,84h4v1h-4z M16,86h3v1h-3z M16,88h3v1h-3z M13,90h5v1h-5z M13,92h5v1h-5z M17,93h1v2h-1z M13,94h4v1h-4z M13,96h5v1h-5z M13,98h5v1h-5z M13,100h5v1h-5z M13,102h5v1h-5z M13,104h5v1h-5z M3,106h1v2h-1z M11,106h4v1h-4z M4,107h3v1h-3z M14,107h1v2h-1z M11,108h3v1h-3z M3,109h4v1h-4z M11,110h4v1h-4z M3,111h4v1h-4z M14,111h1v2h-1z M11,112h3v1h-3z M3,113h4v1h-4z M11,114h4v1h-4z M18,114h1v7h-1z M3,115h4v2h-4z M11,116h4v1h-4z M21,116h1v2h-1z M3,118h4v3h-4z M11,118h4v1h-4z M125,118h2v3h-2z M124,119h1v2h-1z M127,119h1v2h-1z M11,120h3v1h-3z M21,120h1v2h-1z M50,120h16v1h-16z M93,120h2v1h-2z M55,122h2v1h-2z" /><path fill="#50586E" d="M24,11h1v1h-1z M24,14h1v1h-1z M20,58h1v1h-1z M39,105h1v1h-1z M107,110h1v1h-1z M38,112h1v1h-1z M38,116h1v1h-1z M68,121h1v1h-1z M72,121h1v1h-1z M74,121h1v1h-1z M76,121h1v1h-1z M80,121h1v1h-1z M82,122h1v1h-1z" /><path fill="#303D56" d="M24,13h1v1h-1z M22,21h1v1h-1z M22,26h1v1h-1z M22,28h1v1h-1z M21,39h1v1h-1z M22,41h1v1h-1z M17,70h1v1h-1z M15,76h1v1h-1z M16,78h1v1h-1z M14,88h1v1h-1z M14,105h1v1h-1z M37,108h1v1h-1z M14,109h1v1h-1z M36,109h1v1h-1z M38,109h1v1h-1z M30,112h1v1h-1z M14,113h1v1h-1z M36,115h1v1h-1z M38,115h1v1h-1z M14,120h1v1h-1z M30,120h1v1h-1z M38,120h1v1h-1z M55,121h1v1h-1z M60,121h1v1h-1z M51,122h1v1h-1z M23,18h1v2h-1z M15,80h2v1h-2z M15,82h2v1h-2z M47,120h3v1h-3z" /><path fill="#2A3750" d="M24,17h1v1h-1z M23,20h1v1h-1z M23,25h1v1h-1z M22,27h1v1h-1z M23,31h1v1h-1z M22,37h1v1h-1z M22,43h1v1h-1z M20,45h1v1h-1z M20,47h1v1h-1z M17,62h1v1h-1z M17,73h1v1h-1z M16,76h1v1h-1z M15,86h1v1h-1z M15,88h1v1h-1z M13,89h1v1h-1z M29,98h1v1h-1z M38,105h1v1h-1z M1,111h1v1h-1z M38,111h1v1h-1z M2,113h1v1h-1z M38,113h1v1h-1z M2,115h1v1h-1z M38,119h1v1h-1z M56,121h1v1h-1z M58,121h1v1h-1z M22,22h1v4h-1z M22,29h1v5h-1z M21,34h1v3h-1z M20,36h1v2h-1z M19,46h1v3h-1z M17,53h3v1h-3z M17,54h2v1h-2z M15,72h2v1h-2z M15,74h2v1h-2z M36,104h2v1h-2z M1,105h2v3h-2z M11,105h2v1h-2z M36,105h1v4h-1z M37,109h1v8h-1z M2,110h1v2h-1z M36,110h1v5h-1z M56,115h1v3h-1z M36,116h1v5h-1z M55,116h1v3h-1z M48,117h7v2h-7z" /><path fill="#6B7288" d="M24,18h1v1h-1z M22,42h1v1h-1z M17,91h1v1h-1z M17,101h1v1h-1z M16,105h1v1h-1z M16,107h1v1h-1z M28,107h1v1h-1z M16,109h1v1h-1z M15,110h1v1h-1z M16,111h1v1h-1z M39,112h1v1h-1z M28,113h1v1h-1z M15,114h1v1h-1z M39,114h1v1h-1z M15,116h1v1h-1z M39,116h1v1h-1z M15,118h1v1h-1z M31,118h1v1h-1z M39,118h1v1h-1z M39,120h1v1h-1z M8,122h1v1h-1z M74,122h1v1h-1z M78,122h1v1h-1z M80,122h1v1h-1z M28,86h1v3h-1z M39,108h1v2h-1z M16,113h1v7h-1z M70,121h1v2h-1z" /><path fill="#253149" d="M23,21h1v1h-1z M23,23h1v1h-1z M23,27h1v1h-1z M23,29h1v1h-1z M23,33h1v1h-1z M21,37h1v1h-1z M23,37h1v1h-1z M24,63h1v1h-1z M22,71h1v1h-1z M22,75h1v1h-1z M22,85h1v1h-1z M22,87h1v1h-1z M24,91h1v1h-1z M22,93h1v1h-1z M20,99h1v1h-1z M38,106h1v1h-1z M1,110h1v1h-1z M27,113h1v1h-1z M30,113h1v1h-1z M2,114h1v1h-1z M27,115h1v1h-1z M30,115h1v1h-1z M30,117h1v1h-1z M0,120h1v1h-1z M2,120h1v1h-1z M29,120h1v1h-1z M49,121h1v1h-1z M51,121h1v1h-1z M62,121h1v1h-1z M64,121h1v1h-1z M127,121h1v1h-1z M24,31h1v25h-1z M22,35h2v1h-2z M19,39h2v1h-2z M19,40h1v6h-1z M20,41h2v1h-2z M20,43h2v1h-2z M21,45h2v1h-2z M21,47h2v1h-2z M19,49h4v1h-4z M19,50h1v3h-1z M20,51h3v1h-3z M22,53h1v17h-1z M17,55h3v1h-3z M17,57h3v1h-3z M17,59h4v1h-4z M17,61h4v1h-4z M17,63h4v1h-4z M17,65h4v1h-4z M17,67h4v1h-4z M17,69h4v1h-4z M20,70h1v19h-1z M15,71h3v1h-3z M15,73h2v1h-2z M15,75h4v1h-4z M27,76h1v8h-1z M15,77h4v1h-4z M15,78h1v2h-1z M16,79h3v1h-3z M15,81h4v1h-4z M15,83h4v1h-4z M15,85h4v1h-4z M27,85h1v11h-1z M15,87h4v1h-4z M14,89h2v1h-2z M20,90h1v8h-1z M13,91h4v1h-4z M13,93h4v1h-4z M29,94h1v4h-1z M13,95h4v1h-4z M13,97h5v1h-5z M27,97h1v5h-1z M13,99h5v1h-5z M29,99h1v12h-1z M13,101h4v1h-4z M13,103h5v1h-5z M17,105h1v16h-1z M37,105h1v3h-1z M20,106h1v2h-1z M11,107h3v1h-3z M1,108h2v2h-2z M11,109h2v1h-2z M20,110h1v6h-1z M11,111h3v1h-3z M1,112h2v1h-2z M29,112h1v4h-1z M1,113h1v9h-1z M11,113h2v1h-2z M11,115h4v1h-4z M2,116h1v3h-1z M11,117h4v1h-4z M37,117h2v1h-2z M37,118h1v3h-1z M11,119h4v1h-4z" /><path fill="#E3FFF3" d="M100,27h1v1h-1z M109,40h1v1h-1z M107,94h1v1h-1z M111,95h1v1h-1z M102,96h1v1h-1z M100,97h1v1h-1z M124,99h1v1h-1z M127,99h1v1h-1z M110,101h1v1h-1z M9,102h1v1h-1z M3,104h1v1h-1z M96,104h1v1h-1z M55,106h1v1h-1z M57,107h1v1h-1z M71,107h1v1h-1z M45,109h1v1h-1z M73,109h1v1h-1z M94,109h1v1h-1z M48,110h1v1h-1z M69,21h3v7h-3z M68,22h1v6h-1z M72,22h2v6h-2z M67,23h1v5h-1z M74,23h8v5h-8z M64,24h3v4h-3z M82,24h2v4h-2z M63,25h1v2h-1z M84,25h6v3h-6z M90,26h10v2h-10z M11,33h4v7h-4z M10,34h1v6h-1z M15,34h2v5h-2z M105,34h2v7h-2z M7,35h3v4h-3z M17,35h4v1h-4z M104,35h1v6h-1z M107,35h1v6h-1z M109,35h3v5h-3z M6,36h1v2h-1z M17,36h3v2h-3z M27,36h2v2h-2z M100,36h4v4h-4z M108,36h1v5h-1z M112,36h1v4h-1z M29,37h7v1h-7z M99,37h1v2h-1z M113,37h4v3h-4z M17,38h2v1h-2z M117,38h8v1h-8z M8,39h2v1h-2z M101,40h3v1h-3z M107,90h5v4h-5z M119,90h3v9h-3z M31,91h1v3h-1z M34,91h7v7h-7z M105,91h2v5h-2z M112,91h3v7h-3z M118,91h1v7h-1z M122,91h1v13h-1z M32,92h2v2h-2z M41,92h1v10h-1z M104,92h1v4h-1z M115,92h1v6h-1z M117,92h1v5h-1z M123,92h1v10h-1z M42,93h1v3h-1z M103,93h1v4h-1z M116,93h1v5h-1z M124,93h4v6h-4z M33,94h1v2h-1z M110,94h2v1h-2z M100,95h2v2h-2z M99,96h1v3h-1z M12,97h1v6h-1z M42,97h1v5h-1z M98,97h1v5h-1z M3,98h4v4h-4z M11,98h1v5h-1z M35,98h5v1h-5z M43,98h2v4h-2z M97,98h1v6h-1z M2,99h1v6h-1z M7,99h1v2h-1z M10,99h1v4h-1z M45,99h1v3h-1z M109,99h2v2h-2z M120,99h2v1h-2z M1,100h1v4h-1z M8,100h2v2h-2z M46,100h1v3h-1z M106,100h3v1h-3z M111,100h1v3h-1z M121,100h1v2h-1z M0,101h1v3h-1z M48,101h3v4h-3z M112,101h1v4h-1z M3,102h3v2h-3z M47,102h1v2h-1z M51,102h1v3h-1z M113,102h2v4h-2z M52,103h1v3h-1z M92,103h4v3h-4z M115,103h1v3h-1z M53,104h1v3h-1z M87,104h2v4h-2z M91,104h1v5h-1z M116,104h1v3h-1z M54,105h1v2h-1z M67,105h5v2h-5z M76,105h2v6h-2z M84,105h3v3h-3z M89,105h2v4h-2z M117,105h1v4h-1z M58,106h2v3h-2z M65,106h2v1h-2z M72,106h2v3h-2z M75,106h1v5h-1z M78,106h2v5h-2z M83,106h1v4h-1z M92,106h3v3h-3z M60,107h2v3h-2z M64,107h2v1h-2z M74,107h1v3h-1z M80,107h1v4h-1z M82,107h1v4h-1z M95,107h1v3h-1z M46,108h3v2h-3z M62,108h3v2h-3z M81,108h1v3h-1z M84,108h2v1h-2z M96,108h1v3h-1z M122,108h3v2h-3z M49,109h1v3h-1z M97,109h1v3h-1z M125,109h1v2h-1z M50,110h1v2h-1z M98,110h1v3h-1z M126,110h1v2h-1z M51,111h1v2h-1z M52,112h2v1h-2z" /><path fill="#A5A5A9" d="M26,33h1v1h-1z M26,35h1v1h-1z M26,37h1v1h-1z M26,39h1v1h-1z M26,41h1v1h-1z M26,43h1v1h-1z M26,45h1v1h-1z M26,47h1v1h-1z M26,49h1v1h-1z M26,51h1v1h-1z M20,53h1v1h-1z M26,53h1v1h-1z M27,75h1v1h-1z M30,86h1v1h-1z M32,98h1v1h-1z M32,100h1v1h-1z M15,105h1v1h-1z M31,106h1v1h-1z M15,111h1v1h-1z M102,112h1v1h-1z M39,113h1v1h-1z M15,115h1v1h-1z M15,117h1v1h-1z M32,117h1v1h-1z M15,119h1v1h-1z M91,120h1v1h-1z M114,120h1v1h-1z M32,121h1v1h-1z M121,121h1v1h-1z M25,23h1v98h-1z M26,55h1v66h-1z M27,56h2v1h-2z M27,58h2v1h-2z M27,60h2v1h-2z M27,62h2v1h-2z M27,64h2v1h-2z M27,66h2v1h-2z M27,68h2v1h-2z M27,70h2v1h-2z M27,72h2v1h-2z M28,74h1v2h-1z M29,78h2v1h-2z M30,79h1v3h-1z M28,82h2v1h-2z M29,84h2v1h-2z M29,92h2v1h-2z M40,104h3v1h-3z M40,106h3v1h-3z M40,108h3v1h-3z M103,108h1v14h-1z M31,110h2v1h-2z M40,110h3v1h-3z M40,112h3v1h-3z M114,112h2v5h-2z M104,113h1v8h-1z M113,113h1v4h-1z M40,114h3v1h-3z M90,114h2v4h-2z M92,115h1v3h-1z M40,116h3v1h-3z M58,117h22v1h-22z M102,117h1v5h-1z M115,117h1v4h-1z M120,117h2v4h-2z M41,118h2v1h-2z M90,118h1v3h-1z M113,118h2v2h-2z M91,119h2v1h-2z M40,120h3v1h-3z M0,123h128v1h-128z" /><path fill="#92929B" d="M26,32h1v1h-1z M26,34h1v1h-1z M26,36h1v1h-1z M26,38h1v1h-1z M26,40h1v1h-1z M26,42h1v1h-1z M26,46h1v1h-1z M26,48h1v1h-1z M26,52h1v1h-1z M26,54h1v1h-1z M28,73h1v1h-1z M29,85h1v1h-1z M29,87h1v1h-1z M30,99h1v1h-1z M31,101h1v1h-1z M31,107h1v1h-1z M40,109h1v1h-1z M39,111h1v1h-1z M28,112h1v1h-1z M28,115h1v1h-1z M39,117h1v1h-1z M32,118h1v1h-1z M28,90h1v2h-1z M29,91h2v1h-2z M28,93h1v2h-1z M28,97h1v2h-1z M28,108h1v3h-1z M33,113h1v5h-1z M31,114h2v1h-2z M33,120h1v2h-1z" /><path fill="#505C7A" d="M22,40h1v1h-1z M20,56h1v1h-1z M6,105h1v1h-1z M107,114h1v1h-1z M3,117h1v1h-1z" /><path fill="#202D44" d="M21,42h1v1h-1z M22,70h1v1h-1z M27,84h1v1h-1z M22,86h1v1h-1z M20,89h1v1h-1z M27,96h1v1h-1z M20,98h1v1h-1z M13,105h1v1h-1z M13,109h1v1h-1z M29,111h1v1h-1z M13,113h1v1h-1z M27,114h1v1h-1z M30,119h1v1h-1z M0,121h1v1h-1z M24,56h1v7h-1z M24,64h1v27h-1z M22,72h1v3h-1z M22,76h1v9h-1z M22,88h1v5h-1z M24,92h1v30h-1z M22,94h1v28h-1z M20,100h1v6h-1z M27,102h1v11h-1z M20,108h1v2h-1z M20,116h1v5h-1z M27,116h1v5h-1z M29,116h1v4h-1z" /><path fill="#868895" d="M26,44h1v1h-1z M26,50h1v1h-1z M28,79h1v1h-1z M28,89h1v1h-1z M28,92h1v1h-1z M28,99h1v1h-1z M28,101h1v1h-1z M39,104h1v1h-1z M30,105h1v1h-1z M30,107h1v1h-1z M27,122h1v1h-1z M27,57h2v1h-2z M27,59h2v1h-2z M27,61h2v1h-2z M27,63h2v1h-2z M27,65h2v1h-2z M27,67h2v1h-2z M27,69h2v1h-2z M27,71h2v1h-2z M27,73h1v2h-1z M28,77h2v1h-2z M29,83h2v1h-2z M29,93h2v1h-2z M40,105h3v1h-3z M40,107h3v1h-3z M41,109h2v1h-2z M40,111h3v1h-3z M40,113h3v1h-3z M40,115h3v1h-3z M28,116h1v4h-1z M40,117h3v1h-3z M40,119h3v1h-3z" /><path fill="#9D9DA5" d="M30,77h1v1h-1z M28,78h1v1h-1z M28,80h1v1h-1z M30,82h1v1h-1z M28,85h1v1h-1z M30,85h1v1h-1z M29,86h1v1h-1z M17,89h1v1h-1z M28,100h1v1h-1z M28,102h1v1h-1z M31,105h1v1h-1z M30,106h1v1h-1z M15,107h1v1h-1z M15,109h1v1h-1z M31,109h1v1h-1z M28,111h1v1h-1z M33,112h1v1h-1z M113,112h1v1h-1z M15,113h1v1h-1z M32,113h1v1h-1z M102,113h1v1h-1z M39,115h1v1h-1z M40,118h1v1h-1z M39,119h1v1h-1z M92,120h1v1h-1z M25,121h1v1h-1z M28,76h3v1h-3z M29,79h1v3h-1z M30,87h1v4h-1z M29,88h1v3h-1z M30,94h3v4h-3z M30,98h2v1h-2z M31,99h2v1h-2z M30,100h2v1h-2z M32,101h1v9h-1z M30,102h2v3h-2z M28,104h1v3h-1z M38,107h2v1h-2z M30,108h2v1h-2z M102,108h1v4h-1z M30,110h1v2h-1z M31,111h2v2h-2z M32,115h1v2h-1z M31,116h1v2h-1z M33,118h1v2h-1z M31,119h2v1h-2z" /><path fill="#777C8C" d="M28,81h1v1h-1z M28,96h1v1h-1z M30,101h1v1h-1z M28,103h1v1h-1z M39,106h1v1h-1z M30,109h1v1h-1z M31,113h1v1h-1z M28,114h1v1h-1z M31,115h1v1h-1z M66,121h1v1h-1z M72,122h1v1h-1z M123,122h1v1h-1z M28,83h1v2h-1z M15,106h2v1h-2z M15,120h2v1h-2z M31,120h2v1h-2z M66,120h17v1h-17z" /><path fill="#5F697E" d="M16,89h1v1h-1z M38,108h1v1h-1z M28,120h1v1h-1z M8,121h1v1h-1z M78,121h1v1h-1z M64,122h1v1h-1z M66,122h1v1h-1z M68,122h1v1h-1z" /><path fill="#B8DAE7" d="M108,99h1v1h-1z M116,103h1v1h-1z M95,106h1v1h-1z M126,109h1v1h-1z M51,110h1v1h-1z M106,110h1v1h-1z M70,113h1v1h-1z M74,114h1v1h-1z M51,115h1v1h-1z M49,116h1v1h-1z M46,120h1v1h-1z M108,94h2v5h-2z M107,95h1v5h-1z M110,95h1v4h-1z M33,96h1v16h-1z M104,96h3v4h-3z M111,96h1v4h-1z M101,97h3v11h-3z M117,97h1v8h-1z M34,98h1v23h-1z M40,98h1v6h-1z M100,98h1v10h-1z M112,98h5v3h-5z M118,98h1v19h-1z M35,99h5v5h-5z M99,99h1v23h-1z M119,99h1v18h-1z M125,99h2v10h-2z M104,100h2v13h-2z M120,100h1v17h-1z M124,100h1v8h-1z M127,100h1v18h-1z M7,101h1v14h-1z M106,101h4v9h-4z M113,101h4v1h-4z M6,102h1v3h-1z M8,102h1v13h-1z M41,102h5v2h-5z M98,102h1v8h-1z M110,102h1v10h-1z M115,102h2v1h-2z M121,102h1v15h-1z M123,102h1v6h-1z M9,103h4v2h-4z M46,103h1v5h-1z M111,103h1v9h-1z M0,104h2v1h-2z M4,104h2v1h-2z M35,104h1v16h-1z M43,104h3v5h-3z M47,104h1v4h-1z M97,104h1v5h-1z M122,104h1v4h-1z M0,105h1v15h-1z M9,105h2v10h-2z M48,105h4v3h-4z M96,105h1v3h-1z M112,105h1v7h-1z M52,106h1v6h-1z M113,106h3v6h-3z M53,107h4v5h-4z M66,107h5v6h-5z M116,107h1v10h-1z M49,108h3v1h-3z M57,108h1v6h-1z M65,108h1v5h-1z M71,108h1v6h-1z M86,108h3v10h-3z M43,109h2v11h-2z M50,109h2v1h-2z M58,109h2v4h-2z M72,109h1v5h-1z M84,109h2v13h-2z M89,109h5v5h-5z M117,109h1v8h-1z M45,110h3v10h-3z M60,110h5v3h-5z M73,110h2v4h-2z M83,110h1v10h-1z M94,110h2v4h-2z M108,110h2v1h-2z M122,110h3v8h-3z M48,111h1v6h-1z M75,111h8v4h-8z M96,111h1v11h-1z M109,111h1v11h-1z M125,111h1v7h-1z M49,112h2v4h-2z M54,112h3v2h-3z M97,112h1v10h-1z M126,112h1v6h-1z M51,113h3v2h-3z M98,113h1v9h-1z M89,114h1v7h-1z M95,114h1v8h-1z M76,115h7v1h-7z M78,116h5v1h-5z M80,117h3v1h-3z M82,118h1v2h-1z M122,118h2v3h-2z" /><path fill="#5A6278" d="M28,95h1v1h-1z M39,110h1v1h-1z M57,117h1v1h-1z M76,122h1v1h-1z" /><path fill="#5A6C8A" d="M110,121h1v1h-1z M4,106h3v1h-3z M100,108h1v3h-1z M110,112h3v8h-3z M100,113h1v9h-1z M93,114h2v6h-2z M101,114h2v1h-2z M7,115h4v6h-4z M101,115h1v2h-1z M4,117h3v1h-3z M101,118h1v4h-1z M110,120h2v1h-2z" /><path fill="#556683" d="M102,115h1v1h-1z M101,117h1v1h-1z M3,108h4v1h-4z M101,108h1v6h-1z M3,110h4v1h-4z M100,111h1v2h-1z M3,112h4v1h-4z M3,114h4v1h-4z M100,122h2v1h-2z" /><path fill="#718098" d="M88,118h1v1h-1z M15,108h2v1h-2z M108,111h1v10h-1z M15,112h2v1h-2z M107,115h1v6h-1z" /><path fill="#657693" d="M16,110h1v1h-1z M102,116h1v1h-1z M116,120h1v1h-1z M15,121h1v1h-1z M116,117h4v3h-4z M43,120h3v1h-3z M118,120h2v1h-2z M40,121h5v1h-5z" /><path fill="#24231F" d="M33,122h1v1h-1z M47,122h1v1h-1z M50,122h1v1h-1z M54,122h1v1h-1z M59,122h1v1h-1z M65,122h1v1h-1z M75,122h1v1h-1z M77,122h1v1h-1z M79,122h1v1h-1z M81,122h1v1h-1z M127,122h1v1h-1z M58,113h2v2h-2z M54,114h4v1h-4z M52,115h4v1h-4z M50,116h5v1h-5z M45,121h2v2h-2z M52,121h1v2h-1z M67,121h1v2h-1z M69,121h1v2h-1z M71,121h1v2h-1z M73,121h1v2h-1z M41,122h4v1h-4z" /><path fill="#595758" d="M60,113h10v1h-10z M56,118h26v1h-26z" /><path fill="#434343" d="M10,122h1v1h-1z M60,114h14v1h-14z" /><path fill="#8493A8" d="M92,114h1v1h-1z" /><path fill="#525050" d="M57,115h19v2h-19z M76,116h2v1h-2z" /><path fill="#7482A2" d="M113,117h1v1h-1z" /><path fill="#7C899F" d="M114,117h1v1h-1z M86,118h2v3h-2z M91,118h2v1h-2z M88,119h1v2h-1z" /><path fill="#1E1D1A" d="M50,121h1v1h-1z M54,121h1v1h-1z M59,121h1v1h-1z M65,121h1v1h-1z M75,121h1v1h-1z M77,121h1v1h-1z M79,121h1v1h-1z M81,121h1v1h-1z M122,121h1v1h-1z M48,122h1v1h-1z M48,119h34v1h-34z M47,121h2v1h-2z M57,121h1v2h-1z M61,121h1v2h-1z M63,121h1v2h-1z" /><path fill="#4C522B" d="M9,122h1v1h-1z M95,122h1v1h-1z M19,120h1v3h-1z M83,120h1v3h-1z M112,120h2v3h-2z M117,120h1v3h-1z M2,121h6v2h-6z M9,121h5v1h-5z M16,121h3v2h-3z M20,121h1v2h-1z M23,121h1v2h-1z M26,121h6v1h-6z M34,121h5v2h-5z M86,121h9v2h-9z M104,121h5v2h-5z M111,121h1v2h-1z M114,121h3v2h-3z M118,121h3v2h-3z M123,121h4v1h-4z M0,122h2v1h-2z M11,122h5v1h-5z M21,122h2v1h-2z M24,122h3v1h-3z M28,122h4v1h-4z M39,122h2v1h-2z M84,122h2v1h-2z M98,122h2v1h-2z M102,122h2v1h-2z M109,122h2v1h-2z M121,122h2v1h-2z M124,122h3v1h-3z" /><path fill="#666A5D" d="M39,121h1v1h-1z M96,122h1v1h-1z" /><path fill="#3A3F34" d="M32,122h1v1h-1z" /><path fill="#5F6233" d="M97,122h1v1h-1z" /><path fill="#15194A" d="M0,124h84v1h-84z M85,124h5v1h-5z M91,124h37v1h-37z" /><path fill="#191F52" d="M84,124h1v1h-1z M90,124h1v1h-1z" /><path fill="#4EA4CA" d="M0,125h128v1h-128z" /><path fill="#336FAF" d="M0,126h128v2h-128z" /></svg>