<svg xmlns="http://www.w3.org/2000/svg" version="1.1" width="128" height="128" shape-rendering="crispEdges"><path fill="#53DDF7" d="M0,0h128v4h-128z M0,4h47v1h-47z M53,4h75v1h-75z M0,5h44v1h-44z M54,5h74v1h-74z M0,6h42v1h-42z M56,6h72v1h-72z M0,7h40v1h-40z M58,7h70v1h-70z M0,8h39v1h-39z M59,8h69v2h-69z M0,9h37v1h-37z M0,10h36v4h-36z M60,10h68v1h-68z M62,11h66v1h-66z M63,12h65v1h-65z M64,13h64v1h-64z M0,14h33v1h-33z M65,14h63v2h-63z M0,15h31v1h-31z M0,16h30v3h-30z M66,16h62v2h-62z M67,18h61v4h-61z M0,19h29v2h-29z M0,21h22v1h-22z M25,21h4v7h-4z M0,22h21v2h-21z M68,22h60v1h-60z M69,23h59v6h-59z M0,24h3v1h-3z M6,24h14v1h-14z M0,25h2v9h-2z M8,25h12v1h-12z M2,26h1v8h-1z M13,26h2v1h-2z M68,26h1v2h-1z M3,27h1v7h-1z M4,28h3v6h-3z M26,28h4v1h-4z M7,29h1v5h-1z M28,29h3v1h-3z M70,29h58v1h-58z M76,30h52v1h-52z M8,31h1v3h-1z M78,31h50v1h-50z M9,32h2v2h-2z M11,33h4v1h-4z" /><path fill="#F9F6E5" d="M38,11h1v1h-1z M41,15h1v1h-1z M47,15h1v1h-1z M52,15h1v1h-1z M32,16h1v1h-1z M36,17h1v1h-1z M32,18h1v1h-1z M35,26h1v1h-1z M41,26h1v1h-1z M44,27h1v1h-1z M51,28h1v1h-1z M40,41h1v1h-1z M42,45h1v1h-1z M50,46h1v1h-1z M78,52h1v1h-1z M80,52h1v1h-1z M83,53h1v1h-1z M85,55h1v1h-1z M50,56h1v1h-1z M51,58h1v1h-1z M3,59h1v1h-1z M42,59h1v1h-1z M46,59h1v1h-1z M55,59h1v1h-1z M91,59h1v1h-1z M5,61h1v1h-1z M4,62h1v1h-1z M101,62h1v1h-1z M108,63h1v1h-1z M0,64h1v1h-1z M59,64h1v1h-1z M118,64h1v1h-1z M65,65h1v1h-1z M0,66h1v1h-1z M2,66h1v1h-1z M122,68h1v1h-1z M125,72h1v1h-1z M125,86h1v1h-1z M47,4h6v11h-6z M44,5h3v11h-3z M53,5h1v11h-1z M42,6h2v10h-2z M54,6h2v12h-2z M40,7h2v8h-2z M56,7h2v10h-2z M39,8h1v7h-1z M58,8h1v33h-1z M37,9h2v2h-2z M36,10h1v2h-1z M59,10h1v31h-1z M60,11h2v28h-2z M62,12h1v28h-1z M63,13h1v27h-1z M33,14h3v5h-3z M64,14h1v27h-1z M31,15h2v1h-2z M36,16h2v1h-2z M65,16h1v26h-1z M57,17h1v3h-1z M47,18h5v9h-5z M66,18h1v25h-1z M37,19h4v5h-4z M46,19h1v9h-1z M52,19h1v11h-1z M35,20h2v6h-2z M41,20h1v3h-1z M45,20h1v8h-1z M53,20h1v12h-1z M42,21h3v2h-3z M54,21h4v11h-4z M33,22h2v5h-2z M67,22h1v30h-1z M43,23h2v4h-2z M68,23h1v3h-1z M32,24h1v2h-1z M41,24h2v1h-2z M42,25h1v2h-1z M49,27h3v1h-3z M68,28h1v24h-1z M69,29h1v21h-1z M70,30h6v21h-6z M76,31h2v8h-2z M55,32h3v4h-3z M78,32h1v8h-1z M54,33h1v3h-1z M79,34h1v7h-1z M80,35h1v6h-1z M56,36h2v4h-2z M81,37h1v5h-1z M43,39h5v2h-5z M60,39h1v2h-1z M41,40h2v2h-2z M48,40h1v6h-1z M57,40h1v2h-1z M82,40h1v2h-1z M43,41h2v1h-2z M47,41h1v5h-1z M49,41h4v3h-4z M76,41h1v13h-1z M42,42h2v1h-2z M46,42h1v4h-1z M53,42h1v6h-1z M63,42h2v6h-2z M45,43h1v3h-1z M65,43h1v9h-1z M77,43h1v12h-1z M43,44h2v2h-2z M49,44h2v1h-2z M52,44h1v3h-1z M54,44h1v5h-1z M66,44h1v7h-1z M78,44h3v1h-3z M51,45h1v2h-1z M55,45h1v2h-1z M62,45h1v2h-1z M78,45h2v7h-2z M64,48h1v2h-1z M83,48h4v4h-4z M80,49h3v3h-3z M87,49h1v9h-1z M88,50h4v8h-4z M58,51h1v9h-1z M74,51h2v2h-2z M92,51h2v9h-2z M7,52h7v3h-7z M55,52h3v7h-3z M59,52h2v11h-2z M84,52h3v2h-3z M94,52h2v9h-2z M6,53h1v4h-1z M14,53h1v8h-1z M54,53h1v7h-1z M61,53h2v13h-2z M96,53h1v8h-1z M15,54h1v6h-1z M63,54h1v12h-1z M86,54h1v3h-1z M97,54h1v7h-1z M1,55h5v2h-5z M9,55h5v2h-5z M46,55h4v3h-4z M53,55h1v5h-1z M64,55h1v11h-1z M68,55h2v9h-2z M71,55h3v11h-3z M98,55h1v6h-1z M0,56h1v5h-1z M8,56h1v3h-1z M16,56h1v4h-1z M44,56h2v5h-2z M52,56h1v3h-1z M65,56h2v7h-2z M70,56h1v8h-1z M74,56h2v10h-2z M113,56h6v8h-6z M1,57h3v1h-3z M9,57h2v8h-2z M12,57h2v5h-2z M43,57h1v3h-1z M67,57h1v7h-1z M76,57h1v11h-1z M99,57h3v3h-3z M112,57h1v7h-1z M119,57h2v8h-2z M1,58h2v1h-2z M4,58h1v2h-1z M7,58h1v3h-1z M11,58h1v6h-1z M46,58h2v1h-2z M77,58h2v11h-2z M90,58h2v1h-2z M102,58h1v6h-1z M121,58h2v10h-2z M1,59h1v2h-1z M79,59h1v10h-1z M103,59h1v6h-1z M123,59h1v12h-1z M6,60h1v2h-1z M8,60h1v5h-1z M100,60h2v2h-2z M105,60h3v5h-3z M111,60h1v3h-1z M57,61h2v1h-2z M80,61h1v8h-1z M104,61h1v4h-1z M108,61h2v2h-2z M7,62h1v3h-1z M81,62h1v8h-1z M6,63h1v2h-1z M60,63h1v2h-1z M82,63h1v8h-1z M83,64h1v7h-1z M124,64h2v8h-2z M114,65h3v1h-3z M120,65h1v3h-1z M126,65h2v8h-2z M4,66h3v1h-3z M8,66h2v1h-2z M72,66h3v1h-3z M84,66h1v6h-1z M115,66h5v1h-5z M85,67h3v5h-3z M92,67h1v4h-1z M116,67h4v1h-4z M88,68h2v4h-2z M91,68h1v3h-1z M90,69h1v3h-1z M112,76h5v4h-5z M107,77h5v1h-5z M117,77h3v5h-3z M109,78h3v1h-3z M120,78h1v8h-1z M121,79h2v7h-2z M115,80h2v1h-2z M123,80h1v6h-1z M124,81h2v5h-2z M118,82h2v1h-2z M126,82h1v5h-1z M119,83h1v2h-1z M127,83h1v5h-1z" /><path fill="#B8E5E9" d="M32,17h1v1h-1z M53,19h1v1h-1z M57,20h1v1h-1z M41,25h1v1h-1z M31,29h1v1h-1z M48,39h1v1h-1z M64,41h1v1h-1z M65,42h1v1h-1z M66,43h1v1h-1z M81,43h1v1h-1z M42,44h1v1h-1z M51,44h1v1h-1z M55,44h1v1h-1z M70,55h1v1h-1z M3,58h1v1h-1z M8,59h1v1h-1z M28,60h1v1h-1z M58,60h1v1h-1z M7,61h1v1h-1z M82,62h1v1h-1z M59,63h1v1h-1z M1,64h1v1h-1z M1,66h1v1h-1z M91,67h1v1h-1z M61,71h1v1h-1z M57,72h1v1h-1z M53,74h1v1h-1z M51,75h1v1h-1z M83,76h1v1h-1z M44,77h1v1h-1z M42,78h1v1h-1z M121,78h1v1h-1z M90,80h1v1h-1z M127,82h1v1h-1z M98,87h1v1h-1z M106,92h1v1h-1z M108,93h1v1h-1z M124,98h1v1h-1z M37,11h1v5h-1z M36,12h1v4h-1z M38,12h1v7h-1z M39,15h2v4h-2z M48,15h4v3h-4z M30,16h2v13h-2z M41,16h7v2h-7z M52,16h2v3h-2z M37,17h1v2h-1z M56,17h1v4h-1z M36,18h1v2h-1z M41,18h6v1h-6z M54,18h2v3h-2z M29,19h1v9h-1z M32,19h4v1h-4z M41,19h5v1h-5z M32,20h3v2h-3z M42,20h3v1h-3z M32,22h1v2h-1z M41,23h2v1h-2z M37,24h4v7h-4z M32,26h1v4h-1z M36,26h1v5h-1z M33,27h3v4h-3z M41,27h3v12h-3z M47,27h2v12h-2z M44,28h3v11h-3z M49,28h2v13h-2z M51,29h1v12h-1z M52,30h1v11h-1z M39,31h2v1h-2z M53,32h2v1h-2z M53,33h1v9h-1z M35,34h6v7h-6z M27,36h2v24h-2z M34,36h1v32h-1z M54,36h2v8h-2z M29,37h5v25h-5z M41,39h2v1h-2z M61,39h1v14h-1z M76,39h2v2h-2z M56,40h1v12h-1z M62,40h2v2h-2z M78,40h1v4h-1z M35,41h5v27h-5z M45,41h2v1h-2z M58,41h3v10h-3z M77,41h1v2h-1z M79,41h2v3h-2z M40,42h2v35h-2z M44,42h2v1h-2z M57,42h1v10h-1z M62,42h1v3h-1z M81,42h2v1h-2z M42,43h3v1h-3z M16,45h1v11h-1z M49,45h2v1h-2z M15,46h1v8h-1z M42,46h8v9h-8z M14,47h1v6h-1z M50,47h3v9h-3z M55,47h1v5h-1z M62,47h1v6h-1z M13,48h1v4h-1z M53,48h1v7h-1z M63,48h1v6h-1z M54,49h1v4h-1z M64,50h1v5h-1z M69,50h1v5h-1z M59,51h2v1h-2z M66,51h1v5h-1z M70,51h4v4h-4z M65,52h1v4h-1z M67,52h2v3h-2z M79,52h1v7h-1z M81,52h3v1h-3z M74,53h2v3h-2z M78,53h1v5h-1z M80,53h3v8h-3z M76,54h1v3h-1z M83,54h3v1h-3z M7,55h2v1h-2z M42,55h4v1h-4z M67,55h1v2h-1z M77,55h1v3h-1z M83,55h2v9h-2z M7,56h1v2h-1z M42,56h2v1h-2z M51,56h1v2h-1z M85,56h1v11h-1z M4,57h3v1h-3z M42,57h1v2h-1z M50,57h1v19h-1z M86,57h1v10h-1z M5,58h2v2h-2z M48,58h2v18h-2z M87,58h3v9h-3z M111,58h1v2h-1z M2,59h1v6h-1z M47,59h1v18h-1z M51,59h2v16h-2z M56,59h2v2h-2z M90,59h1v10h-1z M3,60h3v1h-3z M42,60h2v18h-2z M46,60h1v17h-1z M53,60h3v13h-3z M91,60h3v7h-3z M99,60h1v28h-1z M110,60h1v17h-1z M0,61h2v3h-2z M3,61h2v1h-2z M44,61h2v16h-2z M56,61h1v12h-1z M81,61h2v1h-2z M94,61h5v23h-5z M3,62h1v3h-1z M5,62h2v1h-2z M31,62h3v5h-3z M57,62h2v10h-2z M100,62h1v27h-1z M4,63h2v2h-2z M65,63h2v2h-2z M101,63h1v27h-1z M109,63h1v14h-1z M111,63h1v14h-1z M11,64h1v3h-1z M67,64h4v5h-4z M84,64h1v2h-1z M102,64h1v26h-1z M108,64h1v13h-1z M112,64h6v1h-6z M59,65h2v7h-2z M66,65h1v4h-1z M103,65h5v12h-5z M112,65h2v11h-2z M117,65h3v1h-3z M61,66h5v3h-5z M71,66h1v5h-1z M75,66h1v7h-1z M114,66h1v10h-1z M32,67h2v1h-2z M72,67h3v4h-3z M88,67h2v1h-2z M93,67h1v16h-1z M115,67h1v9h-1z M76,68h1v5h-1z M116,68h6v8h-6z M33,69h3v1h-3z M37,69h2v1h-2z M61,69h4v1h-4z M77,69h4v5h-4z M122,69h1v10h-1z M61,70h2v1h-2z M81,70h1v6h-1z M73,71h2v1h-2z M82,71h2v5h-2z M91,71h2v11h-2z M123,71h1v9h-1z M84,72h7v5h-7z M124,72h1v9h-1z M53,73h2v1h-2z M125,73h3v8h-3z M78,74h3v1h-3z M117,76h5v1h-5z M41,77h1v2h-1z M85,77h6v1h-6z M103,77h4v14h-4z M120,77h2v1h-2z M86,78h5v1h-5z M107,78h2v15h-2z M88,79h3v1h-3z M109,79h3v15h-3z M112,80h3v15h-3z M115,81h2v14h-2z M126,81h2v1h-2z M117,82h1v14h-1z M118,83h1v13h-1z M95,84h4v1h-4z M96,85h3v1h-3z M119,85h1v11h-1z M97,86h2v1h-2z M120,86h5v11h-5z M125,87h2v12h-2z M127,88h1v12h-1z M104,91h3v1h-3z M122,97h3v1h-3z" /><path fill="#DEC9A1" d="M24,25h1v1h-1z M9,27h1v1h-1z M12,27h1v1h-1z M19,30h1v1h-1z M30,32h1v1h-1z M32,33h1v1h-1z M34,35h1v1h-1z M24,36h1v1h-1z M23,37h1v1h-1z M22,38h1v1h-1z M24,38h1v1h-1z M17,43h1v1h-1z M24,49h1v1h-1z M26,60h1v1h-1z M22,21h3v1h-3z M23,22h2v1h-2z M7,25h1v2h-1z M9,26h4v1h-4z M15,26h3v1h-3z M16,27h2v1h-2z M18,28h2v2h-2z M20,29h3v3h-3z M25,29h3v2h-3z M23,30h1v3h-1z M28,30h1v2h-1z M30,30h3v1h-3z M25,31h2v2h-2z M30,31h2v1h-2z M33,31h4v1h-4z M26,33h1v6h-1z M23,39h1v3h-1z M24,40h1v5h-1z M26,40h1v9h-1z M21,43h1v2h-1z M22,44h1v5h-1z M23,46h1v4h-1z M19,60h6v1h-6z M27,61h2v1h-2z" /><path fill="#7C5F50" d="M21,22h1v1h-1z M2,25h1v1h-1z M24,26h1v1h-1z M6,27h1v1h-1z M8,27h1v1h-1z M14,27h1v1h-1z M22,27h1v1h-1z M7,28h1v1h-1z M13,28h1v1h-1z M20,28h1v1h-1z M12,29h1v1h-1z M14,29h1v1h-1z M16,29h1v1h-1z M8,30h1v1h-1z M19,31h1v1h-1z M12,32h1v1h-1z M20,32h1v1h-1z M36,32h1v1h-1z M38,32h1v1h-1z M30,33h1v1h-1z M32,34h1v1h-1z M24,37h1v1h-1z M17,39h1v1h-1z M24,52h1v1h-1z M26,52h1v1h-1z M24,57h1v1h-1z M17,58h1v1h-1z M4,24h2v1h-2z M20,24h4v1h-4z M21,25h1v4h-1z M4,26h3v1h-3z M18,26h2v1h-2z M11,27h1v2h-1z M19,27h2v1h-2z M15,28h2v1h-2z M8,29h2v1h-2z M24,29h1v4h-1z M13,30h1v2h-1z M15,30h1v2h-1z M11,31h2v1h-2z M14,31h1v2h-1z M37,31h1v3h-1z M18,32h1v9h-1z M19,33h1v2h-1z M22,33h2v2h-2z M20,34h2v2h-2z M24,34h1v2h-1z M27,34h2v1h-2z M16,35h1v10h-1z M19,36h1v11h-1z M22,36h2v1h-2z M30,36h4v1h-4z M21,37h1v4h-1z M22,42h1v2h-1z M18,43h1v2h-1z M23,43h1v2h-1z M18,47h1v13h-1z M20,47h1v13h-1z M19,48h1v11h-1z M21,49h2v1h-2z M25,49h1v4h-1z M22,50h2v1h-2z M23,51h1v9h-1z M17,52h1v5h-1z M15,60h3v1h-3z M18,61h5v1h-5z" /><path fill="#553934" d="M21,23h1v1h-1z M7,27h1v1h-1z M8,28h1v1h-1z M38,31h1v1h-1z M11,32h1v1h-1z M13,32h1v1h-1z M19,32h1v1h-1z M29,32h1v1h-1z M32,32h1v1h-1z M28,33h1v1h-1z M38,33h1v1h-1z M19,35h1v1h-1z M30,35h1v1h-1z M18,42h1v1h-1z M24,46h1v1h-1z M19,47h1v1h-1z M21,48h1v1h-1z M25,48h1v1h-1z M26,49h1v1h-1z M24,51h1v1h-1z M17,57h1v1h-1z M17,59h1v1h-1z M19,59h1v1h-1z M22,22h1v2h-1z M23,23h2v1h-2z M3,24h1v3h-1z M4,25h2v1h-2z M20,25h1v2h-1z M22,25h2v2h-2z M4,27h2v1h-2z M17,29h1v10h-1z M9,30h2v2h-2z M16,30h1v5h-1z M18,30h1v2h-1z M15,32h1v2h-1z M39,32h2v2h-2z M20,33h2v1h-2z M25,33h1v5h-1z M31,33h1v3h-1z M35,33h2v1h-2z M29,34h1v3h-1z M27,35h2v1h-2z M20,36h1v3h-1z M25,39h1v8h-1z M17,41h2v1h-2z M17,44h1v8h-1z M18,45h1v2h-1z M24,53h1v4h-1z M24,58h1v2h-1z M14,61h4v1h-4z M23,61h2v1h-2z" /><path fill="#B9AB8A" d="M24,24h1v1h-1z M6,25h1v1h-1z M13,27h1v1h-1z M15,27h1v1h-1z M18,27h1v1h-1z M12,28h1v1h-1z M14,28h1v1h-1z M17,28h1v1h-1z M22,28h1v1h-1z M25,28h1v1h-1z M13,29h1v1h-1z M23,29h1v1h-1z M12,30h1v1h-1z M32,31h1v1h-1z M28,32h1v1h-1z M31,32h1v1h-1z M24,33h1v1h-1z M29,33h1v1h-1z M23,35h1v1h-1z M21,36h1v1h-1z M22,37h1v1h-1z M23,38h1v1h-1z M24,39h1v1h-1z M26,39h1v1h-1z M23,42h1v1h-1z M24,50h1v1h-1z M22,51h1v1h-1z M18,60h1v1h-1z M26,61h1v1h-1z M10,27h1v3h-1z M23,27h2v2h-2z M11,29h1v2h-1z M29,30h1v2h-1z M27,31h1v3h-1z M33,32h3v1h-3z M34,33h1v2h-1z M33,34h1v2h-1z M20,39h1v8h-1z M22,39h1v2h-1z M21,41h1v2h-1z M21,45h1v3h-1z M23,45h2v1h-2z M24,47h1v2h-1z M21,50h1v10h-1z M26,50h1v2h-1z M25,53h2v7h-2z M22,54h1v5h-1z M25,60h1v2h-1z" /><path fill="#8B9081" d="M8,26h1v1h-1z" /><path fill="#A19679" d="M9,28h1v1h-1z M14,30h1v1h-1z M22,35h1v1h-1z M17,42h1v1h-1z" /><path fill="#908873" d="M15,29h1v1h-1z M33,33h1v1h-1z M30,34h1v1h-1z M32,35h1v1h-1z M17,40h1v1h-1z" /><path fill="#C9B18A" d="M21,32h2v1h-2z" /><path fill="#85F8F5" d="M0,55h1v1h-1z M104,60h1v1h-1z M79,32h49v2h-49z M0,34h16v12h-16z M80,34h48v1h-48z M81,35h47v2h-47z M82,37h46v3h-46z M83,40h45v8h-45z M82,43h1v6h-1z M81,44h1v5h-1z M80,45h1v4h-1z M0,46h15v1h-15z M0,47h14v1h-14z M0,48h13v4h-13z M87,48h41v1h-41z M88,49h40v1h-40z M92,50h36v1h-36z M94,51h34v1h-34z M0,52h7v1h-7z M96,52h32v1h-32z M0,53h6v1h-6z M97,53h31v1h-31z M0,54h5v1h-5z M98,54h30v1h-30z M99,55h29v1h-29z M99,56h14v1h-14z M119,56h9v1h-9z M102,57h10v1h-10z M121,57h7v1h-7z M103,58h8v1h-8z M123,58h5v1h-5z M104,59h7v1h-7z M124,59h4v5h-4z M108,60h2v1h-2z M126,64h2v1h-2z" /><path fill="#4A504F" d="M25,38h1v1h-1z M25,47h1v1h-1z" /><path fill="#746E71" d="M22,41h1v1h-1z" /><path fill="#EDCC9C" d="M22,52h1v2h-1z" /><path fill="#E4EFE7" d="M5,54h1v1h-1z M11,57h1v1h-1z" /><path fill="#D1C8A8" d="M22,59h1v1h-1z M27,60h1v1h-1z" /><path fill="#1F2B28" d="M12,62h1v5h-1z M30,62h1v5h-1z M13,63h4v1h-4z M15,65h4v1h-4z" /><path fill="#2B3A33" d="M19,65h1v1h-1z M13,62h6v1h-6z M17,63h3v1h-3z M13,64h6v1h-6z M13,65h2v2h-2z M15,66h4v1h-4z" /><path fill="#4F5E55" d="M19,64h1v1h-1z M19,66h1v1h-1z M19,62h3v1h-3z M20,63h2v4h-2z M24,63h4v1h-4z M26,65h3v1h-3z" /><path fill="#627265" d="M22,62h8v1h-8z M22,63h2v4h-2z M28,63h2v2h-2z M24,64h4v1h-4z M24,65h2v2h-2z M29,65h1v2h-1z M26,66h3v1h-3z" /><path fill="#422C2F" d="M3,66h1v1h-1z M7,66h1v1h-1z M10,66h1v1h-1z M0,76h1v1h-1z M0,65h11v1h-11z M0,68h40v1h-40z M32,69h1v2h-1z M36,69h1v2h-1z M39,69h1v2h-1z M0,70h32v1h-32z M33,70h3v1h-3z M37,70h2v1h-2z M0,73h4v1h-4z M0,74h3v1h-3z M0,75h2v1h-2z" /><path fill="#5E3733" d="M0,67h16v1h-16z M20,67h3v1h-3z M0,69h19v1h-19z M0,71h23v1h-23z" /><path fill="#8C694C" d="M16,67h4v1h-4z M23,67h9v1h-9z M19,69h13v1h-13z M23,71h17v1h-17z" /><path fill="#5694AB" d="M82,81h1v1h-1z M83,82h1v1h-1z M42,84h1v1h-1z M70,84h1v1h-1z M44,86h1v1h-1z M79,86h1v1h-1z M72,88h1v1h-1z M81,89h1v1h-1z M75,91h1v1h-1z M60,92h1v1h-1z M64,95h1v1h-1z M67,97h1v1h-1z M85,97h1v1h-1z M83,98h1v1h-1z M72,104h1v1h-1z M112,105h1v1h-1z M74,106h1v1h-1z M116,112h1v1h-1z M65,69h3v28h-3z M63,70h2v25h-2z M68,70h1v9h-1z M62,71h1v24h-1z M61,73h1v21h-1z M54,74h7v2h-7z M69,74h1v2h-1z M52,75h2v2h-2z M72,75h1v2h-1z M49,76h3v1h-3z M59,76h2v16h-2z M73,76h1v3h-1z M50,77h3v1h-3z M57,77h2v15h-2z M74,77h1v2h-1z M56,78h1v15h-1z M75,78h3v1h-3z M52,79h4v1h-4z M76,79h5v1h-5z M53,80h3v1h-3z M81,80h1v2h-1z M68,81h1v19h-1z M45,82h11v7h-11z M69,82h1v7h-1z M43,83h2v3h-2z M75,83h2v1h-2z M74,84h2v7h-2z M73,85h1v5h-1z M76,85h3v8h-3z M80,85h2v1h-2z M79,88h2v13h-2z M46,89h10v2h-10z M47,91h9v1h-9z M69,91h1v10h-1z M81,91h2v9h-2z M86,91h2v1h-2z M48,92h8v1h-8z M70,92h1v11h-1z M83,92h2v6h-2z M87,92h2v1h-2z M49,93h7v1h-7z M71,93h2v11h-2z M77,93h2v12h-2z M85,93h2v4h-2z M89,93h1v5h-1z M49,94h6v1h-6z M73,94h2v12h-2z M87,94h2v3h-2z M90,94h1v5h-1z M51,95h4v2h-4z M75,95h1v13h-1z M91,95h1v4h-1z M92,96h7v5h-7z M51,97h3v1h-3z M76,97h1v11h-1z M99,97h2v7h-2z M52,98h2v1h-2z M101,98h3v5h-3z M104,99h3v4h-3z M107,100h6v3h-6z M79,101h1v3h-1z M93,101h6v2h-6z M113,101h5v6h-5z M118,102h2v7h-2z M95,103h4v1h-4z M108,103h5v1h-5z M120,103h2v5h-2z M97,104h3v1h-3z M111,104h2v1h-2z M122,104h2v3h-2z M77,105h1v2h-1z M98,105h1v2h-1z M124,105h3v3h-3z M127,106h1v3h-1z M114,107h4v2h-4z M115,109h4v1h-4z M115,110h3v1h-3z M114,111h3v1h-3z" /><path fill="#9CBCD0" d="M74,76h1v1h-1z M82,80h1v1h-1z M42,83h1v1h-1z M73,84h1v1h-1z M76,84h1v1h-1z M79,85h1v1h-1z M79,87h1v1h-1z M81,88h1v1h-1z M81,90h1v1h-1z M86,92h1v1h-1z M89,92h1v1h-1z M92,95h1v1h-1z M99,96h1v1h-1z M107,99h1v1h-1z M75,108h1v1h-1z M68,69h3v1h-3z M69,70h2v4h-2z M71,71h2v4h-2z M58,72h4v1h-4z M73,72h2v4h-2z M55,73h6v1h-6z M75,73h2v5h-2z M70,74h1v10h-1z M77,74h1v4h-1z M71,75h1v18h-1z M78,75h3v4h-3z M48,76h1v6h-1z M54,76h5v1h-5z M69,76h1v6h-1z M81,76h2v4h-2z M45,77h3v5h-3z M49,77h1v5h-1z M53,77h4v1h-4z M72,77h1v11h-1z M83,77h2v5h-2z M43,78h2v5h-2z M50,78h6v1h-6z M85,78h1v15h-1z M41,79h2v4h-2z M50,79h2v3h-2z M68,79h1v2h-1z M73,79h3v4h-3z M86,79h2v12h-2z M52,80h1v2h-1z M76,80h5v3h-5z M88,80h2v12h-2z M53,81h3v1h-3z M90,81h1v13h-1z M81,82h2v3h-2z M84,82h1v10h-1z M91,82h2v13h-2z M73,83h2v1h-2z M77,83h4v2h-4z M83,83h1v9h-1z M93,83h1v13h-1z M94,84h1v12h-1z M70,85h1v7h-1z M82,85h1v6h-1z M95,85h1v11h-1z M80,86h2v2h-2z M96,86h1v10h-1z M97,87h1v9h-1z M98,88h2v8h-2z M69,89h1v2h-1z M72,89h1v4h-1z M100,89h1v8h-1z M73,90h1v4h-1z M101,90h2v8h-2z M74,91h1v3h-1z M103,91h1v7h-1z M75,92h1v3h-1z M104,92h2v7h-2z M76,93h1v4h-1z M87,93h2v1h-2z M106,93h2v6h-2z M108,94h4v6h-4z M112,95h5v5h-5z M117,96h3v5h-3z M120,97h2v6h-2z M122,98h2v6h-2z M124,99h3v6h-3z M113,100h4v1h-4z M127,100h1v6h-1z M118,101h2v1h-2z" /><path fill="#2E1F2A" d="M0,78h1v1h-1z M0,72h40v1h-40z M4,73h2v1h-2z M3,74h2v1h-2z M2,75h2v1h-2z M1,76h2v1h-2z M0,77h2v1h-2z" /><path fill="#0E3532" d="M10,81h1v1h-1z M11,86h1v1h-1z M2,92h1v1h-1z M20,96h1v1h-1z M40,105h1v1h-1z M44,107h1v1h-1z M10,111h1v1h-1z M55,111h1v1h-1z M40,115h1v1h-1z M36,117h1v1h-1z M39,118h1v1h-1z M9,122h1v1h-1z M17,123h1v1h-1z M6,73h34v1h-34z M5,74h3v2h-3z M4,75h1v19h-1z M3,76h1v10h-1z M5,76h2v4h-2z M2,77h1v6h-1z M1,78h1v4h-1z M0,79h1v5h-1z M5,80h1v15h-1z M6,81h1v15h-1z M7,82h1v15h-1z M8,83h1v15h-1z M9,84h1v4h-1z M3,87h1v6h-1z M0,88h1v2h-1z M12,94h4v3h-4z M16,95h1v18h-1z M9,96h1v4h-1z M17,96h1v18h-1z M13,97h3v1h-3z M18,97h1v18h-1z M10,98h1v6h-1z M14,98h2v3h-2z M12,99h1v3h-1z M13,101h1v6h-1z M15,101h1v11h-1z M19,101h1v15h-1z M14,102h1v3h-1z M20,102h1v14h-1z M56,102h1v2h-1z M45,103h2v5h-2z M11,104h1v5h-1z M21,104h1v6h-1z M41,104h4v2h-4z M47,104h2v5h-2z M55,104h1v4h-1z M22,105h1v6h-1z M49,105h1v4h-1z M54,105h1v7h-1z M23,106h1v5h-1z M43,106h2v1h-2z M50,106h1v3h-1z M53,106h1v5h-1z M2,107h2v1h-2z M24,107h1v4h-1z M51,107h1v3h-1z M3,108h2v1h-2z M25,108h1v4h-1z M52,108h1v2h-1z M0,109h1v8h-1z M4,109h2v1h-2z M14,109h1v2h-1z M26,109h1v3h-1z M1,110h1v7h-1z M2,111h1v7h-1z M21,111h1v6h-1z M27,111h1v2h-1z M3,112h1v7h-1z M22,112h1v5h-1z M4,113h1v7h-1z M23,113h1v5h-1z M5,114h1v6h-1z M6,115h1v5h-1z M24,115h1v4h-1z M7,116h8v5h-8z M15,117h3v6h-3z M25,117h1v3h-1z M18,118h1v7h-1z M26,118h1v2h-1z M19,119h1v7h-1z M20,120h1v6h-1z M8,121h3v1h-3z M13,121h2v1h-2z M21,121h1v5h-1z M22,122h1v4h-1z M23,123h5v3h-5z M28,124h3v4h-3z M31,125h1v3h-1z M24,126h4v1h-4z M32,126h4v2h-4z M25,127h3v1h-3z M36,127h6v1h-6z" /><path fill="#0F493A" d="M40,78h1v1h-1z M6,80h1v1h-1z M10,80h1v1h-1z M15,81h1v1h-1z M8,82h1v1h-1z M16,82h1v1h-1z M32,83h1v1h-1z M33,85h1v1h-1z M3,86h1v1h-1z M30,86h1v1h-1z M28,88h1v1h-1z M37,89h1v1h-1z M42,90h1v1h-1z M43,91h1v1h-1z M12,93h1v1h-1z M30,93h1v1h-1z M40,93h1v1h-1z M45,93h1v1h-1z M46,94h1v1h-1z M42,95h1v1h-1z M33,97h1v1h-1z M50,97h1v1h-1z M34,98h1v1h-1z M51,98h1v1h-1z M65,98h1v1h-1z M37,99h1v1h-1z M62,99h1v1h-1z M66,99h1v1h-1z M63,100h1v1h-1z M14,101h1v1h-1z M64,101h1v1h-1z M67,103h1v1h-1z M27,104h1v1h-1z M23,105h1v1h-1z M51,106h1v1h-1z M71,107h1v1h-1z M5,108h1v1h-1z M58,109h1v1h-1z M60,109h1v1h-1z M74,109h1v1h-1z M21,110h1v1h-1z M58,111h1v1h-1z M5,113h1v1h-1z M55,114h1v1h-1z M70,114h1v1h-1z M71,115h1v1h-1z M20,119h1v1h-1z M22,121h1v1h-1z M53,121h1v1h-1z M50,123h1v1h-1z M40,126h1v1h-1z M46,127h1v1h-1z M8,74h32v1h-32z M8,75h4v1h-4z M14,75h2v6h-2z M17,75h8v1h-8z M28,75h6v1h-6z M37,75h3v1h-3z M7,76h3v2h-3z M16,76h5v1h-5z M29,76h4v2h-4z M37,76h2v1h-2z M13,77h1v3h-1z M17,77h6v1h-6z M38,77h1v4h-1z M7,78h2v4h-2z M12,78h1v4h-1z M16,78h3v2h-3z M31,78h3v1h-3z M9,79h1v5h-1z M11,79h1v7h-1z M19,79h2v1h-2z M32,79h2v2h-2z M16,80h2v1h-2z M20,80h6v1h-6z M34,80h1v5h-1z M17,81h1v7h-1z M24,81h4v1h-4z M33,81h1v3h-1z M1,82h1v12h-1z M10,82h1v16h-1z M27,82h2v1h-2z M2,83h1v9h-1z M18,83h1v6h-1z M28,83h2v1h-2z M35,83h5v1h-5z M0,84h1v4h-1z M19,84h6v1h-6z M29,84h2v2h-2z M35,84h2v2h-2z M21,85h4v3h-4z M31,85h1v3h-1z M16,86h1v9h-1z M19,86h2v5h-2z M25,86h4v2h-4z M32,86h1v2h-1z M36,86h2v2h-2z M11,87h1v17h-1z M15,87h1v7h-1z M29,87h1v2h-1z M9,88h1v8h-1z M12,88h1v2h-1z M30,88h1v2h-1z M37,88h3v1h-3z M21,89h2v5h-2z M25,89h2v1h-2z M31,89h4v2h-4z M39,89h2v1h-2z M0,90h1v2h-1z M14,90h1v4h-1z M23,90h2v4h-2z M35,90h1v5h-1z M20,91h1v5h-1z M25,91h1v3h-1z M32,91h3v2h-3z M36,91h1v4h-1z M39,91h1v7h-1z M13,92h1v2h-1z M26,92h1v3h-1z M29,92h2v1h-2z M37,92h1v4h-1z M41,92h2v1h-2z M44,92h1v2h-1z M57,92h1v2h-1z M2,93h2v2h-2z M17,93h1v3h-1z M27,93h1v2h-1z M33,93h2v2h-2z M38,93h1v4h-1z M42,93h2v1h-2z M56,93h1v9h-1z M4,94h1v4h-1z M18,94h1v3h-1z M21,94h1v10h-1z M28,94h2v1h-2z M31,94h2v1h-2z M41,94h1v6h-1z M55,94h1v10h-1z M3,95h1v2h-1z M5,95h1v4h-1z M19,95h1v6h-1z M22,95h3v1h-3z M30,95h2v1h-2z M47,95h2v2h-2z M6,96h1v4h-1z M22,96h2v9h-2z M31,96h2v1h-2z M40,96h1v3h-1z M43,96h1v8h-1z M7,97h1v4h-1z M12,97h1v2h-1z M20,97h1v5h-1z M42,97h1v7h-1z M48,97h1v7h-1z M54,97h1v8h-1z M8,98h1v4h-1z M13,98h1v3h-1z M24,98h5v1h-5z M44,98h1v6h-1z M46,98h1v2h-1z M57,98h2v7h-2z M60,98h3v1h-3z M24,99h1v2h-1z M28,99h2v1h-2z M49,99h1v6h-1z M53,99h1v7h-1z M9,100h1v16h-1z M25,100h2v1h-2z M29,100h3v1h-3z M45,100h1v3h-1z M47,100h1v4h-1z M59,100h1v3h-1z M26,101h1v8h-1z M31,101h1v3h-1z M35,101h1v3h-1z M39,101h2v1h-2z M46,101h1v2h-1z M52,101h1v7h-1z M12,102h1v14h-1z M25,102h1v6h-1z M27,102h4v2h-4z M32,102h3v2h-3z M36,102h1v3h-1z M38,102h1v4h-1z M41,102h1v2h-1z M50,102h2v4h-2z M65,102h1v13h-1z M0,103h1v6h-1z M24,103h1v4h-1z M37,103h1v2h-1z M39,103h2v2h-2z M1,104h3v3h-3z M10,104h1v7h-1z M56,104h1v11h-1z M4,105h2v3h-2z M14,105h1v4h-1z M39,105h1v3h-1z M57,105h1v11h-1z M66,105h1v11h-1z M6,106h1v9h-1z M27,106h3v5h-3z M40,106h3v3h-3z M58,106h3v3h-3z M64,106h1v11h-1z M1,107h1v3h-1z M7,107h1v9h-1z M13,107h1v9h-1z M30,107h1v7h-1z M43,107h1v8h-1z M67,107h1v10h-1z M2,108h1v3h-1z M44,108h3v6h-3z M55,108h1v3h-1z M61,108h1v2h-1z M63,108h1v3h-1z M3,109h1v3h-1z M8,109h1v7h-1z M11,109h1v7h-1z M31,109h1v3h-1z M42,109h1v7h-1z M47,109h4v4h-4z M62,109h1v2h-1z M4,110h2v3h-2z M32,110h1v2h-1z M39,110h3v5h-3z M51,110h2v4h-2z M14,111h1v5h-1z M22,111h3v1h-3z M28,111h2v13h-2z M33,111h6v2h-6z M53,111h1v3h-1z M10,112h1v4h-1z M15,112h1v5h-1z M23,112h4v1h-4z M54,112h2v2h-2z M68,112h1v5h-1z M16,113h1v4h-1z M24,113h4v2h-4z M31,113h2v1h-2z M34,113h5v4h-5z M50,113h1v2h-1z M69,113h1v4h-1z M17,114h1v3h-1z M33,114h1v7h-1z M48,114h2v4h-2z M58,114h1v2h-1z M18,115h1v3h-1z M25,115h3v2h-3z M30,115h1v9h-1z M39,115h1v3h-1z M41,115h1v2h-1z M45,115h3v3h-3z M59,115h2v1h-2z M19,116h2v3h-2z M31,116h2v4h-2z M40,116h1v5h-1z M43,116h2v6h-2z M50,116h3v4h-3z M21,117h2v4h-2z M26,117h2v1h-2z M34,117h2v4h-2z M37,117h2v4h-2z M53,117h2v3h-2z M23,118h1v5h-1z M27,118h1v5h-1z M36,118h1v3h-1z M41,118h2v4h-2z M45,118h2v1h-2z M24,119h1v4h-1z M39,119h1v2h-1z M45,119h1v3h-1z M47,119h2v4h-2z M25,120h2v3h-2z M46,120h1v3h-1z M49,120h1v5h-1z M52,120h2v1h-2z M31,121h1v4h-1z M50,121h2v2h-2z M32,122h2v4h-2z M34,123h1v3h-1z M48,123h1v3h-1z M35,124h3v2h-3z M38,125h2v2h-2z M36,126h2v1h-2z M47,126h1v2h-1z M42,127h2v1h-2z" /><path fill="#1F723C" d="M16,75h1v1h-1z M36,75h1v1h-1z M12,77h1v1h-1z M16,77h1v1h-1z M40,77h1v1h-1z M9,78h1v1h-1z M10,79h1v1h-1z M34,79h1v1h-1z M26,80h1v1h-1z M16,81h1v1h-1z M30,83h1v1h-1z M20,85h1v1h-1z M32,85h1v1h-1z M34,85h1v1h-1z M29,86h1v1h-1z M43,86h1v1h-1z M30,87h1v1h-1z M44,89h1v1h-1z M43,90h1v1h-1z M37,91h1v1h-1z M42,91h1v1h-1z M44,91h1v1h-1z M40,92h1v1h-1z M43,92h1v1h-1z M45,92h1v1h-1z M31,93h1v1h-1z M41,93h1v1h-1z M46,93h1v1h-1z M30,94h1v1h-1z M50,95h1v1h-1z M60,97h1v1h-1z M45,98h1v1h-1z M67,98h1v1h-1z M63,99h1v1h-1z M46,100h1v1h-1z M27,101h1v1h-1z M41,101h1v1h-1z M51,101h1v1h-1z M0,102h1v1h-1z M24,102h1v1h-1z M37,102h1v1h-1z M6,105h1v1h-1z M27,105h1v1h-1z M58,105h1v1h-1z M64,105h1v1h-1z M63,107h1v1h-1z M58,110h1v1h-1z M33,113h1v1h-1z M70,113h1v1h-1z M50,115h1v1h-1z M63,115h1v1h-1z M53,116h1v1h-1z M41,117h1v1h-1z M46,119h1v1h-1z M49,119h1v1h-1z M12,75h2v2h-2z M10,76h2v3h-2z M21,76h2v1h-2z M33,76h1v2h-1z M23,77h2v3h-2z M19,78h4v1h-4z M25,78h2v2h-2z M21,79h2v1h-2z M27,79h1v2h-1z M40,79h1v3h-1z M13,80h1v12h-1z M28,80h1v2h-1z M35,80h2v3h-2z M14,81h1v9h-1z M18,81h1v2h-1z M29,81h2v2h-2z M37,81h1v2h-1z M12,82h1v6h-1z M15,82h1v5h-1z M19,82h1v2h-1z M16,83h1v3h-1z M20,83h5v1h-5z M25,84h2v2h-2z M31,84h3v1h-3z M27,85h2v1h-2z M37,85h2v1h-2z M38,86h1v2h-1z M33,87h1v2h-1z M17,88h1v5h-1z M21,88h2v1h-2z M18,89h1v5h-1z M23,89h2v1h-2z M12,90h1v3h-1z M25,90h3v1h-3z M40,90h2v2h-2z M19,91h1v4h-1z M26,91h2v1h-2z M27,92h2v1h-2z M58,92h1v6h-1z M28,93h2v1h-2z M22,94h4v1h-4z M40,94h1v2h-1z M44,94h2v4h-2z M57,94h1v4h-1z M25,95h4v1h-4z M46,95h1v3h-1z M59,95h1v4h-1z M24,96h4v2h-4z M28,97h2v1h-2z M34,97h3v1h-3z M47,97h1v2h-1z M49,97h1v2h-1z M29,98h2v1h-2z M35,98h4v1h-4z M50,98h1v4h-1z M0,99h1v2h-1z M25,99h3v1h-3z M30,99h7v1h-7z M38,99h2v1h-2z M60,99h2v1h-2z M1,100h2v1h-2z M28,100h1v2h-1z M32,100h6v1h-6z M39,100h3v1h-3z M51,100h2v1h-2z M60,100h1v6h-1z M2,101h3v1h-3z M6,101h2v2h-2z M24,101h2v1h-2z M29,101h2v1h-2z M33,101h2v1h-2z M36,101h2v1h-2z M67,101h1v2h-1z M3,102h3v2h-3z M8,102h1v3h-1z M39,102h2v1h-2z M66,102h1v2h-1z M1,103h2v1h-2z M7,103h1v4h-1z M4,104h3v1h-3z M32,104h1v4h-1z M59,104h1v2h-1z M61,104h1v4h-1z M67,104h2v3h-2z M30,105h2v2h-2z M33,105h3v2h-3z M36,106h1v5h-1z M62,106h1v3h-1z M69,106h2v7h-2z M8,107h1v2h-1z M31,107h1v2h-1z M68,107h1v4h-1z M37,108h2v3h-2z M73,108h2v1h-2z M32,109h2v1h-2z M35,109h1v2h-1z M39,109h3v1h-3z M59,109h1v6h-1z M71,109h3v1h-3z M33,110h2v1h-2z M60,110h2v5h-2z M71,110h2v1h-2z M62,111h2v4h-2z M71,111h1v2h-1z M31,112h2v1h-2z M58,112h1v2h-1z M47,113h3v1h-3z M30,114h3v1h-3z M44,114h4v1h-4z M51,114h1v2h-1z M31,115h2v1h-2z M43,115h2v1h-2z M52,115h2v1h-2z M42,116h1v2h-1z M47,118h3v1h-3z M31,120h2v1h-2z M32,121h9v1h-9z M34,122h12v1h-12z M35,123h13v1h-13z M38,124h10v1h-10z M40,125h8v1h-8z M41,126h6v1h-6z M44,127h2v1h-2z" /><path fill="#63A33B" d="M27,78h1v1h-1z M35,79h1v1h-1z M19,85h1v1h-1z M35,89h1v1h-1z M43,89h1v1h-1z M37,90h1v1h-1z M39,90h1v1h-1z M44,90h1v1h-1z M32,93h1v1h-1z M43,95h1v1h-1z M28,96h1v1h-1z M42,96h1v1h-1z M50,96h1v1h-1z M33,98h1v1h-1z M39,98h1v1h-1z M63,98h1v1h-1z M66,98h1v1h-1z M40,99h1v1h-1z M45,99h1v1h-1z M47,99h1v1h-1z M59,99h1v1h-1z M6,100h1v1h-1z M27,100h1v1h-1z M32,101h1v1h-1z M6,103h1v1h-1z M59,103h1v1h-1z M66,104h1v1h-1z M74,107h1v1h-1z M32,108h1v1h-1z M39,108h1v1h-1z M71,108h1v1h-1z M34,109h1v1h-1z M73,110h1v1h-1z M68,111h1v1h-1z M70,115h1v1h-1z M55,117h1v1h-1z M52,121h1v1h-1z M25,75h3v3h-3z M34,75h2v4h-2z M23,76h2v1h-2z M28,76h1v4h-1z M36,76h1v4h-1z M39,76h1v7h-1z M37,77h1v4h-1z M29,78h2v3h-2z M31,79h1v5h-1z M18,80h2v1h-2z M19,81h5v1h-5z M32,81h1v2h-1z M38,81h1v2h-1z M20,82h7v1h-7z M40,82h1v7h-1z M25,83h3v1h-3z M41,83h1v7h-1z M27,84h2v1h-2z M37,84h3v1h-3z M39,85h1v3h-1z M42,85h1v5h-1z M33,86h3v1h-3z M34,87h2v2h-2z M43,87h2v2h-2z M23,88h5v1h-5z M31,88h2v1h-2z M36,88h1v3h-1z M27,89h3v1h-3z M38,89h1v4h-1z M45,89h1v3h-1z M28,90h3v2h-3z M31,91h1v2h-1z M46,91h1v2h-1z M0,92h1v7h-1z M47,92h1v3h-1z M59,92h1v3h-1z M48,93h1v2h-1z M60,93h1v4h-1z M1,94h1v6h-1z M42,94h2v1h-2z M61,94h1v4h-1z M2,95h1v5h-1z M29,95h1v2h-1z M32,95h5v1h-5z M49,95h1v2h-1z M62,95h2v3h-2z M30,96h1v2h-1z M33,96h5v1h-5z M64,96h1v5h-1z M3,97h1v4h-1z M31,97h2v2h-2z M37,97h2v1h-2z M65,97h2v1h-2z M4,98h1v3h-1z M5,99h1v3h-1z M51,99h2v1h-2z M65,99h1v3h-1z M67,99h1v2h-1z M38,100h1v2h-1z M61,100h2v4h-2z M66,100h1v2h-1z M68,100h1v4h-1z M0,101h2v1h-2z M63,101h1v6h-1z M69,101h1v5h-1z M1,102h2v1h-2z M64,102h1v3h-1z M70,103h1v3h-1z M28,104h4v1h-4z M33,104h3v1h-3z M62,104h1v2h-1z M71,104h1v3h-1z M8,105h1v2h-1z M28,105h2v1h-2z M36,105h2v1h-2z M72,105h1v4h-1z M37,106h2v2h-2z M73,106h1v2h-1z M33,107h3v2h-3z M52,114h3v1h-3z M54,115h3v2h-3z M50,120h2v1h-2z" /><path fill="#10491F" d="M85,103h1v1h-1z M81,105h1v1h-1z M94,105h1v1h-1z M108,107h1v1h-1z M84,111h1v1h-1z M121,113h1v1h-1z M126,116h1v1h-1z M83,118h1v1h-1z M85,120h1v1h-1z M1,121h1v1h-1z M61,121h1v1h-1z M69,122h1v1h-1z M100,122h1v1h-1z M112,122h1v1h-1z M9,123h1v1h-1z M78,123h1v1h-1z M96,123h1v1h-1z M6,124h1v1h-1z M12,126h1v1h-1z M24,127h1v1h-1z M86,97h3v8h-3z M84,98h2v5h-2z M89,98h1v11h-1z M83,99h1v5h-1z M90,99h2v5h-2z M81,100h2v5h-2z M80,101h1v6h-1z M92,101h1v4h-1z M93,103h2v2h-2z M101,103h7v5h-7z M79,104h1v4h-1z M90,104h1v4h-1z M95,104h2v3h-2z M100,104h1v4h-1z M108,104h3v3h-3z M78,105h1v3h-1z M87,105h2v1h-2z M91,105h1v4h-1z M97,105h1v3h-1z M111,105h1v10h-1z M88,106h1v2h-1z M92,106h1v4h-1z M112,106h1v9h-1z M93,107h1v3h-1z M96,107h1v2h-1z M110,107h1v8h-1z M113,107h1v7h-1z M122,107h2v7h-2z M82,108h3v3h-3z M94,108h1v2h-1z M101,108h6v1h-6z M109,108h1v6h-1z M120,108h2v5h-2z M124,108h3v7h-3z M80,109h2v2h-2z M85,109h1v3h-1z M114,109h1v2h-1z M127,109h1v9h-1z M86,110h1v3h-1z M87,111h1v2h-1z M108,111h1v2h-1z M88,112h1v2h-1z M114,112h2v5h-2z M116,113h2v4h-2z M61,115h2v6h-2z M65,115h1v5h-1z M92,115h2v5h-2z M125,115h2v1h-2z M57,116h4v6h-4z M63,116h1v4h-1z M66,116h1v4h-1z M70,116h3v5h-3z M91,116h1v4h-1z M94,116h2v4h-2z M97,116h2v5h-2z M0,117h2v4h-2z M56,117h1v4h-1z M64,117h1v3h-1z M67,117h3v4h-3z M73,117h1v3h-1z M84,117h2v3h-2z M90,117h1v6h-1z M96,117h1v4h-1z M99,117h2v5h-2z M115,117h2v1h-2z M2,118h1v4h-1z M86,118h4v4h-4z M101,118h1v5h-1z M3,119h1v3h-1z M102,119h1v4h-1z M108,119h3v1h-3z M4,120h3v3h-3z M77,120h2v3h-2z M103,120h1v2h-1z M109,120h3v1h-3z M7,121h1v6h-1z M11,121h2v5h-2z M68,121h4v1h-4z M79,121h1v3h-1z M91,121h5v3h-5z M110,121h2v1h-2z M8,122h1v2h-1z M10,122h1v3h-1z M13,122h2v6h-2z M80,122h1v3h-1z M88,122h2v1h-2z M5,123h2v1h-2z M15,123h2v4h-2z M51,123h2v5h-2z M115,123h8v5h-8z M17,124h1v3h-1z M50,124h1v4h-1z M53,124h4v1h-4z M65,124h3v4h-3z M81,124h2v1h-2z M94,124h2v1h-2z M114,124h1v3h-1z M123,124h1v4h-1z M18,125h1v3h-1z M49,125h1v3h-1z M53,125h3v3h-3z M64,125h1v3h-1z M68,125h1v3h-1z M124,125h1v3h-1z M19,126h5v2h-5z M48,126h1v2h-1z M56,126h1v2h-1z M63,126h1v2h-1z M69,126h2v2h-2z M125,126h3v2h-3z M57,127h2v1h-2z M71,127h5v1h-5z" /><path fill="#0D3224" d="M91,104h1v1h-1z M109,107h1v1h-1z M94,115h1v1h-1z M73,116h1v1h-1z M79,120h1v1h-1z M53,123h1v1h-1z M123,123h1v1h-1z M56,125h1v1h-1z M63,125h1v1h-1z M71,126h1v1h-1z M7,127h1v1h-1z M12,127h1v1h-1z M114,127h1v1h-1z M84,103h1v5h-1z M83,104h1v4h-1z M85,104h1v5h-1z M82,105h1v3h-1z M86,105h1v5h-1z M92,105h2v1h-2z M99,105h1v12h-1z M81,106h1v3h-1z M87,106h1v5h-1z M93,106h2v1h-2z M77,107h1v13h-1z M80,107h1v2h-1z M94,107h2v1h-2z M98,107h1v9h-1z M76,108h1v20h-1z M78,108h2v12h-2z M88,108h1v4h-1z M90,108h1v9h-1z M95,108h1v8h-1z M97,108h1v8h-1z M100,108h1v9h-1z M107,108h2v3h-2z M75,109h1v18h-1z M89,109h1v9h-1z M91,109h1v7h-1z M96,109h1v8h-1z M101,109h6v9h-6z M119,109h1v14h-1z M74,110h1v17h-1z M92,110h3v5h-3z M118,110h1v13h-1z M72,111h2v5h-2z M80,111h4v7h-4z M107,111h1v17h-1z M117,111h1v2h-1z M84,112h2v5h-2z M71,113h1v2h-1z M86,113h2v5h-2z M108,113h1v6h-1z M120,113h1v10h-1z M88,114h1v4h-1z M109,114h1v5h-1z M113,114h1v14h-1z M121,114h3v9h-3z M110,115h3v4h-3z M124,115h1v10h-1z M125,116h1v10h-1z M114,117h1v7h-1z M117,117h1v6h-1z M126,117h1v9h-1z M55,118h1v6h-1z M80,118h3v4h-3z M102,118h5v1h-5z M115,118h2v5h-2z M127,118h1v8h-1z M83,119h1v9h-1z M103,119h4v1h-4z M111,119h2v1h-2z M54,120h1v4h-1z M63,120h4v4h-4z M73,120h1v7h-1z M84,120h1v8h-1z M91,120h5v1h-5z M104,120h3v8h-3z M108,120h1v8h-1z M112,120h1v2h-1z M0,121h1v7h-1z M56,121h1v3h-1z M62,121h1v7h-1z M67,121h1v3h-1z M72,121h1v6h-1z M85,121h1v7h-1z M96,121h3v2h-3z M109,121h1v7h-1z M1,122h3v6h-3z M52,122h2v1h-2z M57,122h5v5h-5z M68,122h1v3h-1z M70,122h2v4h-2z M81,122h2v2h-2z M86,122h2v6h-2z M99,122h1v6h-1z M103,122h1v6h-1z M110,122h2v6h-2z M4,123h1v5h-1z M69,123h1v3h-1z M77,123h1v5h-1z M88,123h3v5h-3z M97,123h2v5h-2z M100,123h3v5h-3z M112,123h1v5h-1z M5,124h1v4h-1z M8,124h2v4h-2z M63,124h2v1h-2z M78,124h2v4h-2z M91,124h3v4h-3z M96,124h1v4h-1z M6,125h1v3h-1z M10,125h1v3h-1z M80,125h3v3h-3z M94,125h2v3h-2z M11,126h1v2h-1z M15,127h3v1h-3z M59,127h3v1h-3z" /></svg>