<svg xmlns="http://www.w3.org/2000/svg" version="1.1" width="128" height="128" shape-rendering="crispEdges"><path fill="#56E0FF" d="M106,53h1v1h-1z M102,59h1v1h-1z M99,60h1v1h-1z M85,62h1v1h-1z M40,65h1v1h-1z M36,67h1v1h-1z M0,0h128v15h-128z M0,15h116v1h-116z M0,16h114v1h-114z M0,17h112v1h-112z M0,18h111v1h-111z M0,19h110v1h-110z M0,20h109v1h-109z M0,21h108v1h-108z M0,22h107v1h-107z M0,23h106v1h-106z M0,24h105v1h-105z M0,25h89v1h-89z M0,26h87v1h-87z M0,27h85v1h-85z M0,28h84v1h-84z M0,29h82v1h-82z M0,30h80v1h-80z M0,31h79v1h-79z M0,32h78v1h-78z M0,33h77v1h-77z M0,34h76v1h-76z M0,35h75v1h-75z M126,35h2v15h-2z M0,36h63v1h-63z M102,36h4v19h-4z M122,36h4v14h-4z M0,37h60v1h-60z M99,37h3v23h-3z M106,37h5v14h-5z M117,37h5v13h-5z M0,38h58v1h-58z M98,38h1v23h-1z M111,38h6v12h-6z M0,39h55v1h-55z M97,39h1v22h-1z M0,40h53v1h-53z M96,40h1v21h-1z M0,41h50v1h-50z M95,41h1v20h-1z M0,42h48v1h-48z M94,42h1v20h-1z M0,43h45v1h-45z M92,43h2v19h-2z M0,44h44v1h-44z M91,44h1v19h-1z M0,45h41v1h-41z M89,45h2v18h-2z M0,46h39v1h-39z M86,46h3v18h-3z M0,47h38v1h-38z M81,47h5v13h-5z M0,48h37v1h-37z M57,48h24v11h-24z M0,49h35v1h-35z M53,49h4v12h-4z M0,50h34v1h-34z M49,50h4v11h-4z M111,50h5v1h-5z M0,51h33v1h-33z M46,51h3v11h-3z M106,51h3v1h-3z M0,52h31v1h-31z M45,52h1v11h-1z M106,52h2v1h-2z M0,53h30v1h-30z M43,53h2v11h-2z M0,54h29v1h-29z M42,54h1v11h-1z M0,55h28v1h-28z M40,55h2v10h-2z M102,55h3v3h-3z M0,56h27v1h-27z M39,56h1v10h-1z M0,57h24v1h-24z M38,57h1v10h-1z M0,58h21v1h-21z M36,58h2v9h-2z M102,58h2v1h-2z M0,59h16v1h-16z M35,59h1v9h-1z M57,59h10v1h-10z M0,60h9v1h-9z M33,60h2v9h-2z M83,60h3v1h-3z M0,61h5v1h-5z M30,61h3v8h-3z M49,61h3v1h-3z M84,61h2v1h-2z M27,62h3v8h-3z M46,62h2v1h-2z M24,63h3v7h-3z M18,64h6v6h-6z M12,65h6v6h-6z M0,66h12v5h-12z M30,69h2v1h-2z M18,70h2v1h-2z M0,71h9v1h-9z M0,72h4v1h-4z" /><path fill="#FFFAF1" d="M114,28h1v1h-1z M121,30h1v1h-1z M120,31h1v1h-1z M87,32h1v1h-1z M82,36h1v1h-1z M80,37h1v1h-1z M50,46h1v1h-1z M45,48h1v1h-1z M41,50h1v1h-1z M39,51h1v1h-1z M35,53h1v1h-1z M24,59h1v1h-1z M85,63h1v1h-1z M80,64h1v1h-1z M102,64h1v1h-1z M52,69h1v1h-1z M45,73h1v1h-1z M31,74h1v1h-1z M116,15h12v6h-12z M114,16h2v12h-2z M112,17h2v12h-2z M111,18h1v11h-1z M110,19h1v11h-1z M109,20h1v10h-1z M108,21h1v9h-1z M116,21h9v2h-9z M126,21h2v8h-2z M107,22h1v8h-1z M106,23h1v7h-1z M116,23h8v1h-8z M105,24h1v6h-1z M116,24h7v1h-7z M89,25h16v5h-16z M116,25h6v1h-6z M125,25h1v5h-1z M87,26h2v6h-2z M116,26h5v1h-5z M85,27h2v7h-2z M116,27h3v1h-3z M124,27h1v3h-1z M84,28h1v7h-1z M123,28h1v2h-1z M82,29h2v7h-2z M122,29h1v2h-1z M80,30h2v7h-2z M89,30h15v1h-15z M79,31h1v8h-1z M89,31h11v1h-11z M78,32h1v7h-1z M90,32h8v1h-8z M77,33h1v7h-1z M90,33h7v1h-7z M76,34h1v6h-1z M89,34h6v1h-6z M75,35h1v6h-1z M88,35h6v1h-6z M63,36h12v5h-12z M87,36h6v1h-6z M60,37h3v8h-3z M86,37h5v1h-5z M58,38h2v7h-2z M85,38h5v1h-5z M55,39h3v6h-3z M84,39h5v1h-5z M53,40h2v6h-2z M82,40h5v1h-5z M50,41h3v5h-3z M63,41h11v1h-11z M81,41h5v1h-5z M48,42h2v5h-2z M63,42h9v1h-9z M80,42h3v1h-3z M45,43h3v5h-3z M63,43h6v1h-6z M44,44h1v5h-1z M41,45h3v4h-3z M39,46h2v5h-2z M38,47h1v5h-1z M37,48h1v5h-1z M35,49h2v4h-2z M41,49h2v1h-2z M34,50h1v5h-1z M116,50h12v6h-12z M33,51h1v4h-1z M109,51h7v8h-7z M31,52h2v4h-2z M108,52h1v13h-1z M30,53h1v4h-1z M107,53h1v12h-1z M29,54h1v3h-1z M106,54h1v11h-1z M28,55h1v3h-1z M105,55h1v10h-1z M27,56h1v2h-1z M116,56h11v1h-11z M24,57h3v2h-3z M116,57h7v1h-7z M21,58h3v2h-3z M104,58h1v7h-1z M116,58h2v1h-2z M16,59h5v3h-5z M67,59h14v5h-14z M103,59h1v6h-1z M109,59h2v6h-2z M113,59h4v1h-4z M9,60h7v3h-7z M21,60h2v1h-2z M57,60h10v5h-10z M81,60h2v5h-2z M100,60h3v4h-3z M5,61h4v3h-4z M52,61h5v6h-5z M83,61h1v4h-1z M95,61h5v2h-5z M111,61h2v4h-2z M0,62h5v2h-5z M16,62h2v1h-2z M48,62h4v8h-4z M84,62h1v3h-1z M92,62h3v1h-3z M113,62h3v1h-3z M9,63h3v1h-3z M45,63h3v10h-3z M89,63h5v1h-5z M97,63h3v1h-3z M113,63h2v1h-2z M43,64h2v10h-2z M67,64h10v1h-10z M41,65h2v10h-2z M57,65h8v1h-8z M68,65h7v1h-7z M39,66h2v9h-2z M57,66h7v1h-7z M70,66h3v1h-3z M37,67h2v9h-2z M52,67h4v1h-4z M57,67h6v1h-6z M35,68h2v8h-2z M52,68h2v1h-2z M57,68h5v1h-5z M32,69h3v7h-3z M56,69h5v1h-5z M20,70h12v4h-12z M48,70h3v1h-3z M55,70h5v1h-5z M9,71h11v6h-11z M48,71h2v1h-2z M54,71h5v1h-5z M4,72h5v3h-5z M53,72h5v1h-5z M0,73h4v7h-4z M51,73h3v1h-3z M20,74h7v1h-7z M50,74h3v1h-3z M6,75h3v1h-3z M20,75h6v1h-6z M48,75h4v1h-4z M4,76h1v5h-1z M20,76h4v1h-4z M45,76h4v1h-4z M5,77h2v4h-2z M14,77h8v1h-8z M7,78h4v3h-4z M11,79h4v1h-4z M1,80h3v1h-3z M11,80h3v1h-3z" /><path fill="#C0E2EC" d="M88,34h1v1h-1z M121,36h1v1h-1z M85,37h1v1h-1z M98,37h1v1h-1z M81,40h1v1h-1z M95,40h1v1h-1z M91,43h1v1h-1z M80,47h1v1h-1z M48,50h1v1h-1z M38,56h1v1h-1z M29,61h1v1h-1z M23,63h1v1h-1z M54,70h1v1h-1z M74,72h1v1h-1z M76,74h1v1h-1z M79,76h1v1h-1z M84,80h1v1h-1z M49,82h1v1h-1z M43,86h1v1h-1z M39,91h1v1h-1z M96,92h1v1h-1z M109,96h1v1h-1z M32,97h1v1h-1z M125,21h1v4h-1z M124,23h1v4h-1z M123,24h1v4h-1z M122,25h1v4h-1z M121,26h1v4h-1z M119,27h2v4h-2z M115,28h4v9h-4z M111,29h4v9h-4z M126,29h2v6h-2z M104,30h7v6h-7z M123,30h3v6h-3z M100,31h4v5h-4z M119,31h1v6h-1z M121,31h2v5h-2z M88,32h2v2h-2z M98,32h2v5h-2z M120,32h1v5h-1z M87,33h1v3h-1z M97,33h1v6h-1z M85,34h2v3h-2z M95,34h2v6h-2z M84,35h1v4h-1z M94,35h1v7h-1z M83,36h1v4h-1z M93,36h1v7h-1z M100,36h2v1h-2z M106,36h5v1h-5z M81,37h2v3h-2z M91,37h2v6h-2z M115,37h2v1h-2z M80,38h1v4h-1z M90,38h1v7h-1z M78,39h2v9h-2z M89,39h1v6h-1z M76,40h2v8h-2z M87,40h2v6h-2z M74,41h2v7h-2z M86,41h1v5h-1z M72,42h2v6h-2z M83,42h3v5h-3z M69,43h3v5h-3z M80,43h3v4h-3z M63,44h6v4h-6z M55,45h8v3h-8z M51,46h4v3h-4z M48,47h3v3h-3z M46,48h2v3h-2z M55,48h2v1h-2z M43,49h3v3h-3z M51,49h2v1h-2z M42,50h1v4h-1z M40,51h2v4h-2z M38,52h2v4h-2z M43,52h2v1h-2z M36,53h2v5h-2z M35,54h1v5h-1z M33,55h2v5h-2z M31,56h2v5h-2z M127,56h1v42h-1z M29,57h2v4h-2z M123,57h4v41h-4z M27,58h2v4h-2z M118,58h5v39h-5z M25,59h2v4h-2z M111,59h2v2h-2z M117,59h1v37h-1z M23,60h2v3h-2z M113,60h4v2h-4z M21,61h2v3h-2z M18,62h3v2h-3z M116,62h1v33h-1z M12,63h6v2h-6z M94,63h3v29h-3z M115,63h1v31h-1z M0,64h12v2h-12z M77,64h3v12h-3z M85,64h9v18h-9z M97,64h5v30h-5z M113,64h2v30h-2z M75,65h2v9h-2z M80,65h5v12h-5z M102,65h11v29h-11z M73,66h2v6h-2z M56,67h1v2h-1z M70,67h3v1h-3z M54,68h2v2h-2z M71,68h2v1h-2z M53,69h1v3h-1z M72,69h1v2h-1z M51,70h2v3h-2z M50,71h1v3h-1z M48,72h2v3h-2z M46,73h2v3h-2z M54,73h3v2h-3z M27,74h4v24h-4z M43,74h3v2h-3z M53,74h1v4h-1z M4,75h2v1h-2z M26,75h1v23h-1z M31,75h1v23h-1z M39,75h4v13h-4z M52,75h1v4h-1z M54,75h1v2h-1z M5,76h4v1h-4z M24,76h2v22h-2z M32,76h7v18h-7z M43,76h2v10h-2z M49,76h3v5h-3z M7,77h7v1h-7z M22,77h2v21h-2z M45,77h4v7h-4z M81,77h4v2h-4z M11,78h11v1h-11z M15,79h7v19h-7z M83,79h2v1h-2z M0,80h1v18h-1z M14,80h1v18h-1z M1,81h13v17h-13z M49,81h2v1h-2z M86,82h8v1h-8z M87,83h7v1h-7z M45,84h2v1h-2z M88,84h6v1h-6z M89,85h5v1h-5z M90,86h4v1h-4z M91,87h3v1h-3z M39,88h3v1h-3z M92,88h2v1h-2z M39,89h2v2h-2z M93,89h1v2h-1z M32,94h6v1h-6z M98,94h4v1h-4z M107,94h5v1h-5z M32,95h4v1h-4z M108,95h3v1h-3z M32,96h3v1h-3z M119,97h4v1h-4z" /><path fill="#104622" d="M65,65h1v1h-1z M59,71h1v1h-1z M64,71h1v1h-1z M66,71h1v1h-1z M69,71h1v1h-1z M57,73h1v1h-1z M62,73h1v1h-1z M57,76h1v1h-1z M54,77h1v1h-1z M61,78h1v1h-1z M66,78h1v1h-1z M52,79h1v1h-1z M49,83h1v1h-1z M64,84h1v1h-1z M47,85h1v1h-1z M63,86h1v1h-1z M84,86h1v1h-1z M55,87h1v1h-1z M53,88h1v1h-1z M62,90h1v1h-1z M61,92h1v1h-1z M39,93h1v1h-1z M35,96h1v1h-1z M33,97h1v1h-1z M57,97h1v1h-1z M65,97h1v1h-1z M51,99h1v1h-1z M29,100h1v1h-1z M48,100h1v1h-1z M26,101h1v1h-1z M45,102h1v1h-1z M50,102h1v1h-1z M76,102h1v1h-1z M96,102h1v1h-1z M19,103h1v1h-1z M43,103h1v1h-1z M77,103h1v1h-1z M50,105h1v1h-1z M79,105h1v1h-1z M49,106h1v1h-1z M74,106h1v1h-1z M15,107h1v1h-1z M13,109h1v1h-1z M76,109h1v1h-1z M81,109h1v1h-1z M39,110h1v1h-1z M42,110h1v1h-1z M75,110h1v1h-1z M77,110h1v1h-1z M32,112h1v1h-1z M39,113h1v1h-1z M47,113h1v1h-1z M36,114h1v1h-1z M29,115h1v1h-1z M50,115h1v1h-1z M43,116h1v1h-1z M37,117h1v1h-1z M26,118h1v1h-1z M38,118h1v1h-1z M39,119h1v1h-1z M20,120h1v1h-1z M36,120h1v1h-1z M47,120h1v1h-1z M75,122h1v1h-1z M52,123h1v1h-1z M54,125h1v1h-1z M66,66h1v3h-1z M63,67h1v3h-1z M67,68h2v1h-2z M61,69h1v2h-1z M68,69h1v2h-1z M55,75h2v1h-2z M61,75h2v3h-2z M55,76h1v2h-1z M60,76h1v2h-1z M59,77h1v2h-1z M53,78h1v2h-1z M58,78h1v2h-1z M57,79h1v2h-1z M64,79h1v2h-1z M51,81h1v2h-1z M65,81h1v2h-1z M56,84h2v1h-2z M55,85h2v2h-2z M45,86h2v1h-2z M54,86h1v2h-1z M44,87h2v1h-2z M43,88h2v1h-2z M41,89h3v1h-3z M67,89h1v5h-1z M41,90h2v1h-2z M40,91h2v1h-2z M68,91h1v4h-1z M39,92h2v1h-2z M69,94h1v3h-1z M36,95h2v1h-2z M55,95h1v3h-1z M49,96h3v1h-3z M54,96h1v2h-1z M64,96h1v2h-1z M70,96h1v3h-1z M42,97h9v1h-9z M53,97h1v2h-1z M41,98h6v1h-6z M39,99h5v1h-5z M71,99h1v3h-1z M38,100h4v1h-4z M37,101h4v1h-4z M72,101h1v4h-1z M23,102h1v2h-1z M35,102h5v1h-5z M34,103h4v1h-4z M17,104h1v2h-1z M32,104h5v1h-5z M78,104h1v4h-1z M15,105h2v2h-2z M29,105h6v1h-6z M73,105h1v3h-1z M77,105h1v2h-1z M13,106h2v3h-2z M26,106h6v1h-6z M12,107h1v4h-1z M21,107h7v1h-7z M79,107h3v1h-3z M11,108h1v4h-1z M20,108h4v1h-4z M40,108h1v7h-1z M80,108h3v1h-3z M9,109h2v4h-2z M41,109h1v7h-1z M7,110h2v6h-2z M5,111h2v6h-2z M79,111h1v2h-1z M3,112h2v6h-2z M48,112h1v5h-1z M80,112h3v2h-3z M1,113h2v6h-2z M9,113h1v2h-1z M35,113h1v4h-1z M49,113h1v6h-1z M0,114h1v5h-1z M45,114h1v6h-1z M81,114h4v1h-4z M33,115h1v2h-1z M42,115h1v2h-1z M44,115h1v4h-1z M84,115h2v1h-2z M26,116h3v1h-3z M51,116h1v5h-1z M86,116h2v1h-2z M25,117h2v1h-2z M46,117h1v3h-1z M50,117h1v2h-1z M24,118h1v2h-1z M35,118h1v2h-1z M47,118h2v2h-2z M52,118h1v4h-1z M20,119h3v1h-3z M53,119h1v4h-1z M40,120h5v1h-5z M37,121h1v2h-1z M41,121h5v1h-5z M49,121h1v3h-1z M54,121h1v2h-1z M42,122h7v1h-7z M55,122h1v4h-1z M38,123h2v1h-2z M44,123h5v1h-5z M56,123h2v1h-2z M46,124h3v1h-3z M57,124h2v1h-2z M59,125h2v1h-2z" /><path fill="#C7D642" d="M65,66h1v1h-1z M65,71h1v1h-1z M66,72h1v1h-1z M66,74h1v1h-1z M78,79h1v1h-1z M79,80h1v1h-1z M83,80h1v1h-1z M78,83h1v1h-1z M76,85h1v1h-1z M74,86h1v1h-1z M89,86h1v1h-1z M63,87h1v1h-1z M86,87h1v1h-1z M93,91h1v1h-1z M87,92h1v1h-1z M79,93h1v1h-1z M59,94h1v1h-1z M64,94h1v1h-1z M94,94h1v1h-1z M92,95h1v1h-1z M57,96h1v1h-1z M59,96h1v1h-1z M100,96h1v1h-1z M56,97h1v1h-1z M60,98h1v1h-1z M64,98h1v1h-1z M105,98h1v1h-1z M48,101h1v1h-1z M89,102h1v1h-1z M110,102h1v1h-1z M47,103h1v1h-1z M89,104h1v1h-1z M41,105h1v1h-1z M92,105h1v1h-1z M93,106h1v1h-1z M38,107h1v1h-1z M77,107h1v1h-1z M101,108h1v1h-1z M35,109h1v1h-1z M34,110h1v1h-1z M37,112h1v1h-1z M94,112h1v1h-1z M120,113h1v1h-1z M44,114h1v1h-1z M79,114h1v1h-1z M36,115h1v1h-1z M118,115h1v1h-1z M64,116h1v1h-1z M119,116h1v1h-1z M125,116h1v1h-1z M48,117h1v1h-1z M66,117h1v1h-1z M67,118h1v1h-1z M42,119h1v1h-1z M44,119h1v1h-1z M37,120h1v1h-1z M38,121h1v1h-1z M39,122h1v1h-1z M41,122h1v1h-1z M54,124h1v1h-1z M66,65h2v1h-2z M68,66h2v1h-2z M64,67h1v3h-1z M69,67h1v2h-1z M65,69h2v2h-2z M67,70h1v11h-1z M68,71h1v12h-1z M71,71h2v2h-2z M69,72h1v10h-1z M73,72h1v2h-1z M70,73h1v15h-1z M72,73h1v15h-1z M74,73h1v3h-1z M71,74h1v16h-1z M75,74h1v3h-1z M76,75h1v3h-1z M73,76h1v7h-1z M77,76h2v3h-2z M74,77h1v7h-1z M79,77h2v3h-2z M75,78h1v3h-1z M66,79h1v5h-1z M76,79h1v3h-1z M81,79h2v2h-2z M77,81h2v2h-2z M81,81h1v6h-1z M75,82h1v3h-1z M79,82h1v3h-1z M82,82h4v1h-4z M65,83h1v2h-1z M80,83h1v3h-1z M83,83h4v1h-4z M83,84h2v1h-2z M86,84h2v2h-2z M64,85h1v2h-1z M82,85h1v3h-1z M84,85h2v1h-2z M83,86h1v3h-1z M85,86h2v1h-2z M77,87h3v5h-3z M84,87h1v3h-1z M62,88h1v2h-1z M76,88h1v3h-1z M85,88h1v3h-1z M91,88h1v3h-1z M86,89h2v3h-2z M92,89h1v3h-1z M61,90h1v2h-1z M80,90h1v5h-1z M81,91h1v4h-1z M88,91h1v2h-1z M60,92h1v2h-1z M78,92h2v1h-2z M89,92h1v2h-1z M95,92h1v4h-1z M96,93h1v3h-1z M82,94h1v2h-1z M97,94h1v3h-1z M58,95h1v2h-1z M83,95h1v2h-1z M98,95h2v2h-2z M84,97h2v1h-2z M54,98h2v1h-2z M52,99h2v1h-2z M49,100h3v1h-3z M46,102h2v1h-2z M101,102h2v1h-2z M44,103h2v1h-2z M90,103h1v2h-1z M42,104h2v1h-2z M48,104h2v1h-2z M91,104h1v2h-1z M39,106h2v1h-2z M36,108h2v1h-2z M33,111h1v4h-1z M76,111h3v1h-3z M119,111h2v2h-2z M77,112h2v1h-2z M121,112h1v3h-1z M78,113h2v1h-2z M116,113h1v2h-1z M122,113h1v3h-1z M63,114h2v2h-2z M117,114h1v2h-1z M123,114h1v2h-1z M34,115h1v2h-1z M65,115h1v3h-1z M124,115h1v2h-1z M35,117h2v1h-2z M120,117h2v1h-2z M36,118h1v2h-1z M41,118h2v1h-2z" /><path fill="#093423" d="M64,66h1v1h-1z M62,74h1v1h-1z M57,78h1v1h-1z M54,85h1v1h-1z M54,95h1v1h-1z M113,95h1v1h-1z M48,96h1v1h-1z M106,96h1v1h-1z M112,96h1v1h-1z M107,97h1v1h-1z M111,97h1v1h-1z M110,98h1v1h-1z M38,99h1v1h-1z M36,101h1v1h-1z M97,101h1v1h-1z M106,101h1v1h-1z M34,102h1v1h-1z M44,102h1v1h-1z M107,102h1v1h-1z M42,103h1v1h-1z M110,104h1v1h-1z M38,106h1v1h-1z M105,106h1v1h-1z M113,106h1v1h-1z M20,107h1v1h-1z M100,107h1v1h-1z M104,107h1v1h-1z M35,108h1v1h-1z M32,111h1v1h-1z M28,115h1v1h-1z M24,117h1v1h-1z M15,120h1v1h-1z M18,122h1v1h-1z M22,122h1v1h-1z M110,122h1v1h-1z M21,123h1v1h-1z M38,124h1v1h-1z M100,124h1v1h-1z M16,126h1v1h-1z M62,68h1v5h-1z M60,70h1v6h-1z M63,70h1v16h-1z M61,71h1v4h-1z M58,72h2v5h-2z M57,74h1v2h-1z M64,74h1v5h-1z M65,75h2v3h-2z M56,76h1v8h-1z M57,77h2v1h-2z M54,78h2v7h-2z M60,78h1v14h-1z M62,78h1v10h-1z M65,78h1v3h-1z M59,79h1v15h-1z M61,79h1v11h-1z M52,80h2v8h-2z M58,80h1v15h-1z M57,81h1v3h-1z M64,81h1v3h-1z M50,82h1v14h-1z M51,83h1v13h-1z M47,84h3v1h-3z M48,85h2v11h-2z M57,85h1v11h-1z M47,86h1v11h-1z M46,87h1v10h-1z M56,87h1v10h-1z M45,88h1v9h-1z M52,88h1v11h-1z M54,88h2v7h-2z M44,89h1v8h-1z M53,89h1v8h-1z M43,90h1v7h-1z M42,91h1v6h-1z M41,92h1v6h-1z M40,93h1v6h-1z M38,94h2v5h-2z M102,95h4v1h-4z M36,96h2v5h-2z M34,97h2v5h-2z M51,97h1v2h-1z M32,98h2v6h-2z M47,98h4v2h-4z M108,98h1v3h-1z M30,99h2v6h-2z M44,99h3v3h-3z M99,99h5v1h-5z M42,100h2v3h-2z M47,100h1v2h-1z M97,100h2v1h-2z M104,100h2v1h-2z M27,101h3v4h-3z M41,101h1v4h-1z M24,102h3v4h-3z M40,102h1v4h-1z M20,103h3v4h-3z M38,103h2v3h-2z M111,103h2v1h-2z M18,104h2v13h-2z M23,104h1v3h-1z M37,104h1v4h-1z M27,105h2v1h-2z M35,105h2v3h-2z M102,105h2v1h-2z M17,106h1v10h-1z M24,106h2v1h-2z M32,106h3v4h-3z M100,106h2v1h-2z M16,107h1v10h-1z M28,107h4v8h-4z M111,107h1v2h-1z M15,108h1v9h-1z M24,108h4v8h-4z M99,108h1v3h-1z M103,108h1v2h-1z M112,108h1v2h-1z M14,109h1v11h-1z M20,109h4v10h-4z M13,110h1v10h-1z M32,110h2v1h-2z M102,110h1v2h-1z M113,110h1v4h-1z M12,111h1v7h-1z M11,112h1v9h-1z M10,113h1v8h-1z M32,113h1v10h-1z M9,115h1v7h-1z M30,115h2v9h-2z M7,116h2v7h-2z M24,116h2v1h-2z M29,116h1v8h-1z M5,117h2v6h-2z M19,117h1v3h-1z M27,117h2v7h-2z M33,117h2v6h-2z M3,118h2v6h-2z M25,118h1v6h-1z M0,119h3v4h-3z M23,119h1v4h-1z M26,119h1v5h-1z M24,120h1v3h-1z M35,120h1v4h-1z M36,121h1v4h-1z M104,122h2v1h-2z M1,123h2v1h-2z M6,123h2v1h-2z M37,123h1v2h-1z M113,126h1v2h-1z M104,127h2v1h-2z" /><path fill="#8ABD2D" d="M67,66h1v1h-1z M70,68h1v1h-1z M71,69h1v1h-1z M66,73h1v1h-1z M73,75h1v1h-1z M75,77h1v1h-1z M78,80h1v1h-1z M67,81h1v1h-1z M75,81h1v1h-1z M82,81h1v1h-1z M84,81h1v1h-1z M82,83h1v1h-1z M83,85h1v1h-1z M44,86h1v1h-1z M87,86h1v1h-1z M43,87h1v1h-1z M85,87h1v1h-1z M42,88h1v1h-1z M90,89h1v1h-1z M65,91h1v1h-1z M94,93h1v1h-1z M66,94h1v1h-1z M59,95h1v1h-1z M64,95h1v1h-1z M100,95h1v1h-1z M65,98h1v1h-1z M104,98h1v1h-1z M79,99h1v1h-1z M63,100h1v1h-1z M81,100h1v1h-1z M102,101h1v1h-1z M114,101h1v1h-1z M71,102h1v1h-1z M115,102h1v1h-1z M74,103h1v1h-1z M89,103h1v1h-1z M91,103h1v1h-1z M102,103h1v1h-1z M116,103h1v1h-1z M66,104h1v1h-1z M83,104h1v1h-1z M50,106h1v1h-1z M75,106h1v1h-1z M85,106h1v1h-1z M47,107h1v1h-1z M77,108h1v1h-1z M79,108h1v1h-1z M80,109h1v1h-1z M45,110h1v1h-1z M76,110h1v1h-1z M82,110h1v1h-1z M87,110h1v1h-1z M100,110h1v1h-1z M52,111h1v1h-1z M49,112h1v1h-1z M85,112h1v1h-1z M87,112h1v1h-1z M92,113h1v1h-1z M58,114h1v1h-1z M87,114h1v1h-1z M118,114h1v1h-1z M43,115h1v1h-1z M53,115h1v1h-1z M57,115h1v1h-1z M125,115h1v1h-1z M38,117h1v1h-1z M47,117h1v1h-1z M53,117h1v1h-1z M113,117h1v1h-1z M40,118h1v1h-1z M66,118h1v1h-1z M67,119h1v1h-1z M61,120h1v1h-1z M77,120h1v1h-1z M102,120h1v1h-1z M121,120h1v1h-1z M48,121h1v1h-1z M56,121h1v1h-1z M67,121h1v1h-1z M57,122h1v1h-1z M68,122h1v1h-1z M83,122h1v1h-1z M125,122h1v1h-1z M43,123h1v1h-1z M51,123h1v1h-1z M54,123h1v1h-1z M45,124h1v1h-1z M73,124h1v1h-1z M60,126h1v1h-1z M69,69h1v2h-1z M70,70h1v2h-1z M64,72h1v2h-1z M77,79h1v2h-1z M80,80h1v2h-1z M69,82h1v2h-1z M76,82h1v3h-1z M68,83h1v3h-1z M77,83h1v4h-1z M66,84h2v1h-2z M73,84h2v1h-2z M78,84h1v3h-1z M45,85h2v1h-2z M65,85h2v2h-2z M74,85h2v1h-2z M79,85h1v2h-1z M88,85h1v4h-1z M69,86h1v7h-1z M73,86h1v12h-1z M75,86h2v2h-2z M80,86h1v4h-1z M64,87h2v1h-2z M74,87h1v13h-1z M81,87h1v4h-1z M89,87h2v2h-2z M64,88h1v6h-1z M66,88h3v1h-3z M70,88h1v5h-1z M72,88h1v2h-1z M75,88h1v5h-1z M82,88h1v6h-1z M86,88h2v1h-2z M63,89h1v3h-1z M65,89h2v1h-2z M68,89h1v2h-1z M83,89h1v6h-1z M66,90h1v3h-1z M71,90h1v4h-1z M84,90h1v7h-1z M88,90h2v1h-2z M62,91h1v2h-1z M72,91h1v5h-1z M76,91h1v11h-1z M85,91h1v6h-1z M89,91h3v1h-3z M77,92h1v3h-1z M86,92h1v16h-1z M90,92h5v1h-5z M65,93h1v4h-1z M78,93h1v3h-1z M87,93h2v16h-2z M90,93h3v2h-3z M60,94h1v4h-1z M62,94h1v9h-1z M75,94h1v8h-1z M79,94h1v4h-1z M89,94h1v8h-1z M93,94h1v12h-1z M61,95h1v12h-1z M80,95h2v5h-2z M90,95h2v8h-2z M94,95h1v4h-1z M66,96h3v1h-3z M77,96h1v5h-1z M82,96h1v6h-1z M92,96h1v9h-1z M96,96h1v4h-1z M58,97h2v5h-2z M66,97h2v6h-2z M95,97h1v5h-1z M99,97h6v1h-6z M56,98h2v3h-2z M68,98h2v11h-2z M78,98h1v3h-1z M83,98h3v5h-3z M54,99h2v13h-2z M60,99h1v5h-1z M63,99h2v1h-2z M70,99h1v25h-1z M113,99h1v3h-1z M52,100h2v10h-2z M65,100h1v5h-1z M94,100h1v12h-1z M111,100h2v2h-2z M51,101h1v15h-1z M56,101h1v14h-1z M79,101h1v2h-1z M100,101h1v2h-1z M48,102h1v2h-1z M57,102h1v12h-1z M59,102h1v2h-1z M64,102h1v3h-1z M103,102h1v2h-1z M46,103h1v7h-1z M50,103h1v2h-1z M58,103h1v10h-1z M63,103h1v10h-1z M67,103h1v7h-1z M84,103h2v3h-2z M99,103h1v3h-1z M104,103h2v1h-2z M44,104h2v3h-2z M62,104h1v19h-1z M95,104h1v12h-1z M97,104h2v4h-2z M100,104h2v1h-2z M42,105h1v5h-1z M47,105h3v1h-3z M59,105h2v7h-2z M71,105h1v9h-1z M76,105h1v2h-1z M89,105h2v8h-2z M96,105h1v12h-1z M117,105h2v9h-2z M41,106h1v3h-1z M43,106h1v3h-1z M47,106h2v1h-2z M64,106h2v1h-2z M72,106h1v9h-1z M91,106h2v7h-2z M114,106h1v4h-1z M119,106h1v5h-1z M39,107h2v1h-2z M45,107h1v2h-1z M49,107h1v4h-1z M64,107h1v6h-1z M74,107h1v11h-1z M93,107h1v10h-1z M109,107h1v13h-1z M120,107h1v4h-1z M38,108h2v1h-2z M44,108h1v3h-1z M48,108h1v4h-1z M50,108h1v7h-1z M61,108h1v2h-1z M65,108h2v1h-2z M73,108h1v9h-1z M75,108h1v2h-1z M97,108h1v9h-1z M115,108h1v3h-1z M121,108h1v4h-1z M36,109h3v2h-3z M65,109h1v6h-1z M86,109h1v5h-1z M88,109h1v3h-1z M105,109h2v6h-2z M110,109h1v11h-1z M122,109h1v4h-1z M35,110h1v3h-1z M43,110h1v3h-1z M47,110h1v3h-1z M53,110h1v3h-1z M66,110h1v7h-1z M68,110h2v1h-2z M104,110h1v10h-1z M116,110h1v3h-1z M123,110h1v4h-1z M34,111h1v3h-1z M36,111h2v1h-2z M46,111h1v3h-1z M75,111h1v10h-1z M111,111h1v8h-1z M124,111h2v4h-2z M36,112h1v2h-1z M44,112h1v2h-1z M55,112h1v7h-1z M59,112h1v4h-1z M69,112h1v12h-1z M76,112h1v10h-1z M99,112h2v8h-2z M126,112h2v11h-2z M37,113h2v4h-2z M54,113h1v4h-1z M77,113h1v6h-1z M88,113h2v1h-2z M94,113h1v2h-1z M98,113h1v6h-1z M103,113h1v7h-1z M119,113h1v3h-1z M42,114h2v1h-2z M61,114h1v4h-1z M67,114h1v4h-1z M78,114h1v8h-1z M80,114h1v10h-1z M101,114h2v6h-2z M120,114h1v3h-1z M39,115h1v3h-1z M60,115h1v5h-1z M81,115h3v2h-3z M92,115h1v2h-1z M105,115h1v6h-1z M115,115h2v3h-2z M121,115h1v2h-1z M40,116h2v2h-2z M52,116h1v2h-1z M56,116h1v4h-1z M58,116h1v2h-1z M63,116h1v9h-1z M68,116h1v5h-1z M71,116h1v9h-1z M84,116h2v1h-2z M106,116h1v5h-1z M112,116h1v3h-1z M114,116h1v2h-1z M117,116h2v3h-2z M122,116h2v6h-2z M57,117h1v3h-1z M64,117h1v8h-1z M79,117h1v7h-1z M81,117h2v2h-2z M119,117h1v3h-1z M124,117h2v5h-2z M37,118h1v2h-1z M72,118h1v7h-1z M120,118h2v2h-2z M38,119h1v2h-1z M54,119h1v2h-1z M73,119h2v5h-2z M81,119h1v5h-1z M39,120h1v2h-1z M55,120h1v2h-1z M82,120h1v5h-1z M40,121h1v2h-1z M83,121h2v1h-2z M50,122h1v2h-1z" /><path fill="#649B2A" d="M67,69h1v1h-1z M70,69h1v1h-1z M64,70h1v1h-1z M71,70h1v1h-1z M70,72h1v1h-1z M71,73h1v1h-1z M73,74h1v1h-1z M74,76h1v1h-1z M76,78h1v1h-1z M79,81h1v1h-1z M83,81h1v1h-1z M80,82h1v1h-1z M73,83h1v1h-1z M82,84h1v1h-1z M85,84h1v1h-1z M73,85h1v1h-1z M66,87h1v1h-1z M87,87h1v1h-1z M63,88h1v1h-1z M65,88h1v1h-1z M65,90h1v1h-1z M72,90h1v1h-1z M90,90h1v1h-1z M65,92h1v1h-1z M66,93h1v1h-1z M75,93h1v1h-1z M93,93h1v1h-1z M61,94h1v1h-1z M66,95h1v1h-1z M68,95h1v1h-1z M77,95h1v1h-1z M95,96h1v1h-1z M83,97h1v1h-1z M79,98h1v1h-1z M65,99h1v1h-1z M94,99h1v1h-1z M106,99h1v1h-1z M57,101h1v1h-1z M110,101h1v1h-1z M58,102h1v1h-1z M99,102h1v1h-1z M62,103h1v1h-1z M66,103h1v1h-1z M83,103h1v1h-1z M98,103h1v1h-1z M47,104h1v1h-1z M77,104h1v1h-1z M79,104h1v1h-1z M43,105h1v1h-1z M72,105h1v1h-1z M79,106h1v1h-1z M44,107h1v1h-1z M50,107h1v1h-1z M61,107h1v1h-1z M65,107h1v1h-1z M76,108h1v1h-1z M86,108h1v1h-1z M39,109h1v1h-1z M43,109h1v1h-1z M45,109h1v1h-1z M66,109h1v1h-1z M77,109h1v1h-1z M82,109h1v1h-1z M87,109h1v1h-1z M46,110h1v1h-1z M52,110h1v1h-1z M49,111h1v1h-1z M82,111h1v1h-1z M87,111h1v1h-1z M100,111h1v1h-1z M54,112h1v1h-1z M88,112h1v1h-1z M58,113h1v1h-1z M87,113h1v1h-1z M34,114h1v1h-1z M39,114h1v1h-1z M57,114h1v1h-1z M92,114h1v1h-1z M40,115h1v1h-1z M56,115h1v1h-1z M58,115h1v1h-1z M87,115h1v1h-1z M106,115h1v1h-1z M36,116h1v1h-1z M50,116h1v1h-1z M53,116h1v1h-1z M57,116h1v1h-1z M39,118h1v1h-1z M53,118h1v1h-1z M74,118h1v1h-1z M55,119h1v1h-1z M77,119h1v1h-1z M82,119h1v1h-1z M48,120h1v1h-1z M67,120h1v1h-1z M57,121h1v1h-1z M68,121h1v1h-1z M75,121h1v1h-1z M77,121h1v1h-1z M38,122h1v1h-1z M56,122h1v1h-1z M99,122h1v1h-1z M53,123h1v1h-1z M68,123h1v1h-1z M118,124h1v1h-1z M47,125h1v1h-1z M63,125h1v1h-1z M120,125h1v1h-1z M123,125h1v1h-1z M65,67h1v2h-1z M65,72h1v3h-1z M67,82h1v2h-1z M69,84h1v2h-1z M67,85h1v3h-1z M68,86h1v2h-1z M88,89h2v1h-2z M63,92h1v7h-1z M61,93h2v1h-2z M69,93h2v1h-2z M67,94h1v2h-1z M70,94h2v2h-2z M71,96h2v3h-2z M78,96h1v2h-1z M68,97h2v1h-2z M97,97h2v2h-2z M73,98h1v7h-1z M72,99h1v2h-1z M64,100h1v2h-1z M74,100h1v3h-1z M79,100h2v1h-2z M49,101h2v1h-2z M63,101h1v2h-1z M77,101h2v2h-2z M80,101h2v6h-2z M49,102h1v2h-1z M75,102h1v4h-1z M82,102h1v6h-1z M71,103h1v2h-1z M76,103h1v2h-1z M78,103h2v1h-2z M100,103h2v1h-2z M59,104h2v1h-2z M74,104h1v2h-1z M64,105h3v1h-3z M83,105h1v9h-1z M66,106h1v2h-1z M84,106h1v8h-1z M75,107h2v1h-2z M85,107h1v5h-1z M106,107h1v2h-1z M47,108h1v2h-1z M78,108h1v3h-1z M68,109h2v1h-2z M79,109h1v2h-1z M61,110h1v4h-1z M67,110h1v4h-1z M80,110h2v2h-2z M38,111h2v2h-2z M42,111h1v3h-1z M44,111h2v1h-2z M68,111h2v1h-2z M45,112h1v2h-1z M52,112h1v4h-1z M60,112h1v3h-1z M68,112h1v4h-1z M53,113h1v2h-1z M63,113h2v1h-2z M85,113h1v2h-1z M90,113h2v12h-2z M46,114h2v3h-2z M71,114h1v2h-1z M86,114h1v2h-1z M88,114h2v11h-2z M72,115h1v3h-1z M79,115h1v2h-1z M94,115h1v9h-1z M59,116h1v9h-1z M95,116h1v8h-1z M42,117h2v1h-2z M54,117h1v2h-1z M73,117h1v2h-1z M83,117h5v4h-5z M92,117h2v7h-2z M96,117h2v7h-2z M43,118h1v2h-1z M58,118h1v6h-1z M61,118h1v2h-1z M65,118h1v7h-1z M113,118h4v5h-4z M40,119h2v1h-2z M49,119h2v2h-2z M66,119h1v5h-1z M98,119h1v5h-1z M111,119h2v3h-2z M117,119h2v5h-2z M45,120h2v1h-2z M56,120h2v1h-2z M60,120h1v5h-1z M99,120h3v2h-3z M103,120h2v1h-2z M109,120h2v1h-2z M119,120h2v5h-2z M46,121h2v1h-2z M50,121h2v1h-2z M61,121h1v5h-1z M85,121h3v4h-3z M102,121h2v1h-2z M121,121h1v4h-1z M51,122h2v1h-2z M67,122h1v2h-1z M78,122h1v2h-1z M84,122h1v3h-1z M122,122h3v2h-3z M62,123h1v3h-1z M83,123h1v2h-1z M114,123h3v1h-3z M80,124h2v1h-2z M122,124h2v1h-2z" /><path fill="#3F7629" d="M48,107h1v1h-1z M67,67h2v1h-2z" /><path fill="#101F1D" d="M120,99h1v1h-1z M106,100h1v1h-1z M101,101h1v1h-1z M110,103h1v1h-1z M96,104h1v1h-1z M99,111h1v1h-1z M21,122h1v1h-1z M16,127h1v1h-1z M60,127h1v1h-1z M102,94h5v1h-5z M112,94h4v1h-4z M101,95h1v2h-1z M107,95h1v2h-1z M111,95h2v1h-2z M114,95h3v4h-3z M102,96h4v1h-4z M108,96h1v2h-1z M110,96h2v1h-2z M113,96h1v3h-1z M117,96h1v3h-1z M105,97h2v1h-2z M109,97h2v1h-2z M112,97h1v3h-1z M118,97h1v3h-1z M99,98h5v1h-5z M106,98h2v1h-2z M109,98h1v9h-1z M111,98h1v2h-1z M119,98h1v3h-1z M97,99h2v1h-2z M104,99h2v1h-2z M107,99h1v3h-1z M110,99h1v2h-1z M96,100h1v2h-1z M99,100h5v1h-5z M98,101h2v1h-2z M103,101h3v1h-3z M108,101h1v27h-1z M95,102h1v2h-1z M97,102h2v1h-2z M104,102h3v1h-3z M111,102h4v1h-4z M96,103h2v1h-2z M106,103h2v4h-2z M113,103h3v3h-3z M102,104h4v1h-4z M111,104h2v3h-2z M116,104h1v6h-1z M100,105h2v1h-2z M104,105h2v1h-2z M110,105h1v4h-1z M99,106h1v2h-1z M102,106h3v1h-3z M115,106h1v2h-1z M101,107h3v1h-3z M105,107h1v2h-1z M107,107h1v21h-1z M112,107h2v1h-2z M98,108h1v5h-1z M100,108h1v2h-1z M102,108h1v2h-1z M104,108h1v2h-1z M113,108h1v2h-1z M101,109h1v5h-1z M111,109h1v2h-1z M103,110h1v3h-1z M112,110h1v6h-1z M114,110h1v6h-1z M115,111h1v4h-1z M102,112h1v2h-1z M113,114h1v3h-1z M17,116h1v12h-1z M15,117h2v3h-2z M18,117h1v5h-1z M12,118h1v10h-1z M13,120h2v8h-2z M16,120h1v6h-1z M19,120h1v8h-1z M21,120h2v2h-2z M10,121h2v7h-2z M15,121h1v7h-1z M20,121h1v7h-1z M104,121h3v1h-3z M109,121h2v1h-2z M9,122h1v6h-1z M76,122h2v6h-2z M100,122h4v2h-4z M106,122h1v6h-1z M109,122h1v6h-1z M111,122h2v6h-2z M0,123h1v5h-1z M5,123h1v5h-1z M8,123h1v5h-1z M18,123h1v5h-1z M22,123h3v5h-3z M32,123h3v5h-3z M40,123h3v5h-3z M75,123h1v5h-1z M99,123h1v5h-1z M104,123h2v4h-2z M110,123h1v5h-1z M113,123h1v3h-1z M125,123h3v5h-3z M1,124h4v4h-4z M6,124h2v4h-2z M21,124h1v4h-1z M25,124h7v4h-7z M35,124h1v4h-1z M39,124h1v4h-1z M43,124h2v4h-2z M49,124h5v4h-5z M56,124h1v4h-1z M66,124h5v4h-5z M74,124h1v4h-1z M78,124h2v4h-2z M92,124h1v4h-1z M94,124h5v4h-5z M101,124h3v4h-3z M114,124h4v4h-4z M124,124h1v4h-1z M36,125h3v3h-3z M45,125h1v3h-1z M48,125h1v3h-1z M57,125h2v3h-2z M64,125h2v3h-2z M71,125h3v3h-3z M80,125h12v3h-12z M93,125h1v3h-1z M100,125h1v3h-1z M118,125h2v3h-2z M121,125h2v3h-2z M46,126h2v2h-2z M54,126h2v2h-2z M59,126h1v2h-1z M61,126h3v2h-3z M120,126h1v2h-1z M123,126h1v2h-1z" /><path fill="#0C1C12" d="M106,95h1v1h-1z" /><path fill="#58E7D9" d="M0,98h32v1h-32z M120,98h8v1h-8z M0,99h30v1h-30z M114,99h4v1h-4z M121,99h7v1h-7z" /><path fill="#31C8CD" d="M0,100h29v1h-29z M114,100h5v1h-5z M120,100h8v3h-8z M0,101h26v1h-26z M115,101h5v1h-5z M0,102h23v1h-23z M116,102h4v1h-4z" /><path fill="#1196B8" d="M0,113h1v1h-1z M0,103h19v1h-19z M117,103h11v2h-11z M0,104h17v1h-17z M0,105h15v1h-15z M119,105h9v1h-9z M0,106h13v1h-13z M120,106h8v1h-8z M0,107h12v1h-12z M121,107h7v1h-7z M0,108h11v1h-11z M122,108h6v1h-6z M0,109h9v1h-9z M123,109h5v1h-5z M0,110h7v1h-7z M124,110h4v1h-4z M0,111h5v1h-5z M126,111h2v1h-2z M0,112h3v1h-3z" /><path fill="#153D0F" d="M43,113h1v1h-1z" /><path fill="#376417" d="M93,124h1v1h-1z" /><path fill="#778D12" d="M46,125h1v1h-1z" /></svg>