<svg xmlns="http://www.w3.org/2000/svg" version="1.1" width="128" height="128" shape-rendering="crispEdges"><path fill="#0C1037" d="M0,0h128v5h-128z M0,5h20v9h-20z M22,5h106v3h-106z M22,8h87v6h-87z M111,8h17v1h-17z M109,9h1v3h-1z M112,9h16v1h-16z M113,10h15v27h-15z M0,14h19v2h-19z M23,14h80v2h-80z M104,14h4v1h-4z M103,15h1v22h-1z M112,15h1v22h-1z M0,16h18v2h-18z M24,16h79v2h-79z M111,16h1v21h-1z M104,17h1v20h-1z M110,17h1v20h-1z M0,18h17v19h-17z M25,18h78v19h-78z M105,18h5v19h-5z M17,22h1v12h-1z M24,22h1v12h-1z M0,43h17v4h-17z M25,43h103v4h-103z" /><path fill="#2A1233" d="M23,65h1v1h-1z M19,66h1v1h-1z M17,71h1v1h-1z M24,71h1v1h-1z M27,76h1v1h-1z M16,80h1v1h-1z M17,83h1v1h-1z M24,83h1v1h-1z M16,85h1v1h-1z M25,85h1v1h-1z M126,85h1v1h-1z M15,87h1v1h-1z M79,87h1v1h-1z M90,87h1v1h-1z M9,88h1v1h-1z M12,88h1v1h-1z M29,88h1v1h-1z M32,88h1v1h-1z M39,88h1v1h-1z M118,88h1v1h-1z M3,89h1v1h-1z M37,89h1v1h-1z M101,89h1v1h-1z M103,89h1v1h-1z M106,89h1v1h-1z M120,89h1v1h-1z M14,90h1v1h-1z M27,90h1v1h-1z M44,90h1v1h-1z M47,90h1v1h-1z M95,90h1v1h-1z M111,90h1v1h-1z M51,91h1v1h-1z M54,91h1v1h-1z M105,91h1v1h-1z M0,92h1v1h-1z M15,92h1v1h-1z M17,92h1v1h-1z M19,92h1v1h-1z M21,92h1v1h-1z M23,92h1v1h-1z M25,92h1v1h-1z M27,92h1v1h-1z M75,92h1v1h-1z M89,92h1v1h-1z M122,92h1v1h-1z M14,93h1v1h-1z M16,93h1v1h-1z M18,93h1v1h-1z M20,93h1v1h-1z M22,93h1v1h-1z M24,93h1v1h-1z M26,93h1v1h-1z M32,93h1v1h-1z M36,93h1v1h-1z M56,93h1v1h-1z M97,93h1v1h-1z M102,93h1v1h-1z M111,93h1v1h-1z M15,94h1v1h-1z M17,94h1v1h-1z M19,94h1v1h-1z M21,94h1v1h-1z M23,94h1v1h-1z M25,94h1v1h-1z M27,94h1v1h-1z M37,94h1v1h-1z M63,95h1v1h-1z M121,95h1v1h-1z M127,95h1v1h-1z M16,97h1v1h-1z M2,98h1v1h-1z M116,98h1v1h-1z M120,98h1v1h-1z M12,99h1v1h-1z M14,99h1v1h-1z M29,99h1v1h-1z M2,100h1v1h-1z M9,102h1v1h-1z M31,103h1v1h-1z M15,107h1v1h-1z M88,107h1v1h-1z M39,108h1v1h-1z M35,109h1v1h-1z M5,110h1v1h-1z M28,110h1v1h-1z M31,110h1v1h-1z M71,110h1v1h-1z M104,110h1v1h-1z M106,110h1v1h-1z M127,110h1v1h-1z M40,111h1v1h-1z M73,111h1v1h-1z M99,111h1v1h-1z M115,111h1v1h-1z M35,112h1v1h-1z M46,112h1v1h-1z M67,112h1v1h-1z M69,112h1v1h-1z M106,112h1v1h-1z M112,112h1v1h-1z M37,113h1v1h-1z M59,113h1v1h-1z M70,113h1v1h-1z M1,114h1v1h-1z M6,114h1v1h-1z M44,115h1v1h-1z M54,116h1v1h-1z M127,116h1v1h-1z M8,120h1v1h-1z M33,122h1v1h-1z M34,124h1v1h-1z M4,126h1v1h-1z M35,126h1v1h-1z M5,127h1v1h-1z M34,127h1v1h-1z M20,5h2v3h-2z M19,16h4v1h-4z M20,20h2v1h-2z M20,54h2v4h-2z M20,63h2v4h-2z M18,64h1v2h-1z M23,64h2v1h-2z M20,70h2v1h-2z M19,71h1v2h-1z M22,71h1v2h-1z M20,72h2v1h-2z M26,75h1v2h-1z M15,76h3v1h-3z M24,76h2v1h-2z M26,87h1v2h-1z M126,87h1v2h-1z M5,90h2v1h-2z M17,90h8v1h-8z M70,90h2v1h-2z M80,91h1v2h-1z M51,93h1v2h-1z M59,93h2v1h-2z M62,94h1v2h-1z M65,94h2v1h-2z M113,94h2v1h-2z M81,95h1v2h-1z M23,96h2v1h-2z M121,97h1v2h-1z M11,98h3v1h-3z M28,98h3v1h-3z M39,100h1v2h-1z M10,103h1v2h-1z M73,106h3v1h-3z M103,106h3v1h-3z M107,106h2v3h-2z M60,107h2v1h-2z M73,107h2v1h-2z M100,107h1v5h-1z M109,107h3v2h-3z M3,108h2v2h-2z M9,108h1v2h-1z M57,108h4v2h-4z M64,108h1v3h-1z M82,108h1v2h-1z M99,108h1v2h-1z M103,108h3v1h-3z M10,109h1v2h-1z M61,109h3v2h-3z M103,109h2v1h-2z M107,109h1v2h-1z M39,110h1v3h-1z M57,110h3v3h-3z M108,110h4v1h-4z M121,110h2v1h-2z M46,111h4v1h-4z M56,111h1v2h-1z M66,111h2v1h-2z M101,111h2v1h-2z M109,111h3v2h-3z M118,111h3v1h-3z M2,112h1v3h-1z M5,112h2v1h-2z M64,112h2v1h-2z M0,113h1v2h-1z M3,113h1v2h-1z M41,113h4v1h-4z M47,113h3v1h-3z M100,113h3v1h-3z M120,113h3v1h-3z M38,114h3v1h-3z M42,114h2v1h-2z M51,114h2v1h-2z M54,114h5v1h-5z M113,114h2v3h-2z M122,114h1v2h-1z M125,114h1v2h-1z M40,115h1v2h-1z M54,115h2v1h-2z M62,115h2v1h-2z M105,115h1v2h-1z M121,115h1v2h-1z M126,115h1v2h-1z M0,116h9v1h-9z M32,116h8v1h-8z M41,116h3v1h-3z M46,116h7v1h-7z M106,116h7v1h-7z M115,116h6v1h-6z M123,116h2v1h-2z M7,124h26v4h-26z M6,125h1v3h-1z M33,125h1v3h-1z" /><path fill="#07031A" d="M19,20h1v1h-1z M22,20h1v1h-1z M19,67h1v1h-1z M13,70h1v1h-1z M28,70h1v1h-1z M25,80h1v1h-1z M15,88h1v1h-1z M27,91h1v1h-1z M16,92h1v1h-1z M18,92h1v1h-1z M20,92h1v1h-1z M22,92h1v1h-1z M24,92h1v1h-1z M26,92h1v1h-1z M15,93h1v1h-1z M17,93h1v1h-1z M19,93h1v1h-1z M21,93h1v1h-1z M23,93h1v1h-1z M25,93h1v1h-1z M27,93h1v1h-1z M15,95h1v1h-1z M23,95h1v1h-1z M27,95h1v1h-1z M5,96h1v1h-1z M36,96h1v1h-1z M3,100h1v1h-1z M38,100h1v1h-1z M9,101h1v1h-1z M23,101h1v1h-1z M24,102h1v1h-1z M39,102h1v1h-1z M25,103h1v1h-1z M11,105h1v1h-1z M14,109h1v1h-1z M13,110h1v1h-1z M40,110h1v1h-1z M99,110h1v1h-1z M115,110h1v1h-1z M118,110h1v1h-1z M120,110h1v1h-1z M5,111h1v1h-1z M28,111h1v1h-1z M61,111h1v1h-1z M3,112h1v1h-1z M8,112h1v1h-1z M11,112h1v1h-1z M29,112h1v1h-1z M36,112h1v1h-1z M70,112h1v1h-1z M122,112h1v1h-1z M1,113h1v1h-1z M67,113h1v1h-1z M119,113h1v1h-1z M125,113h1v1h-1z M41,114h1v1h-1z M44,114h1v1h-1z M121,114h1v1h-1z M126,114h1v1h-1z M8,121h1v1h-1z M7,122h1v1h-1z M120,123h1v1h-1z M43,125h1v1h-1z M4,127h1v1h-1z M35,127h1v1h-1z M122,127h1v1h-1z M20,8h2v4h-2z M19,15h4v1h-4z M18,16h1v2h-1z M23,16h1v2h-1z M19,17h4v1h-4z M17,18h1v4h-1z M24,18h1v4h-1z M19,19h4v1h-4z M18,22h1v12h-1z M23,22h1v12h-1z M17,34h1v22h-1z M24,34h1v22h-1z M16,56h1v11h-1z M25,56h1v11h-1z M20,58h2v2h-2z M19,60h1v6h-1z M22,60h1v8h-1z M17,65h1v2h-1z M24,65h1v2h-1z M18,66h1v2h-1z M23,66h1v2h-1z M12,67h4v1h-4z M26,67h4v1h-4z M12,68h1v2h-1z M29,68h1v2h-1z M14,69h14v1h-14z M15,70h1v2h-1z M18,70h2v1h-2z M22,70h2v1h-2z M26,70h1v2h-1z M14,71h1v3h-1z M18,71h1v6h-1z M20,71h2v1h-2z M23,71h1v6h-1z M27,71h1v3h-1z M15,73h3v1h-3z M19,73h4v3h-4z M24,73h3v1h-3z M13,74h1v3h-1z M28,74h1v3h-1z M12,77h1v4h-1z M17,77h1v6h-1z M24,77h1v6h-1z M29,77h1v4h-1z M11,81h1v3h-1z M30,81h1v3h-1z M16,83h1v2h-1z M25,83h1v2h-1z M10,84h1v3h-1z M31,84h1v3h-1z M15,85h1v2h-1z M26,85h1v2h-1z M7,86h3v1h-3z M11,86h4v1h-4z M16,86h10v1h-10z M27,86h4v1h-4z M32,86h3v1h-3z M6,87h1v3h-1z M35,87h1v3h-1z M42,89h2v1h-2z M7,90h1v4h-1z M10,90h1v2h-1z M13,90h1v6h-1z M15,90h2v2h-2z M25,90h2v2h-2z M28,90h1v6h-1z M31,90h1v2h-1z M34,90h1v4h-1z M42,90h1v23h-1z M8,91h2v1h-2z M11,91h2v1h-2z M14,91h1v2h-1z M17,91h8v1h-8z M29,91h2v1h-2z M32,91h2v1h-2z M41,91h1v22h-1z M43,91h1v18h-1z M70,93h3v17h-3z M6,94h1v2h-1z M12,94h1v3h-1z M14,94h1v2h-1z M16,94h1v3h-1z M18,94h1v3h-1z M20,94h1v3h-1z M22,94h1v3h-1z M24,94h1v2h-1z M26,94h1v2h-1z M29,94h1v3h-1z M35,94h1v2h-1z M67,94h3v14h-3z M73,94h3v12h-3z M1,95h1v11h-1z M7,95h5v1h-5z M17,95h1v2h-1z M19,95h1v2h-1z M21,95h1v2h-1z M25,95h1v2h-1z M30,95h5v1h-5z M44,95h1v18h-1z M47,95h3v15h-3z M76,95h1v33h-1z M91,95h1v33h-1z M95,95h1v33h-1z M0,96h1v10h-1z M11,96h1v2h-1z M30,96h1v2h-1z M50,96h1v20h-1z M62,96h5v11h-5z M77,96h1v32h-1z M80,96h1v32h-1z M90,96h1v32h-1z M92,96h3v32h-3z M96,96h4v12h-4z M127,96h1v10h-1z M4,97h1v2h-1z M13,97h3v1h-3z M26,97h3v1h-3z M37,97h1v2h-1z M40,97h1v12h-1z M51,97h1v15h-1z M78,97h2v31h-2z M81,97h4v11h-4z M89,97h1v31h-1z M100,97h2v10h-2z M17,98h2v1h-2z M20,98h5v1h-5z M45,98h1v20h-1z M53,98h4v11h-4z M85,98h4v9h-4z M102,98h2v8h-2z M122,98h4v12h-4z M2,99h2v1h-2z M10,99h2v1h-2z M30,99h2v1h-2z M38,99h2v1h-2z M46,99h1v11h-1z M52,99h1v10h-1z M57,99h5v8h-5z M104,99h1v7h-1z M113,99h3v11h-3z M120,99h2v11h-2z M126,99h1v8h-1z M9,100h2v1h-2z M31,100h2v1h-2z M105,100h8v6h-8z M116,100h4v8h-4z M2,101h1v6h-1z M32,101h1v2h-1z M8,102h1v3h-1z M33,102h1v3h-1z M3,103h1v3h-1z M16,103h1v2h-1z M4,104h1v2h-1z M7,104h1v9h-1z M34,104h1v9h-1z M39,104h1v4h-1z M38,105h1v3h-1z M5,106h2v4h-2z M9,106h1v2h-1z M36,106h2v4h-2z M102,106h1v3h-1z M106,106h1v4h-1z M109,106h4v1h-4z M8,107h1v4h-1z M10,107h2v2h-2z M32,107h1v6h-1z M35,107h1v2h-1z M57,107h3v1h-3z M64,107h3v1h-3z M75,107h1v21h-1z M85,107h3v21h-3z M101,107h1v2h-1z M103,107h3v1h-3z M112,107h1v5h-1z M27,108h1v2h-1z M30,108h2v2h-2z M68,108h2v2h-2z M73,108h2v3h-2z M81,108h1v20h-1z M83,108h2v20h-2z M88,108h1v20h-1z M96,108h3v20h-3z M116,108h1v2h-1z M119,108h1v3h-1z M11,109h2v3h-2z M28,109h2v1h-2z M33,109h1v4h-1z M54,109h3v1h-3z M105,109h1v4h-1z M108,109h4v1h-4z M117,109h1v4h-1z M4,110h1v3h-1z M29,110h2v2h-2z M37,110h2v3h-2z M43,110h1v3h-1z M48,110h2v1h-2z M55,110h2v1h-2z M60,110h1v4h-1z M68,110h1v18h-1z M72,110h1v18h-1z M82,110h1v18h-1z M103,110h1v18h-1z M113,110h1v3h-1z M123,110h3v1h-3z M0,111h1v2h-1z M35,111h2v1h-2z M54,111h2v3h-2z M64,111h2v1h-2z M71,111h1v17h-1z M74,111h1v17h-1z M104,111h1v2h-1z M106,111h3v1h-3z M114,111h1v2h-1z M121,111h1v2h-1z M124,111h1v5h-1z M127,111h1v5h-1z M40,112h1v2h-1z M47,112h3v1h-3z M66,112h1v2h-1z M73,112h1v16h-1z M99,112h4v1h-4z M107,112h2v1h-2z M115,112h2v1h-2z M118,112h3v1h-3z M125,112h2v1h-2z M38,113h2v1h-2z M46,113h1v3h-1z M53,113h1v5h-1z M56,113h3v1h-3z M61,113h5v1h-5z M99,113h1v15h-1z M5,114h1v2h-1z M29,114h1v2h-1z M47,114h3v2h-3z M69,114h2v14h-2z M100,114h3v14h-3z M123,114h1v2h-1z M0,115h5v1h-5z M6,115h3v1h-3z M10,115h2v1h-2z M42,115h2v1h-2z M51,115h2v1h-2z M67,115h1v13h-1z M104,115h1v13h-1z M10,116h1v2h-1z M30,116h1v2h-1z M44,116h1v2h-1z M122,116h1v2h-1z M125,116h1v2h-1z M0,117h9v1h-9z M32,117h12v1h-12z M46,117h7v1h-7z M54,117h13v1h-13z M105,117h17v1h-17z M123,117h2v1h-2z M126,117h2v1h-2z M9,118h1v3h-1z M31,118h1v3h-1z M105,118h1v10h-1z M108,118h5v10h-5z M48,119h2v9h-2z M51,119h1v9h-1z M61,119h6v9h-6z M106,119h2v9h-2z M113,119h1v9h-1z M47,120h1v8h-1z M50,120h1v8h-1z M52,120h2v8h-2z M59,120h2v8h-2z M114,120h1v8h-1z M32,121h1v2h-1z M46,121h1v7h-1z M115,121h1v7h-1z M54,122h2v6h-2z M58,122h1v6h-1z M117,122h3v6h-3z M6,123h1v2h-1z M33,123h1v2h-1z M44,123h2v5h-2z M116,123h1v5h-1z M56,124h2v4h-2z M5,125h1v2h-1z M34,125h1v2h-1z M120,125h2v3h-2z" /><path fill="#D0C5D0" d="M103,14h1v1h-1z M108,14h1v1h-1z M110,15h1v1h-1z M109,17h1v1h-1z M20,99h1v1h-1z M109,8h2v1h-2z M110,9h2v2h-2z M112,10h1v4h-1z M109,12h1v2h-1z M111,13h1v3h-1z M104,15h4v1h-4z M104,16h3v1h-3z M108,16h1v2h-1z M105,17h3v1h-3z" /><path fill="#F8F2ED" d="M112,14h1v1h-1z M108,15h1v1h-1z M107,16h1v1h-1z M110,16h1v1h-1z M17,67h1v1h-1z M24,67h1v1h-1z M18,88h1v1h-1z M23,88h1v1h-1z M13,103h1v1h-1z M28,103h1v1h-1z M30,104h1v1h-1z M12,105h1v1h-1z M15,105h1v1h-1z M26,105h1v1h-1z M29,105h1v1h-1z M11,106h1v1h-1z M30,106h1v1h-1z M12,107h1v1h-1z M29,107h1v1h-1z M8,111h1v1h-1z M10,111h1v1h-1z M8,114h1v1h-1z M10,114h1v1h-1z M13,114h1v1h-1z M27,114h1v1h-1z M30,114h1v1h-1z M32,114h1v1h-1z M31,117h1v1h-1z M8,118h1v1h-1z M4,124h1v1h-1z M36,124h1v1h-1z M36,126h1v1h-1z M2,127h1v1h-1z M38,127h1v1h-1z M110,11h2v2h-2z M110,13h1v2h-1z M109,14h1v3h-1z M20,67h2v1h-2z M17,87h1v2h-1z M24,87h1v2h-1z M20,88h2v1h-2z M11,104h2v1h-2z M13,106h2v1h-2z M27,106h2v1h-2z M9,110h1v2h-1z M9,113h1v4h-1z M12,113h1v2h-1z M28,113h1v3h-1z M31,113h1v3h-1z M32,118h1v2h-1z M7,119h1v2h-1z M33,119h1v2h-1z M6,120h1v2h-1z M34,121h1v2h-1z M5,122h1v2h-1z M35,122h1v2h-1z M3,125h1v2h-1z M37,125h1v2h-1z" /><path fill="#7C2C2C" d="M20,13h1v1h-1z M18,18h1v1h-1z M19,21h1v1h-1z M22,21h1v1h-1z M17,70h1v1h-1z M16,71h1v1h-1z M24,72h1v1h-1z M11,85h1v1h-1z M30,85h1v1h-1z M29,87h1v1h-1z M32,87h1v1h-1z M8,88h1v1h-1z M29,89h1v1h-1z M32,90h1v1h-1z M4,92h1v1h-1z M9,92h1v1h-1z M11,92h1v1h-1z M29,93h1v1h-1z M17,97h1v1h-1z M14,98h1v1h-1z M27,98h1v1h-1z M31,98h1v1h-1z M32,99h1v1h-1z M11,100h1v1h-1z M30,100h1v1h-1z M8,101h1v1h-1z M33,101h1v1h-1z M40,109h1v1h-1z M52,109h1v1h-1z M52,113h1v1h-1z M107,114h1v1h-1z M117,114h1v1h-1z M59,115h1v1h-1z M61,115h1v1h-1z M106,115h1v1h-1z M120,115h1v1h-1z M118,119h1v1h-1z M34,120h1v1h-1z M36,120h1v1h-1z M41,120h1v1h-1z M115,120h1v1h-1z M124,120h1v1h-1z M45,121h1v1h-1z M54,121h1v1h-1z M122,121h1v1h-1z M56,122h1v1h-1z M116,122h1v1h-1z M126,125h1v1h-1z M40,126h1v1h-1z M20,12h2v1h-2z M18,20h1v2h-1z M23,20h1v2h-1z M20,45h2v1h-2z M20,49h2v2h-2z M20,61h2v1h-2z M16,68h10v1h-10z M24,70h2v1h-2z M25,74h1v2h-1z M8,87h2v1h-2z M10,88h2v1h-2z M13,88h2v1h-2z M27,88h2v1h-2z M30,88h2v1h-2z M9,89h1v2h-1z M30,92h3v1h-3z M10,97h1v2h-1z M51,112h2v1h-2z M118,113h1v2h-1z M59,114h3v1h-3z M104,114h2v1h-2z M34,115h2v1h-2z M64,115h2v1h-2z M35,119h1v2h-1z M52,119h2v1h-2z M56,119h4v1h-4z M114,119h3v1h-3z M45,120h2v1h-2z M121,120h1v2h-1z M126,120h2v1h-2z M57,121h1v2h-1z M119,121h2v1h-2z M39,122h4v1h-4z M0,123h2v1h-2z M123,123h2v1h-2z M41,125h2v1h-2z M0,126h3v1h-3z M0,127h2v1h-2z M123,127h2v1h-2z" /><path fill="#C75D29" d="M21,13h1v1h-1z M19,14h1v1h-1z M22,23h1v1h-1z M21,36h1v1h-1z M23,42h1v1h-1z M18,45h1v1h-1z M23,45h1v1h-1z M17,60h1v1h-1z M24,60h1v1h-1z M15,72h1v1h-1z M26,72h1v1h-1z M15,74h1v1h-1z M26,74h1v1h-1z M16,77h1v1h-1z M15,78h1v1h-1z M12,81h1v1h-1z M25,81h1v1h-1z M29,81h1v1h-1z M16,87h1v1h-1z M30,87h1v1h-1z M48,90h1v1h-1z M7,94h1v1h-1z M34,94h1v1h-1z M6,96h1v1h-1z M13,96h1v1h-1z M28,96h1v1h-1z M35,96h1v1h-1z M18,97h1v1h-1z M23,97h1v1h-1z M88,97h1v1h-1z M6,105h1v1h-1z M9,105h1v1h-1z M32,105h1v1h-1z M37,105h1v1h-1z M1,112h1v1h-1z M36,113h1v1h-1z M43,119h1v1h-1z M116,120h1v1h-1z M5,121h1v1h-1z M45,122h1v1h-1z M127,122h1v1h-1z M122,123h1v1h-1z M38,125h1v1h-1z M20,21h2v1h-2z M23,36h1v5h-1z M20,39h2v1h-2z M20,42h2v1h-2z M17,74h1v2h-1z M24,74h1v2h-1z M25,77h1v2h-1z M16,81h1v2h-1z M10,87h2v1h-2z M13,87h2v1h-2z M25,87h1v2h-1z M27,87h2v1h-2z M33,88h1v3h-1z M8,89h1v2h-1z M10,89h2v1h-2z M13,89h2v1h-2z M27,89h2v1h-2z M30,89h2v1h-2z M33,92h1v2h-1z M35,105h1v2h-1z M7,113h2v1h-2z M106,113h2v1h-2z M109,115h4v1h-4z M117,115h3v1h-3z M36,119h5v1h-5z M119,119h4v1h-4z M0,120h5v1h-5z M55,120h4v1h-4z M123,121h1v2h-1z M0,122h5v1h-5z M120,122h3v1h-3z M124,122h2v1h-2z M37,124h5v1h-5z M123,124h1v2h-1z M124,125h2v1h-2z M40,127h4v1h-4z" /><path fill="#FCDE98" d="M21,22h1v1h-1z M19,24h1v1h-1z M22,24h1v1h-1z M19,26h1v1h-1z M22,28h1v1h-1z M20,29h1v1h-1z M19,30h1v1h-1z M22,30h1v1h-1z M19,33h1v1h-1z M22,33h1v1h-1z M19,36h1v1h-1z M19,42h1v1h-1z M22,42h1v1h-1z M21,44h1v1h-1z M19,46h1v1h-1z M19,48h1v1h-1z M22,48h1v1h-1z M18,51h1v1h-1z M21,51h1v1h-1z M19,52h1v1h-1z M18,53h1v1h-1z M21,53h1v1h-1z M22,56h1v1h-1z M19,58h1v1h-1z M22,58h1v1h-1z M17,61h1v1h-1z M24,61h1v1h-1z M18,62h1v1h-1z M23,62h1v1h-1z M17,63h1v1h-1z M24,63h1v1h-1z M14,75h1v1h-1z M27,75h1v1h-1z M15,79h1v1h-1z M26,79h1v1h-1z M14,81h1v1h-1z M126,81h1v1h-1z M13,82h1v1h-1z M15,82h1v1h-1z M26,82h1v1h-1z M28,82h1v1h-1z M7,97h1v1h-1z M12,97h1v1h-1z M22,97h1v1h-1z M29,97h1v1h-1z M34,97h1v1h-1z M87,97h1v1h-1z M8,98h1v1h-1z M4,100h1v1h-1z M6,100h1v1h-1z M35,100h1v1h-1z M38,103h1v1h-1z M5,104h1v1h-1z M118,108h1v1h-1z M38,109h1v1h-1z M1,110h1v1h-1z M6,110h1v1h-1z M35,110h1v1h-1z M52,110h1v1h-1z M54,110h1v1h-1z M70,111h1v1h-1z M123,111h1v1h-1z M53,112h1v1h-1z M20,14h2v1h-2z M21,18h2v1h-2z M20,25h2v1h-2z M20,27h2v1h-2z M20,34h2v1h-2z M21,37h1v2h-1z M19,38h1v2h-1z M22,38h1v2h-1z M20,40h2v2h-2z M18,43h1v2h-1z M23,43h1v2h-1z M18,47h1v2h-1z M23,47h1v2h-1z M23,52h1v2h-1z M19,55h1v2h-1z M17,57h1v2h-1z M24,57h1v2h-1z M26,77h2v1h-2z M13,78h1v2h-1z M28,78h1v2h-1z M26,81h2v1h-2z M125,82h1v2h-1z M14,83h1v2h-1z M27,83h1v2h-1z M12,84h2v1h-2z M28,84h2v1h-2z M5,98h2v1h-2z M35,98h2v1h-2z M5,99h1v2h-1z M7,99h1v2h-1z M34,99h1v2h-1z M36,99h1v2h-1z M4,102h3v1h-3z M35,102h4v1h-4z M36,104h2v1h-2z M1,106h1v3h-1z M0,107h1v2h-1z M127,107h1v2h-1z M2,109h1v2h-1z M53,109h1v2h-1z M101,109h2v1h-2z M126,109h1v2h-1z M109,114h2v1h-2z" /><path fill="#9D3B26" d="M22,14h1v1h-1z M23,18h1v1h-1z M18,42h1v1h-1z M18,49h1v1h-1z M23,49h1v1h-1z M17,59h1v1h-1z M24,59h1v1h-1z M16,70h1v1h-1z M25,71h1v1h-1z M17,72h1v1h-1z M16,74h1v1h-1z M13,77h1v1h-1z M28,77h1v1h-1z M26,78h1v1h-1z M13,80h1v1h-1z M28,80h1v1h-1z M33,87h1v1h-1z M16,89h1v1h-1z M25,89h1v1h-1z M12,90h1v1h-1z M29,90h1v1h-1z M43,90h1v1h-1z M10,92h1v1h-1z M12,92h1v1h-1z M29,92h1v1h-1z M11,93h1v1h-1z M30,93h1v1h-1z M10,94h1v1h-1z M31,94h1v1h-1z M31,97h1v1h-1z M85,97h1v1h-1z M9,99h1v1h-1z M117,108h1v1h-1z M6,111h1v1h-1z M39,115h1v1h-1z M20,60h2v1h-2z M20,62h2v1h-2z M8,92h1v2h-1z M8,96h3v1h-3z M31,96h3v1h-3z" /><path fill="#E77927" d="M19,18h1v1h-1z M22,22h1v1h-1z M20,24h1v1h-1z M19,25h1v1h-1z M22,25h1v1h-1z M19,27h1v1h-1z M22,27h1v1h-1z M19,29h1v1h-1z M22,29h1v1h-1z M20,30h1v1h-1z M22,31h1v1h-1z M20,33h1v1h-1z M22,34h1v1h-1z M20,36h1v1h-1z M19,45h1v1h-1z M22,45h1v1h-1z M18,46h1v1h-1z M19,47h1v1h-1z M19,49h1v1h-1z M22,49h1v1h-1z M19,51h1v1h-1z M22,51h1v1h-1z M23,54h1v1h-1z M18,56h1v1h-1z M19,57h1v1h-1z M22,57h1v1h-1z M18,58h1v1h-1z M23,58h1v1h-1z M19,59h1v1h-1z M18,60h1v1h-1z M23,60h1v1h-1z M16,67h1v1h-1z M14,70h1v1h-1z M27,70h1v1h-1z M27,74h1v1h-1z M25,79h1v1h-1z M15,80h1v1h-1z M125,81h1v1h-1z M25,82h1v1h-1z M11,84h1v1h-1z M30,84h1v1h-1z M12,85h1v1h-1z M14,85h1v1h-1z M27,85h1v1h-1z M31,87h1v1h-1z M38,90h1v1h-1z M119,91h1v1h-1z M66,92h1v1h-1z M74,92h1v1h-1z M125,95h1v1h-1z M7,96h1v1h-1z M27,96h1v1h-1z M34,96h1v1h-1z M5,97h1v1h-1z M9,97h1v1h-1z M36,97h1v1h-1z M4,99h1v1h-1z M13,99h1v1h-1z M28,99h1v1h-1z M37,99h1v1h-1z M8,100h1v1h-1z M12,100h1v1h-1z M29,100h1v1h-1z M33,100h1v1h-1z M11,101h1v1h-1z M30,101h1v1h-1z M39,103h1v1h-1z M38,104h1v1h-1z M36,105h1v1h-1z M0,106h1v1h-1z M29,106h1v1h-1z M2,107h1v1h-1z M27,107h1v1h-1z M126,107h1v1h-1z M118,109h1v1h-1z M36,110h1v1h-1z M47,110h1v1h-1z M101,110h1v1h-1z M1,111h1v1h-1z M52,111h1v1h-1z M69,111h1v1h-1z M116,111h1v1h-1z M122,111h1v1h-1z M125,111h1v1h-1z M107,115h1v1h-1z M115,115h1v1h-1z M33,121h1v1h-1z M35,124h1v1h-1z M4,125h1v1h-1z M19,22h1v2h-1z M20,26h2v1h-2z M20,28h2v1h-2z M18,34h2v1h-2z M18,35h1v7h-1z M22,53h1v2h-1z M18,54h2v1h-2z M23,56h2v1h-2z M14,68h2v1h-2z M26,68h2v1h-2z M16,78h1v2h-1z M32,97h1v2h-1z M15,98h2v1h-2z M25,98h2v1h-2z M3,101h2v1h-2z M7,101h1v3h-1z M34,101h5v1h-5z M34,102h1v2h-1z M8,105h1v2h-1z M33,105h1v4h-1z M69,110h2v1h-2z M5,113h2v1h-2z M11,113h1v2h-1z M108,113h4v1h-4z M113,113h5v1h-5z M108,114h1v2h-1z M116,114h1v2h-1z M32,115h2v1h-2z M36,115h3v1h-3z" /><path fill="#FAB848" d="M20,18h1v1h-1z M18,19h1v1h-1z M23,19h1v1h-1z M22,26h1v1h-1z M19,28h1v1h-1z M22,32h1v1h-1z M20,38h1v1h-1z M23,41h1v1h-1z M22,44h1v1h-1z M23,51h1v1h-1z M18,52h1v1h-1z M19,53h1v1h-1z M18,55h1v1h-1z M17,56h1v1h-1z M18,57h1v1h-1z M23,57h1v1h-1z M18,59h1v1h-1z M18,61h1v1h-1z M23,61h1v1h-1z M17,62h1v1h-1z M24,62h1v1h-1z M18,63h1v1h-1z M23,63h1v1h-1z M25,67h1v1h-1z M14,74h1v1h-1z M26,80h1v1h-1z M13,81h1v1h-1z M15,81h1v1h-1z M28,81h1v1h-1z M14,82h1v1h-1z M27,82h1v1h-1z M126,82h1v1h-1z M13,83h1v1h-1z M28,83h1v1h-1z M13,85h1v1h-1z M16,88h1v1h-1z M40,89h1v1h-1z M100,89h1v1h-1z M56,90h1v1h-1z M73,90h1v1h-1z M93,90h1v1h-1z M112,90h1v1h-1z M68,91h1v1h-1z M70,91h1v1h-1z M99,91h1v1h-1z M122,91h1v1h-1z M78,92h1v1h-1z M91,92h1v1h-1z M114,92h1v1h-1z M52,93h1v1h-1z M54,93h1v1h-1z M62,93h1v1h-1z M96,93h1v1h-1z M103,93h1v1h-1z M5,94h1v1h-1z M38,94h1v1h-1z M116,94h1v1h-1z M118,94h1v1h-1z M14,96h1v1h-1z M6,97h1v1h-1z M8,97h1v1h-1z M35,97h1v1h-1z M59,97h1v1h-1z M86,97h1v1h-1z M7,98h1v1h-1z M9,98h1v1h-1z M34,98h1v1h-1z M108,98h1v1h-1z M6,99h1v1h-1z M8,99h1v1h-1z M35,99h1v1h-1z M37,100h1v1h-1z M3,102h1v1h-1z M10,102h1v1h-1z M31,102h1v1h-1z M6,104h1v1h-1z M35,104h1v1h-1z M127,106h1v1h-1z M2,108h1v1h-1z M38,108h1v1h-1z M126,108h1v1h-1z M39,109h1v1h-1z M43,109h1v1h-1z M127,109h1v1h-1z M0,110h1v1h-1z M46,110h1v1h-1z M102,110h1v1h-1z M2,111h1v1h-1z M53,111h1v1h-1z M126,111h1v1h-1z M20,22h1v2h-1z M21,23h1v2h-1z M21,29h1v5h-1z M19,31h2v2h-2z M23,34h1v2h-1z M19,35h4v1h-4z M22,36h1v2h-1z M19,37h2v1h-2z M19,40h1v2h-1z M22,40h1v2h-1z M19,43h4v1h-4z M19,44h2v1h-2z M20,46h4v1h-4z M20,47h3v1h-3z M20,48h2v1h-2z M18,50h2v1h-2z M22,50h2v1h-2z M20,51h1v3h-1z M21,52h2v1h-2z M22,55h2v1h-2z M22,59h2v1h-2z M13,68h1v2h-1z M28,68h1v2h-1z M14,77h2v1h-2z M14,78h1v3h-1z M27,78h1v3h-1z M12,82h1v2h-1z M29,82h1v2h-1z M15,83h1v2h-1z M26,83h1v2h-1z M28,85h2v1h-2z M7,87h1v3h-1z M34,87h1v3h-1z M19,97h3v1h-3z M33,97h1v3h-1z M5,101h2v1h-2z M4,103h3v1h-3z M9,103h1v2h-1z M32,103h1v2h-1z M35,103h3v1h-3z M0,109h2v1h-2z M123,112h1v2h-1z" /><path fill="#0B2553" d="M13,71h1v1h-1z M28,71h1v1h-1z M22,101h1v1h-1z M12,103h1v1h-1z M26,103h1v1h-1z M31,104h1v1h-1z M14,108h1v1h-1z M34,119h1v1h-1z M50,119h1v1h-1z M60,119h1v1h-1z M5,120h1v1h-1z M54,120h1v1h-1z M41,121h1v1h-1z M58,121h1v1h-1z M116,121h1v1h-1z M118,121h1v1h-1z M124,121h1v1h-1z M120,124h1v1h-1z M124,124h1v1h-1z M39,127h1v1h-1z M0,37h17v6h-17z M25,37h103v6h-103z M0,47h17v9h-17z M25,47h103v9h-103z M0,56h16v11h-16z M26,56h102v11h-102z M0,67h12v5h-12z M30,67h98v5h-98z M12,70h1v2h-1z M29,70h1v2h-1z M0,75h13v2h-13z M29,75h99v2h-99z M19,76h4v3h-4z M0,77h12v2h-12z M18,77h1v2h-1z M23,77h1v2h-1z M30,77h98v2h-98z M11,102h2v1h-2z M29,103h1v2h-1z M13,105h2v1h-2z M13,107h2v1h-2z M0,118h8v1h-8z M33,118h31v1h-31z M106,118h2v1h-2z M113,118h15v1h-15z M0,119h7v1h-7z M41,119h2v1h-2z M44,119h4v1h-4z M54,119h2v1h-2z M117,119h1v3h-1z M123,119h5v1h-5z M37,120h4v2h-4z M42,120h3v2h-3z M118,120h3v1h-3z M122,120h2v1h-2z M125,120h1v2h-1z M0,121h5v1h-5z M35,121h2v1h-2z M55,121h2v1h-2z M126,121h2v1h-2z M36,122h3v2h-3z M43,122h2v1h-2z M126,122h1v3h-1z M2,123h3v1h-3z M39,123h5v1h-5z M56,123h2v1h-2z M121,123h1v2h-1z M125,123h1v2h-1z M127,123h1v5h-1z M0,124h4v1h-4z M42,124h2v1h-2z M122,124h1v3h-1z M0,125h3v1h-3z M39,125h2v1h-2z M38,126h2v1h-2z M41,126h3v1h-3z M123,126h4v1h-4z M125,127h2v1h-2z" /><path fill="#571A2C" d="M17,64h1v1h-1z M16,72h1v1h-1z M25,72h1v1h-1z M14,76h1v1h-1z M12,87h1v1h-1z M12,89h1v1h-1z M15,89h1v1h-1z M26,89h1v1h-1z M32,89h1v1h-1z M94,89h1v1h-1z M11,90h1v1h-1z M30,90h1v1h-1z M12,93h1v1h-1z M31,93h1v1h-1z M11,94h1v1h-1z M30,94h1v1h-1z M15,96h1v1h-1z M26,96h1v1h-1z M10,101h1v1h-1z M31,101h1v1h-1z M5,105h1v1h-1z M61,108h1v1h-1z M114,110h1v1h-1z M116,110h1v1h-1z M61,112h1v1h-1z M51,113h1v1h-1z M126,113h1v1h-1z M7,114h1v1h-1z M62,114h1v1h-1z M106,114h1v1h-1z M111,114h1v1h-1z M41,115h1v1h-1z M60,115h1v1h-1z M66,115h1v1h-1z M15,75h2v1h-2z M9,93h2v1h-2z M8,94h2v1h-2z M32,94h2v1h-2z M24,97h2v1h-2z M3,106h2v2h-2z M62,107h2v2h-2z M65,108h3v3h-3z M3,110h1v2h-1z M62,111h2v2h-2z M4,113h1v2h-1z M33,113h3v2h-3z M112,113h1v2h-1z M36,114h2v1h-2z M119,114h2v1h-2z M56,115h3v1h-3z" /><path fill="#3E3252" d="M41,89h1v1h-1z M44,89h1v1h-1z M121,89h1v1h-1z M0,72h14v2h-14z M28,72h100v2h-100z M0,74h13v1h-13z M29,74h99v1h-99z M0,79h12v2h-12z M18,79h6v7h-6z M30,79h98v2h-98z M0,81h11v3h-11z M31,81h94v3h-94z M127,81h1v6h-1z M0,84h10v2h-10z M17,84h1v2h-1z M24,84h1v2h-1z M32,84h93v2h-93z M0,86h7v1h-7z M35,86h90v1h-90z M1,87h5v2h-5z M36,87h43v1h-43z M80,87h10v1h-10z M91,87h27v1h-27z M119,87h6v1h-6z M41,88h25v1h-25z M105,88h12v1h-12z M119,88h5v1h-5z M56,89h6v1h-6z M107,89h10v1h-10z M58,90h1v2h-1z M113,90h3v1h-3z" /><path fill="#031034" d="M126,86h1v1h-1z M118,87h1v1h-1z M127,87h1v1h-1z M127,89h1v1h-1z M55,90h1v1h-1z M64,91h1v1h-1z M95,91h1v1h-1z M70,92h1v1h-1z M64,93h1v1h-1z M66,93h1v1h-1z M86,93h1v1h-1z M114,93h1v1h-1z M63,94h1v1h-1z M5,95h1v1h-1z M78,96h1v1h-1z M122,97h1v1h-1z M46,98h1v1h-1z M59,98h1v1h-1z M104,98h1v1h-1z M108,99h1v1h-1z M112,99h1v1h-1z M116,99h1v1h-1z M118,99h1v1h-1z M12,101h1v1h-1z M11,103h1v1h-1z M30,103h1v1h-1z M28,105h1v1h-1z M69,113h1v1h-1z M126,83h1v2h-1z M125,84h1v8h-1z M0,87h1v5h-1z M36,88h3v1h-3z M66,88h37v1h-37z M104,88h1v2h-1z M117,88h1v4h-1z M124,88h1v10h-1z M1,89h2v6h-2z M4,89h2v1h-2z M36,89h1v4h-1z M38,89h2v1h-2z M45,89h6v1h-6z M52,89h4v1h-4z M62,89h2v1h-2z M65,89h2v3h-2z M68,89h1v2h-1z M70,89h23v1h-23z M95,89h3v1h-3z M99,89h1v2h-1z M102,89h1v4h-1z M105,89h1v2h-1z M118,89h2v2h-2z M122,89h1v2h-1z M3,90h2v2h-2z M35,90h1v4h-1z M37,90h1v3h-1z M39,90h3v1h-3z M45,90h2v1h-2z M49,90h1v5h-1z M53,90h1v8h-1z M57,90h1v9h-1z M59,90h2v1h-2z M63,90h1v2h-1z M69,90h1v4h-1z M72,90h1v3h-1z M74,90h2v2h-2z M77,90h16v1h-16z M94,90h1v6h-1z M96,90h1v3h-1z M98,90h1v6h-1z M100,90h2v7h-2z M106,90h5v1h-5z M120,90h2v1h-2z M123,90h1v8h-1z M126,90h1v9h-1z M5,91h2v3h-2z M38,91h3v3h-3z M44,91h1v4h-1z M46,91h3v1h-3z M52,91h1v2h-1z M60,91h3v2h-3z M67,91h1v3h-1z M71,91h1v2h-1z M73,91h1v3h-1z M76,91h4v1h-4z M82,91h12v1h-12z M97,91h1v2h-1z M103,91h2v2h-2z M106,91h1v9h-1z M108,91h3v7h-3z M112,91h5v1h-5z M121,91h1v4h-1z M127,91h1v3h-1z M3,92h1v7h-1z M45,92h2v6h-2z M50,92h2v1h-2z M54,92h3v1h-3z M58,92h2v1h-2z M65,92h1v2h-1z M68,92h1v2h-1z M76,92h1v3h-1z M81,92h2v2h-2z M84,92h2v5h-2z M87,92h1v5h-1z M92,92h2v4h-2z M99,92h1v4h-1z M107,92h1v8h-1z M111,92h3v1h-3z M115,92h2v2h-2z M120,92h1v6h-1z M4,93h1v4h-1z M47,93h2v2h-2z M50,93h1v3h-1z M55,93h1v5h-1z M58,93h1v6h-1z M61,93h1v6h-1z M74,93h2v1h-2z M77,93h4v1h-4z M83,93h1v4h-1z M88,93h4v2h-4z M95,93h1v2h-1z M104,93h2v1h-2z M112,93h1v5h-1z M117,93h3v1h-3z M122,93h1v2h-1z M125,93h1v2h-1z M0,94h1v2h-1z M36,94h1v2h-1z M39,94h2v3h-2z M54,94h1v3h-1z M56,94h1v4h-1z M59,94h2v3h-2z M77,94h2v2h-2z M80,94h1v2h-1z M96,94h2v2h-2z M102,94h3v4h-3z M111,94h1v6h-1z M115,94h1v4h-1z M117,94h1v3h-1z M119,94h1v6h-1z M2,95h1v3h-1z M37,95h2v2h-2z M51,95h2v2h-2z M64,95h3v1h-3z M79,95h1v2h-1z M82,95h1v2h-1z M86,95h1v2h-1z M88,95h3v1h-3z M105,95h1v5h-1z M113,95h2v4h-2z M116,95h1v3h-1z M118,95h1v3h-1z M88,96h2v1h-2z M121,96h2v1h-2z M125,96h1v2h-1z M38,97h2v2h-2z M52,97h1v2h-1z M60,97h1v2h-1z M19,98h1v3h-1z M109,98h2v2h-2z M117,98h1v2h-1z M15,99h4v3h-4z M21,99h7v1h-7z M13,100h2v2h-2z M22,100h7v1h-7z M24,101h6v1h-6z M15,102h3v1h-3z M25,102h6v1h-6z M10,105h1v2h-1z M30,105h2v1h-2z M31,106h2v1h-2z M30,107h2v1h-2z M64,118h3v1h-3z" /><path fill="#9C5E66" d="M19,88h1v1h-1z M22,88h1v1h-1z M13,104h1v1h-1z M15,106h1v1h-1z M12,112h1v1h-1z M29,113h1v1h-1z M34,123h1v1h-1z M3,127h1v1h-1z M18,87h6v1h-6z M10,112h1v2h-1z M56,116h11v1h-11z M35,125h2v1h-2z M36,127h2v1h-2z" /><path fill="#533151" d="M40,88h1v1h-1z M103,88h1v1h-1z M127,88h1v1h-1z M69,89h1v1h-1z M93,89h1v1h-1z M98,89h1v1h-1z M123,89h1v1h-1z M126,89h1v1h-1z M52,90h1v1h-1z M54,90h1v1h-1z M76,90h1v1h-1z M97,90h1v1h-1z M116,90h1v1h-1z M127,90h1v1h-1z M45,91h1v1h-1z M59,91h1v1h-1z M81,91h1v1h-1z M107,91h1v1h-1z M120,91h1v1h-1z M77,92h1v1h-1z M79,92h1v1h-1z M83,92h1v1h-1z M86,92h1v1h-1z M88,92h1v1h-1z M90,92h1v1h-1z M95,92h1v1h-1z M105,92h1v1h-1z M117,92h1v1h-1z M119,92h1v1h-1z M125,92h1v1h-1z M0,93h1v1h-1z M37,93h1v1h-1z M63,93h1v1h-1z M113,93h1v1h-1z M52,94h1v1h-1z M64,94h1v1h-1z M79,94h1v1h-1z M86,94h1v1h-1z M105,94h1v1h-1z M127,94h1v1h-1z M122,95h1v1h-1z M54,97h1v1h-1z M117,97h1v1h-1z M112,98h1v1h-1z M115,98h1v1h-1z M118,98h1v1h-1z M17,103h1v1h-1z M24,103h1v1h-1z M16,105h1v1h-1z M27,105h1v1h-1z M28,107h1v1h-1z M12,108h1v1h-1z M13,109h1v1h-1z M27,110h1v1h-1z M13,111h1v1h-1z M105,113h1v1h-1z M55,116h1v1h-1z M32,120h1v1h-1z M7,121h1v1h-1z M7,123h1v1h-1z M32,123h1v1h-1z M5,124h1v1h-1z M51,89h1v2h-1z M64,89h1v2h-1z M67,89h1v2h-1z M50,90h1v2h-1z M61,90h2v1h-2z M103,90h2v1h-2z M55,91h2v1h-2z M118,91h1v2h-1z M47,92h2v1h-2z M63,92h2v1h-2z M81,94h2v1h-2z M21,100h1v2h-1z M19,101h2v1h-2z M13,102h2v1h-2z M14,103h2v2h-2z M26,104h2v1h-2z M10,119h21v5h-21z M9,121h1v3h-1z M31,121h1v3h-1z M8,122h1v2h-1z" /><path fill="#724B61" d="M18,102h1v1h-1z M23,102h1v1h-1z M27,103h1v1h-1z M13,108h1v1h-1z M28,112h1v1h-1z M32,113h1v1h-1z M30,115h1v1h-1z M9,117h1v1h-1z M10,118h1v1h-1z M30,118h1v1h-1z M8,119h1v1h-1z M6,122h1v1h-1z M17,89h8v1h-8z M25,104h1v2h-1z M26,106h1v2h-1z M28,108h2v1h-2z M14,110h13v9h-13z M27,111h1v3h-1z M13,112h1v2h-1z M13,115h1v4h-1z M27,115h1v4h-1z M11,116h2v3h-2z M28,116h2v3h-2z" /><path fill="#9C4747" d="M111,91h1v1h-1z M104,113h1v1h-1z M115,114h1v1h-1z M63,114h5v1h-5z" /><path fill="#DBA8A5" d="M20,100h1v1h-1z M12,106h1v1h-1z M9,112h1v1h-1z" /><path fill="#C28987" d="M28,104h1v1h-1z M12,115h1v1h-1z M31,116h1v1h-1z M19,102h4v8h-4z M18,103h1v7h-1z M23,103h1v7h-1z M17,104h1v6h-1z M24,104h1v6h-1z M16,106h1v4h-1z M25,106h1v4h-1z M15,108h1v2h-1z M26,108h1v2h-1z M31,111h1v2h-1z M30,112h1v2h-1z" /></svg>