<svg xmlns="http://www.w3.org/2000/svg" version="1.1" width="128" height="128" shape-rendering="crispEdges"><path fill="#74A4F8" d="M85,63h1v1h-1z M15,94h1v1h-1z M0,0h128v9h-128z M0,9h63v17h-63z M65,9h63v19h-63z M0,26h9v1h-9z M15,26h48v1h-48z M0,27h6v1h-6z M17,27h46v1h-46z M0,28h5v1h-5z M20,28h42v1h-42z M66,28h46v1h-46z M119,28h9v1h-9z M0,29h4v1h-4z M21,29h42v1h-42z M66,29h44v1h-44z M122,29h6v1h-6z M0,30h3v1h-3z M21,30h41v1h-41z M66,30h42v1h-42z M123,30h5v1h-5z M0,31h2v1h-2z M23,31h39v2h-39z M66,31h41v1h-41z M124,31h4v1h-4z M0,32h1v2h-1z M66,32h40v1h-40z M125,32h3v1h-3z M24,33h38v4h-38z M66,33h39v2h-39z M127,33h1v2h-1z M66,35h38v2h-38z M24,37h37v1h-37z M67,37h37v1h-37z M25,38h36v5h-36z M67,38h36v5h-36z M25,43h35v1h-35z M68,43h35v1h-35z M26,44h34v1h-34z M68,44h30v1h-30z M26,45h33v1h-33z M69,45h27v1h-27z M27,46h32v1h-32z M69,46h25v1h-25z M28,47h31v1h-31z M69,47h24v1h-24z M28,48h30v2h-30z M70,48h23v1h-23z M70,49h22v2h-22z M29,50h29v4h-29z M70,51h21v1h-21z M70,52h20v2h-20z M28,54h29v2h-29z M71,54h19v3h-19z M28,56h7v1h-7z M37,56h20v1h-20z M90,56h1v6h-1z M29,57h5v1h-5z M39,57h17v1h-17z M72,57h18v2h-18z M29,58h4v1h-4z M41,58h15v1h-15z M91,58h1v4h-1z M30,59h2v1h-2z M42,59h13v1h-13z M73,59h17v2h-17z M43,60h12v1h-12z M92,60h1v2h-1z M44,61h6v2h-6z M51,61h4v1h-4z M73,61h4v1h-4z M78,61h12v1h-12z M52,62h2v1h-2z M74,62h2v1h-2z M78,62h9v1h-9z M47,63h3v1h-3z M78,63h6v1h-6z M48,64h3v3h-3z M77,64h6v2h-6z M51,65h1v3h-1z M76,65h1v3h-1z M52,66h1v2h-1z M75,66h1v2h-1z M77,66h5v1h-5z M49,67h2v1h-2z M77,67h4v1h-4z" /><path fill="#C5BCBB" d="M63,9h1v1h-1z" /><path fill="#9BB5EA" d="M64,9h1v1h-1z M65,29h1v1h-1z M50,63h1v1h-1z M77,63h1v1h-1z M48,67h1v1h-1z M20,95h1v1h-1z" /><path fill="#F8F8EB" d="M63,10h1v1h-1z M123,31h1v1h-1z M63,32h1v1h-1z M15,33h1v1h-1z M63,35h1v1h-1z M112,37h1v1h-1z M15,46h1v1h-1z M6,47h1v1h-1z M9,47h1v1h-1z M21,47h1v1h-1z M11,48h1v1h-1z M15,55h1v1h-1z M16,56h1v1h-1z M106,59h1v1h-1z M42,60h1v1h-1z M60,60h1v1h-1z M110,61h1v1h-1z M37,63h1v1h-1z M24,69h1v1h-1z M110,69h1v1h-1z M45,70h1v1h-1z M41,72h1v1h-1z M44,82h1v1h-1z M34,84h1v1h-1z M93,84h1v1h-1z M84,87h1v1h-1z M24,88h1v1h-1z M42,89h1v1h-1z M32,92h1v1h-1z M103,92h1v1h-1z M23,94h1v1h-1z M104,94h1v1h-1z M22,95h1v1h-1z M105,95h1v1h-1z M24,103h1v1h-1z M70,112h1v1h-1z M42,113h1v1h-1z M85,113h1v1h-1z M22,114h1v1h-1z M32,114h1v1h-1z M41,114h1v1h-1z M59,116h1v1h-1z M21,118h1v1h-1z M51,118h1v1h-1z M87,118h1v1h-1z M56,119h1v1h-1z M71,119h1v1h-1z M76,119h1v1h-1z M56,121h1v1h-1z M9,26h6v9h-6z M6,27h3v11h-3z M15,27h2v6h-2z M5,28h1v21h-1z M17,28h3v2h-3z M112,28h7v7h-7z M4,29h1v24h-1z M20,29h1v2h-1z M110,29h2v11h-2z M119,29h3v3h-3z M3,30h1v24h-1z M17,30h2v1h-2z M108,30h2v19h-2z M122,30h1v2h-1z M2,31h1v31h-1z M17,31h1v2h-1z M107,31h1v19h-1z M1,32h1v30h-1z M106,32h1v19h-1z M119,32h2v1h-2z M105,33h1v19h-1z M119,33h1v2h-1z M0,34h1v27h-1z M9,35h5v1h-5z M112,35h6v1h-6z M9,36h4v1h-4z M104,36h1v17h-1z M112,36h4v1h-4z M6,38h2v9h-2z M103,38h1v15h-1z M11,40h4v7h-4z M110,40h1v9h-1z M10,41h1v8h-1z M15,41h2v5h-2z M111,41h4v6h-4z M8,42h2v5h-2z M17,42h1v4h-1z M115,42h2v2h-2z M18,43h1v3h-1z M19,44h1v2h-1z M98,44h5v9h-5z M115,44h1v2h-1z M120,44h5v6h-5z M20,45h1v2h-1z M96,45h2v26h-2z M119,45h1v5h-1z M94,46h2v23h-2z M125,46h1v3h-1z M11,47h3v1h-3z M93,47h1v23h-1z M111,47h3v1h-3z M92,49h1v11h-1z M120,50h4v1h-4z M91,51h1v7h-1z M121,51h2v1h-2z M90,52h1v4h-1z M7,53h7v4h-7z M98,53h4v1h-4z M6,54h1v9h-1z M14,54h1v2h-1z M98,54h3v1h-3z M110,54h3v7h-3z M5,55h1v8h-1z M98,55h2v16h-2z M108,55h2v7h-2z M4,56h1v7h-1z M35,56h2v17h-2z M100,56h1v15h-1z M107,56h1v5h-1z M113,56h1v5h-1z M3,57h1v5h-1z M7,57h6v1h-6z M34,57h1v13h-1z M37,57h2v6h-2z M101,57h2v12h-2z M7,58h5v1h-5z M33,58h1v11h-1z M39,58h2v3h-2z M114,58h1v2h-1z M7,59h3v2h-3z M32,59h1v4h-1z M41,59h1v2h-1z M103,59h1v3h-1z M104,60h1v2h-1z M87,62h6v10h-6z M86,63h1v11h-1z M85,64h1v10h-1z M21,65h3v6h-3z M19,66h2v6h-2z M24,66h2v3h-2z M103,66h1v3h-1z M18,67h1v3h-1z M37,67h2v7h-2z M84,67h1v7h-1z M39,68h2v6h-2z M107,68h3v4h-3z M45,69h8v1h-8z M54,69h1v9h-1z M95,69h1v4h-1z M101,69h1v2h-1z M106,69h1v3h-1z M41,70h3v1h-3z M41,71h2v1h-2z M96,71h1v2h-1z M87,72h5v1h-5z M107,72h2v1h-2z M45,73h1v7h-1z M87,73h4v1h-4z M35,75h9v1h-9z M35,76h1v7h-1z M82,78h1v2h-1z M25,79h9v1h-9z M25,80h1v7h-1z M92,81h1v2h-1z M102,83h1v4h-1z M44,85h1v2h-1z M34,87h1v3h-1z M43,87h1v2h-1z M93,87h1v3h-1z M85,88h1v2h-1z M33,90h1v2h-1z M94,90h1v2h-1z M24,91h1v2h-1z M53,95h1v18h-1z M72,95h1v18h-1z M43,98h1v15h-1z M34,100h1v13h-1z M82,105h1v8h-1z M24,108h1v6h-1z M57,111h1v2h-1z M32,113h2v1h-2z M52,113h1v2h-1z M22,116h1v2h-1z M32,116h1v2h-1z M41,116h1v2h-1z M52,116h1v2h-1z M56,116h1v2h-1z M71,116h1v2h-1z M74,117h1v2h-1z M86,117h1v2h-1z M40,118h1v2h-1z M75,118h1v2h-1z M38,119h2v1h-2z M49,119h2v1h-2z" /><path fill="#8E632A" d="M63,19h1v1h-1z M64,35h1v1h-1z M64,52h1v1h-1z M76,62h1v1h-1z M56,68h1v1h-1z M65,70h1v1h-1z M24,74h1v1h-1z M71,82h1v1h-1z M52,84h1v1h-1z M69,85h1v1h-1z M77,88h1v1h-1z M50,93h1v1h-1z M77,93h1v1h-1z M35,99h1v1h-1z M30,103h1v1h-1z M28,108h1v1h-1z M32,108h1v1h-1z M29,112h1v1h-1z M64,10h1v2h-1z M64,16h1v3h-1z M64,20h1v3h-1z M64,43h1v2h-1z M50,61h1v2h-1z M53,81h1v2h-1z M54,91h1v2h-1z M68,111h1v2h-1z" /><path fill="#F9ECCB" d="M63,11h1v1h-1z M63,28h1v1h-1z M63,37h1v1h-1z M62,41h1v1h-1z M61,47h1v1h-1z M61,50h1v1h-1z M61,52h1v1h-1z M60,55h1v1h-1z M65,57h1v1h-1z M59,61h1v1h-1z M43,64h1v1h-1z M57,69h1v1h-1z M58,70h1v1h-1z M63,15h1v3h-1z M63,20h1v2h-1z M62,43h1v2h-1z M62,46h1v2h-1z M61,49h2v1h-2z M60,57h2v1h-2z M66,60h2v1h-2z M67,61h2v1h-2z M55,62h3v1h-3z" /><path fill="#AE782D" d="M63,12h1v1h-1z M65,33h1v1h-1z M64,51h1v1h-1z M57,56h1v1h-1z M59,56h1v1h-1z M61,58h1v1h-1z M43,63h1v1h-1z M64,63h1v1h-1z M60,66h1v1h-1z M57,68h1v1h-1z M33,69h1v1h-1z M67,70h1v1h-1z M23,73h1v1h-1z M103,75h1v1h-1z M47,101h1v1h-1z M41,103h1v1h-1z M32,105h1v1h-1z M41,106h1v1h-1z M41,110h1v1h-1z M32,111h1v1h-1z" /><path fill="#654421" d="M64,12h1v1h-1z M63,26h1v1h-1z M64,33h1v1h-1z M64,37h1v1h-1z M65,41h1v1h-1z M66,44h1v1h-1z M68,48h1v1h-1z M66,49h1v1h-1z M69,51h1v1h-1z M66,52h1v1h-1z M68,53h1v1h-1z M69,54h1v1h-1z M68,55h1v1h-1z M71,57h1v1h-1z M69,62h1v1h-1z M77,62h1v1h-1z M76,63h1v1h-1z M66,64h1v1h-1z M69,66h1v1h-1z M71,66h1v1h-1z M70,69h1v1h-1z M94,69h1v1h-1z M59,72h1v1h-1z M70,72h1v1h-1z M58,74h1v1h-1z M60,74h1v1h-1z M72,74h1v1h-1z M65,75h1v1h-1z M71,75h1v1h-1z M57,76h1v1h-1z M72,77h1v1h-1z M56,78h1v1h-1z M60,79h1v1h-1z M74,81h1v1h-1z M76,82h1v1h-1z M53,83h1v1h-1z M58,86h1v1h-1z M56,89h1v1h-1z M54,93h1v1h-1z M64,93h1v1h-1z M73,93h1v1h-1z M55,94h1v1h-1z M83,94h1v1h-1z M61,98h1v1h-1z M78,98h1v1h-1z M39,99h1v1h-1z M59,99h1v1h-1z M92,99h1v1h-1z M50,100h1v1h-1z M61,100h1v1h-1z M88,100h1v1h-1z M25,101h1v1h-1z M76,101h1v1h-1z M67,102h1v1h-1z M69,102h1v1h-1z M88,102h1v1h-1z M102,102h1v1h-1z M47,104h1v1h-1z M37,105h1v1h-1z M95,105h1v1h-1z M27,107h1v1h-1z M32,107h1v1h-1z M95,108h1v1h-1z M99,108h1v1h-1z M79,110h1v1h-1z M86,110h1v1h-1z M38,111h1v1h-1z M40,111h1v1h-1z M99,111h1v1h-1z M95,112h1v1h-1z M63,13h1v2h-1z M65,43h1v2h-1z M64,53h1v6h-1z M69,59h2v1h-2z M65,60h1v2h-1z M71,63h2v1h-2z M67,65h2v1h-2z M63,69h1v2h-1z M69,70h1v2h-1z M64,77h1v2h-1z M58,78h1v2h-1z M63,83h1v4h-1z M57,85h2v1h-2z M51,91h1v2h-1z M53,91h1v3h-1z M55,91h1v2h-1z M74,91h1v4h-1z M63,92h2v1h-2z M45,94h1v4h-1z M62,96h4v1h-4z M66,97h2v1h-2z M68,98h1v2h-1z M77,100h2v1h-2z M30,101h1v2h-1z M51,103h2v1h-2z M41,105h2v1h-2z M76,105h1v4h-1z M86,107h1v2h-1z M47,110h5v1h-5z M30,112h3v1h-3z" /><path fill="#50331D" d="M64,19h1v1h-1z M64,23h1v1h-1z M65,31h1v1h-1z M66,46h1v1h-1z M64,59h1v1h-1z M63,62h1v1h-1z M66,62h1v1h-1z M70,63h1v1h-1z M74,63h1v1h-1z M67,66h1v1h-1z M55,68h1v1h-1z M61,78h1v1h-1z M55,80h1v1h-1z M64,80h1v1h-1z M74,80h1v1h-1z M56,82h1v1h-1z M58,84h1v1h-1z M50,88h1v1h-1z M55,93h1v1h-1z M84,94h1v1h-1z M62,95h1v1h-1z M65,95h1v1h-1z M44,96h1v1h-1z M83,96h1v1h-1z M35,98h1v1h-1z M59,98h1v1h-1z M92,98h1v1h-1z M78,99h1v1h-1z M88,99h1v1h-1z M59,100h1v1h-1z M102,101h1v1h-1z M40,102h1v1h-1z M79,102h1v1h-1z M87,102h1v1h-1z M86,103h1v1h-1z M76,104h1v1h-1z M80,104h1v1h-1z M89,104h1v1h-1z M96,104h1v1h-1z M90,105h1v1h-1z M86,106h1v1h-1z M28,107h1v1h-1z M95,111h1v1h-1z M64,13h1v3h-1z M64,26h1v2h-1z M63,94h2v2h-2z M82,94h1v4h-1z M36,97h1v3h-1z M60,97h2v1h-2z M63,97h2v1h-2z M26,100h1v3h-1z M101,100h1v3h-1z M87,101h2v1h-2z M97,101h1v4h-1z M58,102h3v1h-3z M68,102h1v2h-1z M59,103h2v1h-2z M75,103h2v1h-2z M80,103h2v1h-2z M60,104h1v9h-1z M85,105h2v1h-2z M94,107h2v1h-2z M99,107h2v1h-2z M76,110h3v1h-3z M59,111h1v2h-1z M86,111h5v1h-5z M96,112h4v1h-4z" /><path fill="#DAA847" d="M63,18h1v1h-1z M63,52h1v1h-1z M66,58h1v1h-1z M62,61h1v1h-1z M57,71h1v1h-1z M55,73h1v1h-1z M67,74h1v1h-1z M67,78h1v1h-1z M70,83h1v1h-1z M73,87h1v1h-1z M68,89h1v1h-1z M24,101h1v1h-1z M40,103h1v1h-1z M28,105h1v1h-1z M41,108h1v1h-1z M47,108h1v1h-1z M80,109h1v1h-1z M63,46h1v2h-1z M55,75h2v1h-2z M32,109h1v2h-1z M69,111h1v2h-1z" /><path fill="#DDA339" d="M63,22h1v1h-1z M63,24h1v1h-1z M63,30h1v1h-1z M62,35h1v1h-1z M62,37h1v1h-1z M63,39h1v1h-1z M61,40h1v1h-1z M63,41h1v1h-1z M61,46h1v1h-1z M60,47h1v1h-1z M58,51h1v1h-1z M63,51h1v1h-1z M66,53h1v1h-1z M65,58h1v1h-1z M67,58h1v1h-1z M59,60h1v1h-1z M57,61h1v1h-1z M66,61h1v1h-1z M75,63h1v1h-1z M44,64h1v1h-1z M53,64h1v1h-1z M83,64h1v1h-1z M58,68h1v1h-1z M34,70h1v1h-1z M93,71h1v1h-1z M57,72h1v1h-1z M66,72h1v1h-1z M55,74h1v1h-1z M103,74h1v1h-1z M69,81h1v1h-1z M51,82h1v1h-1z M71,83h1v1h-1z M66,84h1v1h-1z M49,85h1v1h-1z M73,86h1v1h-1z M79,90h1v1h-1z M50,92h1v1h-1z M73,92h1v1h-1z M73,94h1v1h-1z M44,97h1v1h-1z M48,100h1v1h-1z M67,101h1v1h-1z M69,101h1v1h-1z M24,102h1v1h-1z M51,102h1v1h-1z M37,104h1v1h-1z M41,104h1v1h-1z M29,105h1v1h-1z M31,105h1v1h-1z M28,106h1v1h-1z M32,106h1v1h-1z M41,107h1v1h-1z M41,109h1v1h-1z M28,111h1v1h-1z M62,33h2v1h-2z M63,43h1v2h-1z M59,45h2v1h-2z M64,46h1v2h-1z M58,48h2v1h-2z M63,49h2v1h-2z M59,50h1v2h-1z M62,52h1v2h-1z M65,52h1v2h-1z M59,53h3v1h-3z M63,53h1v9h-1z M57,54h2v1h-2z M61,55h2v1h-2z M65,55h2v1h-2z M62,57h1v4h-1z M59,58h2v1h-2z M55,59h4v1h-4z M64,60h1v3h-1z M60,61h2v1h-2z M51,62h1v2h-1z M54,62h1v3h-1z M58,62h3v1h-3z M62,62h1v3h-1z M65,62h1v4h-1z M67,62h2v1h-2z M52,63h1v2h-1z M55,63h3v1h-3z M61,64h1v4h-1z M66,65h1v3h-1z M59,67h2v1h-2z M67,67h1v3h-1z M60,68h1v2h-1z M59,69h1v3h-1z M55,70h3v1h-3z M68,70h1v2h-1z M55,71h1v2h-1z M58,71h1v3h-1z M69,72h1v3h-1z M56,73h1v2h-1z M57,74h1v2h-1z M66,74h1v2h-1z M70,74h1v3h-1z M55,76h2v2h-2z M68,76h1v2h-1z M71,76h1v3h-1z M66,77h2v1h-2z M55,78h1v2h-1z M69,78h1v2h-1z M72,78h1v2h-1z M68,79h1v3h-1z M52,80h1v4h-1z M54,80h1v2h-1z M70,80h1v2h-1z M73,80h1v2h-1z M75,80h1v5h-1z M65,81h3v1h-3z M74,82h1v2h-1z M66,83h4v1h-4z M51,84h1v3h-1z M68,84h2v1h-2z M72,84h1v2h-1z M76,84h1v3h-1z M71,85h1v2h-1z M50,86h1v2h-1z M66,86h5v1h-5z M77,86h2v2h-2z M49,87h1v2h-1z M48,88h1v3h-1z M73,88h1v2h-1z M78,88h2v2h-2z M66,89h2v1h-2z M70,89h2v1h-2z M40,90h8v1h-8z M81,90h7v1h-7z M72,91h1v4h-1z M76,91h2v2h-2z M30,93h12v1h-12z M93,93h5v1h-5z M53,94h2v1h-2z M43,95h2v1h-2z M20,96h12v1h-12z M43,96h1v2h-1z M49,97h1v4h-1z M34,98h1v2h-1z M65,98h2v1h-2z M66,99h2v2h-2z M39,100h1v3h-1z M68,100h1v2h-1z M50,101h2v1h-2z M38,102h1v2h-1z M29,104h2v1h-2z M67,104h1v9h-1z M47,105h1v3h-1z M51,105h1v5h-1z M68,105h1v6h-1z M80,106h1v3h-1z" /><path fill="#71502B" d="M63,23h1v1h-1z M64,28h1v1h-1z M64,32h1v1h-1z M65,35h1v1h-1z M66,38h1v1h-1z M66,40h1v1h-1z M64,41h1v1h-1z M66,42h1v1h-1z M69,48h1v1h-1z M68,51h1v1h-1z M67,53h1v1h-1z M70,54h1v1h-1z M67,55h1v1h-1z M67,57h1v1h-1z M68,58h1v1h-1z M70,58h1v1h-1z M68,60h1v1h-1z M72,60h1v1h-1z M77,61h1v1h-1z M53,63h1v1h-1z M55,67h1v1h-1z M57,67h1v1h-1z M72,67h1v1h-1z M69,68h1v1h-1z M71,68h1v1h-1z M55,69h1v1h-1z M68,69h1v1h-1z M62,70h1v1h-1z M94,70h1v1h-1z M63,71h1v1h-1z M70,71h1v1h-1z M61,72h1v1h-1z M68,72h1v1h-1z M62,73h1v1h-1z M71,73h1v1h-1z M65,77h1v1h-1z M66,78h1v1h-1z M64,79h1v1h-1z M72,80h1v1h-1z M64,81h1v1h-1z M56,83h1v1h-1z M61,84h1v1h-1z M56,86h1v1h-1z M65,86h1v1h-1z M56,88h1v1h-1z M49,89h1v1h-1z M50,91h1v1h-1z M65,97h1v1h-1z M78,97h1v1h-1z M83,97h1v1h-1z M76,102h1v1h-1z M87,103h1v1h-1z M31,104h1v1h-1z M38,104h1v1h-1z M51,104h1v1h-1z M68,104h1v1h-1z M86,104h1v1h-1z M90,104h1v1h-1z M80,105h1v1h-1z M96,105h1v1h-1z M95,106h1v1h-1z M86,109h1v1h-1z M80,110h1v1h-1z M37,111h1v1h-1z M39,111h1v1h-1z M41,111h1v1h-1z M28,112h1v1h-1z M64,24h1v2h-1z M64,30h2v1h-2z M65,37h2v1h-2z M64,39h2v1h-2z M67,45h2v1h-2z M65,46h1v2h-1z M66,47h2v1h-2z M65,49h1v2h-1z M66,50h3v1h-3z M68,56h2v1h-2z M71,59h2v1h-2z M69,61h2v1h-2z M70,62h3v1h-3z M73,63h1v2h-1z M84,63h1v2h-1z M74,64h2v1h-2z M59,65h2v1h-2z M56,66h3v1h-3z M70,66h1v3h-1z M70,70h3v1h-3z M72,71h1v3h-1z M65,72h1v2h-1z M104,73h1v2h-1z M61,75h4v1h-4z M72,75h1v2h-1z M59,77h4v1h-4z M63,78h1v4h-1z M57,80h1v2h-1z M58,81h5v1h-5z M58,83h5v1h-5z M64,83h2v1h-2z M55,84h1v2h-1z M64,84h1v3h-1z M54,86h1v4h-1z M59,86h4v1h-4z M57,89h9v1h-9z M43,94h2v1h-2z M83,95h2v1h-2z M84,96h1v2h-1z M34,97h2v1h-2z M62,97h1v2h-1z M92,97h2v1h-2z M93,98h1v2h-1z M60,99h2v1h-2z M24,100h2v1h-2z M60,100h1v2h-1z M79,100h1v2h-1z M102,100h2v1h-2z M58,101h2v1h-2z M80,101h1v2h-1z M103,101h1v2h-1z M89,102h1v2h-1z M46,103h2v1h-2z M59,104h1v7h-1z M98,104h1v2h-1z M99,105h1v2h-1z M95,109h1v2h-1z M99,109h1v2h-1z M58,111h1v2h-1z" /><path fill="#F2DD9F" d="M63,25h1v1h-1z M62,39h1v1h-1z M60,50h1v1h-1z M62,50h1v1h-1z M58,56h1v1h-1z M66,57h1v1h-1z M54,78h1v1h-1z M48,101h1v1h-1z" /><path fill="#C19342" d="M63,27h1v1h-1z M55,60h1v1h-1z M69,89h1v1h-1z M25,102h1v1h-1z M67,103h1v1h-1z M37,106h1v1h-1z M28,109h1v1h-1z M37,110h1v1h-1z M61,37h1v2h-1z" /><path fill="#B3A767" d="M62,28h1v1h-1z M37,107h1v3h-1z" /><path fill="#9599BD" d="M65,28h1v1h-1z M37,112h1v1h-1z M79,112h1v1h-1z M48,111h2v1h-2z M60,118h2v1h-2z M58,121h2v1h-2z" /><path fill="#732E27" d="M63,29h1v1h-1z M67,43h1v1h-1z M61,62h1v1h-1z M100,82h1v1h-1z" /><path fill="#2E1D30" d="M64,29h1v1h-1z M65,32h1v1h-1z M66,39h1v1h-1z M64,45h1v1h-1z M68,47h1v1h-1z M65,48h1v1h-1z M64,50h1v1h-1z M65,51h1v1h-1z M68,52h1v1h-1z M69,53h1v1h-1z M67,56h1v1h-1z M71,58h1v1h-1z M59,59h1v1h-1z M61,59h1v1h-1z M65,59h1v1h-1z M67,63h1v1h-1z M51,64h1v1h-1z M76,64h1v1h-1z M59,66h1v1h-1z M63,66h1v1h-1z M68,67h1v1h-1z M61,68h1v1h-1z M63,68h1v1h-1z M60,70h1v1h-1z M34,71h1v1h-1z M65,74h1v1h-1z M65,76h1v1h-1z M59,78h1v1h-1z M74,79h1v1h-1z M76,80h1v1h-1z M65,82h1v1h-1z M51,83h1v1h-1z M44,84h1v1h-1z M53,84h1v1h-1z M77,84h1v1h-1z M45,85h1v1h-1z M87,86h1v1h-1z M57,87h1v1h-1z M59,87h1v1h-1z M63,87h1v1h-1z M79,87h1v1h-1z M94,87h1v1h-1z M25,88h1v1h-1z M86,88h1v1h-1z M38,90h1v1h-1z M49,90h1v1h-1z M95,90h1v1h-1z M97,90h1v1h-1z M41,91h1v1h-1z M43,91h1v1h-1z M45,91h1v1h-1z M47,91h1v1h-1z M39,92h1v1h-1z M49,92h1v1h-1z M48,93h1v1h-1z M77,94h1v1h-1z M81,94h1v1h-1z M46,95h1v1h-1z M35,96h1v1h-1z M38,96h1v1h-1z M41,96h1v1h-1z M33,98h1v1h-1z M27,100h1v1h-1z M33,100h1v1h-1z M49,101h1v1h-1z M39,103h1v1h-1z M126,104h1v1h-1z M96,106h1v1h-1z M114,110h1v1h-1z M86,115h1v1h-1z M56,118h1v1h-1z M71,118h1v1h-1z M2,119h1v1h-1z M5,119h1v1h-1z M72,119h1v1h-1z M71,120h1v1h-1z M64,36h2v1h-2z M64,38h2v1h-2z M64,40h2v1h-2z M64,42h2v1h-2z M67,46h2v1h-2z M67,48h1v2h-1z M69,49h1v2h-1z M67,51h1v2h-1z M67,54h2v1h-2z M70,60h2v1h-2z M71,61h2v1h-2z M58,63h4v1h-4z M59,64h2v1h-2z M71,64h2v1h-2z M53,65h1v2h-1z M62,65h1v3h-1z M73,66h2v1h-2z M83,66h2v1h-2z M74,67h1v11h-1z M81,67h3v2h-3z M75,68h6v1h-6z M83,69h1v3h-1z M94,71h1v2h-1z M93,72h1v9h-1z M91,73h2v2h-2z M84,74h7v1h-7z M59,75h1v2h-1z M104,75h1v2h-1z M58,76h1v2h-1z M60,76h4v1h-4z M101,77h3v2h-3z M94,78h7v1h-7z M83,79h1v2h-1z M103,79h1v2h-1z M45,82h1v2h-1z M57,82h7v1h-7z M46,84h3v1h-3z M79,84h5v1h-5z M60,85h2v1h-2z M35,86h7v1h-7z M52,86h2v1h-2z M89,86h6v1h-6z M51,87h1v4h-1z M53,87h1v2h-1z M52,88h1v2h-1z M55,88h1v2h-1z M25,90h7v1h-7z M58,90h4v1h-4z M63,90h9v1h-9z M99,90h3v1h-3z M103,90h2v1h-2z M104,91h1v2h-1z M56,92h1v2h-1z M79,92h8v1h-8z M29,94h11v1h-11z M46,94h2v1h-2z M49,94h2v1h-2z M86,95h11v1h-11z M0,97h1v22h-1z M25,97h7v1h-7z M91,98h1v2h-1z M95,98h10v1h-10z M127,98h1v6h-1z M1,99h3v1h-3z M124,99h3v4h-3z M1,100h2v19h-2z M5,100h2v2h-2z M121,100h2v1h-2z M3,101h2v2h-2z M122,101h2v1h-2z M125,103h2v1h-2z M15,108h2v3h-2z M111,108h1v2h-1z M14,109h1v2h-1z M17,109h2v2h-2z M71,109h1v7h-1z M110,109h1v2h-1z M112,109h2v3h-2z M16,111h2v1h-2z M3,112h1v8h-1z M17,112h1v6h-1z M113,112h1v5h-1z M55,116h1v3h-1z M4,117h1v3h-1z" /><path fill="#C5D1EB" d="M111,40h1v1h-1z M9,41h1v1h-1z M17,41h1v1h-1z M115,41h1v1h-1z M15,54h1v1h-1z M100,55h1v1h-1z M104,59h1v1h-1z M110,68h1v1h-1z M41,73h1v1h-1z M11,74h1v1h-1z M121,75h1v1h-1z M23,99h1v1h-1z M19,30h1v14h-1z M18,31h1v12h-1z M20,31h3v14h-3z M121,32h4v12h-4z M16,33h2v8h-2z M23,33h1v32h-1z M120,33h1v11h-1z M125,33h2v13h-2z M15,34h1v7h-1z M14,35h1v5h-1z M118,35h2v10h-2z M127,35h1v39h-1z M13,36h1v4h-1z M116,36h2v6h-2z M9,37h4v3h-4z M113,37h3v4h-3z M8,38h1v4h-1z M24,38h1v28h-1z M112,38h1v3h-1z M9,40h2v1h-2z M117,42h1v37h-1z M25,44h1v22h-1z M116,44h1v36h-1z M21,45h2v2h-2z M118,45h1v33h-1z M16,46h4v10h-4z M26,46h1v31h-1z M115,46h1v36h-1z M126,46h1v28h-1z M7,47h2v6h-2z M14,47h2v7h-2z M20,47h1v19h-1z M22,47h1v18h-1z M27,47h1v31h-1z M114,47h1v11h-1z M6,48h1v6h-1z M9,48h1v5h-1z M12,48h2v5h-2z M21,48h1v17h-1z M111,48h3v6h-3z M5,49h1v6h-1z M10,49h2v4h-2z M108,49h3v5h-3z M125,49h1v26h-1z M28,50h1v4h-1z M107,50h1v6h-1z M119,50h1v27h-1z M124,50h1v25h-1z M106,51h1v8h-1z M120,51h1v26h-1z M123,51h1v24h-1z M105,52h1v36h-1z M121,52h2v23h-2z M4,53h1v3h-1z M102,53h3v4h-3z M3,54h1v3h-1z M101,54h1v3h-1z M108,54h2v1h-2z M113,54h1v2h-1z M14,56h2v27h-2z M17,56h3v10h-3z M13,57h1v25h-1z M16,57h1v28h-1z M28,57h1v21h-1z M103,57h2v2h-2z M12,58h1v18h-1z M10,59h2v15h-2z M29,59h1v19h-1z M30,60h2v18h-2z M106,60h1v9h-1z M114,60h1v24h-1z M0,61h1v7h-1z M7,61h3v12h-3z M39,61h5v2h-5z M107,61h1v7h-1z M111,61h3v25h-3z M1,62h3v6h-3z M103,62h2v4h-2z M108,62h3v6h-3z M4,63h3v7h-3z M32,63h1v15h-1z M38,63h5v4h-5z M45,63h2v4h-2z M37,64h1v3h-1z M47,64h1v3h-1z M17,66h2v1h-2z M104,66h1v7h-1z M17,67h1v19h-1z M39,67h5v1h-5z M2,68h2v1h-2z M41,68h3v2h-3z M25,69h1v8h-1z M102,69h2v5h-2z M6,70h1v2h-1z M18,70h1v16h-1z M24,70h1v4h-1z M110,70h1v17h-1z M21,71h3v2h-3z M43,71h1v3h-1z M97,71h5v6h-5z M19,72h2v14h-2z M42,72h1v2h-1z M106,72h1v16h-1z M109,72h1v16h-1z M8,73h2v1h-2z M21,73h2v13h-2z M33,73h1v5h-1z M94,73h3v5h-3z M107,73h2v15h-2z M102,74h1v3h-1z M23,77h1v9h-1z M97,77h4v1h-4z M104,77h1v11h-1z M12,79h1v2h-1z M15,83h1v2h-1z M111,86h2v1h-2z" /><path fill="#E3BF7A" d="M62,30h1v1h-1z M61,44h1v1h-1z M61,60h1v1h-1z M58,61h1v1h-1z M33,70h1v1h-1z M49,86h1v1h-1z M73,91h1v1h-1z M47,102h1v1h-1z M47,109h1v1h-1z M28,110h1v1h-1z" /><path fill="#B76126" d="M62,31h1v1h-1z M61,42h1v1h-1z M56,57h1v1h-1z M80,72h1v1h-1z" /><path fill="#441C32" d="M63,31h1v1h-1z M63,45h1v1h-1z M59,49h1v1h-1z M63,50h1v1h-1z M59,54h1v1h-1z M65,56h1v1h-1z M67,75h1v1h-1z M103,76h1v1h-1z M54,79h1v1h-1z M51,80h1v1h-1z M53,80h1v1h-1z M71,81h1v1h-1z M35,84h1v1h-1z M49,84h1v1h-1z M71,84h1v1h-1z M94,84h1v1h-1z M68,85h1v1h-1z M77,89h1v1h-1z M105,93h1v1h-1z M3,100h1v1h-1z M123,102h1v1h-1z M13,110h1v1h-1z M109,110h1v1h-1z M111,110h1v1h-1z M15,116h1v1h-1z M112,116h1v1h-1z M127,119h1v1h-1z M65,54h2v1h-2z M71,91h1v3h-1z" /><path fill="#251824" d="M64,31h1v1h-1z M66,41h1v1h-1z M66,43h1v1h-1z M67,44h1v1h-1z M66,45h1v1h-1z M66,48h1v1h-1z M68,49h1v1h-1z M66,51h1v1h-1z M69,52h1v1h-1z M60,59h1v1h-1z M69,60h1v1h-1z M44,65h1v1h-1z M75,65h1v1h-1z M55,66h1v1h-1z M56,67h1v1h-1z M58,67h1v1h-1z M69,67h1v1h-1z M68,68h1v1h-1z M69,69h1v1h-1z M62,71h1v1h-1z M61,73h1v1h-1z M70,73h1v1h-1z M24,75h1v1h-1z M60,75h1v1h-1z M64,76h1v1h-1z M57,77h1v1h-1z M73,79h1v1h-1z M58,80h1v1h-1z M45,81h1v1h-1z M64,82h1v1h-1z M54,83h1v1h-1z M76,83h1v1h-1z M93,83h1v1h-1z M56,84h1v1h-1z M78,84h1v1h-1z M55,86h1v1h-1z M58,87h1v1h-1z M53,89h1v1h-1z M54,90h1v1h-1z M80,90h1v1h-1z M89,90h1v1h-1z M98,90h1v1h-1z M39,91h1v1h-1z M46,91h1v1h-1z M48,91h1v1h-1z M56,91h1v1h-1z M76,93h1v1h-1z M85,95h1v1h-1z M24,97h1v1h-1z M106,97h1v1h-1z M105,98h1v1h-1z M100,100h1v1h-1z M64,34h2v1h-2z M72,68h1v2h-1z M61,69h2v1h-2z M56,80h1v2h-1z M60,87h3v1h-3z M64,87h2v1h-2z M38,106h1v5h-1z" /><path fill="#7D1E35" d="M62,32h1v1h-1z M61,39h1v1h-1z M61,41h1v1h-1z M60,44h1v1h-1z M59,47h1v1h-1z M60,49h1v1h-1z M58,53h1v1h-1z M66,56h1v1h-1z M70,56h1v1h-1z M56,58h1v1h-1z M64,64h1v1h-1z M83,65h1v1h-1z M59,68h1v1h-1z M56,69h1v1h-1z M58,69h1v1h-1z M66,73h1v1h-1z M45,80h1v1h-1z M69,80h1v1h-1z M51,81h1v1h-1z M83,81h1v1h-1z M35,83h1v1h-1z M44,83h1v1h-1z M83,83h1v1h-1z M34,85h1v1h-1z M93,85h1v1h-1z M84,86h1v1h-1z M25,87h1v1h-1z M48,87h1v1h-1z M85,87h1v1h-1z M40,89h1v1h-1z M86,89h1v1h-1z M94,89h1v1h-1z M103,89h1v1h-1z M73,90h1v1h-1z M88,90h1v1h-1z M95,91h1v1h-1z M30,92h1v1h-1z M29,93h1v1h-1z M105,94h1v1h-1z M19,95h1v1h-1z M21,95h1v1h-1z M107,96h1v1h-1z M48,102h1v1h-1z M50,102h1v1h-1z M40,104h1v1h-1z M31,106h1v1h-1z M62,34h2v1h-2z M62,36h2v1h-2z M62,38h2v1h-2z M62,40h2v1h-2z M62,42h2v1h-2z M60,43h2v1h-2z M61,45h2v1h-2z M59,46h2v1h-2z M60,48h5v1h-5z M58,49h1v2h-1z M60,51h3v1h-3z M58,52h3v1h-3z M60,54h3v1h-3z M57,55h2v1h-2z M60,56h3v1h-3z M57,57h3v1h-3z M66,59h2v1h-2z M56,60h3v1h-3z M55,61h2v1h-2z M55,64h2v1h-2z M43,65h1v2h-1z M44,66h1v16h-1z M65,66h1v3h-1z M45,67h2v2h-2z M53,67h1v13h-1z M47,68h6v1h-6z M66,68h1v4h-1z M33,71h1v2h-1z M67,71h1v3h-1z M34,72h1v12h-1z M83,72h1v7h-1z M35,73h2v2h-2z M68,73h1v3h-1z M37,74h7v1h-7z M23,75h1v2h-1z M69,75h1v3h-1z M24,76h1v12h-1z M66,76h2v1h-2z M25,77h2v2h-2z M70,77h1v3h-1z M27,78h7v1h-7z M71,79h1v2h-1z M82,80h1v4h-1z M72,81h1v3h-1z M93,81h1v2h-1z M103,81h1v7h-1z M43,82h1v5h-1z M66,82h5v1h-5z M73,83h1v3h-1z M92,83h1v3h-1z M33,84h1v6h-1z M50,84h1v2h-1z M74,84h1v3h-1z M75,85h1v6h-1z M77,85h2v1h-2z M42,86h1v3h-1z M72,86h1v5h-1z M66,87h6v1h-6z M76,87h1v4h-1z M102,87h1v3h-1z M41,88h1v2h-1z M23,89h2v1h-2z M32,89h1v3h-1z M23,90h1v3h-1z M77,90h2v1h-2z M31,91h1v2h-1z M41,92h8v1h-8z M96,92h2v1h-2z M22,93h1v2h-1z M31,95h11v1h-11z M106,95h1v2h-1z M108,95h1v2h-1z M22,98h11v1h-11z" /><path fill="#99C9F8" d="M104,35h1v1h-1z M18,95h1v1h-1z M107,95h1v1h-1z M109,95h1v1h-1z M14,85h3v4h-3z M17,86h7v1h-7z M17,87h6v6h-6z M110,87h3v5h-3z M105,88h5v5h-5z M113,88h1v3h-1z M15,89h2v2h-2z M16,91h1v4h-1z M110,92h2v4h-2z M17,93h5v2h-5z M106,93h4v2h-4z M104,99h1v2h-1z" /><path fill="#1E192D" d="M65,45h1v1h-1z M68,59h1v1h-1z M66,63h1v1h-1z M67,64h1v1h-1z M52,65h1v1h-1z M69,65h1v1h-1z M84,65h1v1h-1z M54,66h1v1h-1z M68,66h1v1h-1z M72,66h1v1h-1z M63,67h1v1h-1z M71,67h1v1h-1z M62,68h1v1h-1z M65,69h1v1h-1z M71,69h1v1h-1z M65,71h1v1h-1z M62,74h1v1h-1z M58,75h1v1h-1z M74,78h1v1h-1z M56,79h1v1h-1z M61,79h1v1h-1z M66,79h1v1h-1z M76,81h1v1h-1z M45,84h1v1h-1z M35,85h1v1h-1z M53,85h1v1h-1z M94,85h1v1h-1z M34,86h1v1h-1z M88,86h1v1h-1z M52,87h1v1h-1z M94,88h1v1h-1z M25,89h1v1h-1z M87,89h1v1h-1z M95,89h1v1h-1z M104,89h1v1h-1z M24,90h1v1h-1z M62,90h1v1h-1z M102,90h1v1h-1z M42,91h1v1h-1z M44,91h1v1h-1z M49,91h1v1h-1z M87,92h1v1h-1z M49,93h1v1h-1z M48,94h1v1h-1z M76,94h1v1h-1z M30,95h1v1h-1z M81,95h1v1h-1z M97,95h1v1h-1z M91,97h1v1h-1z M38,105h1v1h-1z M63,106h1v1h-1z M31,107h1v1h-1z M56,120h1v1h-1z M69,55h2v1h-2z M68,57h3v1h-3z M63,63h1v3h-1z M68,63h2v2h-2z M57,64h2v2h-2z M70,64h1v2h-1z M54,65h3v1h-3z M64,65h1v5h-1z M71,65h4v1h-4z M61,70h1v2h-1z M60,71h1v3h-1z M59,73h1v2h-1z M57,78h1v2h-1z M55,81h1v3h-1z M84,83h1v3h-1z M54,84h1v2h-1z M85,86h2v1h-2z M55,87h2v1h-2z M74,87h1v4h-1z M50,89h1v2h-1z M52,90h2v1h-2z M55,90h3v1h-3z M96,90h1v2h-1z M40,91h1v2h-1z M52,91h1v5h-1z M75,91h1v5h-1z M78,91h11v1h-11z M78,92h1v3h-1z M42,93h6v1h-6z M51,93h1v2h-1z M79,93h7v1h-7z M98,93h1v2h-1z M40,94h3v1h-3z M79,94h2v1h-2z M85,94h13v1h-13z M42,95h1v3h-1z M32,96h3v1h-3z M36,96h2v1h-2z M39,96h2v1h-2z M85,96h11v1h-11z M22,97h2v1h-2z M32,97h2v1h-2z M94,97h12v1h-12z M63,98h2v8h-2z M94,98h1v3h-1z M24,99h10v1h-10z M62,99h1v14h-1z M65,99h1v7h-1z M95,99h9v1h-9z M61,101h1v12h-1z M66,101h1v5h-1z M78,101h1v6h-1z M49,102h1v3h-1z M48,103h1v7h-1z M50,103h1v2h-1z M77,103h1v7h-1z M79,103h1v3h-1z M88,103h1v8h-1z M39,104h1v3h-1z M87,104h1v7h-1z M40,105h1v2h-1z M89,105h1v6h-1z M97,105h1v7h-1z M29,106h2v2h-2z M98,106h1v6h-1z M96,107h1v5h-1z M29,108h1v4h-1z M56,109h1v7h-1z M72,116h1v3h-1z M55,119h1v4h-1z M72,120h1v3h-1z" /><path fill="#A34B32" d="M59,55h1v1h-1z" /><path fill="#D4D0D5" d="M57,58h1v1h-1z M44,63h1v1h-1z M47,67h1v1h-1z M54,95h1v1h-1z M48,99h1v1h-1z M52,102h1v1h-1z M31,103h1v1h-1z M24,104h1v1h-1z M33,106h1v1h-1z M25,112h1v1h-1z M23,113h1v1h-1z M70,113h1v1h-1z M25,117h1v1h-1z M40,117h1v1h-1z M74,119h1v1h-1z M65,80h3v1h-3z M67,84h1v2h-1z M52,105h1v6h-1z M42,107h1v3h-1z M44,111h1v2h-1z M54,111h1v2h-1z M73,111h1v2h-1z M90,121h3v1h-3z" /><path fill="#E8D6B2" d="M58,58h1v1h-1z M93,70h1v1h-1z M23,74h1v1h-1z" /><path fill="#6A5547" d="M69,58h1v1h-1z M62,72h1v1h-1z M64,74h1v1h-1z M71,74h1v1h-1z M57,83h1v1h-1z M57,86h1v1h-1z M63,93h1v1h-1z M77,101h1v1h-1z M90,103h1v1h-1z M98,103h1v1h-1z M42,104h1v1h-1z M76,109h1v1h-1z M64,70h1v2h-1z M90,106h1v5h-1z" /><path fill="#65271E" d="M73,62h1v1h-1z M76,79h1v1h-1z M80,89h1v1h-1z M92,93h1v1h-1z M104,96h1v1h-1z M75,70h7v2h-7z M75,72h5v1h-5z M75,73h4v1h-4z M75,74h2v5h-2z M77,75h1v9h-1z M84,76h8v6h-8z M78,79h1v5h-1z M94,80h8v2h-8z M79,81h1v3h-1z M84,82h7v1h-7z M94,82h6v2h-6z M85,83h6v3h-6z M95,84h5v5h-5z M79,85h4v2h-4z M100,86h1v4h-1z M80,87h3v1h-3z M86,87h5v1h-5z M80,88h2v1h-2z M87,88h4v1h-4z M101,88h1v2h-1z M88,89h3v1h-3z M96,89h4v1h-4z M90,90h1v4h-1z M89,91h1v3h-1z M97,91h6v1h-6z M88,92h1v2h-1z M91,92h1v2h-1z M98,92h5v1h-5z M86,93h2v1h-2z M99,93h3v4h-3z M102,94h2v3h-2z M98,95h1v2h-1z M96,96h2v1h-2z" /><path fill="#515581" d="M82,66h1v1h-1z M73,78h1v1h-1z M67,79h1v1h-1z M57,88h1v1h-1z M81,96h1v1h-1z M89,99h1v1h-1z M94,101h1v1h-1z M85,103h1v1h-1z M94,103h1v1h-1z M95,104h1v1h-1z M94,105h1v1h-1z M36,112h1v1h-1z M95,113h1v1h-1z M32,115h1v1h-1z M52,115h1v1h-1z M57,115h1v1h-1z M59,115h1v1h-1z M87,116h1v1h-1z M104,116h1v1h-1z M89,117h1v1h-1z M73,119h1v1h-1z M82,98h1v6h-1z M85,98h5v1h-5z M85,99h3v2h-3z M36,100h1v7h-1z M91,100h1v13h-1z M95,100h2v4h-2z M85,101h2v2h-2z M101,103h1v11h-1z M85,106h1v6h-1z M94,108h1v5h-1z M58,113h4v1h-4z M40,115h2v1h-2z M78,115h3v1h-3z M88,115h1v4h-1z M96,115h8v2h-8z M76,116h3v1h-3z M89,116h6v1h-6z M96,117h6v1h-6z M57,118h3v1h-3z M91,119h3v1h-3z M98,119h7v1h-7z M57,120h2v1h-2z" /><path fill="#7379A3" d="M102,80h1v1h-1z M104,88h1v1h-1z M48,97h1v1h-1z M40,98h1v1h-1z M80,98h1v1h-1z M50,99h1v1h-1z M33,108h1v1h-1z M84,112h1v1h-1z M77,114h1v1h-1z M24,116h1v1h-1z M33,116h1v1h-1z M31,117h1v1h-1z M94,118h1v1h-1z M96,118h1v1h-1z M106,118h1v1h-1z M58,119h1v1h-1z M89,119h1v1h-1z M97,119h1v1h-1z M54,67h1v2h-1z M82,70h1v2h-1z M92,75h1v6h-1z M83,86h1v2h-1z M57,91h14v1h-14z M57,92h6v3h-6z M65,92h6v3h-6z M56,94h1v15h-1z M71,94h1v3h-1z M48,95h4v2h-4z M57,95h5v2h-5z M66,95h5v2h-5z M74,95h1v18h-1z M52,96h1v2h-1z M50,97h2v1h-2z M57,97h3v1h-3z M68,97h2v1h-2z M42,98h1v3h-1z M47,98h1v3h-1z M57,98h2v3h-2z M83,98h2v4h-2z M38,99h1v2h-1z M41,99h1v2h-1z M28,100h3v1h-3z M37,100h1v4h-1z M93,100h1v15h-1z M28,101h2v2h-2z M31,101h3v2h-3z M46,101h1v2h-1z M57,101h1v10h-1z M70,101h1v3h-1z M27,102h1v5h-1z M84,102h1v9h-1z M28,103h1v2h-1z M69,103h1v2h-1z M46,104h1v9h-1z M58,104h1v7h-1z M81,106h1v4h-1z M27,108h1v5h-1z M103,108h1v7h-1z M47,111h1v2h-1z M76,113h2v1h-2z M87,113h6v2h-6z M94,113h1v2h-1z M58,114h2v1h-2z M95,114h8v1h-8z M104,114h2v1h-2z M23,115h1v2h-1z M30,116h2v1h-2z M53,116h2v1h-2z M75,116h1v2h-1z M57,117h3v1h-3z M73,117h1v2h-1z M95,117h1v2h-1z" /><path fill="#6A709B" d="M92,72h1v1h-1z M60,78h1v1h-1z M65,79h1v1h-1z M61,80h1v1h-1z M57,84h1v1h-1z M83,85h1v1h-1z M41,98h1v1h-1z M60,98h1v1h-1z M79,98h1v1h-1z M37,99h1v1h-1z M76,100h1v1h-1z M27,101h1v1h-1z M81,105h1v1h-1z M42,106h1v1h-1z M33,107h1v1h-1z M84,111h1v1h-1z M75,113h1v1h-1z M86,113h1v1h-1z M73,116h1v1h-1z M95,116h1v1h-1z M94,117h1v1h-1z M90,119h1v1h-1z M74,120h1v1h-1z M57,121h1v1h-1z M75,121h1v1h-1z M73,67h1v11h-1z M75,69h8v1h-8z M84,75h8v1h-8z M94,79h9v1h-9z M47,95h1v3h-1z M76,95h5v2h-5z M75,96h1v6h-1z M46,97h1v4h-1z M76,97h2v3h-2z M79,97h3v1h-3z M37,98h3v1h-3z M55,98h1v4h-1z M81,98h1v4h-1z M40,99h1v2h-1z M80,99h1v2h-1z M31,100h2v1h-2z M92,100h1v11h-1z M102,103h1v9h-1z M55,110h1v3h-1z M25,115h1v2h-1z M28,115h2v1h-2z M53,115h3v1h-3z M74,115h1v2h-1z M34,116h7v1h-7z M42,116h10v1h-10z M79,116h7v1h-7z M105,116h1v4h-1z M77,117h2v3h-2z M89,118h5v1h-5z M99,118h6v1h-6z M79,119h1v3h-1z M106,119h2v1h-2z M78,120h1v2h-1z M80,120h1v2h-1z" /><path fill="#68AB34" d="M1,69h1v1h-1z M2,75h1v1h-1z M124,78h1v1h-1z M6,79h1v1h-1z M3,80h1v1h-1z M116,80h1v1h-1z M119,80h1v1h-1z M125,82h1v1h-1z M4,83h1v1h-1z M120,83h1v1h-1z M126,83h1v1h-1z M124,84h1v1h-1z M114,87h1v1h-1z M124,90h1v1h-1z M117,91h1v1h-1z M15,95h1v1h-1z M17,96h1v1h-1z M111,97h1v1h-1z M106,98h1v1h-1z M108,98h1v1h-1z M15,99h1v1h-1z M20,100h1v1h-1z M111,100h1v1h-1z M106,101h1v1h-1z M15,104h1v1h-1z M17,104h1v1h-1z M113,104h1v1h-1z M8,105h1v1h-1z M104,105h1v1h-1z M11,106h1v1h-1z M121,119h1v1h-1z M111,120h1v1h-1z M0,68h1v2h-1z M2,72h1v2h-1z M2,79h1v2h-1z M126,80h2v3h-2z M117,81h1v5h-1z M116,82h1v3h-1z M118,82h2v3h-2z M114,84h1v2h-1z M126,89h1v2h-1z M118,90h3v4h-3z M121,91h1v3h-1z M122,92h1v2h-1z M119,94h2v1h-2z M110,96h3v1h-3z M19,99h1v2h-1z M110,99h2v1h-2z M106,100h2v1h-2z M15,103h2v1h-2z M111,103h2v2h-2z M10,104h3v1h-3z M106,104h3v1h-3z M11,105h2v1h-2z M107,105h2v1h-2z" /><path fill="#5A9542" d="M1,68h1v1h-1z M1,70h1v1h-1z M0,73h1v1h-1z M4,73h1v1h-1z M2,74h1v1h-1z M122,75h1v1h-1z M117,79h1v1h-1z M0,80h1v1h-1z M120,80h1v1h-1z M1,81h1v1h-1z M125,81h1v1h-1z M124,82h1v1h-1z M122,83h1v1h-1z M120,84h1v1h-1z M117,86h1v1h-1z M3,88h1v1h-1z M0,90h1v1h-1z M114,90h1v1h-1z M116,92h1v1h-1z M113,94h1v1h-1z M17,97h1v1h-1z M114,99h1v1h-1z M12,100h1v1h-1z M105,100h1v1h-1z M108,100h1v1h-1z M115,100h1v1h-1z M19,101h1v1h-1z M9,102h1v1h-1z M11,102h1v1h-1z M108,102h1v1h-1z M19,104h1v1h-1z M115,104h1v1h-1z M13,105h1v1h-1z M106,106h1v1h-1z M29,117h1v1h-1z M113,118h1v1h-1z M120,120h1v1h-1z M123,120h1v1h-1z M102,121h1v1h-1z M108,121h1v1h-1z M110,121h1v1h-1z M121,121h1v1h-1z M126,122h1v1h-1z M1,72h1v3h-1z M3,72h1v3h-1z M126,77h1v2h-1z M3,79h3v1h-3z M4,80h4v1h-4z M3,81h4v2h-4z M114,86h2v1h-2z M0,87h3v3h-3z M125,88h3v1h-3z M127,89h1v3h-1z M112,92h1v3h-1z M115,94h2v1h-2z M16,95h2v1h-2z M107,99h2v1h-2z M9,101h2v1h-2z M8,106h3v1h-3z M27,118h2v1h-2z M109,120h1v3h-1z M127,121h1v2h-1z" /><path fill="#46794C" d="M2,69h1v1h-1z M4,70h1v1h-1z M3,75h1v1h-1z M1,76h1v1h-1z M126,76h1v1h-1z M123,78h1v1h-1z M125,78h1v1h-1z M117,80h1v1h-1z M125,80h1v1h-1z M116,81h1v1h-1z M0,82h1v1h-1z M2,82h1v1h-1z M7,82h1v1h-1z M122,82h1v1h-1z M3,83h1v1h-1z M115,83h1v1h-1z M121,83h1v1h-1z M4,84h1v1h-1z M118,86h1v1h-1z M124,86h1v1h-1z M123,89h1v1h-1z M5,90h1v1h-1z M115,91h1v1h-1z M0,92h1v1h-1z M115,93h1v1h-1z M114,94h1v1h-1z M122,95h1v1h-1z M15,96h1v1h-1z M18,96h1v1h-1z M113,97h1v1h-1z M14,98h1v1h-1z M13,99h1v1h-1z M16,99h1v1h-1z M109,99h1v1h-1z M112,100h1v1h-1z M15,101h1v1h-1z M18,101h1v1h-1z M107,101h1v1h-1z M111,101h1v1h-1z M105,102h1v1h-1z M109,102h1v1h-1z M13,103h1v1h-1z M17,103h1v1h-1z M113,103h1v1h-1z M14,104h1v1h-1z M109,105h1v1h-1z M12,106h1v1h-1z M108,106h1v1h-1z M29,116h1v1h-1z M113,117h1v1h-1z M29,118h1v1h-1z M114,118h1v1h-1z M125,121h1v1h-1z M119,123h1v1h-1z M121,123h1v1h-1z M126,125h1v1h-1z M0,70h1v2h-1z M4,74h1v2h-1z M126,74h2v1h-2z M0,75h2v1h-2z M127,75h1v2h-1z M118,79h1v3h-1z M122,79h1v2h-1z M124,79h1v2h-1z M123,80h1v3h-1z M120,81h2v2h-2z M127,83h1v2h-1z M118,85h3v1h-3z M125,85h1v2h-1z M115,87h2v1h-2z M119,87h1v2h-1z M121,87h3v1h-3z M114,88h2v1h-2z M120,88h2v1h-2z M6,89h1v2h-1z M2,90h2v1h-2z M125,90h1v2h-1z M123,93h1v2h-1z M121,94h2v1h-2z M117,95h1v2h-1z M119,95h2v1h-2z M118,96h2v1h-2z M109,98h2v1h-2z M114,101h3v1h-3z M12,102h2v1h-2z M15,105h2v1h-2z M103,106h3v1h-3z M10,107h2v1h-2z M25,119h2v1h-2z M113,119h1v2h-1z M126,119h1v3h-1z M124,120h1v3h-1z M111,121h2v1h-2z M118,121h1v2h-1z M122,121h2v1h-2z M120,122h1v2h-1z M123,122h1v2h-1z M125,124h3v1h-3z" /><path fill="#1E363B" d="M1,71h1v1h-1z M1,79h1v1h-1z M123,79h1v1h-1z M7,81h1v1h-1z M122,81h1v1h-1z M0,83h1v1h-1z M125,84h1v1h-1z M127,87h1v1h-1z M115,90h1v1h-1z M20,98h1v1h-1z M111,98h1v1h-1z M105,103h1v1h-1z M108,103h1v1h-1z M112,108h1v1h-1z M112,117h1v1h-1z M28,121h1v1h-1z M123,124h1v1h-1z M127,125h1v1h-1z M3,69h1v3h-1z M2,70h1v2h-1z M5,70h1v9h-1z M4,71h1v2h-1z M6,72h1v7h-1z M7,73h1v7h-1z M8,74h3v27h-3z M11,75h1v27h-1z M0,76h1v4h-1z M3,76h2v3h-2z M12,76h1v3h-1z M1,77h2v2h-2z M127,77h1v3h-1z M125,79h2v1h-2z M12,81h1v19h-1z M1,82h1v5h-1z M13,82h1v17h-1z M2,83h1v4h-1z M7,83h1v6h-1z M14,83h1v2h-1z M5,84h2v5h-2z M0,85h1v2h-1z M3,85h2v3h-2z M126,85h1v3h-1z M118,87h1v3h-1z M124,87h2v1h-2z M116,88h2v3h-2z M122,88h3v1h-3z M3,89h2v1h-2z M14,89h1v8h-1z M114,89h2v1h-2z M119,89h4v1h-4z M1,90h1v9h-1z M4,90h1v10h-1z M7,90h1v11h-1z M121,90h2v1h-2z M2,91h2v8h-2z M5,91h2v9h-2z M15,91h1v3h-1z M123,91h2v1h-2z M124,92h3v7h-3z M0,93h1v4h-1z M127,93h1v5h-1z M121,95h1v5h-1z M123,95h1v5h-1z M19,96h1v3h-1z M115,96h2v3h-2z M120,96h1v5h-1z M122,96h1v4h-1z M18,97h1v2h-1z M20,97h2v1h-2z M112,97h1v2h-1z M114,97h1v2h-1z M117,97h3v5h-3z M15,98h3v1h-3z M113,98h1v5h-1z M21,99h1v11h-1z M116,99h1v2h-1z M17,100h1v3h-1z M22,100h2v1h-2z M16,101h1v2h-1z M20,101h1v9h-1z M22,101h1v9h-1z M112,101h1v2h-1z M10,102h1v2h-1z M14,102h2v1h-2z M18,102h2v2h-2z M106,102h1v2h-1z M110,102h2v1h-2z M114,102h5v2h-5z M11,103h2v1h-2z M18,104h1v5h-1z M23,104h1v5h-1z M114,104h1v6h-1z M116,104h4v4h-4z M14,105h1v4h-1z M17,105h1v4h-1z M19,105h1v5h-1z M24,105h1v3h-1z M110,105h1v4h-1z M113,105h1v4h-1z M115,105h1v5h-1z M120,105h1v2h-1z M15,106h2v2h-2z M111,106h2v2h-2z M8,107h2v1h-2z M12,107h2v2h-2z M104,107h2v1h-2z M108,107h2v3h-2z M9,108h3v1h-3z M105,108h3v1h-3z M116,108h3v1h-3z M10,109h3v1h-3z M106,109h2v1h-2z M116,109h2v1h-2z M15,117h1v7h-1z M13,118h2v6h-2z M16,118h1v3h-1z M30,118h1v3h-1z M0,119h2v1h-2z M10,119h1v5h-1z M12,119h1v5h-1z M19,119h1v5h-1z M29,119h1v2h-1z M115,119h1v4h-1z M0,120h1v6h-1z M3,120h5v5h-5z M11,120h1v4h-1z M20,120h2v3h-2z M26,120h3v1h-3z M92,120h16v1h-16z M114,120h1v4h-1z M1,121h1v5h-1z M8,121h2v4h-2z M18,121h1v3h-1z M22,121h1v2h-1z M93,121h9v1h-9z M113,121h1v3h-1z M2,122h1v3h-1z M16,122h2v2h-2z M23,122h3v1h-3z M112,122h1v2h-1z M109,123h3v1h-3z M122,123h1v2h-1z M124,123h1v2h-1z M118,124h4v1h-4z" /><path fill="#E46E1C" d="M46,70h1v1h-1z M48,70h1v1h-1z M50,70h1v1h-1z M49,71h1v1h-1z M46,72h1v1h-1z M48,72h1v1h-1z M50,72h1v1h-1z M49,73h1v1h-1z M46,74h1v1h-1z M48,74h1v1h-1z M50,74h1v1h-1z M78,74h1v1h-1z M80,74h1v1h-1z M49,75h1v1h-1z M81,75h1v1h-1z M36,76h1v1h-1z M48,76h1v1h-1z M50,76h1v1h-1z M78,76h1v1h-1z M80,76h1v1h-1z M37,77h1v1h-1z M39,77h1v1h-1z M41,77h1v1h-1z M47,77h1v1h-1z M49,77h1v1h-1z M36,78h1v1h-1z M38,78h1v1h-1z M40,78h1v1h-1z M42,78h1v1h-1z M46,78h1v1h-1z M48,78h1v1h-1z M50,78h1v1h-1z M52,78h1v1h-1z M80,78h1v1h-1z M39,79h1v1h-1z M43,79h1v1h-1z M51,79h1v1h-1z M79,79h1v1h-1z M26,80h1v1h-1z M28,80h1v1h-1z M36,80h1v1h-1z M38,80h1v1h-1z M40,80h1v1h-1z M46,80h1v1h-1z M48,80h1v1h-1z M50,80h1v1h-1z M80,80h1v1h-1z M41,81h1v1h-1z M81,81h1v1h-1z M26,82h1v1h-1z M28,82h1v1h-1z M30,82h1v1h-1z M32,82h1v1h-1z M36,82h1v1h-1z M38,82h1v1h-1z M40,82h1v1h-1z M46,82h1v1h-1z M48,82h1v1h-1z M80,82h1v1h-1z M91,82h1v1h-1z M49,83h1v1h-1z M81,83h1v1h-1z M26,84h1v1h-1z M28,84h1v1h-1z M30,84h1v1h-1z M36,84h1v1h-1z M38,84h1v1h-1z M40,84h1v1h-1z M91,84h1v1h-1z M100,84h1v1h-1z M27,85h1v1h-1z M41,85h1v1h-1z M26,86h1v1h-1z M28,86h1v1h-1z M30,86h1v1h-1z M46,86h1v1h-1z M48,86h1v1h-1z M37,87h1v1h-1z M47,87h1v1h-1z M26,88h1v1h-1z M28,88h1v1h-1z M30,88h1v1h-1z M36,88h1v1h-1z M44,88h1v1h-1z M46,88h1v1h-1z M82,88h1v1h-1z M84,88h1v1h-1z M29,89h1v1h-1z M47,89h1v1h-1z M83,89h1v1h-1z M34,90h1v1h-1z M36,90h1v1h-1z M91,91h1v1h-1z M26,92h1v1h-1z M29,92h1v1h-1z M34,92h1v1h-1z M36,92h1v1h-1z M92,92h1v1h-1z M25,93h1v1h-1z M24,94h1v1h-1z M26,94h1v1h-1z M25,95h1v1h-1z M27,95h1v1h-1z M29,95h1v1h-1z M52,70h1v4h-1z M47,71h1v5h-1z M51,71h1v5h-1z M81,72h1v2h-1z M38,76h3v1h-3z M42,76h2v1h-2z M51,77h2v1h-2z M81,77h1v3h-1z M37,79h1v2h-1z M47,79h1v5h-1z M49,79h1v3h-1z M30,80h3v1h-3z M27,81h1v3h-1z M29,81h1v3h-1z M31,81h1v9h-1z M33,81h1v3h-1z M39,81h1v5h-1z M42,82h1v4h-1z M50,82h1v2h-1z M101,82h1v2h-1z M37,83h1v2h-1z M32,84h1v5h-1z M29,85h1v3h-1z M47,85h2v1h-2z M27,87h1v3h-1z M39,87h3v1h-3z M45,87h1v3h-1z M38,88h3v1h-3z M91,88h2v1h-2z M35,89h1v3h-1z M37,89h1v4h-1z M92,89h1v2h-1z M93,90h1v3h-1z M27,91h4v1h-4z M38,91h1v2h-1z M28,93h1v3h-1z" /><path fill="#EB781C" d="M47,70h1v1h-1z M49,70h1v1h-1z M51,70h1v1h-1z M46,71h1v1h-1z M48,71h1v1h-1z M50,71h1v1h-1z M49,72h1v1h-1z M46,73h1v1h-1z M48,73h1v1h-1z M50,73h1v1h-1z M49,74h1v1h-1z M52,74h1v1h-1z M77,74h1v1h-1z M81,74h1v1h-1z M46,75h1v1h-1z M48,75h1v1h-1z M50,75h1v1h-1z M78,75h1v1h-1z M80,75h1v1h-1z M37,76h1v1h-1z M41,76h1v1h-1z M47,76h1v1h-1z M49,76h1v1h-1z M81,76h1v1h-1z M36,77h1v1h-1z M38,77h1v1h-1z M40,77h1v1h-1z M46,77h1v1h-1z M48,77h1v1h-1z M50,77h1v1h-1z M78,77h1v1h-1z M80,77h1v1h-1z M37,78h1v1h-1z M39,78h1v1h-1z M43,78h1v1h-1z M47,78h1v1h-1z M49,78h1v1h-1z M51,78h1v1h-1z M36,79h1v1h-1z M38,79h1v1h-1z M40,79h1v1h-1z M46,79h1v1h-1z M48,79h1v1h-1z M50,79h1v1h-1z M80,79h1v1h-1z M27,80h1v1h-1z M29,80h1v1h-1z M33,80h1v1h-1z M39,80h1v1h-1z M79,80h1v1h-1z M81,80h1v1h-1z M26,81h1v1h-1z M28,81h1v1h-1z M30,81h1v1h-1z M32,81h1v1h-1z M40,81h1v1h-1z M46,81h1v1h-1z M48,81h1v1h-1z M50,81h1v1h-1z M80,81h1v1h-1z M37,82h1v1h-1z M49,82h1v1h-1z M81,82h1v1h-1z M26,83h1v1h-1z M28,83h1v1h-1z M30,83h1v1h-1z M32,83h1v1h-1z M36,83h1v1h-1z M38,83h1v1h-1z M40,83h1v1h-1z M46,83h1v1h-1z M48,83h1v1h-1z M80,83h1v1h-1z M91,83h1v1h-1z M100,83h1v1h-1z M27,84h1v1h-1z M29,84h1v1h-1z M26,85h1v1h-1z M28,85h1v1h-1z M30,85h1v1h-1z M40,85h1v1h-1z M46,85h1v1h-1z M91,85h1v1h-1z M100,85h1v1h-1z M27,86h1v1h-1z M45,86h1v1h-1z M47,86h1v1h-1z M26,87h1v1h-1z M28,87h1v1h-1z M30,87h1v1h-1z M38,87h1v1h-1z M44,87h1v1h-1z M46,87h1v1h-1z M91,87h1v1h-1z M29,88h1v1h-1z M35,88h1v1h-1z M37,88h1v1h-1z M47,88h1v1h-1z M83,88h1v1h-1z M26,89h1v1h-1z M28,89h1v1h-1z M30,89h1v1h-1z M36,89h1v1h-1z M38,89h1v1h-1z M46,89h1v1h-1z M84,89h1v1h-1z M91,89h1v1h-1z M34,91h1v1h-1z M36,91h1v1h-1z M92,91h1v1h-1z M25,92h1v1h-1z M33,92h1v1h-1z M35,92h1v1h-1z M94,92h1v1h-1z M24,93h1v1h-1z M103,93h1v1h-1z M25,94h1v1h-1z M27,94h1v1h-1z M26,95h1v1h-1z M79,73h2v1h-2z M79,74h1v5h-1z M51,76h2v1h-2z M42,77h2v1h-2z M41,78h1v3h-1z M42,79h1v3h-1z M43,80h1v2h-1z M36,81h3v1h-3z M41,82h1v3h-1z M101,84h1v4h-1z M36,85h3v1h-3z M35,87h2v1h-2z M43,89h2v1h-2z M81,89h2v1h-2z M25,91h2v1h-2z M27,92h2v1h-2z M26,93h2v1h-2z M23,95h2v1h-2z" /><path fill="#E3E3E4" d="M83,82h1v1h-1z M103,88h1v1h-1z M95,92h1v1h-1z M23,93h1v1h-1z M104,93h1v1h-1z M48,98h1v1h-1z M67,98h1v1h-1z M38,101h1v1h-1z M52,101h1v1h-1z M29,103h1v1h-1z M42,103h1v1h-1z M82,104h1v1h-1z M33,105h1v1h-1z M33,114h1v1h-1z M42,114h1v1h-1z M45,71h1v2h-1z M56,71h1v2h-1z M82,72h1v6h-1z M102,81h1v2h-1z M70,84h1v2h-1z M66,88h6v1h-6z M73,95h1v16h-1z M54,96h1v15h-1z M70,97h2v4h-2z M44,98h1v13h-1z M50,98h3v1h-3z M69,98h1v3h-1z M51,99h2v2h-2z M35,100h1v15h-1z M41,101h2v2h-2z M71,101h1v8h-1z M83,102h1v13h-1z M25,103h1v9h-1z M32,103h2v2h-2z M70,104h1v8h-1z M69,105h1v6h-1z M33,109h1v4h-1z M42,110h1v3h-1z M52,111h1v2h-1z M38,112h4v2h-4z M48,112h4v3h-4z M80,112h2v3h-2z M25,113h1v2h-1z M28,113h1v2h-1z M34,113h1v2h-1z M36,113h2v2h-2z M43,113h5v2h-5z M53,113h3v2h-3z M72,113h3v1h-3z M78,113h2v2h-2z M82,113h1v2h-1z M84,113h1v2h-1z M23,114h2v1h-2z M26,114h2v1h-2z M29,114h3v1h-3z M38,114h3v1h-3z M60,114h11v1h-11z M73,114h3v1h-3z M85,114h2v1h-2z M62,116h9v2h-9z M23,117h2v3h-2z M33,117h7v2h-7z M42,117h10v1h-10z M53,117h2v5h-2z M60,117h2v1h-2z M79,117h7v2h-7z M22,118h1v2h-1z M31,118h2v2h-2z M41,118h10v1h-10z M52,118h1v4h-1z M20,119h2v1h-2z M33,119h5v1h-5z M41,119h8v3h-8z M51,119h1v3h-1z M60,119h11v1h-11z M80,119h9v1h-9z M37,120h4v2h-4z M49,120h2v2h-2z M76,120h2v2h-2z M81,120h9v2h-9z M34,121h3v1h-3z M60,121h12v1h-12z" /><path fill="#5E638C" d="M63,72h1v1h-1z M63,74h1v1h-1z M63,77h1v1h-1z M65,78h1v1h-1z M103,91h1v1h-1z M75,102h1v1h-1z M81,102h1v1h-1z M94,102h1v1h-1z M52,104h1v1h-1z M81,104h1v1h-1z M94,104h1v1h-1z M103,104h1v1h-1z M76,114h1v1h-1z M24,115h1v1h-1z M57,116h1v1h-1z M74,121h1v1h-1z M71,71h1v2h-1z M62,78h1v3h-1z M59,80h2v1h-2z M62,84h1v2h-1z M65,84h1v2h-1z M58,88h8v1h-8z M55,95h1v3h-1z M45,98h1v15h-1z M90,98h1v5h-1z M89,100h1v2h-1z M97,100h3v1h-3z M98,101h3v2h-3z M55,102h1v8h-1z M26,103h1v11h-1z M99,103h2v2h-2z M75,104h1v9h-1z M100,105h1v2h-1z M36,107h1v5h-1z M100,108h1v6h-1z M76,111h3v2h-3z M92,111h1v2h-1z M85,112h6v1h-6z M102,112h1v2h-1z M57,113h1v2h-1z M96,113h4v1h-4z M26,115h2v1h-2z M30,115h2v1h-2z M33,115h7v1h-7z M42,115h10v1h-10z M72,115h2v1h-2z M81,115h5v1h-5z M76,117h1v2h-1z M90,117h4v1h-4z M102,117h3v1h-3z M97,118h2v1h-2z M94,119h3v1h-3z M73,120h1v2h-1z M57,122h3v1h-3z" /><path fill="#9ECE34" d="M0,72h1v1h-1z M0,74h1v1h-1z M119,79h1v1h-1z M121,79h1v1h-1z M2,81h1v1h-1z M124,81h1v1h-1z M115,84h1v1h-1z M124,85h1v1h-1z M124,89h1v1h-1z M116,91h1v1h-1z M115,92h1v1h-1z M116,93h1v1h-1z M16,96h1v1h-1z M108,97h1v1h-1z M110,97h1v1h-1z M15,100h1v1h-1z M114,100h1v1h-1z M13,101h1v1h-1z M14,103h1v1h-1z M110,103h1v1h-1z M9,104h1v1h-1z M16,104h1v1h-1z M104,104h1v1h-1z M107,106h1v1h-1z M28,117h1v1h-1z M26,118h1v1h-1z M108,120h1v1h-1z M110,120h1v1h-1z M121,120h1v1h-1z M121,122h1v1h-1z M125,125h1v1h-1z M123,75h4v1h-4z M123,76h3v2h-3z M120,77h1v3h-1z M118,78h2v1h-2z M123,83h1v4h-1z M121,84h2v3h-2z M116,85h1v2h-1z M120,86h1v2h-1z M114,91h1v3h-1z M113,92h1v2h-1z M117,92h1v3h-1z M118,94h1v2h-1z M14,97h2v1h-2z M14,99h1v2h-1z M18,99h1v2h-1z M109,100h2v1h-2z M108,101h2v1h-2z M27,116h2v1h-2z M110,118h3v1h-3z M125,118h1v3h-1z M108,119h2v1h-2z M111,119h2v1h-2z M119,120h1v3h-1z" /><path fill="#676078" d="M63,73h1v1h-1z M61,74h1v1h-1z M59,79h1v1h-1z M56,85h1v1h-1z M59,85h1v1h-1z M79,99h1v1h-1z M103,103h1v1h-1z M22,115h1v1h-1z M57,119h1v1h-1z M64,72h1v2h-1z M59,84h2v1h-2z" /><path fill="#3E1B22" d="M57,73h1v1h-1z M68,78h1v1h-1z M54,82h1v1h-1z M52,85h1v1h-1z M66,85h1v1h-1z M105,96h1v1h-1z M77,102h1v1h-1z M30,105h1v1h-1z" /><path fill="#D55E19" d="M52,75h1v1h-1z M46,76h1v1h-1z M78,78h1v1h-1z M52,79h1v1h-1z M92,87h1v1h-1z M91,90h1v1h-1z M104,95h1v1h-1z" /><path fill="#3B694D" d="M2,76h1v1h-1z M1,80h1v1h-1z M121,80h1v1h-1z M0,81h1v1h-1z M119,81h1v1h-1z M3,84h1v1h-1z M126,84h1v1h-1z M119,86h1v1h-1z M117,87h1v1h-1z M4,88h1v1h-1z M5,89h1v1h-1z M7,89h1v1h-1z M123,90h1v1h-1z M0,91h1v1h-1z M122,91h1v1h-1z M126,91h1v1h-1z M123,92h1v1h-1z M127,92h1v1h-1z M20,99h1v1h-1z M112,99h1v1h-1z M16,100h1v1h-1z M14,101h1v1h-1z M13,104h1v1h-1z M110,104h1v1h-1z M13,106h1v1h-1z M109,106h1v1h-1z M30,117h1v1h-1z M114,119h1v1h-1z M127,120h1v1h-1z M122,122h1v1h-1z M5,83h2v1h-2z M124,83h2v1h-2z M127,85h1v2h-1z M112,95h5v1h-5z M113,96h2v1h-2z M107,102h1v2h-1z M109,103h1v2h-1z M111,105h2v1h-2z M106,107h2v1h-2z M27,119h2v1h-2z M108,122h1v2h-1z M110,122h2v1h-2z M125,122h1v2h-1z M126,123h2v1h-2z" /><path fill="#629956" d="M121,76h1v1h-1z M113,86h1v1h-1z M112,120h1v1h-1z" /><path fill="#81CA25" d="M122,76h1v1h-1z M122,78h1v1h-1z M106,99h1v1h-1z M13,100h1v1h-1z M12,101h1v1h-1z M105,104h1v1h-1z M106,105h1v1h-1z M26,117h1v1h-1z M109,118h1v1h-1z M124,118h1v1h-1z M120,119h1v1h-1z M120,121h1v1h-1z M102,122h1v1h-1z M116,123h1v1h-1z M109,96h1v2h-1z M9,105h2v1h-2z M122,119h1v2h-1z M22,120h4v1h-4z M31,120h6v1h-6z M23,121h4v1h-4z M29,121h5v1h-5z M103,121h4v2h-4z M116,121h2v2h-2z" /><path fill="#6FA955" d="M119,77h1v1h-1z M115,82h1v1h-1z M113,91h1v1h-1z M8,104h1v1h-1z M108,118h1v1h-1z" /><path fill="#93CD34" d="M121,78h1v1h-1z M115,85h1v1h-1z M105,101h1v1h-1z M105,105h1v1h-1z M27,117h1v1h-1z M111,117h1v1h-1z M110,119h1v1h-1z M124,119h1v1h-1z M121,77h2v1h-2z" /><path fill="#79181A" d="M75,79h1v1h-1z" /><path fill="#9E3723" d="M73,82h1v1h-1z M39,89h1v1h-1z M102,93h1v1h-1z" /><path fill="#183527" d="M0,84h1v1h-1z M107,121h1v1h-1z" /><path fill="#8AAEE1" d="M23,87h1v1h-1z M22,99h1v1h-1z" /><path fill="#294842" d="M113,87h1v1h-1z M16,97h1v1h-1z M21,98h1v1h-1z M107,98h1v1h-1z M17,99h1v1h-1z M115,99h1v1h-1z M110,101h1v1h-1z M9,103h1v1h-1z M11,119h1v1h-1z M2,121h1v1h-1z M16,121h1v1h-1z M27,121h1v1h-1z M107,122h1v1h-1z M115,123h1v1h-1z M118,123h1v1h-1z M12,117h3v1h-3z M11,118h2v1h-2z M17,118h1v4h-1z M18,119h1v2h-1z M1,120h2v1h-2z M90,120h2v1h-2z" /><path fill="#858BB1" d="M23,88h1v1h-1z M27,113h1v1h-1z M72,114h1v1h-1z M58,116h1v1h-1z M86,116h1v1h-1z M59,119h1v1h-1z M81,110h1v2h-1z M50,111h2v1h-2z M79,111h2v1h-2z M60,116h2v1h-2z" /><path fill="#7F8948" d="M125,89h1v1h-1z M123,119h1v1h-1z" /><path fill="#CA7036" d="M39,90h1v1h-1z" /><path fill="#4E436C" d="M46,96h1v1h-1z M40,101h1v1h-1z M94,106h1v1h-1z M58,115h1v1h-1z M87,115h1v1h-1z M87,117h1v1h-1z M38,124h1v1h-1z M67,127h1v1h-1z M37,97h5v1h-5z M85,97h6v1h-6z M76,115h2v1h-2z M89,115h6v1h-6z M104,115h2v1h-2z M20,123h18v2h-18z M10,124h10v4h-10z M2,125h8v3h-8z M20,125h15v3h-15z M0,126h2v2h-2z M35,126h24v2h-24z M59,127h7v1h-7z" /><path fill="#5AA8A0" d="M107,97h1v1h-1z" /><path fill="#1C3965" d="M105,99h1v1h-1z M23,103h1v1h-1z M107,118h1v1h-1z M115,118h1v1h-1z M119,103h2v1h-2z M49,105h2v5h-2z M64,106h3v7h-3z M79,106h1v4h-1z M39,107h2v4h-2z M63,107h1v6h-1z M78,107h1v3h-1z M30,108h2v4h-2z M124,108h1v5h-1z M123,109h1v7h-1z M8,110h1v11h-1z M21,110h2v4h-2z M6,111h1v9h-1z M9,111h1v10h-1z M13,111h1v6h-1z M18,111h1v8h-1z M23,111h1v2h-1z M107,111h2v7h-2z M116,111h1v10h-1z M119,111h1v9h-1z M122,111h1v7h-1z M4,112h1v5h-1z M12,112h1v5h-1z M19,112h2v7h-2z M104,112h2v1h-2z M109,112h1v6h-1z M117,112h1v9h-1z M121,112h1v7h-1z M5,113h1v6h-1z M7,113h1v7h-1z M10,113h1v6h-1z M105,113h2v1h-2z M114,113h2v1h-2z M118,113h1v8h-1z M120,113h1v6h-1z M21,114h1v4h-1z M106,114h1v4h-1z M11,115h1v3h-1z M114,115h2v3h-2z" /><path fill="#2B5864" d="M4,100h1v1h-1z M123,100h1v1h-1z M103,107h1v1h-1z M117,123h1v1h-1z" /><path fill="#1A507A" d="M8,102h1v1h-1z M119,102h1v1h-1z M120,104h1v1h-1z M6,106h1v1h-1z M6,108h1v1h-1z M13,109h1v1h-1z M23,109h1v1h-1z M119,110h1v1h-1z M3,111h1v1h-1z M12,111h1v1h-1z M20,111h1v1h-1z M104,111h1v1h-1z M109,111h1v1h-1z M118,112h1v1h-1z M104,113h1v1h-1z M7,101h1v6h-1z M23,101h1v2h-1z M120,101h2v2h-2z M5,102h2v4h-2z M122,102h1v4h-1z M3,103h2v3h-2z M121,103h1v3h-1z M123,103h2v3h-2z M7,109h1v4h-1z M19,110h2v1h-2z M114,114h2v1h-2z" /><path fill="#237295" d="M8,101h1v1h-1z M104,103h1v1h-1z M19,111h1v1h-1z" /><path fill="#2C9784" d="M104,101h1v1h-1z M8,103h1v1h-1z M124,107h1v1h-1z M8,108h1v1h-1z M119,108h1v1h-1z M4,109h1v1h-1z M121,109h1v1h-1z M105,110h1v1h-1z M114,111h1v1h-1z M7,107h1v2h-1z M11,110h1v2h-1z" /><path fill="#47845E" d="M104,102h1v1h-1z M103,105h1v1h-1z" /><path fill="#4C3E52" d="M58,103h1v1h-1z M85,104h1v1h-1z M66,127h1v1h-1z M38,123h2v1h-2z M68,127h2v1h-2z" /><path fill="#9F6561" d="M125,104h1v12h-1z M126,106h1v6h-1z M14,111h1v5h-1z M15,112h1v2h-1z M110,112h2v2h-2z M110,114h1v3h-1z M123,116h2v2h-2z M122,118h2v1h-2z" /><path fill="#874E51" d="M14,116h1v1h-1z M127,104h1v9h-1z M110,111h2v1h-2z M16,112h1v5h-1z M112,112h1v3h-1z M126,112h1v5h-1z M124,113h1v3h-1z M15,114h1v2h-1z M111,114h1v3h-1z M125,116h1v2h-1z" /><path fill="#6B3B46" d="M126,105h1v1h-1z M15,111h1v1h-1z M112,115h1v1h-1z M16,117h1v1h-1z M127,113h1v6h-1z M126,117h1v2h-1z" /><path fill="#35AC7D" d="M6,107h1v1h-1z M121,107h1v1h-1z M3,108h1v1h-1z M120,108h1v1h-1z M3,106h3v2h-3z M122,106h2v2h-2z" /><path fill="#1D6C7F" d="M121,106h1v1h-1z M124,106h1v1h-1z M120,107h1v1h-1z M105,109h1v1h-1z M12,110h1v1h-1z M23,110h1v1h-1z M106,112h1v1h-1z M114,112h1v1h-1z M120,112h1v1h-1z M4,108h2v1h-2z M104,108h1v3h-1z M121,108h3v1h-3z M3,109h1v2h-1z M5,109h2v2h-2z M8,109h2v1h-2z M118,109h3v1h-3z M122,109h1v2h-1z M4,110h1v2h-1z M9,110h2v1h-2z M106,110h3v1h-3z M115,110h4v1h-4z M120,110h2v2h-2z M5,111h1v2h-1z M10,111h1v2h-1z M105,111h2v1h-2z M115,111h1v2h-1z M117,111h2v1h-2z M11,112h1v3h-1z" /><path fill="#B3B5CE" d="M75,120h1v1h-1z M56,122h1v1h-1z M29,113h3v1h-3z M62,113h8v1h-8z M60,115h11v1h-11z M62,118h9v1h-9z M59,120h12v1h-12z M60,122h12v1h-12z" /><path fill="#332E4F" d="M75,115h1v1h-1z M95,115h1v1h-1z M73,122h2v1h-2z" /><path fill="#567E78" d="M26,116h1v1h-1z M25,118h1v1h-1z" /><path fill="#769B3B" d="M110,117h1v1h-1z" /><path fill="#BB8A85" d="M50,122h1v1h-1z M98,122h1v1h-1z M46,123h1v1h-1z M90,123h1v1h-1z M71,124h1v1h-1z M101,124h1v1h-1z M38,125h1v1h-1z M44,125h1v1h-1z M109,125h1v1h-1z M124,125h1v1h-1z M59,126h1v1h-1z M92,126h1v1h-1z M103,126h1v1h-1z M106,126h1v1h-1z M71,127h1v1h-1z M77,127h1v1h-1z M82,127h1v1h-1z M26,122h3v1h-3z M30,122h2v1h-2z M36,122h10v1h-10z M52,122h3v2h-3z M75,122h2v2h-2z M100,122h2v2h-2z M40,123h5v1h-5z M49,123h1v3h-1z M56,123h5v1h-5z M62,123h3v1h-3z M66,123h9v1h-9z M78,123h3v1h-3z M82,123h4v1h-4z M87,123h1v2h-1z M92,123h2v1h-2z M95,123h2v1h-2z M103,123h5v1h-5z M39,124h2v2h-2z M42,124h3v1h-3z M48,124h1v2h-1z M52,124h2v2h-2z M63,124h1v2h-1z M85,124h2v1h-2z M108,124h1v2h-1z M110,124h5v2h-5z M50,125h2v1h-2z M54,125h9v1h-9z M68,125h2v1h-2z M78,125h4v1h-4z M93,125h3v1h-3z M98,125h2v1h-2z M102,125h4v1h-4z M107,125h1v3h-1z M115,125h8v1h-8z M64,126h2v1h-2z M70,126h1v2h-1z M72,126h2v2h-2z M78,126h1v2h-1z M80,126h2v2h-2z M83,126h2v2h-2z M88,126h3v2h-3z M96,126h3v2h-3z M110,126h2v2h-2z M114,126h2v2h-2z M74,127h2v1h-2z M85,127h2v1h-2z M93,127h3v1h-3z M101,127h2v1h-2z M108,127h2v1h-2z M112,127h2v1h-2z M116,127h4v1h-4z M122,127h2v1h-2z" /><path fill="#C69691" d="M29,122h1v1h-1z M86,123h1v1h-1z M54,124h1v1h-1z M62,124h1v1h-1z M109,124h1v1h-1z M92,125h1v1h-1z M106,125h1v1h-1z M71,126h1v1h-1z M82,126h1v1h-1z M102,126h1v1h-1z M76,127h1v1h-1z M87,127h1v1h-1z M92,127h1v1h-1z M103,127h1v1h-1z M106,127h1v1h-1z M32,122h4v1h-4z M46,122h4v1h-4z M51,122h1v3h-1z M77,122h21v1h-21z M99,122h1v3h-1z M45,123h1v3h-1z M47,123h2v1h-2z M50,123h1v2h-1z M55,123h1v2h-1z M61,123h1v2h-1z M65,123h1v3h-1z M77,123h1v4h-1z M81,123h1v2h-1z M88,123h2v3h-2z M91,123h1v5h-1z M94,123h1v2h-1z M97,123h2v2h-2z M102,123h1v2h-1z M41,124h1v2h-1z M46,124h2v2h-2z M56,124h5v1h-5z M64,124h1v2h-1z M66,124h5v1h-5z M72,124h5v2h-5z M78,124h3v1h-3z M82,124h3v2h-3z M90,124h1v2h-1z M92,124h2v1h-2z M95,124h2v1h-2z M100,124h1v4h-1z M103,124h5v1h-5z M115,124h3v1h-3z M35,125h3v1h-3z M42,125h2v1h-2z M66,125h2v2h-2z M70,125h2v1h-2z M85,125h3v2h-3z M96,125h2v1h-2z M101,125h1v2h-1z M123,125h1v2h-1z M60,126h4v1h-4z M68,126h2v1h-2z M74,126h3v1h-3z M79,126h1v2h-1z M93,126h3v1h-3z M99,126h1v2h-1z M104,126h2v2h-2z M108,126h2v1h-2z M112,126h2v1h-2z M116,126h7v1h-7z M124,126h4v2h-4z M120,127h2v1h-2z" /></svg>