<svg xmlns="http://www.w3.org/2000/svg" version="1.1" width="128" height="128" shape-rendering="crispEdges"><path fill="#44EAFF" d="M0,0h128v3h-128z M3,3h108v1h-108z M112,3h16v5h-16z M5,4h106v2h-106z M6,6h105v1h-105z M7,7h104v1h-104z" /><path fill="#FCFBED" d="M4,18h1v1h-1z M11,24h1v1h-1z M22,25h1v1h-1z M121,27h1v1h-1z M108,30h1v1h-1z M70,62h1v1h-1z M22,66h1v1h-1z M0,3h3v13h-3z M3,4h2v14h-2z M5,6h1v16h-1z M6,7h1v15h-1z M10,12h5v10h-5z M9,13h1v9h-1z M15,13h1v11h-1z M7,14h2v8h-2z M16,14h2v10h-2z M18,15h1v8h-1z M1,16h2v1h-2z M126,18h2v9h-2z M19,19h6v4h-6z M124,19h2v8h-2z M4,20h1v2h-1z M25,20h3v7h-3z M28,21h2v7h-2z M123,21h1v6h-1z M11,22h4v2h-4z M30,22h1v6h-1z M115,22h6v6h-6z M9,23h2v2h-2z M23,23h2v4h-2z M114,23h1v6h-1z M121,23h2v4h-2z M21,24h2v1h-2z M31,24h3v4h-3z M113,24h1v5h-1z M34,25h2v3h-2z M36,27h9v1h-9z M105,27h5v1h-5z M38,28h9v1h-9z M105,28h4v2h-4z M115,28h2v1h-2z M118,28h2v1h-2z M39,29h9v1h-9z M102,29h3v1h-3z M46,30h4v1h-4z M97,30h6v1h-6z M95,31h3v1h-3z M100,45h7v4h-7z M107,46h1v15h-1z M50,47h3v4h-3z M57,47h3v3h-3z M78,47h5v4h-5z M90,47h5v4h-5z M108,47h1v13h-1z M35,48h3v16h-3z M44,48h3v15h-3z M62,48h3v7h-3z M67,48h2v11h-2z M71,48h3v3h-3z M77,48h1v14h-1z M83,48h1v14h-1z M89,48h1v14h-1z M95,48h1v14h-1z M109,48h1v11h-1z M53,49h1v14h-1z M76,49h1v12h-1z M84,49h1v12h-1z M88,49h1v12h-1z M96,49h1v12h-1z M100,49h3v13h-3z M106,49h1v13h-1z M27,50h4v4h-4z M56,50h3v3h-3z M22,51h3v15h-3z M26,51h1v14h-1z M31,51h1v13h-1z M51,51h2v3h-2z M66,51h1v11h-1z M70,51h3v5h-3z M78,51h1v12h-1z M82,51h1v12h-1z M90,51h1v12h-1z M94,51h1v12h-1z M16,52h3v15h-3z M25,52h1v12h-1z M32,52h1v11h-1z M54,53h4v3h-4z M65,53h1v10h-1z M69,53h1v10h-1z M30,54h1v11h-1z M52,54h1v2h-1z M63,55h2v4h-2z M54,56h3v7h-3z M70,56h2v6h-2z M19,57h3v4h-3z M103,58h3v4h-3z M64,59h1v4h-1z M68,59h1v2h-1z M79,59h3v4h-3z M91,59h3v4h-3z M38,60h5v3h-5z M47,60h5v3h-5z M27,61h3v4h-3z M38,63h2v1h-2z" /><path fill="#E00C22" d="M111,7h1v1h-1z M111,9h1v1h-1z M111,11h1v1h-1z M111,19h1v1h-1z M111,21h1v1h-1z M107,34h1v1h-1z M111,3h1v3h-1z M111,13h1v4h-1z M110,14h1v3h-1z M112,14h1v3h-1z M111,23h1v3h-1z M110,27h3v1h-3z M109,28h1v3h-1z M110,29h4v1h-4z M103,30h5v2h-5z M114,30h1v3h-1z M108,31h1v4h-1z M110,31h3v1h-3z M103,32h1v3h-1z M112,32h2v1h-2z M115,32h1v2h-1z M101,33h2v1h-2z M104,33h4v1h-4z M109,33h4v2h-4z M101,34h1v2h-1z M104,34h2v1h-2z" /><path fill="#DECDC5" d="M111,6h1v1h-1z M111,8h1v1h-1z M111,10h1v1h-1z M111,12h1v1h-1z M111,20h1v1h-1z M111,22h1v1h-1z M113,31h1v1h-1z M106,34h1v1h-1z M111,17h1v2h-1z M110,26h3v1h-3z M110,28h3v1h-3z M110,30h4v1h-4z M109,31h1v2h-1z M104,32h4v1h-4z M110,32h2v1h-2z M113,33h2v1h-2z M102,34h1v2h-1z" /><path fill="#67F7FF" d="M7,8h104v4h-104z M7,12h3v1h-3z M15,12h96v1h-96z M7,13h2v1h-2z M16,13h95v1h-95z M18,14h92v1h-92z M19,15h91v4h-91z M110,17h1v7h-1z M25,19h85v1h-85z M28,20h82v1h-82z M30,21h80v1h-80z M31,22h79v2h-79z" /><path fill="#98FAFF" d="M113,23h1v1h-1z M112,8h16v6h-16z M113,14h15v4h-15z M112,17h1v7h-1z M113,18h13v1h-13z M113,19h11v2h-11z M113,21h10v1h-10z M113,22h2v1h-2z M121,22h2v1h-2z" /><path fill="#D1E3EA" d="M4,19h1v1h-1z M116,32h1v1h-1z M122,32h1v1h-1z M0,16h1v19h-1z M1,17h2v18h-2z M3,18h1v17h-1z M4,22h7v1h-7z M4,23h5v12h-5z M18,23h5v1h-5z M12,24h9v10h-9z M9,25h3v9h-3z M21,25h1v10h-1z M22,26h1v8h-1z M23,27h5v7h-5z M122,27h6v4h-6z M28,28h10v6h-10z M117,28h1v5h-1z M120,28h2v5h-2z M38,29h1v5h-1z M114,29h3v1h-3z M118,29h2v4h-2z M39,30h7v4h-7z M50,30h6v4h-6z M115,30h2v2h-2z M46,31h4v3h-4z M56,31h6v2h-6z M90,31h5v2h-5z M98,31h5v2h-5z M122,31h5v1h-5z M87,32h3v1h-3z M95,32h3v2h-3z M93,33h2v1h-2z M98,33h3v1h-3z M16,34h5v1h-5z" /><path fill="#96FFFC" d="M34,24h77v1h-77z M36,25h75v1h-75z M36,26h74v1h-74z M45,27h60v1h-60z M47,28h58v1h-58z M48,29h54v1h-54z M56,30h41v1h-41z M62,31h28v1h-28z M62,32h25v1h-25z M56,33h18v1h-18z M78,33h15v1h-15z M9,34h7v14h-7z M22,34h39v1h-39z M81,34h20v1h-20z M0,35h9v13h-9z M16,35h42v1h-42z M83,35h18v1h-18z M16,36h33v1h-33z M50,36h3v1h-3z M84,36h11v1h-11z M16,37h32v1h-32z M16,38h30v2h-30z M16,40h29v1h-29z M16,41h27v1h-27z M16,42h26v2h-26z M16,44h25v1h-25z M16,45h23v1h-23z M16,46h22v1h-22z M16,47h21v1h-21z M0,48h7v1h-7z M12,48h4v1h-4z M22,48h12v1h-12z M23,49h7v1h-7z" /><path fill="#B8E2E7" d="M112,24h1v1h-1z M26,50h1v1h-1z" /><path fill="#C5DBDD" d="M112,25h1v1h-1z" /><path fill="#E99144" d="M127,31h1v1h-1z M112,35h1v1h-1z M114,35h1v1h-1z M106,37h1v1h-1z M116,39h1v1h-1z M64,42h1v1h-1z M57,43h1v1h-1z M46,44h1v1h-1z M64,44h1v1h-1z M82,44h1v1h-1z M45,45h1v1h-1z M39,49h1v1h-1z M52,56h1v1h-1z M121,63h1v1h-1z M54,65h1v1h-1z M51,66h1v1h-1z M73,66h1v1h-1z M77,66h1v1h-1z M16,67h1v1h-1z M46,67h1v1h-1z M63,67h1v1h-1z M11,68h1v1h-1z M9,70h1v1h-1z M108,70h1v1h-1z M20,74h1v1h-1z M102,79h1v1h-1z M30,80h1v1h-1z M107,80h1v1h-1z M108,82h1v1h-1z M84,83h1v1h-1z M4,84h1v1h-1z M15,84h1v1h-1z M20,84h1v1h-1z M9,85h1v1h-1z M14,85h1v1h-1z M81,86h1v1h-1z M2,87h1v1h-1z M78,87h1v1h-1z M98,87h1v1h-1z M68,90h1v1h-1z M82,94h1v1h-1z M64,104h1v1h-1z M57,105h1v1h-1z M62,105h1v1h-1z M123,32h3v2h-3z M116,33h7v1h-7z M113,34h4v1h-4z M118,34h4v1h-4z M123,34h2v1h-2z M103,35h5v1h-5z M118,35h2v1h-2z M95,36h11v2h-11z M84,37h11v3h-11z M65,38h19v1h-19z M95,38h8v1h-8z M57,39h3v2h-3z M61,39h12v1h-12z M74,39h10v1h-10z M52,40h5v1h-5z M60,40h5v1h-5z M66,40h5v1h-5z M74,40h8v1h-8z M84,40h4v1h-4z M49,41h4v1h-4z M59,41h2v1h-2z M63,41h2v1h-2z M69,41h2v1h-2z M76,41h8v1h-8z M49,42h3v2h-3z M57,42h2v1h-2z M48,43h1v2h-1z M49,44h2v1h-2z M42,47h1v2h-1z M40,48h2v2h-2z M56,48h1v2h-1z M124,51h4v4h-4z M34,52h1v3h-1z M123,52h1v4h-1z M119,53h4v2h-4z M120,55h3v4h-3z M127,55h1v2h-1z M118,57h2v8h-2z M28,58h1v3h-1z M117,58h1v13h-1z M29,59h1v2h-1z M115,59h2v12h-2z M120,59h2v1h-2z M114,60h1v9h-1z M120,60h1v10h-1z M110,61h1v8h-1z M112,61h2v8h-2z M15,62h1v6h-1z M20,62h2v3h-2z M111,62h1v7h-1z M13,63h2v5h-2z M40,63h11v4h-11z M53,63h2v2h-2z M33,64h7v2h-7z M51,64h2v2h-2z M55,64h4v1h-4z M62,64h10v2h-10z M74,64h3v3h-3z M79,64h3v3h-3z M108,64h2v6h-2z M20,65h1v2h-1z M26,65h1v14h-1z M58,65h4v1h-4z M72,65h1v2h-1z M77,65h2v1h-2z M82,65h3v1h-3z M105,65h3v6h-3z M12,66h1v3h-1z M27,66h11v2h-11z M59,66h2v1h-2z M64,66h8v2h-8z M83,66h2v1h-2z M24,67h2v1h-2z M104,67h1v13h-1z M118,67h2v4h-2z M121,67h1v2h-1z M17,68h1v5h-1z M25,68h1v9h-1z M27,68h9v1h-9z M98,68h1v14h-1z M100,68h1v11h-1z M103,68h1v12h-1z M18,69h1v4h-1z M21,69h4v9h-4z M27,69h5v1h-5z M97,69h1v13h-1z M99,69h1v12h-1z M101,69h2v9h-2z M27,70h4v5h-4z M96,70h1v20h-1z M19,71h2v2h-2z M105,71h2v1h-2z M93,72h3v3h-3z M11,73h2v2h-2z M31,73h2v2h-2z M27,75h3v1h-3z M88,75h1v18h-1z M92,75h1v3h-1z M94,75h2v15h-2z M13,76h2v9h-2z M17,76h2v1h-2z M20,76h1v3h-1z M27,76h2v1h-2z M87,76h1v6h-1z M93,76h1v7h-1z M105,76h1v5h-1z M16,77h2v8h-2z M19,77h1v8h-1z M89,77h3v7h-3z M12,78h1v7h-1z M15,78h1v5h-1z M18,78h1v8h-1z M21,78h2v1h-2z M28,78h3v1h-3z M86,78h1v5h-1z M101,78h1v2h-1z M9,79h3v6h-3z M30,79h2v1h-2z M84,79h2v4h-2z M92,79h1v4h-1z M106,79h1v3h-1z M7,80h2v5h-2z M20,80h4v3h-4z M83,80h1v5h-1z M5,81h2v3h-2z M81,81h2v5h-2z M80,82h1v5h-1z M20,83h3v1h-3z M78,83h2v4h-2z M87,83h1v11h-1z M6,84h1v2h-1z M86,84h1v13h-1z M89,84h2v8h-2z M93,84h1v5h-1z M84,85h2v1h-2z M1,86h3v1h-3z M77,86h1v6h-1z M85,86h1v3h-1z M91,86h2v4h-2z M97,86h1v3h-1z M73,87h4v5h-4z M84,87h1v8h-1z M72,88h1v10h-1z M82,88h2v2h-2z M70,89h2v3h-2z M78,89h1v3h-1z M83,90h1v5h-1z M85,90h1v5h-1z M91,90h1v3h-1z M6,91h2v1h-2z M80,91h3v2h-3z M69,92h1v2h-1z M71,92h1v7h-1z M73,92h1v4h-1z M90,92h1v2h-1z M67,93h2v1h-2z M70,93h1v6h-1z M81,93h2v1h-2z M66,94h2v1h-2z M64,95h3v4h-3z M68,95h1v5h-1z M87,95h2v2h-2z M67,96h1v4h-1z M69,96h1v4h-1z M63,97h1v4h-1z M61,98h2v7h-2z M60,99h1v6h-1z M66,99h1v2h-1z M59,100h1v5h-1z M57,101h2v4h-2z M56,102h1v6h-1z M55,103h1v6h-1z M63,103h1v4h-1z M54,104h1v4h-1z M52,105h2v1h-2z M53,106h1v4h-1z M64,106h1v2h-1z M52,107h1v2h-1z" /><path fill="#BA4F37" d="M123,36h1v1h-1z M60,39h1v1h-1z M64,43h1v1h-1z M123,44h1v1h-1z M52,45h1v1h-1z M60,47h1v1h-1z M32,51h1v1h-1z M33,52h1v1h-1z M39,57h1v1h-1z M82,64h1v1h-1z M73,65h1v1h-1z M97,67h1v1h-1z M11,69h1v1h-1z M16,69h1v1h-1z M19,70h1v1h-1z M11,72h1v1h-1z M7,73h1v1h-1z M20,73h1v1h-1z M55,74h1v1h-1z M88,74h1v1h-1z M32,75h1v1h-1z M93,75h1v1h-1z M86,77h1v1h-1z M92,78h1v1h-1z M102,78h1v1h-1z M8,79h1v1h-1z M100,79h1v1h-1z M87,82h1v1h-1z M97,82h1v1h-1z M15,83h1v1h-1z M37,83h1v1h-1z M74,84h1v1h-1z M57,85h1v1h-1z M71,85h1v1h-1z M9,86h1v1h-1z M14,86h1v1h-1z M69,86h1v1h-1z M84,86h1v1h-1z M78,88h1v1h-1z M22,89h1v1h-1z M85,89h1v1h-1z M0,90h1v1h-1z M29,90h1v1h-1z M82,90h1v1h-1z M79,91h1v1h-1z M65,94h1v1h-1z M52,106h1v1h-1z M57,106h1v1h-1z M126,32h2v15h-2z M117,34h1v13h-1z M122,34h1v3h-1z M125,34h1v15h-1z M108,35h4v11h-4z M115,35h2v4h-2z M120,35h2v2h-2z M123,35h2v1h-2z M112,36h3v10h-3z M118,36h2v1h-2z M107,37h1v3h-1z M118,37h1v9h-1z M103,38h4v1h-4z M95,39h8v2h-8z M105,39h2v1h-2z M115,39h1v7h-1z M65,40h1v9h-1z M71,40h2v8h-2z M82,40h2v1h-2z M88,40h7v1h-7z M116,40h1v7h-1z M119,40h1v6h-1z M124,40h1v11h-1z M53,41h6v1h-6z M61,41h2v7h-2z M66,41h3v7h-3z M73,41h3v7h-3z M84,41h5v3h-5z M95,41h6v4h-6z M107,41h1v5h-1z M120,41h1v4h-1z M122,41h2v3h-2z M52,42h5v3h-5z M59,42h2v5h-2z M63,42h1v6h-1z M69,42h2v7h-2z M76,42h8v2h-8z M94,42h1v5h-1z M101,42h1v3h-1z M105,42h2v3h-2z M121,42h1v3h-1z M58,43h1v4h-1z M93,43h1v4h-1z M104,43h1v2h-1z M47,44h1v5h-1z M51,44h1v3h-1z M57,44h1v2h-1z M76,44h4v3h-4z M81,44h1v3h-1z M83,44h5v4h-5z M90,44h3v3h-3z M102,44h2v1h-2z M46,45h1v3h-1z M48,45h3v2h-3z M64,45h1v3h-1z M80,45h1v2h-1z M82,45h1v2h-1z M88,45h2v3h-2z M95,45h5v3h-5z M45,46h1v2h-1z M123,46h1v5h-1z M43,47h2v1h-2z M48,47h2v8h-2z M76,47h2v1h-2z M43,48h1v10h-1z M61,48h1v5h-1z M66,48h1v3h-1z M74,48h3v1h-3z M84,48h5v1h-5z M96,48h4v1h-4z M42,49h1v9h-1z M54,49h2v2h-2z M70,49h1v2h-1z M75,49h1v4h-1z M85,49h3v2h-3z M97,49h3v1h-3z M39,50h3v4h-3z M98,50h2v5h-2z M50,51h1v7h-1z M55,51h1v2h-1z M60,51h1v2h-1z M86,51h2v2h-2z M87,53h1v5h-1z M39,54h2v3h-2z M51,54h1v4h-1z M41,55h1v3h-1z M49,55h1v3h-1z M77,64h2v1h-2z M55,65h3v7h-3z M85,65h4v5h-4z M92,65h2v7h-2z M38,66h2v21h-2z M52,66h3v7h-3z M58,66h1v6h-1z M61,66h3v1h-3z M78,66h1v4h-1z M82,66h1v4h-1z M89,66h3v3h-3z M94,66h3v3h-3z M118,66h2v1h-2z M40,67h6v21h-6z M47,67h5v5h-5z M59,67h4v3h-4z M72,67h6v3h-6z M79,67h3v3h-3z M83,67h2v3h-2z M15,68h2v1h-2z M36,68h2v15h-2z M46,68h1v23h-1z M63,68h9v2h-9z M32,69h4v4h-4z M90,69h2v4h-2z M94,69h2v3h-2z M10,70h1v9h-1z M31,70h1v3h-1z M59,70h1v2h-1z M86,70h4v1h-4z M8,71h2v3h-2z M87,71h3v2h-3z M6,72h2v1h-2z M47,72h3v16h-3z M55,72h2v2h-2z M4,73h2v1h-2z M33,73h3v9h-3z M50,73h1v14h-1z M53,73h2v4h-2z M88,73h2v1h-2z M9,74h1v5h-1z M51,74h2v10h-2z M11,75h1v4h-1z M12,76h1v2h-1z M25,77h1v15h-1z M27,77h2v1h-2z M23,78h2v2h-2z M27,78h1v15h-1z M32,78h1v4h-1z M20,79h3v1h-3z M26,79h1v14h-1z M28,79h2v5h-2z M53,79h1v5h-1z M24,80h1v12h-1z M31,80h1v3h-1z M68,80h1v8h-1z M71,80h3v5h-3z M80,80h3v1h-3z M30,81h1v2h-1z M54,81h4v3h-4z M60,81h5v11h-5z M67,81h1v7h-1z M69,81h2v5h-2z M74,81h4v2h-4z M79,81h2v1h-2z M34,82h2v1h-2z M58,82h1v8h-1z M65,82h2v10h-2z M78,82h2v1h-2z M23,83h1v9h-1z M59,83h1v9h-1z M74,83h2v1h-2z M85,83h2v1h-2z M5,84h1v7h-1z M21,84h2v5h-2z M28,84h1v7h-1z M51,84h1v2h-1z M56,84h2v1h-2z M84,84h2v1h-2z M4,85h1v5h-1z M7,85h2v2h-2z M10,85h4v1h-4z M15,85h3v5h-3z M19,85h2v4h-2z M83,85h1v3h-1z M6,86h1v5h-1z M18,86h1v3h-1z M82,86h1v2h-1z M0,87h2v3h-2z M3,87h1v3h-1z M7,87h1v2h-1z M29,87h2v3h-2z M79,87h3v4h-3z M2,88h1v2h-1z M41,88h5v1h-5z M47,88h2v3h-2z M43,89h3v1h-3z M67,89h2v1h-2z M44,90h2v2h-2z M61,92h5v1h-5z M61,93h3v2h-3z M61,95h2v1h-2z M64,99h2v1h-2z M63,101h2v1h-2z" /><path fill="#497320" d="M73,35h1v1h-1z M68,36h1v1h-1z M107,36h1v1h-1z M78,37h1v1h-1z M59,38h1v1h-1z M119,38h1v1h-1z M50,39h1v1h-1z M54,39h1v1h-1z M122,39h1v1h-1z M48,40h1v1h-1z M105,40h1v1h-1z M104,41h1v1h-1z M103,42h1v1h-1z M39,45h1v1h-1z M37,47h1v1h-1z M56,47h1v1h-1z M110,47h1v1h-1z M112,48h1v1h-1z M0,49h1v1h-1z M15,49h1v1h-1z M20,49h1v1h-1z M118,49h1v1h-1z M18,50h1v1h-1z M23,50h1v1h-1z M116,50h1v1h-1z M8,51h1v1h-1z M74,52h1v1h-1z M104,52h1v1h-1z M60,53h1v1h-1z M93,53h1v1h-1z M11,54h1v1h-1z M59,54h1v1h-1z M80,54h1v1h-1z M3,55h1v1h-1z M28,55h1v1h-1z M93,55h1v1h-1z M21,56h1v1h-1z M80,56h1v1h-1z M3,57h1v1h-1z M86,57h1v1h-1z M123,57h1v1h-1z M125,57h1v1h-1z M7,58h1v1h-1z M11,58h1v1h-1z M62,58h1v1h-1z M1,60h1v1h-1z M62,60h1v1h-1z M127,60h1v1h-1z M13,61h1v1h-1z M11,62h1v1h-1z M89,62h1v1h-1z M98,62h1v1h-1z M62,63h1v1h-1z M77,63h1v1h-1z M86,63h1v1h-1z M7,64h1v1h-1z M125,66h1v1h-1z M125,68h1v1h-1z M0,70h1v1h-1z M11,70h1v1h-1z M62,71h1v1h-1z M69,71h1v1h-1z M80,71h1v1h-1z M111,71h1v1h-1z M78,72h1v1h-1z M82,72h1v1h-1z M114,72h1v1h-1z M58,73h1v1h-1z M72,73h1v1h-1z M85,73h1v1h-1z M111,73h1v1h-1z M111,75h1v1h-1z M31,76h1v1h-1z M60,76h1v1h-1z M3,77h1v1h-1z M5,77h1v1h-1z M29,77h1v1h-1z M85,77h1v1h-1z M113,77h1v1h-1z M6,78h1v1h-1z M126,78h1v1h-1z M56,79h1v1h-1z M1,80h1v1h-1z M121,82h1v1h-1z M126,83h1v1h-1z M92,85h1v1h-1z M115,85h1v1h-1z M117,85h1v1h-1z M30,86h1v1h-1z M57,86h1v1h-1z M125,86h1v1h-1z M99,87h1v1h-1z M119,87h1v1h-1z M67,88h1v1h-1z M100,88h1v1h-1z M113,88h1v1h-1z M117,88h1v1h-1z M38,89h1v1h-1z M15,90h1v1h-1z M21,90h1v1h-1z M43,90h1v1h-1z M119,90h1v1h-1z M14,91h1v1h-1z M112,91h1v1h-1z M127,91h1v1h-1z M10,92h1v1h-1z M33,92h1v1h-1z M20,93h1v1h-1z M23,93h1v1h-1z M125,93h1v1h-1z M29,94h1v1h-1z M101,94h1v1h-1z M54,95h1v1h-1z M79,95h1v1h-1z M31,96h1v1h-1z M33,96h1v1h-1z M73,96h1v1h-1z M124,96h1v1h-1z M52,98h1v1h-1z M125,98h1v1h-1z M46,99h1v1h-1z M50,99h1v1h-1z M84,100h1v1h-1z M127,100h1v1h-1z M41,101h1v1h-1z M119,101h1v1h-1z M105,102h1v1h-1z M25,103h1v1h-1z M75,104h1v1h-1z M22,105h1v1h-1z M51,106h1v1h-1z M111,106h1v1h-1z M63,107h1v1h-1z M77,107h1v1h-1z M100,107h1v1h-1z M14,108h1v1h-1z M51,108h1v1h-1z M87,108h1v1h-1z M10,109h1v1h-1z M59,109h1v1h-1z M64,109h1v1h-1z M69,109h1v1h-1z M43,110h1v1h-1z M58,110h1v1h-1z M89,110h1v1h-1z M16,111h1v1h-1z M29,111h1v1h-1z M57,111h1v1h-1z M24,112h1v1h-1z M48,112h1v1h-1z M45,113h1v1h-1z M65,115h1v1h-1z M79,116h1v1h-1z M55,118h1v1h-1z M78,120h1v1h-1z M11,121h1v1h-1z M74,121h1v1h-1z M96,121h1v1h-1z M1,122h1v1h-1z M63,122h1v1h-1z M73,122h1v1h-1z M77,122h1v1h-1z M120,122h1v1h-1z M69,123h1v1h-1z M115,123h1v1h-1z M42,124h1v1h-1z M119,124h1v1h-1z M15,125h1v1h-1z M44,126h1v1h-1z M48,126h1v1h-1z M3,127h1v1h-1z M22,127h1v1h-1z M34,127h1v1h-1z M40,127h1v1h-1z M84,127h1v1h-1z M97,127h1v1h-1z M110,127h1v1h-1z M74,33h3v1h-3z M63,34h1v2h-1z M65,34h7v1h-7z M75,34h2v1h-2z M79,34h2v1h-2z M60,35h2v1h-2z M66,35h3v1h-3z M70,35h2v2h-2z M76,35h3v1h-3z M81,35h1v3h-1z M55,36h3v1h-3z M59,36h2v1h-2z M79,36h2v2h-2z M82,36h1v2h-1z M50,37h3v1h-3z M57,37h2v2h-2z M120,37h3v1h-3z M47,38h4v1h-4z M52,38h2v2h-2z M56,38h1v2h-1z M121,38h3v1h-3z M46,39h2v2h-2z M45,41h1v2h-1z M90,41h2v2h-2z M42,42h3v1h-3z M42,43h2v1h-2z M54,45h1v2h-1z M121,45h2v1h-2z M55,46h3v1h-3z M109,46h6v1h-6z M118,46h4v1h-4z M113,47h1v2h-1z M116,47h5v1h-5z M8,48h3v1h-3z M16,48h3v2h-3z M20,48h2v1h-2z M115,48h5v1h-5z M121,48h1v4h-1z M2,49h8v1h-8z M30,49h4v1h-4z M115,49h2v1h-2z M120,49h1v4h-1z M1,50h2v1h-2z M4,50h2v1h-2z M7,50h2v1h-2z M10,50h2v1h-2z M14,50h1v6h-1z M21,50h1v3h-1z M32,50h2v1h-2z M122,50h1v2h-1z M11,51h3v2h-3z M15,51h1v2h-1z M104,51h2v1h-2z M2,52h4v1h-4z M10,52h1v2h-1z M1,53h1v2h-1z M3,53h4v1h-4z M12,53h2v1h-2z M75,53h1v6h-1z M80,53h2v1h-2z M105,53h1v5h-1z M2,54h2v1h-2z M5,54h3v1h-3z M13,54h1v2h-1z M86,54h1v2h-1z M104,54h1v2h-1z M20,55h2v1h-2z M61,55h2v2h-2z M81,55h1v3h-1z M99,55h1v2h-1z M1,56h2v1h-2z M5,56h7v1h-7z M124,56h1v2h-1z M5,57h2v1h-2z M8,57h5v1h-5z M61,57h1v4h-1z M127,57h1v2h-1z M1,58h2v1h-2z M50,58h2v1h-2z M60,58h1v3h-1z M73,58h2v1h-2z M2,59h3v2h-3z M49,59h2v1h-2z M10,60h4v1h-4z M75,60h1v3h-1z M87,60h1v3h-1z M8,61h4v1h-4z M126,61h1v7h-1z M0,62h3v2h-3z M7,62h3v1h-3z M63,62h1v2h-1z M76,62h1v2h-1z M85,62h2v1h-2z M100,62h2v1h-2z M123,62h1v2h-1z M3,63h1v3h-1z M6,63h1v2h-1z M8,63h2v3h-2z M90,63h1v2h-1z M101,63h1v3h-1z M127,63h1v5h-1z M0,64h1v5h-1z M2,64h1v2h-1z M4,64h1v2h-1z M124,64h1v5h-1z M122,65h2v1h-2z M6,66h1v2h-1z M122,66h1v3h-1z M5,67h1v2h-1z M22,67h1v2h-1z M123,67h1v2h-1z M1,68h1v2h-1z M13,69h3v2h-3z M126,69h1v3h-1z M60,70h2v1h-2z M64,70h2v1h-2z M69,70h5v1h-5z M76,70h5v1h-5z M83,70h3v1h-3z M13,71h2v1h-2z M60,71h1v3h-1z M64,71h1v2h-1z M66,71h2v1h-2z M71,71h5v1h-5z M77,71h2v1h-2z M82,71h2v1h-2z M127,71h1v9h-1z M58,72h2v1h-2z M65,72h2v1h-2z M68,72h1v2h-1z M70,72h3v1h-3z M74,72h2v2h-2z M108,72h1v2h-1z M109,73h1v3h-1z M123,73h4v5h-4z M2,74h4v1h-4z M7,74h1v3h-1z M56,74h2v1h-2z M110,74h1v3h-1z M122,74h1v3h-1z M0,75h5v1h-5z M30,75h1v3h-1z M56,75h1v2h-1z M0,76h4v1h-4z M5,76h2v1h-2z M121,76h1v5h-1z M54,77h2v1h-2z M116,77h2v7h-2z M119,77h2v1h-2z M0,78h2v2h-2z M55,78h1v2h-1z M114,78h2v1h-2z M118,78h2v1h-2z M122,78h3v1h-3z M115,79h1v5h-1z M118,79h1v11h-1z M120,79h1v3h-1z M123,79h2v8h-2z M102,80h1v12h-1z M104,80h1v6h-1z M114,80h1v3h-1z M119,80h1v6h-1z M125,80h2v1h-2z M103,81h1v4h-1z M105,81h1v6h-1z M122,81h1v8h-1z M33,82h1v8h-1z M101,82h1v7h-1z M106,82h1v5h-1z M125,82h1v2h-1z M34,83h3v4h-3z M108,83h1v13h-1z M32,84h1v8h-1z M107,84h1v8h-1z M109,84h2v10h-2z M114,84h1v4h-1z M116,84h1v2h-1z M120,84h2v5h-2z M31,85h1v5h-1z M100,85h1v2h-1z M111,85h3v2h-3z M13,86h1v2h-1z M55,86h1v3h-1z M12,87h1v7h-1z M34,87h1v11h-1z M36,87h1v5h-1z M38,87h2v2h-2z M53,87h2v3h-2z M56,87h1v4h-1z M103,87h2v6h-2z M111,87h1v2h-1z M116,87h2v1h-2z M35,88h1v11h-1z M37,88h1v3h-1z M40,88h1v2h-1z M52,88h1v7h-1z M105,88h2v7h-2z M10,89h2v1h-2z M18,89h4v1h-4z M41,89h2v3h-2z M57,89h1v4h-1z M98,89h2v1h-2z M119,89h2v1h-2z M11,90h1v5h-1z M13,90h1v2h-1z M18,90h2v1h-2z M30,90h1v8h-1z M53,90h1v6h-1z M55,90h1v2h-1z M58,90h1v2h-1z M99,90h3v2h-3z M111,90h1v4h-1z M8,91h3v1h-3z M17,91h1v3h-1z M19,91h2v2h-2z M28,91h2v3h-2z M31,91h1v3h-1z M46,91h2v1h-2z M5,92h4v1h-4z M18,92h1v3h-1z M23,92h2v1h-2z M45,92h1v2h-1z M47,92h3v2h-3z M97,92h4v1h-4z M2,93h6v1h-6z M25,93h2v2h-2z M36,93h1v14h-1z M43,93h2v2h-2z M50,93h2v6h-2z M54,93h2v2h-2z M97,93h3v1h-3z M102,93h1v2h-1z M104,93h1v2h-1z M107,93h1v2h-1z M127,93h1v4h-1z M3,94h3v3h-3z M27,94h1v2h-1z M46,94h1v3h-1z M48,94h2v4h-2z M80,94h2v2h-2z M98,94h2v7h-2z M109,94h1v2h-1z M2,95h1v9h-1z M6,95h1v15h-1z M26,95h1v2h-1z M31,95h2v1h-2z M37,95h2v7h-2z M45,95h1v4h-1z M47,95h1v3h-1z M56,95h2v1h-2z M74,95h2v1h-2z M84,95h2v2h-2z M100,95h1v7h-1z M106,95h1v2h-1z M125,95h2v2h-2z M0,96h2v5h-2z M7,96h1v5h-1z M39,96h2v1h-2z M44,96h1v2h-1z M58,96h2v1h-2z M81,96h3v2h-3z M101,96h1v6h-1z M4,97h2v6h-2z M84,97h1v2h-1z M86,97h3v5h-3z M94,97h3v3h-3z M3,98h1v2h-1z M39,98h2v4h-2z M49,98h1v2h-1z M79,98h4v3h-4z M85,98h1v2h-1z M89,98h2v2h-2z M97,98h1v2h-1z M116,98h1v7h-1z M8,99h1v2h-1z M32,99h3v2h-3z M41,99h2v2h-2z M83,99h1v3h-1z M91,99h2v2h-2z M110,99h1v9h-1z M115,99h1v5h-1z M117,99h1v6h-1z M35,100h1v3h-1z M89,100h1v3h-1z M93,100h2v2h-2z M96,100h1v5h-1z M111,100h2v6h-2z M114,100h1v3h-1z M3,101h1v9h-1z M10,101h1v2h-1z M27,101h1v6h-1z M34,101h1v7h-1z M71,101h1v9h-1z M79,101h3v5h-3z M90,101h1v3h-1z M95,101h1v4h-1z M108,101h2v6h-2z M1,102h1v11h-1z M28,102h2v9h-2z M31,102h3v4h-3z M38,102h2v4h-2z M70,102h1v8h-1z M77,102h2v5h-2z M86,102h2v1h-2z M94,102h1v4h-1z M97,102h1v6h-1z M107,102h1v4h-1z M113,102h1v3h-1z M118,102h1v4h-1z M4,103h1v3h-1z M37,103h1v3h-1z M40,103h2v4h-2z M68,103h2v2h-2z M76,103h1v6h-1z M82,103h2v4h-2z M87,103h1v3h-1z M98,103h1v7h-1z M106,103h1v2h-1z M120,103h1v3h-1z M0,104h1v2h-1z M5,104h1v5h-1z M7,104h1v4h-1z M30,104h1v5h-1z M35,104h1v3h-1z M73,104h1v6h-1z M99,104h1v5h-1z M114,104h1v2h-1z M119,104h1v3h-1z M2,105h1v4h-1z M8,105h1v2h-1z M26,105h1v2h-1z M67,105h1v5h-1z M69,105h1v3h-1z M72,105h1v4h-1z M74,105h1v6h-1z M100,105h2v2h-2z M127,105h1v5h-1z M15,106h3v3h-3z M24,106h2v1h-2z M33,106h1v3h-1z M65,106h2v2h-2z M68,106h1v2h-1z M75,106h1v7h-1z M79,106h1v2h-1z M81,106h1v7h-1z M95,106h2v2h-2z M126,106h1v2h-1z M0,107h1v3h-1z M4,107h1v4h-1z M22,107h3v2h-3z M32,107h1v4h-1z M80,107h1v7h-1z M83,107h3v4h-3z M94,107h1v2h-1z M125,107h1v6h-1z M18,108h1v3h-1z M25,108h1v6h-1z M27,108h1v3h-1z M64,108h2v1h-2z M78,108h1v5h-1z M82,108h1v2h-1z M95,108h1v2h-1z M16,109h2v2h-2z M23,109h2v3h-2z M26,109h1v7h-1z M66,109h1v11h-1z M77,109h1v4h-1z M79,109h1v5h-1z M86,109h1v3h-1z M124,109h1v4h-1z M126,109h1v5h-1z M19,110h1v5h-1z M22,110h1v3h-1z M76,110h1v2h-1z M87,110h1v8h-1z M123,110h1v2h-1z M2,111h2v1h-2z M21,111h1v2h-1z M67,111h2v8h-2z M82,111h1v3h-1z M84,111h2v2h-2z M88,111h1v6h-1z M127,111h1v3h-1z M17,112h2v3h-2z M27,112h1v4h-1z M63,112h3v3h-3z M83,112h1v3h-1z M89,112h2v6h-2z M13,113h4v1h-4z M28,113h1v3h-1z M62,113h1v5h-1z M69,113h2v10h-2z M84,113h1v2h-1z M11,114h2v7h-2z M14,114h3v2h-3z M81,114h1v3h-1z M13,115h1v5h-1z M52,115h1v13h-1z M58,115h4v6h-4z M63,115h1v4h-1z M71,115h1v8h-1z M80,115h1v2h-1z M91,115h1v2h-1z M10,116h1v6h-1z M14,116h2v3h-2z M18,116h1v2h-1z M56,116h1v2h-1z M86,116h1v2h-1z M8,117h2v2h-2z M45,117h7v1h-7z M53,117h1v2h-1z M57,117h1v6h-1z M64,117h2v3h-2z M72,117h3v4h-3z M110,117h2v10h-2z M124,117h3v2h-3z M16,118h2v1h-2z M46,118h5v2h-5z M75,118h2v3h-2z M104,118h2v7h-2z M108,118h2v10h-2z M120,118h1v3h-1z M122,118h2v1h-2z M9,119h1v2h-1z M15,119h2v1h-2z M37,119h1v9h-1z M45,119h1v7h-1z M51,119h1v9h-1z M56,119h1v3h-1z M62,119h1v5h-1z M68,119h1v5h-1z M77,119h1v2h-1z M103,119h1v2h-1z M107,119h1v9h-1z M112,119h1v4h-1z M116,119h2v1h-2z M121,119h2v3h-2z M125,119h2v1h-2z M38,120h1v8h-1z M46,120h4v3h-4z M63,120h2v2h-2z M98,120h1v5h-1z M113,120h1v4h-1z M118,120h2v2h-2z M123,120h3v1h-3z M0,121h1v6h-1z M21,121h2v1h-2z M36,121h1v7h-1z M39,121h1v7h-1z M44,121h1v4h-1z M53,121h2v1h-2z M58,121h2v2h-2z M61,121h1v3h-1z M72,121h1v3h-1z M99,121h1v7h-1z M106,121h1v4h-1z M114,121h1v4h-1z M22,122h2v4h-2z M34,122h2v4h-2z M40,122h2v5h-2z M50,122h1v6h-1z M53,122h1v6h-1z M67,122h1v3h-1z M100,122h1v3h-1z M115,122h2v1h-2z M17,123h1v2h-1z M24,123h1v5h-1z M33,123h1v5h-1z M42,123h2v1h-2z M46,123h1v3h-1z M48,123h2v3h-2z M54,123h1v5h-1z M94,123h1v2h-1z M117,123h3v1h-3z M122,123h2v1h-2z M1,124h2v4h-2z M16,124h1v2h-1z M18,124h2v1h-2z M25,124h1v4h-1z M28,124h2v1h-2z M32,124h1v4h-1z M47,124h1v3h-1z M55,124h1v4h-1z M97,124h1v2h-1z M103,124h1v4h-1z M116,124h2v3h-2z M121,124h2v1h-2z M3,125h2v2h-2z M21,125h1v3h-1z M28,125h1v3h-1z M30,125h2v3h-2z M56,125h1v3h-1z M96,125h1v3h-1z M104,125h1v3h-1z M112,125h1v3h-1z M20,126h1v2h-1z M23,126h1v2h-1z M29,126h1v2h-1z M35,126h1v2h-1z M85,126h1v2h-1z M91,126h1v2h-1z M95,126h1v2h-1z M98,126h1v2h-1z M102,126h1v2h-1z M105,126h2v2h-2z M113,126h1v2h-1z M15,127h5v1h-5z M86,127h5v1h-5z M92,127h3v1h-3z" /><path fill="#25471E" d="M78,34h1v1h-1z M82,35h1v1h-1z M58,36h1v1h-1z M106,36h1v1h-1z M48,37h1v1h-1z M68,37h1v1h-1z M46,38h1v1h-1z M60,38h1v1h-1z M55,39h1v1h-1z M119,39h1v1h-1z M45,40h1v1h-1z M122,40h1v1h-1z M46,41h1v1h-1z M104,42h1v1h-1z M103,43h1v1h-1z M80,44h1v1h-1z M88,44h1v1h-1z M122,44h1v1h-1z M120,45h1v1h-1z M123,45h1v1h-1z M52,46h1v1h-1z M108,46h1v1h-1z M38,47h1v1h-1z M109,47h1v1h-1z M121,47h1v1h-1z M126,47h1v1h-1z M7,48h1v1h-1z M120,48h1v1h-1z M1,49h1v1h-1z M10,49h1v1h-1z M125,49h1v1h-1z M22,50h1v1h-1z M31,50h1v1h-1z M10,51h1v1h-1z M25,51h1v1h-1z M33,51h1v1h-1z M123,51h1v1h-1z M1,52h1v1h-1z M105,52h1v1h-1z M2,53h1v1h-1z M11,53h1v1h-1z M86,53h1v1h-1z M104,53h1v1h-1z M41,54h1v1h-1z M81,54h1v1h-1z M93,54h1v1h-1z M118,54h1v1h-1z M11,55h1v1h-1z M80,55h1v1h-1z M3,56h1v1h-1z M20,56h1v1h-1z M86,56h1v1h-1z M7,57h1v1h-1z M62,57h1v1h-1z M126,57h1v1h-1z M3,58h1v1h-1z M49,58h1v1h-1z M81,58h1v1h-1z M112,58h1v1h-1z M1,59h1v1h-1z M11,59h1v1h-1z M51,59h1v1h-1z M127,59h1v1h-1z M110,60h1v1h-1z M76,61h1v1h-1z M13,62h1v1h-1z M77,62h1v1h-1z M7,63h1v1h-1z M51,63h1v1h-1z M65,63h1v1h-1z M75,63h1v1h-1z M73,64h1v1h-1z M102,64h1v1h-1z M123,64h1v1h-1z M94,65h1v1h-1z M123,66h1v1h-1z M23,67h1v1h-1z M100,67h1v1h-1z M125,67h1v1h-1z M97,68h1v1h-1z M0,69h1v1h-1z M89,69h1v1h-1z M96,69h1v1h-1z M6,70h1v1h-1z M11,71h1v1h-1z M65,71h1v1h-1z M68,71h1v1h-1z M70,71h1v1h-1z M117,72h1v1h-1z M110,73h1v1h-1z M5,75h1v1h-1z M12,75h1v1h-1z M31,75h1v1h-1z M29,76h1v1h-1z M86,76h1v1h-1z M118,77h1v1h-1z M122,77h1v1h-1z M85,78h1v1h-1z M120,78h1v1h-1z M6,79h1v1h-1z M119,79h1v1h-1z M126,79h1v1h-1z M70,80h1v1h-1z M103,80h1v1h-1z M1,81h1v1h-1z M121,81h1v1h-1z M126,82h1v1h-1z M109,83h1v1h-1z M121,83h1v1h-1z M99,84h1v1h-1z M115,84h1v1h-1z M117,84h1v1h-1z M91,85h1v1h-1z M11,86h1v1h-1z M29,86h1v1h-1z M54,86h1v1h-1z M104,86h1v1h-1z M119,86h1v1h-1z M35,87h1v1h-1z M100,87h1v1h-1z M119,88h1v1h-1z M55,89h1v1h-1z M111,89h1v1h-1z M14,90h1v1h-1z M20,90h1v1h-1z M31,90h1v1h-1z M49,90h1v1h-1z M92,90h1v1h-1z M18,91h1v1h-1z M25,92h1v1h-1z M36,92h1v1h-1z M44,92h1v1h-1z M50,92h1v1h-1z M55,92h1v1h-1z M107,92h1v1h-1z M127,92h1v1h-1z M27,93h1v1h-1z M31,94h1v1h-1z M45,94h1v1h-1z M47,94h1v1h-1z M87,94h1v1h-1z M100,94h1v1h-1z M7,95h1v1h-1z M74,96h1v1h-1z M3,97h1v1h-1z M80,97h1v1h-1z M85,97h1v1h-1z M97,97h1v1h-1z M108,97h1v1h-1z M34,98h1v1h-1z M83,98h1v1h-1z M91,98h1v1h-1z M35,99h1v1h-1z M84,99h1v1h-1z M93,99h1v1h-1z M3,100h1v1h-1z M90,100h1v1h-1z M95,100h1v1h-1z M65,101h1v1h-1z M76,101h1v1h-1z M37,102h1v1h-1z M53,102h1v1h-1z M83,102h1v1h-1z M106,102h1v1h-1z M5,103h1v1h-1z M35,103h1v1h-1z M64,103h1v1h-1z M67,103h1v1h-1z M99,103h1v1h-1z M114,103h1v1h-1z M2,104h1v1h-1z M8,104h1v1h-1z M26,104h1v1h-1z M74,104h1v1h-1z M25,105h1v1h-1z M68,105h1v1h-1z M75,105h1v1h-1z M0,106h1v1h-1z M4,106h1v1h-1z M80,106h1v1h-1z M94,106h1v1h-1z M51,107h1v1h-1z M78,107h1v1h-1z M82,107h1v1h-1z M26,108h1v1h-1z M66,108h1v1h-1z M77,108h1v1h-1z M79,108h1v1h-1z M126,108h1v1h-1z M22,109h1v1h-1z M55,109h1v1h-1z M58,109h1v1h-1z M65,109h1v1h-1z M76,109h1v1h-1z M87,109h1v1h-1z M3,110h1v1h-1z M67,110h1v1h-1z M82,110h1v1h-1z M127,110h1v1h-1z M50,111h1v1h-1z M64,111h1v1h-1z M83,111h1v1h-1z M89,111h1v1h-1z M12,113h1v1h-1z M81,113h1v1h-1z M13,114h1v1h-1z M79,115h1v1h-1z M122,115h1v1h-1z M9,116h1v1h-1z M40,116h1v1h-1z M65,116h1v1h-1z M36,118h1v1h-1z M51,118h1v1h-1z M56,118h1v1h-1z M62,118h1v1h-1z M38,119h1v1h-1z M63,119h1v1h-1z M78,119h1v1h-1z M31,120h1v1h-1z M73,121h1v1h-1z M115,121h1v1h-1z M120,121h1v1h-1z M33,122h1v1h-1z M54,122h1v1h-1z M1,123h1v1h-1z M30,123h1v1h-1z M47,123h1v1h-1z M89,123h1v1h-1z M95,123h1v1h-1z M116,123h1v1h-1z M3,124h1v1h-1z M10,125h1v1h-1z M29,125h1v1h-1z M44,125h1v1h-1z M22,126h1v1h-1z M34,126h1v1h-1z M0,127h1v1h-1z M4,127h1v1h-1z M41,127h1v1h-1z M44,127h1v1h-1z M111,127h1v1h-1z M77,33h1v2h-1z M61,34h2v1h-2z M64,34h1v4h-1z M72,34h3v1h-3z M58,35h2v1h-2z M62,35h1v4h-1z M65,35h1v3h-1z M69,35h1v3h-1z M72,35h1v3h-1z M74,35h2v3h-2z M79,35h2v1h-2z M49,36h1v2h-1z M53,36h2v2h-2z M61,36h1v3h-1z M63,36h1v2h-1z M66,36h2v2h-2z M73,36h1v2h-1z M76,36h3v1h-3z M83,36h1v2h-1z M55,37h2v1h-2z M59,37h2v1h-2z M70,37h2v1h-2z M76,37h2v1h-2z M123,37h2v1h-2z M51,38h1v3h-1z M54,38h2v1h-2z M120,38h1v3h-1z M124,38h1v2h-1z M48,39h2v1h-2z M73,39h1v2h-1z M104,39h1v2h-1z M121,39h1v3h-1z M123,39h1v2h-1z M49,40h2v1h-2z M103,40h1v2h-1z M106,40h2v1h-2z M43,41h2v1h-2z M89,41h1v4h-1z M92,41h3v1h-3z M101,41h2v1h-2z M105,41h2v1h-2z M92,42h2v1h-2z M102,42h1v2h-1z M90,43h3v1h-3z M41,44h3v1h-3z M40,45h2v1h-2z M53,45h1v4h-1z M55,45h2v1h-2z M38,46h2v1h-2z M115,46h1v2h-1z M122,46h1v4h-1z M54,47h2v2h-2z M111,47h2v1h-2z M114,47h1v10h-1z M11,48h1v2h-1z M19,48h1v9h-1z M34,48h1v4h-1z M60,48h1v3h-1z M110,48h2v12h-2z M12,49h3v1h-3z M21,49h2v1h-2z M38,49h1v11h-1z M47,49h1v11h-1z M65,49h1v4h-1z M69,49h1v4h-1z M74,49h1v3h-1z M103,49h3v2h-3z M112,49h2v9h-2z M117,49h1v6h-1z M119,49h1v4h-1z M0,50h1v12h-1z M3,50h1v2h-1z M6,50h1v3h-1z M9,50h1v6h-1z M12,50h2v1h-2z M15,50h3v1h-3z M20,50h1v5h-1z M24,50h2v1h-2z M59,50h1v4h-1z M97,50h1v17h-1z M115,50h1v7h-1z M118,50h1v3h-1z M1,51h2v1h-2z M4,51h2v1h-2z M7,51h1v3h-1z M16,51h3v1h-3z M54,51h1v2h-1z M73,51h1v7h-1z M79,51h3v2h-3z M85,51h1v11h-1z M91,51h3v2h-3z M103,51h1v7h-1z M116,51h1v5h-1z M8,52h1v4h-1z M121,52h2v1h-2z M15,53h1v9h-1z M33,53h1v11h-1z M58,53h1v11h-1z M61,53h1v2h-1z M74,53h1v5h-1z M79,53h1v6h-1z M91,53h2v6h-2z M4,54h1v5h-1z M10,54h1v2h-1z M12,54h1v3h-1z M27,54h3v1h-3z M60,54h1v4h-1z M1,55h2v1h-2z M5,55h3v1h-3z M27,55h1v6h-1z M29,55h1v4h-1z M34,55h1v9h-1z M48,55h1v5h-1z M59,55h1v10h-1z M98,55h1v7h-1z M13,56h2v4h-2z M28,56h1v2h-1z M57,56h1v8h-1z M72,56h1v9h-1z M93,56h1v3h-1z M104,56h1v2h-1z M1,57h2v1h-2z M40,57h1v3h-1z M52,57h1v7h-1z M80,57h1v2h-1z M99,57h1v12h-1z M5,58h2v5h-2z M8,58h3v2h-3z M12,58h1v2h-1z M39,58h1v2h-1z M41,58h3v2h-3z M86,58h2v2h-2z M7,59h1v3h-1z M62,59h2v1h-2z M67,59h1v5h-1z M73,59h3v1h-3z M109,59h1v5h-1z M8,60h2v1h-2z M14,60h1v3h-1z M43,60h1v3h-1z M63,60h1v2h-1z M73,60h2v4h-2z M86,60h1v2h-1z M108,60h1v3h-1z M1,61h4v1h-4z M12,61h1v3h-1z M19,61h3v1h-3z M60,61h3v2h-3z M68,61h1v3h-1z M84,61h1v4h-1z M88,61h1v4h-1z M96,61h1v5h-1z M107,61h1v2h-1z M127,61h1v2h-1z M3,62h2v1h-2z M10,62h1v4h-1z M19,62h1v8h-1z M66,62h1v2h-1z M71,62h1v2h-1z M83,62h1v3h-1z M95,62h1v4h-1z M102,62h5v1h-5z M122,62h1v3h-1z M4,63h2v1h-2z M11,63h1v2h-1z M32,63h1v3h-1z M55,63h2v1h-2z M60,63h2v2h-2z M69,63h2v1h-2z M78,63h5v1h-5z M85,63h1v2h-1z M87,63h1v2h-1z M89,63h1v3h-1z M91,63h4v2h-4z M98,63h1v5h-1z M100,63h1v3h-1z M102,63h4v1h-4z M124,63h2v1h-2z M1,64h1v4h-1z M5,64h1v3h-1z M25,64h1v3h-1z M31,64h1v2h-1z M121,64h1v3h-1z M125,64h1v2h-1z M6,65h2v1h-2z M21,65h1v4h-1z M27,65h4v1h-4z M90,65h2v1h-2z M118,65h2v1h-2z M2,66h3v6h-3z M7,66h3v1h-3z M23,66h2v1h-2z M7,67h2v1h-2z M18,67h1v2h-1z M20,67h1v4h-1z M6,68h2v2h-2z M13,68h2v1h-2z M126,68h2v1h-2z M5,69h1v2h-1z M12,69h1v4h-1z M127,69h1v2h-1z M1,70h1v5h-1z M16,70h1v4h-1z M62,70h2v1h-2z M66,70h3v1h-3z M74,70h2v1h-2z M81,70h2v1h-2z M114,70h1v2h-1z M0,71h1v4h-1z M15,71h1v4h-1z M61,71h1v10h-1z M63,71h1v10h-1z M76,71h1v10h-1z M79,71h1v10h-1z M81,71h1v9h-1z M84,71h3v2h-3z M116,71h2v1h-2z M2,72h2v2h-2z M13,72h2v4h-2z M50,72h2v1h-2z M57,72h1v2h-1z M62,72h1v9h-1z M67,72h1v9h-1z M69,72h1v9h-1z M73,72h1v8h-1z M77,72h1v9h-1z M80,72h1v8h-1z M83,72h1v8h-1z M6,73h1v3h-1z M51,73h2v1h-2z M59,73h1v10h-1z M64,73h3v8h-3z M70,73h2v7h-2z M78,73h1v9h-1z M82,73h1v7h-1z M84,73h1v6h-1z M86,73h2v3h-2z M8,74h1v5h-1z M58,74h1v8h-1z M60,74h1v2h-1z M68,74h1v6h-1z M72,74h1v6h-1z M74,74h2v7h-2z M85,74h1v3h-1z M55,75h1v2h-1z M57,75h1v6h-1z M4,76h1v4h-1z M32,76h1v2h-1z M109,76h1v2h-1z M0,77h3v1h-3z M6,77h2v1h-2z M31,77h1v2h-1z M53,77h1v2h-1z M56,77h1v2h-1z M60,77h1v4h-1z M2,78h2v3h-2z M5,78h1v2h-1z M7,78h1v2h-1z M54,78h1v3h-1z M106,78h2v1h-2z M125,78h1v2h-1z M122,79h1v2h-1z M0,80h1v3h-1z M55,80h2v1h-2z M127,80h1v11h-1z M65,81h2v1h-2z M107,81h1v3h-1z M125,81h2v1h-2z M120,82h1v2h-1z M92,83h2v1h-2z M37,84h1v4h-1z M91,84h2v1h-2z M125,84h2v2h-2z M56,85h1v2h-1z M103,85h1v2h-1z M115,86h3v1h-3z M126,86h1v8h-1z M57,87h1v2h-1z M105,87h2v1h-2z M112,87h2v1h-2z M115,87h1v10h-1z M123,87h3v6h-3z M13,88h2v2h-2z M51,88h1v5h-1z M98,88h2v1h-2z M112,88h1v3h-1z M114,88h1v9h-1z M116,88h1v10h-1z M39,89h1v7h-1z M93,89h1v2h-1z M97,89h1v2h-1z M100,89h2v1h-2z M113,89h1v8h-1z M117,89h1v10h-1z M121,89h2v26h-2z M3,90h2v1h-2z M16,90h2v1h-2z M22,90h1v13h-1z M33,90h1v2h-1z M38,90h1v5h-1z M40,90h1v6h-1z M54,90h1v3h-1z M98,90h1v2h-1z M118,90h1v12h-1z M120,90h1v13h-1z M4,91h2v1h-2z M15,91h2v15h-2z M21,91h1v12h-1z M37,91h1v4h-1z M43,91h1v2h-1z M56,91h1v4h-1z M119,91h1v10h-1z M9,92h1v16h-1z M13,92h2v14h-2z M32,92h1v3h-1z M41,92h2v7h-2z M46,92h1v2h-1z M58,92h3v4h-3z M89,92h1v3h-1z M101,92h2v1h-2z M112,92h1v4h-1z M8,93h1v6h-1z M10,93h1v8h-1z M19,93h1v17h-1z M24,93h1v8h-1z M33,93h1v3h-1z M57,93h1v2h-1z M64,93h1v2h-1z M79,93h1v2h-1z M88,93h1v2h-1z M100,93h2v1h-2z M103,93h1v25h-1z M123,93h2v3h-2z M6,94h2v1h-2z M12,94h1v12h-1z M17,94h1v12h-1z M20,94h1v27h-1z M23,94h1v7h-1z M28,94h1v8h-1z M78,94h1v2h-1z M110,94h2v3h-2z M11,95h1v11h-1z M18,95h1v13h-1z M25,95h1v6h-1z M29,95h1v7h-1z M43,95h2v1h-2z M52,95h1v3h-1z M55,95h1v6h-1z M82,95h2v1h-2z M101,95h2v1h-2z M104,95h2v7h-2z M107,95h1v3h-1z M27,96h1v5h-1z M32,96h1v3h-1z M43,96h1v14h-1z M53,96h2v6h-2z M56,96h2v2h-2z M102,96h1v30h-1z M108,96h2v1h-2z M123,96h1v14h-1z M26,97h1v4h-1z M31,97h1v5h-1z M33,97h1v2h-1z M39,97h2v1h-2z M46,97h1v2h-1z M106,97h1v2h-1z M124,97h4v1h-4z M30,98h1v6h-1z M44,98h1v12h-1z M47,98h2v12h-2z M56,98h1v2h-1z M124,98h1v11h-1z M126,98h2v2h-2z M45,99h1v10h-1z M51,99h2v5h-2z M71,99h2v2h-2z M125,99h1v8h-1z M46,100h1v9h-1z M49,100h2v11h-2z M64,100h2v1h-2z M70,100h1v2h-1z M85,100h1v7h-1z M97,100h1v2h-1z M108,100h2v1h-2z M126,100h1v6h-1z M0,101h2v1h-2z M7,101h2v3h-2z M32,101h2v1h-2z M42,101h1v10h-1z M72,101h1v4h-1z M82,101h1v2h-1z M84,101h1v6h-1z M91,101h2v14h-2z M98,101h2v2h-2z M106,101h2v1h-2z M127,101h1v4h-1z M0,102h1v2h-1z M40,102h2v1h-2z M73,102h1v2h-1z M88,102h1v9h-1z M93,102h1v18h-1z M100,102h2v3h-2z M104,102h1v15h-1z M119,102h1v2h-1z M10,103h1v4h-1z M74,103h2v1h-2z M86,103h1v6h-1z M89,103h1v7h-1z M105,103h1v13h-1z M51,104h1v2h-1z M90,104h1v8h-1z M115,104h1v12h-1z M95,105h2v1h-2z M106,105h1v10h-1z M113,105h1v11h-1z M116,105h2v9h-2z M21,106h1v5h-1z M31,106h2v1h-2z M37,106h3v13h-3z M87,106h1v2h-1z M107,106h1v9h-1z M112,106h1v11h-1z M114,106h1v10h-1z M118,106h1v8h-1z M120,106h1v9h-1z M8,107h1v5h-1z M25,107h3v1h-3z M31,107h1v12h-1z M35,107h2v11h-2z M40,107h2v9h-2z M101,107h1v21h-1z M108,107h2v8h-2z M111,107h1v10h-1z M119,107h1v7h-1z M7,108h1v20h-1z M34,108h1v10h-1z M54,108h1v4h-1z M68,108h2v1h-2z M96,108h2v12h-2z M100,108h1v14h-1z M110,108h1v7h-1z M2,109h1v2h-1z M5,109h1v19h-1z M30,109h1v12h-1z M33,109h1v9h-1z M51,109h1v4h-1z M68,109h1v2h-1z M72,109h1v8h-1z M94,109h1v11h-1z M99,109h1v12h-1z M0,110h1v11h-1z M6,110h1v18h-1z M9,110h1v2h-1z M52,110h2v2h-2z M69,110h3v3h-3z M73,110h1v7h-1z M95,110h1v10h-1z M98,110h1v10h-1z M4,111h1v14h-1z M17,111h2v1h-2z M27,111h2v1h-2z M32,111h1v7h-1z M74,111h1v6h-1z M2,112h2v12h-2z M15,112h2v1h-2z M23,112h1v10h-1z M28,112h2v1h-2z M52,112h1v3h-1z M76,112h1v6h-1z M86,112h1v4h-1z M123,112h1v4h-1z M1,113h1v9h-1z M21,113h2v8h-2z M24,113h1v10h-1z M29,113h1v9h-1z M53,113h1v4h-1z M71,113h1v2h-1z M75,113h1v5h-1z M77,113h2v6h-2z M85,113h1v10h-1z M124,113h2v4h-2z M25,114h1v10h-1z M42,114h1v2h-1z M54,114h1v7h-1z M79,114h2v1h-2z M82,114h1v10h-1z M126,114h2v3h-2z M8,115h1v2h-1z M17,115h3v1h-3z M64,115h1v2h-1z M83,115h2v8h-2z M92,115h1v6h-1z M16,116h2v2h-2z M19,116h1v6h-1z M26,116h3v7h-3z M79,117h3v8h-3z M88,117h1v6h-1z M91,117h1v5h-1z M122,117h2v1h-2z M127,117h1v11h-1z M18,118h1v5h-1z M86,118h2v5h-2z M89,118h2v5h-2z M8,119h1v9h-1z M14,119h1v3h-1z M17,119h1v3h-1z M53,119h1v2h-1z M55,119h1v5h-1z M67,119h1v3h-1z M123,119h2v1h-2z M13,120h1v3h-1z M15,120h2v2h-2z M50,120h1v2h-1z M65,120h2v8h-2z M116,120h2v2h-2z M126,120h1v8h-1z M9,121h1v7h-1z M12,121h1v3h-1z M60,121h1v7h-1z M75,121h4v1h-4z M103,121h1v3h-1z M123,121h3v2h-3z M10,122h2v3h-2z M42,122h2v1h-2z M56,122h1v3h-1z M64,122h1v6h-1z M74,122h3v6h-3z M78,122h1v6h-1z M117,122h3v1h-3z M121,122h2v1h-2z M26,123h2v5h-2z M57,123h3v5h-3z M63,123h1v5h-1z M70,123h2v5h-2z M73,123h1v5h-1z M77,123h1v5h-1z M112,123h1v2h-1z M120,123h2v1h-2z M124,123h2v5h-2z M43,124h1v4h-1z M61,124h2v4h-2z M68,124h2v4h-2z M72,124h1v4h-1z M113,124h1v2h-1z M115,124h1v4h-1z M118,124h1v4h-1z M120,124h1v4h-1z M123,124h1v4h-1z M42,125h1v3h-1z M67,125h1v3h-1z M79,125h2v3h-2z M100,125h1v3h-1z M105,125h2v1h-2z M114,125h1v3h-1z M119,125h1v3h-1z M121,125h2v3h-2z M45,126h2v2h-2z M49,126h1v2h-1z M47,127h2v1h-2z M116,127h2v1h-2z" /><path fill="#F8B25A" d="M113,35h1v1h-1z M47,43h1v1h-1z M38,48h1v1h-1z M125,50h1v1h-1z M21,53h1v1h-1z M117,57h1v1h-1z M114,59h1v1h-1z M53,65h1v1h-1z M24,68h1v1h-1z M20,75h1v1h-1z M19,76h1v1h-1z M18,77h1v1h-1z M76,86h1v1h-1z M72,87h1v1h-1z M68,88h1v1h-1z M70,92h1v1h-1z M65,93h1v1h-1z M67,95h1v1h-1z M69,95h1v1h-1z M60,98h1v1h-1z M58,100h1v1h-1z M52,104h1v1h-1z M63,38h2v1h-2z M47,41h2v2h-2z M46,42h1v2h-1z M44,43h2v2h-2z M42,45h3v2h-3z M40,46h2v2h-2z M39,47h1v2h-1z M127,47h1v4h-1z M126,48h1v3h-1z M117,55h3v2h-3z M116,56h1v3h-1z M114,57h2v2h-2z M113,58h1v3h-1z M112,59h1v2h-1z M111,60h1v2h-1z M106,63h3v1h-3z M12,64h1v2h-1z M103,64h5v1h-5z M11,65h1v3h-1z M102,65h3v2h-3z M10,66h1v4h-1z M9,67h1v3h-1z M101,67h3v1h-3z M8,68h1v3h-1z M101,68h2v1h-2z M7,70h1v2h-1z M5,71h2v1h-2z M4,72h2v1h-2z M92,72h1v3h-1z M17,73h3v3h-3z M90,73h2v4h-2z M16,74h1v3h-1z M89,74h1v3h-1z M15,75h1v3h-1z M4,80h3v1h-3z M2,81h3v3h-3z M1,82h1v4h-1z M0,83h1v4h-1z M76,83h2v3h-2z M2,84h2v2h-2z M75,84h1v3h-1z M72,85h3v2h-3z M70,86h2v3h-2z M69,87h1v5h-1z M67,90h1v3h-1z M68,91h1v2h-1z M66,92h1v2h-1z M68,94h2v1h-2z M63,95h1v2h-1z M60,96h3v2h-3z M58,97h2v3h-2z M57,98h1v3h-1z M56,100h1v2h-1z M55,101h1v2h-1z M54,102h1v2h-1z M53,103h1v2h-1z" /><path fill="#513539" d="M124,36h1v1h-1z M119,37h1v1h-1z M103,39h1v1h-1z M14,87h1v1h-1z M63,102h1v1h-1z" /><path fill="#6F443F" d="M118,53h1v1h-1z M64,63h1v1h-1z M86,64h1v1h-1z M100,66h1v1h-1z M52,109h1v1h-1z" /><path fill="#9E644D" d="M21,54h1v1h-1z M17,67h1v1h-1z" /><path fill="#799E27" d="M123,56h1v1h-1z M126,72h1v1h-1z M111,74h1v1h-1z M115,77h1v1h-1z M107,79h1v1h-1z M114,79h1v1h-1z M114,83h1v1h-1z M30,85h1v1h-1z M12,86h1v1h-1z M10,90h1v1h-1z M97,91h1v1h-1z M4,92h1v1h-1z M2,94h1v1h-1z M72,98h1v1h-1z M70,99h1v1h-1z M109,99h1v1h-1z M111,99h1v1h-1z M107,100h1v1h-1z M77,101h1v1h-1z M74,102h1v1h-1z M76,102h1v1h-1z M26,103h1v1h-1z M25,104h1v1h-1z M67,104h1v1h-1z M21,105h1v1h-1z M64,105h1v1h-1z M65,111h1v1h-1z M14,112h1v1h-1z M11,113h1v1h-1z M9,115h1v1h-1z M104,117h1v1h-1z M45,118h1v1h-1z M103,118h1v1h-1z M121,118h1v1h-1z M31,119h1v1h-1z M18,123h1v1h-1z M28,123h1v1h-1z M30,124h1v1h-1z M98,125h1v1h-1z M97,126h1v1h-1z M83,127h1v1h-1z M124,55h3v1h-3z M125,56h2v1h-2z M123,58h4v3h-4z M122,59h1v3h-1z M121,60h1v3h-1z M123,61h3v1h-3z M124,62h2v1h-2z M110,69h5v1h-5z M121,69h5v4h-5z M109,70h5v1h-5z M120,70h1v7h-1z M107,71h4v1h-4z M112,71h2v6h-2z M118,71h2v6h-2z M105,72h3v4h-3z M109,72h3v1h-3z M115,72h2v5h-2z M114,73h1v5h-1z M117,73h1v4h-1z M121,73h2v1h-2z M108,74h1v8h-1z M121,74h1v2h-1z M106,76h2v2h-2z M111,76h1v9h-1z M110,77h1v7h-1z M112,77h1v8h-1z M109,78h1v5h-1z M113,78h1v7h-1z M100,80h2v2h-2z M99,81h1v3h-1z M32,82h1v2h-1z M98,82h1v5h-1z M100,82h1v3h-1z M30,83h2v2h-2z M97,83h1v3h-1z M29,84h1v2h-1z M52,84h4v2h-4z M99,85h1v2h-1z M10,86h1v3h-1z M51,86h3v1h-3z M8,87h2v4h-2z M11,87h1v2h-1z M50,87h3v1h-3z M49,88h2v2h-2z M7,89h1v2h-1z M1,90h2v3h-2z M50,90h1v2h-1z M94,90h3v7h-3z M0,91h1v5h-1z M3,91h1v2h-1z M48,91h2v1h-2z M92,91h2v8h-2z M74,92h6v1h-6z M1,93h1v3h-1z M74,93h5v1h-5z M91,93h1v5h-1z M74,94h4v1h-4z M90,94h1v4h-1z M97,94h1v3h-1z M125,94h2v1h-2z M76,95h2v6h-2z M89,95h1v3h-1z M75,96h1v7h-1z M78,96h3v1h-3z M112,96h1v4h-1z M73,97h2v5h-2z M78,97h2v1h-2z M109,97h3v2h-3z M113,97h3v2h-3z M78,98h1v4h-1z M107,98h2v2h-2z M106,99h1v2h-1z M113,99h2v1h-2z M67,100h3v3h-3z M113,100h1v2h-1z M23,101h4v2h-4z M66,101h1v5h-1z M64,102h2v1h-2z M21,103h4v2h-4z M65,103h1v3h-1z M23,105h2v1h-2z M58,105h4v4h-4z M11,106h4v2h-4z M22,106h2v1h-2z M62,106h1v7h-1z M10,107h1v2h-1z M57,107h1v4h-1z M9,108h1v2h-1z M11,108h3v5h-3z M56,108h1v8h-1z M63,108h1v4h-1z M14,109h2v3h-2z M45,109h2v4h-2z M60,109h2v6h-2z M10,110h1v6h-1z M44,110h1v11h-1z M47,110h2v2h-2z M55,110h1v8h-1z M59,110h1v5h-1z M64,110h2v1h-2z M42,111h2v3h-2z M49,111h1v6h-1z M58,111h1v4h-1z M8,112h2v3h-2z M47,112h1v5h-1z M50,112h1v5h-1z M54,112h1v2h-1z M57,112h1v5h-1z M46,113h1v4h-1z M48,113h1v4h-1z M51,113h1v4h-1z M43,114h1v8h-1z M45,114h1v3h-1z M116,114h4v5h-4z M106,115h5v2h-5z M120,115h2v3h-2z M41,116h2v6h-2z M105,116h1v2h-1z M113,116h3v4h-3z M122,116h2v1h-2z M40,117h1v5h-1z M106,117h4v1h-4z M112,117h1v2h-1z M32,118h4v4h-4z M106,118h2v1h-2z M36,119h1v2h-1z M39,119h1v2h-1z M106,119h1v2h-1z M118,119h2v1h-2z M93,120h5v1h-5z M114,120h2v1h-2z M20,121h1v5h-1z M30,121h2v2h-2z M92,121h4v2h-4z M97,121h1v3h-1z M14,122h4v1h-4z M19,122h1v2h-1z M21,122h1v3h-1z M29,122h1v2h-1z M32,122h1v2h-1z M91,122h1v4h-1z M96,122h1v3h-1z M13,123h4v1h-4z M31,123h1v2h-1z M83,123h6v3h-6z M90,123h1v4h-1z M92,123h2v4h-2z M12,124h4v1h-4z M82,124h1v4h-1z M89,124h1v3h-1z M95,124h1v2h-1z M11,125h4v3h-4z M17,125h3v2h-3z M81,125h1v3h-1z M94,125h1v2h-1z M10,126h1v2h-1z M15,126h2v1h-2z M83,126h2v1h-2z M86,126h3v1h-3z" /><path fill="#894E3C" d="M101,66h1v1h-1z M23,68h1v1h-1z M80,93h1v1h-1z M53,112h1v1h-1z" /><path fill="#875159" d="M115,71h1v1h-1z" /></svg>