<svg xmlns="http://www.w3.org/2000/svg" version="1.1" width="128" height="128" shape-rendering="crispEdges"><path fill="#02052B" d="M105,29h1v1h-1z M106,35h1v1h-1z M113,35h1v1h-1z M114,40h1v1h-1z M106,41h1v1h-1z M113,41h1v1h-1z M116,43h1v1h-1z M105,49h1v1h-1z M109,53h1v1h-1z M110,67h1v1h-1z M112,69h1v1h-1z M110,75h1v1h-1z M110,77h1v1h-1z M112,81h1v1h-1z M51,83h1v1h-1z M64,86h1v1h-1z M28,87h1v1h-1z M102,87h1v1h-1z M117,87h1v1h-1z M49,88h1v1h-1z M64,88h1v1h-1z M67,88h1v1h-1z M12,89h1v1h-1z M45,89h1v1h-1z M46,90h1v1h-1z M13,91h1v1h-1z M43,91h1v1h-1z M51,91h1v1h-1z M82,91h1v1h-1z M84,91h1v1h-1z M103,91h1v1h-1z M118,91h1v1h-1z M102,92h1v1h-1z M0,93h1v1h-1z M18,93h1v1h-1z M28,93h1v1h-1z M124,94h1v1h-1z M0,95h1v1h-1z M42,95h1v1h-1z M74,95h1v1h-1z M126,95h1v1h-1z M21,96h1v1h-1z M104,96h1v1h-1z M115,96h1v1h-1z M0,97h1v1h-1z M28,97h1v1h-1z M45,97h1v1h-1z M74,97h1v1h-1z M34,98h1v1h-1z M57,98h1v1h-1z M72,98h1v1h-1z M1,99h1v1h-1z M50,99h1v1h-1z M11,100h1v1h-1z M34,100h1v1h-1z M61,100h1v1h-1z M118,101h1v1h-1z M8,102h1v1h-1z M17,102h1v1h-1z M115,102h1v1h-1z M7,103h1v1h-1z M119,103h1v1h-1z M66,104h1v1h-1z M27,105h1v1h-1z M120,105h1v1h-1z M126,107h1v1h-1z M48,108h1v1h-1z M13,110h1v1h-1z M60,110h1v1h-1z M62,110h1v1h-1z M65,110h1v1h-1z M67,110h1v1h-1z M86,110h1v1h-1z M98,110h1v1h-1z M103,110h1v1h-1z M105,110h1v1h-1z M8,111h1v1h-1z M12,111h1v1h-1z M16,111h1v1h-1z M20,111h1v1h-1z M26,111h1v1h-1z M40,111h1v1h-1z M59,111h1v1h-1z M61,111h1v1h-1z M70,111h1v1h-1z M72,111h1v1h-1z M76,111h1v1h-1z M88,111h1v1h-1z M101,111h1v1h-1z M104,111h1v1h-1z M106,111h1v1h-1z M64,113h1v1h-1z M94,113h1v1h-1z M24,114h1v1h-1z M104,114h1v1h-1z M106,114h1v1h-1z M20,115h1v1h-1z M26,115h1v1h-1z M50,115h1v1h-1z M66,115h1v1h-1z M72,115h1v1h-1z M76,115h1v1h-1z M88,115h1v1h-1z M91,115h1v1h-1z M101,115h1v1h-1z M105,115h1v1h-1z M124,115h1v1h-1z M69,116h1v1h-1z M104,116h1v1h-1z M76,117h1v1h-1z M73,121h1v1h-1z M102,121h1v1h-1z M102,124h1v1h-1z M112,127h1v1h-1z M0,0h128v8h-128z M0,8h109v8h-109z M110,8h18v3h-18z M111,11h17v5h-17z M0,19h109v5h-109z M111,19h17v5h-17z M108,27h4v1h-4z M106,28h2v1h-2z M109,28h2v3h-2z M112,28h2v4h-2z M107,29h2v2h-2z M111,29h1v2h-1z M114,29h1v2h-1z M106,30h1v2h-1z M107,31h1v4h-1z M112,32h1v3h-1z M109,34h2v1h-2z M105,37h10v3h-10z M104,38h1v5h-1z M115,38h1v3h-1z M103,39h1v5h-1z M116,39h1v3h-1z M105,40h1v3h-1z M107,40h2v2h-2z M111,40h2v2h-2z M109,41h2v1h-2z M114,42h2v1h-2z M104,45h1v2h-1z M115,45h1v2h-1z M114,48h1v2h-1z M107,49h6v1h-6z M107,50h1v9h-1z M112,50h1v5h-1z M110,52h1v2h-1z M110,56h1v2h-1z M112,56h1v6h-1z M107,60h1v20h-1z M110,62h1v2h-1z M112,64h1v4h-1z M110,69h1v2h-1z M112,71h1v9h-1z M109,78h1v2h-1z M105,79h1v8h-1z M110,79h1v2h-1z M114,79h1v3h-1z M46,80h2v2h-2z M106,80h1v2h-1z M113,80h1v2h-1z M49,81h4v1h-4z M49,82h3v1h-3z M108,82h4v5h-4z M46,83h2v2h-2z M106,83h2v4h-2z M112,83h3v4h-3z M12,84h2v2h-2z M104,84h1v3h-1z M115,84h1v3h-1z M43,85h1v2h-1z M103,85h1v4h-1z M116,85h1v4h-1z M44,86h4v1h-4z M46,87h2v1h-2z M49,87h2v1h-2z M104,88h12v1h-12z M101,89h2v1h-2z M117,89h2v1h-2z M49,90h2v2h-2z M101,90h1v2h-1z M37,91h3v1h-3z M61,91h6v1h-6z M58,92h2v1h-2z M108,92h4v1h-4z M76,93h2v1h-2z M103,93h1v2h-1z M116,93h1v2h-1z M50,94h2v2h-2z M104,94h12v1h-12z M7,95h2v1h-2z M45,95h3v1h-3z M72,95h1v2h-1z M24,97h2v1h-2z M49,97h2v1h-2z M116,97h1v2h-1z M46,98h2v2h-2z M60,98h2v1h-2z M103,98h1v3h-1z M10,99h2v1h-2z M117,99h1v2h-1z M102,100h1v2h-1z M105,100h1v9h-1z M112,100h2v1h-2z M7,101h2v1h-2z M46,101h2v9h-2z M106,101h1v7h-1z M113,101h2v3h-2z M48,102h2v6h-2z M51,102h3v8h-3z M60,102h3v8h-3z M101,102h1v3h-1z M50,103h1v6h-1z M55,103h1v6h-1z M59,103h1v7h-1z M75,103h2v1h-2z M37,104h1v6h-1z M39,104h6v6h-6z M54,104h1v6h-1z M56,104h3v4h-3z M63,104h1v6h-1z M73,104h3v7h-3z M100,104h1v3h-1z M103,104h2v6h-2z M113,104h1v2h-1z M24,105h1v5h-1z M38,105h1v6h-1z M45,105h1v6h-1z M64,105h2v5h-2z M71,105h2v6h-2z M76,105h2v5h-2z M110,105h3v1h-3z M123,105h2v1h-2z M21,106h3v5h-3z M25,106h1v5h-1z M36,106h1v5h-1z M66,106h1v6h-1z M69,106h2v5h-2z M78,106h3v4h-3z M91,106h4v4h-4z M99,106h1v6h-1z M102,106h1v2h-1z M0,107h3v4h-3z M16,107h5v3h-5z M26,107h2v4h-2z M29,107h7v3h-7z M67,107h2v3h-2z M81,107h1v4h-1z M88,107h3v4h-3z M95,107h1v4h-1z M97,107h2v3h-2z M3,108h2v4h-2z M7,108h2v3h-2z M13,108h3v2h-3z M28,108h1v3h-1z M57,108h2v1h-2z M82,108h2v4h-2z M86,108h2v2h-2z M96,108h1v4h-1z M100,108h2v3h-2z M127,108h1v3h-1z M5,109h1v3h-1z M10,109h3v2h-3z M58,109h1v3h-1z M85,109h1v2h-1z M102,109h1v2h-1z M125,109h2v1h-2z M6,110h1v2h-1z M9,110h1v2h-1z M15,110h3v1h-3z M19,110h2v1h-2z M29,110h1v2h-1z M31,110h3v1h-3z M39,110h2v1h-2z M42,110h3v1h-3z M46,110h1v2h-1z M52,110h2v2h-2z M79,110h2v2h-2z M84,110h1v2h-1z M91,110h1v2h-1z M93,110h2v1h-2z M123,110h2v2h-2z M126,110h1v2h-1z M0,111h2v1h-2z M42,111h2v1h-2z M54,111h3v1h-3z M115,111h4v1h-4z M120,111h3v1h-3z M7,112h1v2h-1z M14,112h1v3h-1z M18,112h1v3h-1z M23,112h2v2h-2z M30,112h1v2h-1z M63,112h1v3h-1z M65,112h1v2h-1z M68,112h1v3h-1z M77,112h1v2h-1z M79,112h1v2h-1z M86,112h2v3h-2z M93,112h1v3h-1z M95,112h1v2h-1z M115,112h1v3h-1z M0,113h7v1h-7z M8,113h6v1h-6z M15,113h3v1h-3z M19,113h4v1h-4z M25,113h5v1h-5z M31,113h32v1h-32z M66,113h2v1h-2z M69,113h8v1h-8z M78,113h1v2h-1z M80,113h6v1h-6z M88,113h5v1h-5z M96,113h19v1h-19z M116,113h12v1h-12z M126,114h1v2h-1z M32,115h1v13h-1z M40,115h1v13h-1z M42,115h2v13h-2z M31,116h1v12h-1z M33,116h1v12h-1z M36,116h1v12h-1z M38,116h2v12h-2z M44,116h2v12h-2z M30,117h1v11h-1z M34,117h2v11h-2z M37,117h1v11h-1z M41,117h1v11h-1z M46,117h2v11h-2z M48,118h1v10h-1z M24,119h1v9h-1z M28,119h2v9h-2z M49,119h3v9h-3z M12,120h3v8h-3z M25,120h3v8h-3z M52,120h3v8h-3z M56,120h5v8h-5z M9,121h1v7h-1z M11,121h1v7h-1z M15,121h3v7h-3z M23,121h1v7h-1z M55,121h1v7h-1z M61,121h5v7h-5z M7,122h2v6h-2z M10,122h1v6h-1z M20,122h3v6h-3z M66,122h1v6h-1z M120,122h3v6h-3z M0,123h4v5h-4z M5,123h2v5h-2z M18,123h2v5h-2z M117,123h2v1h-2z M123,123h2v5h-2z M126,123h2v5h-2z M4,124h1v4h-1z M67,124h1v4h-1z M119,124h1v4h-1z M125,124h1v4h-1z M68,125h2v3h-2z M114,125h2v3h-2z M117,125h2v3h-2z M70,126h3v2h-3z M113,126h1v2h-1z M116,126h1v2h-1z" /><path fill="#101C49" d="M109,8h1v1h-1z M109,10h1v1h-1z M108,28h1v1h-1z M111,28h1v1h-1z M106,29h1v1h-1z M113,32h1v1h-1z M111,34h1v1h-1z M116,38h1v1h-1z M106,40h1v1h-1z M116,42h1v1h-1z M108,48h1v1h-1z M112,55h1v1h-1z M107,59h1v1h-1z M112,68h1v1h-1z M112,70h1v1h-1z M107,81h1v1h-1z M11,84h1v1h-1z M66,84h1v1h-1z M83,85h1v1h-1z M8,86h1v1h-1z M66,86h1v1h-1z M22,87h1v1h-1z M51,90h1v1h-1z M118,90h1v1h-1z M12,91h1v1h-1z M44,91h1v1h-1z M28,92h1v1h-1z M105,92h1v1h-1z M112,92h1v1h-1z M114,92h1v1h-1z M117,92h1v1h-1z M7,93h1v1h-1z M43,93h1v1h-1z M45,93h1v1h-1z M104,93h1v1h-1z M115,93h1v1h-1z M23,94h1v1h-1z M46,94h1v1h-1z M56,94h1v1h-1z M18,95h1v1h-1z M21,95h1v1h-1z M28,95h1v1h-1z M44,95h1v1h-1z M57,95h1v1h-1z M75,95h1v1h-1z M0,96h1v1h-1z M24,96h1v1h-1z M74,96h1v1h-1z M21,97h1v1h-1z M23,97h1v1h-1z M57,97h1v1h-1z M60,97h1v1h-1z M0,98h1v1h-1z M37,98h1v1h-1z M73,98h1v1h-1z M18,99h1v1h-1z M61,99h1v1h-1z M64,99h1v1h-1z M37,100h1v1h-1z M39,100h1v1h-1z M42,100h1v1h-1z M60,100h1v1h-1z M114,100h1v1h-1z M34,101h1v1h-1z M56,101h1v1h-1z M61,101h1v1h-1z M73,101h1v1h-1z M75,101h1v1h-1z M11,102h1v1h-1z M35,102h1v1h-1z M37,102h1v1h-1z M39,102h1v1h-1z M44,102h1v1h-1z M58,102h1v1h-1z M63,102h1v1h-1z M102,102h1v1h-1z M118,102h1v1h-1z M1,103h1v1h-1z M17,103h1v1h-1z M73,103h1v1h-1z M127,103h1v1h-1z M12,104h1v1h-1z M65,104h1v1h-1z M76,104h1v1h-1z M1,105h1v1h-1z M23,105h1v1h-1z M96,106h1v1h-1z M127,106h1v1h-1z M9,109h1v1h-1z M109,111h1v1h-1z M25,112h1v1h-1z M125,112h1v1h-1z M23,114h1v1h-1z M25,114h1v1h-1z M30,114h1v1h-1z M60,114h1v1h-1z M77,114h1v1h-1z M61,115h1v1h-1z M123,115h1v1h-1z M46,116h1v1h-1z M14,117h1v1h-1z M103,117h1v1h-1z M127,117h1v1h-1z M2,118h1v1h-1z M50,118h1v1h-1z M125,118h1v1h-1z M0,119h1v1h-1z M19,119h1v1h-1z M56,119h1v1h-1z M91,119h1v1h-1z M99,119h1v1h-1z M115,119h1v1h-1z M123,119h1v1h-1z M126,119h1v1h-1z M120,120h1v1h-1z M124,120h1v1h-1z M10,121h1v1h-1z M66,121h1v1h-1z M115,121h1v1h-1z M19,122h1v1h-1z M81,122h1v1h-1z M98,122h1v1h-1z M118,122h1v1h-1z M127,122h1v1h-1z M4,123h1v1h-1z M68,124h1v1h-1z M94,124h1v1h-1z M73,125h1v1h-1z M102,125h1v1h-1z M0,16h109v3h-109z M111,16h17v3h-17z M0,24h109v2h-109z M111,24h17v2h-17z M0,26h108v2h-108z M112,26h16v2h-16z M0,28h106v1h-106z M114,28h14v1h-14z M0,29h105v1h-105z M115,29h13v5h-13z M0,30h99v1h-99z M102,30h4v1h-4z M0,31h98v1h-98z M104,31h2v1h-2z M114,31h1v3h-1z M0,32h93v1h-93z M0,33h92v1h-92z M0,34h91v7h-91z M124,34h4v43h-4z M117,35h7v42h-7z M91,36h1v41h-1z M114,36h3v1h-3z M92,37h6v40h-6z M102,37h3v1h-3z M115,37h2v1h-2z M98,38h6v1h-6z M98,39h5v38h-5z M0,41h19v1h-19z M23,41h68v1h-68z M0,42h18v1h-18z M26,42h65v1h-65z M0,43h17v1h-17z M29,43h62v1h-62z M0,44h16v1h-16z M35,44h56v1h-56z M0,45h8v1h-8z M41,45h50v1h-50z M103,45h1v32h-1z M116,45h1v32h-1z M0,46h7v1h-7z M45,46h46v31h-46z M0,47h6v30h-6z M24,47h21v30h-21z M104,47h1v30h-1z M115,47h1v30h-1z M6,48h1v29h-1z M20,48h4v29h-4z M7,49h13v23h-13z M105,50h1v27h-1z M114,50h1v27h-1z M112,62h1v2h-1z M7,72h1v19h-1z M14,72h6v5h-6z M13,73h1v11h-1z M8,77h1v8h-1z M10,77h3v2h-3z M10,79h2v1h-2z M11,80h1v3h-1z M49,80h4v1h-4z M10,81h1v18h-1z M12,81h1v2h-1z M82,81h1v5h-1z M0,82h7v7h-7z M14,82h4v6h-4z M29,82h19v1h-19z M52,82h30v1h-30z M88,82h17v2h-17z M114,82h14v1h-14z M18,83h2v3h-2z M27,83h19v2h-19z M49,83h1v3h-1z M52,83h14v2h-14z M67,83h15v2h-15z M115,83h13v1h-13z M20,84h7v2h-7z M50,84h2v2h-2z M88,84h16v1h-16z M116,84h12v1h-12z M27,85h16v2h-16z M44,85h4v1h-4z M52,85h11v4h-11z M67,85h1v2h-1z M69,85h13v4h-13z M88,85h15v2h-15z M117,85h11v2h-11z M12,86h2v3h-2z M18,86h1v2h-1z M21,86h1v5h-1z M23,86h1v4h-1z M25,86h2v1h-2z M63,86h1v5h-1z M68,86h1v10h-1z M11,87h1v7h-1z M19,87h2v1h-2z M24,87h2v1h-2z M27,87h1v9h-1z M29,87h17v1h-17z M88,87h14v1h-14z M118,87h10v2h-10z M8,88h1v2h-1z M14,88h3v1h-3z M26,88h1v2h-1z M29,88h14v1h-14z M46,88h2v1h-2z M50,88h2v1h-2z M88,88h6v1h-6z M97,88h5v1h-5z M13,89h1v2h-1z M16,89h5v1h-5z M22,89h1v17h-1z M24,89h2v1h-2z M28,89h2v2h-2z M42,89h2v1h-2z M47,89h1v2h-1z M49,89h2v1h-2z M52,89h1v13h-1z M58,89h5v2h-5z M64,89h2v2h-2z M80,89h2v1h-2z M97,89h1v6h-1z M16,90h2v2h-2z M19,90h2v1h-2z M25,90h1v7h-1z M42,90h1v5h-1z M45,90h1v2h-1z M57,90h1v4h-1z M66,90h2v1h-2z M80,90h1v16h-1z M6,91h1v19h-1z M18,91h2v1h-2z M23,91h2v1h-2z M26,91h1v2h-1z M29,91h1v16h-1z M33,91h3v2h-3z M56,91h1v2h-1z M58,91h3v1h-3z M67,91h1v2h-1z M1,92h2v1h-2z M8,92h1v2h-1z M13,92h1v16h-1z M16,92h1v15h-1z M19,92h3v1h-3z M37,92h4v2h-4z M46,92h2v1h-2z M49,92h3v2h-3z M55,92h1v11h-1z M60,92h7v1h-7z M69,92h1v14h-1z M79,92h1v8h-1z M123,92h5v1h-5z M2,93h1v14h-1z M12,93h1v4h-1z M17,93h1v3h-1z M20,93h2v2h-2z M24,93h1v2h-1z M35,93h1v6h-1z M58,93h5v1h-5z M65,93h2v11h-2z M72,93h1v2h-1z M74,93h2v1h-2z M125,93h2v1h-2z M0,94h2v1h-2z M19,94h1v8h-1z M26,94h1v2h-1z M33,94h2v2h-2z M38,94h3v3h-3z M49,94h1v3h-1z M58,94h1v3h-1z M60,94h5v2h-5z M67,94h1v2h-1z M73,94h1v2h-1z M76,94h2v2h-2z M123,94h1v2h-1z M11,95h1v4h-1z M37,95h1v2h-1z M41,95h1v9h-1z M59,95h1v8h-1z M127,95h1v4h-1z M20,96h1v2h-1z M42,96h1v3h-1z M45,96h3v1h-3z M50,96h2v1h-2z M56,96h1v2h-1z M61,96h2v2h-2z M77,96h1v9h-1z M126,96h1v3h-1z M8,97h1v3h-1z M17,97h2v1h-2z M26,97h2v2h-2z M33,97h2v1h-2z M36,97h1v9h-1z M38,97h1v8h-1z M40,97h1v7h-1z M43,97h2v1h-2z M46,97h2v1h-2z M63,97h2v1h-2z M67,97h2v2h-2z M72,97h2v1h-2z M75,97h1v3h-1z M93,97h1v9h-1z M104,97h1v2h-1z M123,97h1v2h-1z M7,98h1v2h-1z M12,98h1v2h-1z M17,98h1v4h-1z M25,98h1v4h-1z M43,98h1v6h-1z M62,98h2v4h-2z M76,98h1v5h-1z M88,98h1v9h-1z M97,98h1v9h-1z M124,98h2v1h-2z M20,99h2v3h-2z M23,99h2v6h-2z M27,99h2v4h-2z M33,99h1v3h-1z M44,99h2v1h-2z M49,99h1v3h-1z M51,99h1v3h-1z M56,99h3v1h-3z M72,99h1v6h-1z M74,99h1v2h-1z M1,100h1v2h-1z M10,100h1v9h-1z M26,100h1v2h-1z M46,100h2v1h-2z M57,100h1v3h-1z M124,100h4v1h-4z M11,101h2v1h-2z M18,101h1v6h-1z M44,101h2v1h-2z M50,101h1v2h-1z M53,101h2v1h-2z M64,101h1v2h-1z M67,101h2v2h-2z M123,101h1v4h-1z M42,102h1v2h-1z M54,102h1v2h-1z M124,102h1v2h-1z M126,102h1v2h-1z M8,103h1v5h-1z M19,103h3v1h-3z M25,103h3v2h-3z M33,103h1v4h-1z M0,104h1v3h-1z M7,104h1v4h-1z M21,104h1v2h-1z M17,105h1v2h-1z M19,105h2v2h-2z M25,105h2v1h-2z M28,105h1v2h-1z M66,105h3v1h-3z M114,105h2v1h-2z M125,105h3v1h-3z M26,106h2v1h-2z M34,106h2v1h-2z M67,106h2v1h-2z M11,107h2v2h-2z M104,112h2v1h-2z M0,115h2v4h-2z M3,115h7v1h-7z M12,115h1v2h-1z M16,115h1v6h-1z M29,115h1v4h-1z M46,115h4v1h-4z M52,115h5v1h-5z M58,115h2v1h-2z M70,115h1v5h-1z M79,115h2v5h-2z M82,115h3v2h-3z M96,115h1v3h-1z M99,115h1v3h-1z M2,116h4v1h-4z M7,116h5v1h-5z M13,116h1v2h-1z M15,116h1v3h-1z M17,116h1v4h-1z M19,116h5v3h-5z M25,116h4v3h-4z M52,116h2v4h-2z M58,116h1v4h-1z M60,116h1v4h-1z M62,116h1v5h-1z M65,116h3v5h-3z M71,116h5v4h-5z M81,116h1v3h-1z M85,116h2v1h-2z M88,116h4v3h-4z M93,116h3v3h-3z M97,116h2v3h-2z M100,116h4v1h-4z M125,116h3v1h-3z M2,117h3v1h-3z M7,117h2v1h-2z M18,117h1v6h-1z M24,117h1v2h-1z M51,117h1v2h-1z M54,117h1v3h-1z M59,117h1v3h-1z M61,117h1v4h-1z M63,117h2v4h-2z M68,117h2v4h-2z M78,117h1v3h-1z M82,117h2v1h-2z M86,117h2v1h-2z M92,117h1v3h-1z M100,117h2v1h-2z M55,118h1v3h-1z M57,118h1v2h-1z M76,118h2v8h-2z M100,118h1v2h-1z M21,119h3v2h-3z M25,119h3v1h-3z M93,119h2v1h-2z M97,119h1v4h-1z M101,119h1v2h-1z M113,119h1v4h-1z M120,119h2v1h-2z M72,120h4v1h-4z M93,120h1v6h-1z M114,120h1v3h-1z M0,121h2v1h-2z M19,121h4v1h-4z M69,121h1v4h-1z M72,121h1v5h-1z M74,121h2v2h-2z M80,121h1v2h-1z M88,121h1v2h-1z M99,121h1v2h-1z M119,121h1v2h-1z M2,122h5v1h-5z M70,122h2v1h-2z M78,122h2v1h-2z M89,122h4v1h-4z M100,122h3v1h-3z M75,123h1v3h-1z M101,123h1v3h-1z M103,123h2v1h-2z M70,124h2v2h-2z M73,124h2v1h-2z M78,124h8v1h-8z M88,124h5v2h-5z M96,124h5v1h-5z M116,124h3v1h-3z M78,125h6v1h-6z M97,125h4v1h-4z M103,126h2v1h-2z M73,127h8v1h-8z M88,127h6v1h-6z M97,127h7v1h-7z" /><path fill="#34396F" d="M109,9h1v1h-1z M113,40h1v1h-1z M6,47h1v1h-1z M23,47h1v1h-1z M19,48h1v1h-1z M109,52h1v1h-1z M109,69h1v1h-1z M13,72h1v1h-1z M106,79h1v1h-1z M113,79h1v1h-1z M112,80h1v1h-1z M85,82h1v1h-1z M11,83h1v1h-1z M64,85h1v1h-1z M66,85h1v1h-1z M11,86h1v1h-1z M51,87h1v1h-1z M64,87h1v1h-1z M82,88h1v1h-1z M46,89h1v1h-1z M116,89h1v1h-1z M12,90h1v1h-1z M43,90h1v1h-1z M46,91h1v1h-1z M0,92h1v1h-1z M7,92h1v1h-1z M1,93h1v1h-1z M33,93h1v1h-1z M73,93h1v1h-1z M105,93h1v1h-1z M114,93h1v1h-1z M45,94h1v1h-1z M8,96h1v1h-1z M28,96h1v1h-1z M33,96h1v1h-1z M44,96h1v1h-1z M73,96h1v1h-1z M93,96h1v1h-1z M96,96h1v1h-1z M105,96h1v1h-1z M114,96h1v1h-1z M123,96h1v1h-1z M12,97h1v1h-1z M88,97h1v1h-1z M124,97h1v1h-1z M33,98h1v1h-1z M50,98h1v1h-1z M74,98h1v1h-1z M115,98h1v1h-1z M96,99h1v1h-1z M116,99h1v1h-1z M125,99h1v1h-1z M8,100h1v1h-1z M75,100h1v1h-1z M35,101h1v1h-1z M117,101h1v1h-1z M1,102h1v1h-1z M33,102h1v1h-1z M127,102h1v1h-1z M74,103h1v1h-1z M11,104h1v1h-1z M124,104h1v1h-1z M34,105h1v1h-1z M70,105h1v1h-1z M122,105h1v1h-1z M11,106h1v1h-1z M96,107h1v1h-1z M127,107h1v1h-1z M5,108h1v1h-1z M77,111h1v1h-1z M64,112h1v1h-1z M78,112h1v1h-1z M94,112h1v1h-1z M114,112h1v1h-1z M127,114h1v1h-1z M75,115h1v1h-1z M113,115h1v1h-1z M77,117h1v1h-1z M116,119h1v1h-1z M0,120h1v1h-1z M118,121h1v1h-1z M120,121h1v1h-1z M103,122h1v1h-1z M117,122h1v1h-1z M74,123h1v1h-1z M102,123h1v1h-1z M119,123h1v1h-1z M125,123h1v1h-1z M95,124h1v1h-1z M74,125h1v1h-1z M103,125h1v1h-1z M116,125h1v1h-1z M75,126h1v1h-1z M83,126h1v1h-1z M95,126h1v1h-1z M107,126h1v1h-1z M81,127h1v1h-1z M111,127h1v1h-1z M109,11h2v1h-2z M109,14h2v1h-2z M109,19h2v1h-2z M109,25h2v1h-2z M99,30h3v8h-3z M98,31h1v7h-1z M102,31h2v6h-2z M93,32h5v5h-5z M104,32h3v3h-3z M92,33h1v4h-1z M113,33h1v2h-1z M91,34h1v2h-1z M108,34h1v3h-1z M114,34h10v1h-10z M104,35h2v2h-2z M109,35h4v1h-4z M114,35h3v1h-3z M109,36h3v1h-3z M19,41h4v7h-4z M18,42h1v7h-1z M23,42h3v5h-3z M17,43h1v6h-1z M26,43h3v4h-3z M16,44h1v5h-1z M29,44h6v3h-6z M107,44h6v1h-6z M8,45h8v4h-8z M35,45h6v2h-6z M105,45h2v1h-2z M113,45h2v1h-2z M7,46h1v3h-1z M41,46h4v1h-4z M109,48h3v1h-3z M0,77h7v5h-7z M9,77h1v32h-1z M14,77h92v2h-92z M114,77h14v2h-14z M14,79h32v3h-32z M54,79h51v1h-51z M115,79h13v3h-13z M48,80h1v22h-1z M53,80h30v1h-30z M87,80h18v1h-18z M53,81h29v1h-29z M88,81h17v1h-17z M49,86h2v1h-2z M65,86h1v3h-1z M66,87h2v1h-2z M43,88h3v1h-3z M0,89h7v2h-7z M14,89h2v19h-2z M30,89h4v2h-4z M39,89h3v2h-3z M44,89h1v2h-1z M53,89h5v1h-5z M66,89h2v1h-2z M69,89h11v3h-11z M88,89h6v7h-6z M98,89h3v12h-3z M119,89h9v2h-9z M8,90h1v2h-1z M53,90h4v1h-4z M1,91h5v1h-5z M30,91h3v16h-3z M36,91h1v6h-1z M40,91h2v1h-2z M53,91h3v1h-3z M119,91h8v1h-8z M3,92h3v16h-3z M41,92h1v3h-1z M43,92h3v1h-3z M53,92h2v9h-2z M70,92h3v1h-3z M75,92h4v1h-4z M101,92h1v7h-1z M106,92h2v2h-2z M113,92h1v2h-1z M118,92h5v7h-5z M44,93h1v2h-1z M47,93h1v2h-1z M70,93h2v12h-2z M78,93h1v13h-1z M102,93h1v4h-1z M108,93h5v1h-5z M117,93h1v4h-1z M123,93h2v1h-2z M7,94h2v1h-2z M43,94h1v3h-1z M74,94h2v1h-2z M125,94h3v1h-3z M1,95h1v4h-1z M83,95h1v2h-1z M97,95h1v3h-1z M104,95h12v1h-12z M124,95h2v1h-2z M75,96h2v1h-2z M88,96h3v1h-3z M125,96h1v2h-1z M44,98h2v1h-2z M0,99h1v5h-1z M34,99h2v1h-2z M73,99h1v2h-1z M119,99h5v2h-5z M44,100h2v1h-2z M79,100h1v6h-1z M98,101h2v2h-2z M112,101h1v4h-1z M120,101h3v2h-3z M125,101h2v1h-2z M45,102h1v2h-1z M73,102h3v1h-3z M125,102h1v2h-1z M11,103h2v1h-2z M34,103h2v1h-2z M57,103h2v1h-2z M98,103h1v2h-1z M121,103h2v2h-2z M35,104h1v2h-1z M116,104h1v3h-1z M12,105h1v2h-1z M95,105h2v1h-2z M117,105h1v2h-1z M125,106h2v1h-2z M113,110h1v3h-1z M0,112h7v1h-7z M8,112h6v1h-6z M15,112h3v1h-3z M19,112h4v1h-4z M26,112h4v1h-4z M31,112h32v1h-32z M66,112h2v1h-2z M69,112h8v1h-8z M80,112h6v1h-6z M88,112h5v1h-5z M96,112h8v1h-8z M106,112h7v1h-7z M116,112h9v1h-9z M126,112h2v1h-2z M0,114h14v1h-14z M15,114h3v1h-3z M19,114h4v1h-4z M26,114h4v1h-4z M31,114h29v1h-29z M61,114h2v1h-2z M64,114h4v1h-4z M69,114h8v1h-8z M79,114h7v1h-7z M88,114h5v1h-5z M94,114h10v1h-10z M107,114h8v1h-8z M116,114h10v1h-10z M6,116h1v6h-1z M5,117h1v5h-1z M9,117h4v3h-4z M3,118h2v4h-2z M7,118h2v3h-2z M13,118h2v2h-2z M96,118h1v2h-1z M126,118h2v1h-2z M2,119h1v3h-1z M15,119h1v2h-1z M20,119h1v2h-1z M88,119h1v2h-1z M98,119h1v3h-1z M122,119h1v3h-1z M124,119h2v1h-2z M127,119h1v2h-1z M9,120h3v1h-3z M70,120h2v2h-2z M78,120h3v1h-3z M121,120h1v2h-1z M123,120h1v3h-1z M125,120h2v3h-2z M78,121h2v1h-2z M100,121h2v1h-2z M0,122h2v1h-2z M73,122h1v2h-1z M82,122h6v1h-6z M94,122h3v1h-3z M112,122h1v2h-1z M70,123h2v1h-2z M78,123h4v1h-4z M88,123h5v1h-5z M97,123h4v1h-4z M105,123h7v1h-7z M113,123h4v1h-4z M86,124h2v1h-2z M104,124h1v2h-1z M105,125h2v2h-2z M108,125h6v1h-6z M77,126h5v1h-5z M88,126h6v1h-6z M97,126h6v1h-6z" /><path fill="#F0F9FA" d="M108,33h1v1h-1z M111,33h1v1h-1z M11,76h1v1h-1z M63,85h1v1h-1z M65,85h1v1h-1z M95,89h1v1h-1z M94,93h1v1h-1z M96,93h1v1h-1z M94,95h1v1h-1z M94,97h1v1h-1z M95,98h1v1h-1z M109,12h2v2h-2z M109,15h2v4h-2z M109,20h2v5h-2z M109,26h2v1h-2z M9,74h1v3h-1z M84,80h2v1h-2z M94,88h1v4h-1z M96,88h1v3h-1z M94,99h1v3h-1z M94,103h1v3h-1z" /><path fill="#F732C0" d="M108,26h1v1h-1z M111,26h1v1h-1z M108,31h1v1h-1z M111,31h1v1h-1z M106,36h1v1h-1z M113,36h1v1h-1z M109,73h1v1h-1z M106,74h1v1h-1z M110,78h1v1h-1z M107,80h1v1h-1z M119,104h1v1h-1z M121,105h1v1h-1z M99,118h1v1h-1z M104,122h1v1h-1z M108,47h4v1h-4z M106,48h2v1h-2z M112,48h2v1h-2z M106,49h1v3h-1z M113,49h1v4h-1z M108,50h1v32h-1z M111,50h1v32h-1z M106,61h1v3h-1z M109,61h2v1h-2z M113,65h1v3h-1z M106,68h1v4h-1z M113,72h1v2h-1z M106,76h1v3h-1z M113,76h1v3h-1z M109,81h2v1h-2z M106,82h2v1h-2z M103,95h1v2h-1z M116,95h1v2h-1z M106,96h8v1h-8z M102,97h1v2h-1z M105,97h2v2h-2z M113,97h2v3h-2z M117,97h1v2h-1z M107,98h6v1h-6z M101,99h1v2h-1z M104,99h2v1h-2z M107,99h1v10h-1z M110,99h3v1h-3z M115,99h1v2h-1z M118,99h1v2h-1z M104,100h1v2h-1z M110,100h2v3h-2z M116,100h1v4h-1z M100,101h1v2h-1z M103,101h1v3h-1z M119,101h1v2h-1z M117,102h1v2h-1z M99,103h1v3h-1z M102,103h1v3h-1z M110,103h1v2h-1z M118,103h1v2h-1z M120,103h1v2h-1z M98,105h1v2h-1z M101,105h1v3h-1z M107,117h1v5h-1z M101,118h2v1h-2z M102,119h1v2h-1z M103,120h1v2h-1z M111,120h1v3h-1z M116,120h3v1h-3z M116,121h2v1h-2z M115,122h2v1h-2z M113,124h3v1h-3z" /><path fill="#EF936A" d="M109,31h1v1h-1z M109,51h1v1h-1z M110,55h1v1h-1z M109,57h1v1h-1z M110,58h1v1h-1z M50,83h1v1h-1z M20,86h1v1h-1z M83,89h1v1h-1z M24,90h1v1h-1z M20,91h1v1h-1z M47,91h1v1h-1z M104,92h1v1h-1z M26,93h1v1h-1z M46,93h1v1h-1z M63,93h1v1h-1z M28,94h1v1h-1z M24,95h1v1h-1z M76,97h1v1h-1z M23,98h1v1h-1z M49,98h1v1h-1z M51,98h1v1h-1z M64,98h1v1h-1z M126,99h1v1h-1z M35,100h1v1h-1z M50,100h1v1h-1z M67,100h1v1h-1z M20,102h1v1h-1z M26,102h1v1h-1z M44,103h1v1h-1z M67,103h1v1h-1z M28,104h1v1h-1z M115,104h1v1h-1z M1,106h1v1h-1z M113,106h1v1h-1z M125,107h1v1h-1z M48,109h1v1h-1z M105,109h1v1h-1z M107,109h1v1h-1z M109,109h1v1h-1z M121,109h1v1h-1z M123,109h1v1h-1z M50,110h1v1h-1z M57,110h1v1h-1z M76,110h1v1h-1z M114,110h1v1h-1z M118,110h1v1h-1z M122,110h1v1h-1z M30,111h1v1h-1z M112,115h1v1h-1z M115,115h1v1h-1z M118,115h1v1h-1z M120,115h1v1h-1z M50,116h1v1h-1z M76,116h1v1h-1z M116,116h1v1h-1z M119,116h1v1h-1z M110,117h1v1h-1z M114,117h1v1h-1z M125,117h1v1h-1z M124,118h1v1h-1z M114,119h1v1h-1z M73,126h1v1h-1z M106,43h8v1h-8z M104,44h3v1h-3z M113,44h3v1h-3z M109,68h2v1h-2z M46,79h4v1h-4z M105,87h3v1h-3z M112,87h3v1h-3z M104,89h3v1h-3z M113,89h3v1h-3z M109,106h3v2h-3z M108,107h1v3h-1z M115,107h1v2h-1z M111,108h4v1h-4z M116,109h1v2h-1z M110,110h2v1h-2z M109,116h1v2h-1z M113,116h2v1h-2z M121,116h3v1h-3z" /><path fill="#CF89AC" d="M110,31h1v1h-1z M109,32h1v1h-1z M109,60h1v1h-1z M109,64h1v1h-1z M109,67h1v1h-1z M109,72h1v1h-1z M66,83h1v1h-1z M68,85h1v1h-1z M34,90h1v1h-1z M127,91h1v1h-1z M100,107h1v1h-1z M104,117h1v1h-1z M119,119h1v1h-1z M105,124h1v1h-1z M34,89h2v1h-2z" /><path fill="#9B6D97" d="M108,32h1v1h-1z M111,32h1v1h-1z M105,48h1v1h-1z M110,59h1v1h-1z M110,72h1v1h-1z M117,104h1v1h-1z M85,81h2v1h-2z M111,124h2v1h-2z" /><path fill="#FAB39C" d="M109,33h1v1h-1z M110,50h1v1h-1z M109,62h1v1h-1z M110,64h1v1h-1z M10,76h1v1h-1z M12,76h1v1h-1z M83,80h1v1h-1z M86,80h1v1h-1z M109,80h1v1h-1z M26,87h1v1h-1z M104,87h1v1h-1z M115,87h1v1h-1z M35,90h1v1h-1z M115,92h1v1h-1z M34,93h1v1h-1z M106,99h1v1h-1z M109,101h1v1h-1z M63,103h1v1h-1z M115,103h1v1h-1z M118,106h1v1h-1z M120,110h1v1h-1z M111,111h1v1h-1z M108,116h1v1h-1z M110,116h1v1h-1z M115,116h1v1h-1z M102,117h1v1h-1z M113,117h1v1h-1z M103,119h1v1h-1z M118,119h1v1h-1z M115,120h1v1h-1z M110,32h1v2h-1z M107,45h1v2h-1z M109,45h2v2h-2z M112,45h1v2h-1z M109,54h1v2h-1z M109,58h1v2h-1z M109,66h2v1h-2z M109,71h2v1h-2z M8,72h5v2h-5z M8,74h1v3h-1z M10,74h3v2h-3z M109,74h2v1h-2z M86,82h2v26h-2z M21,83h6v1h-6z M36,89h3v1h-3z M37,90h2v1h-2z M91,96h2v1h-2z M108,100h2v1h-2z M109,103h1v3h-1z M118,105h2v1h-2z M113,107h2v1h-2z M109,108h2v1h-2z M116,108h3v1h-3z M110,109h2v1h-2z M107,115h1v2h-1z M110,115h2v1h-2z M105,116h1v7h-1z M86,118h2v4h-2z M104,118h1v2h-1z M106,118h1v3h-1z M109,118h3v1h-3z M118,118h6v1h-6z M109,119h1v3h-1z M110,120h1v3h-1z M106,122h2v1h-2z M86,123h2v1h-2z M106,124h5v1h-5z M86,125h2v3h-2z" /><path fill="#6C496A" d="M112,36h1v1h-1z M103,44h1v1h-1z M116,44h1v1h-1z M107,47h1v1h-1z M112,47h1v1h-1z M109,50h1v1h-1z M110,54h1v1h-1z M109,56h1v1h-1z M109,63h1v1h-1z M109,75h1v1h-1z M87,81h1v1h-1z M12,83h1v1h-1z M18,88h1v1h-1z M83,88h1v1h-1z M103,89h1v1h-1z M23,90h1v1h-1z M83,91h1v1h-1z M117,91h1v1h-1z M23,93h1v1h-1z M56,93h1v1h-1z M58,97h1v1h-1z M83,97h1v1h-1z M103,97h1v1h-1z M115,97h1v1h-1z M39,98h1v1h-1z M56,98h1v1h-1z M68,99h1v1h-1z M102,99h1v1h-1z M91,101h1v1h-1z M101,101h1v1h-1z M115,101h1v1h-1z M90,102h1v1h-1z M28,103h1v1h-1z M68,103h1v1h-1z M100,103h1v1h-1z M20,104h1v1h-1z M64,104h1v1h-1z M127,104h1v1h-1z M106,108h1v1h-1z M48,110h1v1h-1z M63,111h1v1h-1z M68,111h1v1h-1z M73,111h1v1h-1z M93,111h1v1h-1z M105,114h1v1h-1z M18,115h1v1h-1z M63,115h1v1h-1z M68,115h1v1h-1z M73,115h1v1h-1z M117,119h1v1h-1z M19,120h1v1h-1z M119,120h1v1h-1z M8,121h1v1h-1z M68,121h1v1h-1z M106,121h1v1h-1z M67,123h1v1h-1z M103,124h1v1h-1z M107,125h1v1h-1z M74,126h1v1h-1z M83,127h1v1h-1z M107,35h1v2h-1z M106,42h8v1h-8z M104,43h2v1h-2z M114,43h2v1h-2z M109,65h2v1h-2z M83,81h2v4h-2z M112,82h2v1h-2z M85,83h1v11h-1z M84,85h1v4h-1z M82,86h2v2h-2z M82,89h1v2h-1z M81,90h1v17h-1z M83,90h2v1h-2z M104,91h12v1h-12z M84,92h1v11h-1z M82,93h2v2h-2z M85,95h1v5h-1z M82,96h1v6h-1z M89,97h4v3h-4z M83,99h1v3h-1z M89,100h1v7h-1z M92,100h1v6h-1z M85,101h1v7h-1z M83,103h1v5h-1z M91,103h1v3h-1z M111,103h1v2h-1z M82,104h1v4h-1z M84,104h1v6h-1z M90,104h1v3h-1z M118,107h6v1h-6z M77,115h1v2h-1z M106,116h1v2h-1z M84,117h1v5h-1z M118,117h6v1h-6z M82,118h2v4h-2z M85,118h1v4h-1z M116,118h2v1h-2z M81,119h1v3h-1z M89,119h2v3h-2z M110,119h3v1h-3z M91,120h2v2h-2z M99,120h2v1h-2z M112,120h1v2h-1z M83,123h3v1h-3z M84,125h2v3h-2z M82,126h1v2h-1z M108,126h5v1h-5z M104,127h7v1h-7z" /><path fill="#D16B57" d="M110,51h1v1h-1z M109,76h1v1h-1z M8,85h1v1h-1z M11,85h1v1h-1z M51,86h1v1h-1z M8,87h1v1h-1z M102,88h1v1h-1z M51,89h1v1h-1z M18,90h1v1h-1z M7,91h1v1h-1z M28,91h1v1h-1z M12,92h1v1h-1z M24,92h1v1h-1z M73,92h1v1h-1z M64,93h1v1h-1z M37,94h1v1h-1z M20,95h1v1h-1z M7,96h1v1h-1z M23,96h1v1h-1z M27,96h1v1h-1z M34,96h1v1h-1z M37,97h1v1h-1z M51,97h1v1h-1z M124,99h1v1h-1z M127,99h1v1h-1z M7,100h1v1h-1z M12,100h1v1h-1z M64,100h1v1h-1z M90,100h1v1h-1z M37,101h1v1h-1z M74,101h1v1h-1z M7,102h1v1h-1z M12,102h1v1h-1z M19,102h1v1h-1z M21,102h1v1h-1z M25,102h1v1h-1z M37,103h1v1h-1z M39,103h1v1h-1z M64,103h1v1h-1z M82,103h1v1h-1z M84,103h1v1h-1z M90,103h1v1h-1z M19,104h1v1h-1z M67,104h1v1h-1z M114,104h1v1h-1z M11,105h1v1h-1z M120,109h1v1h-1z M124,109h1v1h-1z M56,110h1v1h-1z M61,110h1v1h-1z M63,110h1v1h-1z M115,110h1v1h-1z M119,110h1v1h-1z M121,110h1v1h-1z M11,111h1v1h-1z M21,111h1v1h-1z M25,111h1v1h-1z M27,111h1v1h-1z M31,111h1v1h-1z M33,111h1v1h-1z M35,111h1v1h-1z M41,111h1v1h-1z M57,111h1v1h-1z M62,111h1v1h-1z M65,111h1v1h-1z M67,111h1v1h-1z M69,111h1v1h-1z M74,111h1v1h-1z M86,111h1v1h-1z M92,111h1v1h-1z M94,111h1v1h-1z M103,111h1v1h-1z M105,111h1v1h-1z M125,111h1v1h-1z M11,115h1v1h-1z M28,115h1v1h-1z M33,115h1v1h-1z M35,115h1v1h-1z M41,115h1v1h-1z M92,115h1v1h-1z M94,115h1v1h-1z M109,115h1v1h-1z M116,115h1v1h-1z M119,115h1v1h-1z M121,115h1v1h-1z M18,116h1v1h-1z M51,116h1v1h-1z M57,116h1v1h-1z M61,116h1v1h-1z M64,116h1v1h-1z M68,116h1v1h-1z M120,116h1v1h-1z M126,117h1v1h-1z M1,120h1v1h-1z M124,121h1v1h-1z M127,121h1v1h-1z M67,122h1v1h-1z M82,123h1v1h-1z M76,126h1v1h-1z M109,40h2v1h-2z M12,79h1v2h-1z M50,79h4v1h-4z M108,87h4v1h-4z M107,89h6v2h-6z M104,90h3v1h-3z M113,90h3v1h-3z M125,104h2v1h-2z M112,106h1v2h-1z M114,106h2v1h-2z M119,108h8v1h-8z M106,109h1v2h-1z M112,109h1v2h-1z M51,110h1v2h-1z M14,111h2v1h-2z M37,111h3v1h-3z M44,111h2v1h-2z M47,111h4v1h-4z M89,111h2v1h-2z M97,111h2v1h-2z M37,115h3v1h-3z M44,115h2v1h-2z M103,115h2v1h-2z M111,116h2v2h-2z M124,116h1v2h-1z M48,117h2v1h-2z M115,117h1v2h-1z M112,118h3v1h-3z" /><path fill="#3B111D" d="M110,76h1v1h-1z M66,88h1v1h-1z M116,91h1v1h-1z M35,110h1v1h-1z M32,111h1v1h-1z M36,111h1v1h-1z M36,115h1v1h-1z M35,116h1v1h-1z M114,41h2v1h-2z" /><path fill="#FCDDA1" d="M103,92h1v1h-1z M116,92h1v1h-1z M106,100h1v1h-1z M109,102h1v1h-1z M102,108h1v1h-1z M122,109h1v1h-1z M107,110h1v1h-1z M112,111h1v1h-1z M114,111h1v1h-1z M114,115h1v1h-1z M103,118h1v1h-1z M109,122h1v1h-1z M108,45h1v2h-1z M111,45h1v2h-1z M105,46h2v2h-2z M113,46h2v2h-2z M102,90h2v1h-2z M116,90h2v1h-2z M108,99h2v1h-2z M108,101h1v6h-1z M104,102h1v2h-1z M119,106h6v1h-6z M113,109h3v1h-3z M117,109h3v1h-3z M117,116h2v1h-2z M108,117h1v6h-1z M104,120h1v2h-1z" /><path fill="#FF9ED1" d="M106,75h1v1h-1z M106,52h1v9h-1z M113,53h1v12h-1z M106,64h1v4h-1z M113,68h1v4h-1z M106,72h1v2h-1z M113,74h1v2h-1z M107,97h6v1h-6z" /><path fill="#E24353" d="M110,60h1v1h-1z M10,80h1v1h-1z M21,91h1v1h-1z M74,92h1v1h-1z M124,96h1v1h-1z M124,101h1v1h-1z M127,101h1v1h-1z M34,102h1v1h-1z M34,104h1v1h-1z M24,110h1v1h-1z M104,110h1v1h-1z M19,111h1v1h-1z M110,111h1v1h-1z M108,115h1v1h-1z M24,116h1v1h-1z" /><path fill="#985A5C" d="M109,70h1v1h-1z M110,73h1v1h-1z M109,77h1v1h-1z M20,83h1v1h-1z M19,86h1v1h-1z M22,86h1v1h-1z M24,86h1v1h-1z M17,88h1v1h-1z M22,88h1v1h-1z M28,88h1v1h-1z M117,88h1v1h-1z M84,89h1v1h-1z M26,90h1v1h-1z M23,92h1v1h-1z M19,93h1v1h-1z M67,93h1v1h-1z M127,93h1v1h-1z M11,94h1v1h-1z M18,94h1v1h-1z M57,94h1v1h-1z M59,94h1v1h-1z M85,94h1v1h-1z M23,95h1v1h-1z M56,95h1v1h-1z M82,95h1v1h-1z M26,96h1v1h-1z M57,96h1v1h-1z M60,96h1v1h-1z M7,97h1v1h-1z M39,97h1v1h-1z M18,98h1v1h-1z M24,98h1v1h-1z M28,98h1v1h-1z M58,98h1v1h-1z M83,98h1v1h-1z M26,99h1v1h-1z M37,99h1v1h-1z M39,99h1v1h-1z M42,99h1v1h-1z M60,99h1v1h-1z M67,99h1v1h-1z M18,100h1v1h-1z M56,100h1v1h-1z M68,100h1v1h-1z M85,100h1v1h-1z M91,100h1v1h-1z M39,101h1v1h-1z M42,101h1v1h-1z M60,101h1v1h-1z M90,101h1v1h-1z M91,102h1v1h-1z M1,104h1v1h-1z M17,104h1v1h-1z M45,104h1v1h-1z M68,104h1v1h-1z M28,107h1v1h-1z M124,107h1v1h-1z M85,108h1v1h-1z M54,110h1v1h-1z M77,110h1v1h-1z M117,110h1v1h-1z M13,111h1v1h-1z M18,111h1v1h-1z M34,111h1v1h-1z M60,111h1v1h-1z M64,111h1v1h-1z M75,111h1v1h-1z M78,111h1v1h-1z M87,111h1v1h-1z M19,115h1v1h-1z M21,115h1v1h-1z M27,115h1v1h-1z M34,115h1v1h-1z M51,115h1v1h-1z M57,115h1v1h-1z M60,115h1v1h-1z M62,115h1v1h-1z M67,115h1v1h-1z M69,115h1v1h-1z M74,115h1v1h-1z M78,115h1v1h-1z M93,115h1v1h-1z M106,115h1v1h-1z M117,115h1v1h-1z M122,115h1v1h-1z M125,115h1v1h-1z M63,116h1v1h-1z M87,116h1v1h-1z M55,117h1v1h-1z M85,117h1v1h-1z M1,119h1v1h-1z M17,120h1v1h-1z M7,121h1v1h-1z M67,121h1v1h-1z M124,122h1v1h-1z M19,88h2v1h-2z M24,88h2v1h-2z M17,92h2v1h-2z M82,92h2v1h-2z M17,96h2v1h-2z M63,96h2v1h-2z M67,96h2v1h-2z M20,98h2v1h-2z M58,100h1v2h-1z M56,102h1v2h-1z M82,102h2v1h-2z M116,107h2v1h-2z M49,109h1v2h-1z M55,109h1v2h-1z M23,111h2v1h-2z M13,115h3v1h-3z M23,115h3v1h-3z M30,115h2v1h-2z M64,115h2v1h-2z M86,115h2v1h-2z M89,115h2v1h-2z M97,115h2v1h-2z M47,116h3v1h-3z M54,116h3v1h-3z M116,117h2v1h-2z M68,122h1v2h-1z" /><path fill="#CF193F" d="M49,108h1v1h-1z M56,108h1v1h-1z M50,109h1v1h-1z M57,109h1v1h-1z M14,110h1v1h-1z M18,110h1v1h-1z M30,110h1v1h-1z M37,110h1v1h-1z M41,110h1v1h-1z M47,110h1v1h-1z M59,110h1v1h-1z M64,110h1v1h-1z M68,110h1v1h-1z M78,110h1v1h-1z M87,110h1v1h-1z M92,110h1v1h-1z M97,110h1v1h-1z M125,110h1v1h-1z M2,111h1v1h-1z M7,111h1v1h-1z M10,111h1v1h-1z M17,111h1v1h-1z M22,111h1v1h-1z M28,111h1v1h-1z M71,111h1v1h-1z M81,111h1v1h-1z M85,111h1v1h-1z M95,111h1v1h-1z M100,111h1v1h-1z M102,111h1v1h-1z M119,111h1v1h-1z M127,111h1v1h-1z M10,115h1v1h-1z M22,115h1v1h-1z M71,115h1v1h-1z M81,115h1v1h-1z M95,115h1v1h-1z M102,115h1v1h-1z M14,116h1v1h-1z M30,116h1v1h-1z M37,116h1v1h-1z M41,116h1v1h-1z M59,116h1v1h-1z M78,116h1v1h-1z M92,116h1v1h-1z M50,117h1v1h-1z M57,117h1v1h-1z M49,118h1v1h-1z M56,118h1v1h-1z M18,82h11v1h-11z M107,111h2v1h-2z" /><path fill="#7D93BC" d="M95,88h1v1h-1z M94,92h1v1h-1z M96,92h1v1h-1z M94,94h1v1h-1z M94,96h1v1h-1z M94,98h1v1h-1z M95,99h1v1h-1z M96,100h1v1h-1z M94,102h1v1h-1z M96,102h1v1h-1z M95,104h1v1h-1z M95,120h1v1h-1z M96,126h1v1h-1z M95,93h1v2h-1z M95,101h1v2h-1z M95,123h2v1h-2z M95,125h2v1h-2z" /><path fill="#DFCEBE" d="M36,90h1v1h-1z" /><path fill="#B6C9E6" d="M95,90h1v1h-1z M96,91h1v1h-1z M95,92h1v1h-1z M95,96h1v1h-1z M95,100h1v1h-1z M96,103h1v1h-1z M95,119h1v1h-1z M94,123h1v1h-1z M96,97h1v2h-1z M94,120h1v2h-1z M95,121h2v1h-2z M94,125h1v3h-1z" /><path fill="#6576A3" d="M0,91h1v1h-1z M95,91h1v1h-1z M95,95h1v1h-1z M95,97h1v1h-1z M96,101h1v1h-1z M95,103h1v1h-1z M96,104h1v1h-1z M95,106h1v1h-1z M96,120h1v1h-1z M96,94h1v2h-1z M95,127h2v1h-2z" /><path fill="#C26736" d="M102,91h1v1h-1z M108,110h2v1h-2z" /><path fill="#AA2535" d="M56,109h1v1h-1z M34,110h1v1h-1z M2,115h1v1h-1z M17,115h1v1h-1z M85,115h1v1h-1z M100,115h1v1h-1z M127,115h1v1h-1z M34,116h1v1h-1z" /><path fill="#C5A087" d="M56,117h1v1h-1z" /></svg>