<svg xmlns="http://www.w3.org/2000/svg" version="1.1" width="128" height="128" shape-rendering="crispEdges"><path fill="#5B96B3" d="M0,0h128v22h-128z M0,22h96v1h-96z M99,22h29v1h-29z M0,23h95v1h-95z M100,23h28v1h-28z M0,24h94v1h-94z M101,24h27v1h-27z M0,25h93v1h-93z M102,25h26v1h-26z M0,26h92v1h-92z M103,26h25v1h-25z M0,27h91v1h-91z M104,27h24v1h-24z M0,28h49v1h-49z M57,28h19v1h-19z M84,28h6v1h-6z M105,28h23v1h-23z M0,29h13v1h-13z M22,29h25v1h-25z M58,29h17v1h-17z M106,29h16v1h-16z M0,30h8v1h-8z M29,30h17v1h-17z M59,30h15v1h-15z M110,30h8v1h-8z M0,31h7v1h-7z M32,31h3v1h-3z M60,31h5v1h-5z M0,32h3v1h-3z" /><path fill="#895644" d="M89,29h1v1h-1z M86,32h1v1h-1z M89,32h1v1h-1z M92,33h1v1h-1z M83,37h1v1h-1z M80,38h1v1h-1z M96,22h1v2h-1z M95,23h1v3h-1z M94,24h1v2h-1z M93,25h1v2h-1z M92,26h1v3h-1z M91,27h1v8h-1z M90,28h1v2h-1z M93,28h2v1h-2z M88,30h1v6h-1z M92,30h2v2h-2z M87,31h1v2h-1z M89,31h2v1h-2z M85,33h1v4h-1z M90,33h1v3h-1z M86,34h2v3h-2z M89,34h1v2h-1z M83,35h2v2h-2z M82,36h1v3h-1z M81,37h1v2h-1z" /><path fill="#FFFEBF" d="M94,31h1v1h-1z M107,31h1v1h-1z M109,33h1v1h-1z M94,35h1v1h-1z M114,37h1v1h-1z M116,41h1v1h-1z M117,42h1v1h-1z M118,43h1v1h-1z M120,45h1v1h-1z M122,47h1v1h-1z M125,50h1v1h-1z M126,51h1v1h-1z M102,72h1v1h-1z M93,75h1v1h-1z M95,76h1v1h-1z M112,82h1v1h-1z M115,85h1v1h-1z M97,22h2v1h-2z M99,23h1v3h-1z M96,24h3v1h-3z M100,24h1v2h-1z M97,25h1v2h-1z M101,25h1v2h-1z M95,26h2v1h-2z M102,26h1v2h-1z M95,28h5v1h-5z M103,28h2v1h-2z M94,30h2v1h-2z M97,30h10v1h-10z M98,31h8v1h-8z M93,32h1v4h-1z M96,32h2v3h-2z M108,32h1v2h-1z M94,33h2v2h-2z M98,33h5v1h-5z M104,33h4v1h-4z M101,34h2v1h-2z M105,34h2v1h-2z M110,34h1v2h-1z M97,35h5v1h-5z M106,35h1v2h-1z M108,35h2v1h-2z M97,36h3v1h-3z M101,36h5v1h-5z M107,36h2v2h-2z M109,37h3v1h-3z M94,66h3v1h-3z M94,67h2v1h-2z M56,78h2v1h-2z" /><path fill="#FCE199" d="M97,23h1v1h-1z M101,27h1v1h-1z M112,37h1v1h-1z M109,53h1v1h-1z M55,78h1v1h-1z M98,83h1v1h-1z M96,27h3v1h-3z M95,29h7v1h-7z" /><path fill="#F7AA5E" d="M98,23h1v1h-1z M102,29h1v1h-1z M104,29h1v1h-1z M97,31h1v1h-1z M94,32h1v1h-1z M107,32h1v1h-1z M96,36h1v1h-1z M91,39h1v1h-1z M104,42h1v1h-1z M110,42h1v1h-1z M95,46h1v1h-1z M118,46h1v1h-1z M120,46h1v1h-1z M101,49h1v1h-1z M121,49h1v1h-1z M123,49h1v1h-1z M109,52h1v1h-1z M126,52h1v1h-1z M86,53h1v1h-1z M89,53h1v1h-1z M106,53h1v1h-1z M108,53h1v1h-1z M110,53h1v1h-1z M117,53h1v1h-1z M123,53h1v1h-1z M127,53h1v1h-1z M119,57h1v1h-1z M83,61h1v1h-1z M86,61h1v1h-1z M91,61h1v1h-1z M110,63h1v1h-1z M87,65h1v1h-1z M103,65h1v1h-1z M106,65h1v1h-1z M110,65h1v1h-1z M115,65h1v1h-1z M96,67h1v1h-1z M98,67h1v1h-1z M120,68h1v1h-1z M88,69h1v1h-1z M115,69h1v1h-1z M94,73h1v1h-1z M79,74h1v1h-1z M81,74h1v1h-1z M47,76h1v1h-1z M82,76h1v1h-1z M96,76h1v1h-1z M49,77h1v1h-1z M55,77h1v1h-1z M76,77h1v1h-1z M92,77h1v1h-1z M100,77h1v1h-1z M102,77h1v1h-1z M106,77h1v1h-1z M79,78h1v1h-1z M113,78h1v1h-1z M117,78h1v1h-1z M119,78h1v1h-1z M121,78h1v1h-1z M0,79h1v1h-1z M49,79h1v1h-1z M109,80h1v1h-1z M110,81h1v1h-1z M56,82h1v1h-1z M54,83h1v1h-1z M74,83h1v1h-1z M114,85h1v1h-1z M89,86h1v1h-1z M115,86h1v1h-1z M25,87h1v1h-1z M7,88h1v1h-1z M15,88h1v1h-1z M117,90h1v1h-1z M57,98h1v1h-1z M127,105h1v1h-1z M0,106h1v1h-1z M25,108h1v1h-1z M39,114h1v1h-1z M45,114h1v1h-1z M51,114h1v1h-1z M26,115h1v1h-1z M23,117h1v1h-1z M69,121h1v1h-1z M98,25h1v2h-1z M99,26h2v2h-2z M100,28h2v1h-2z M96,30h1v2h-1z M95,31h1v2h-1z M106,31h1v2h-1z M98,32h8v1h-8z M98,34h3v1h-3z M107,34h3v1h-3z M95,35h2v1h-2z M102,35h4v1h-4z M101,37h6v1h-6z M92,38h4v2h-4z M96,39h13v1h-13z M90,41h14v2h-14z M106,41h1v2h-1z M108,41h8v1h-8z M107,42h2v1h-2z M112,42h5v1h-5z M89,44h1v3h-1z M91,44h5v1h-5z M98,44h14v1h-14z M117,44h2v2h-2z M92,45h3v2h-3z M96,45h3v2h-3z M100,45h5v1h-5z M106,45h2v2h-2z M110,45h7v2h-7z M119,45h1v2h-1z M90,46h2v1h-2z M99,46h2v1h-2z M102,46h4v1h-4z M108,46h2v1h-2z M88,48h14v1h-14z M106,48h10v2h-10z M117,48h2v1h-2z M121,48h2v1h-2z M87,49h12v1h-12z M103,49h3v1h-3z M116,49h2v1h-2z M124,50h1v3h-1z M86,51h12v1h-12z M100,51h3v3h-3z M104,51h20v1h-20z M125,51h1v2h-1z M87,52h1v2h-1z M89,52h4v1h-4z M94,52h3v1h-3z M98,52h2v2h-2z M103,52h3v2h-3z M107,52h1v2h-1z M111,52h6v2h-6z M118,52h6v1h-6z M91,53h2v1h-2z M96,53h2v1h-2z M119,53h3v1h-3z M85,55h18v1h-18z M104,55h11v1h-11z M117,55h11v1h-11z M85,56h15v1h-15z M104,56h5v1h-5z M110,56h4v1h-4z M117,56h1v2h-1z M119,56h9v1h-9z M84,57h3v1h-3z M89,57h17v1h-17z M122,57h6v1h-6z M83,59h16v1h-16z M100,59h5v2h-5z M106,59h22v1h-22z M84,60h2v2h-2z M87,60h4v2h-4z M93,60h7v1h-7z M105,60h3v2h-3z M111,60h5v1h-5z M118,60h2v2h-2z M122,60h6v1h-6z M93,61h4v1h-4z M98,61h3v1h-3z M102,61h3v1h-3z M108,61h2v1h-2z M116,61h2v1h-2z M120,61h4v1h-4z M126,61h2v1h-2z M82,63h9v1h-9z M92,63h2v3h-2z M95,63h3v3h-3z M99,63h4v3h-4z M104,63h2v1h-2z M107,63h2v3h-2z M114,63h2v1h-2z M119,63h1v3h-1z M125,63h1v3h-1z M127,63h1v3h-1z M86,64h2v1h-2z M89,64h3v2h-3z M94,64h1v2h-1z M98,64h1v2h-1z M105,64h2v1h-2z M109,64h1v2h-1z M112,64h3v2h-3z M116,64h3v2h-3z M124,64h1v2h-1z M126,64h1v2h-1z M81,65h4v1h-4z M120,65h4v1h-4z M80,67h6v3h-6z M87,67h5v1h-5z M100,67h2v3h-2z M117,67h3v1h-3z M86,68h2v2h-2z M89,68h2v1h-2z M97,68h1v2h-1z M104,68h13v1h-13z M126,68h2v2h-2z M93,69h4v1h-4z M102,69h10v1h-10z M117,69h3v1h-3z M121,69h5v1h-5z M79,71h3v1h-3z M83,71h4v1h-4z M92,71h9v1h-9z M102,71h4v1h-4z M79,72h2v2h-2z M84,72h2v2h-2z M95,72h1v2h-1z M97,72h5v1h-5z M103,72h4v1h-4z M108,72h2v3h-2z M111,72h10v1h-10z M122,72h6v1h-6z M78,73h1v2h-1z M82,73h2v1h-2z M96,73h2v1h-2z M104,73h4v1h-4z M110,73h10v1h-10z M122,73h2v2h-2z M83,74h2v1h-2z M105,74h3v1h-3z M110,74h7v1h-7z M118,74h4v1h-4z M124,74h2v1h-2z M50,75h1v3h-1z M91,75h2v2h-2z M94,75h1v2h-1z M97,75h4v2h-4z M103,75h2v3h-2z M0,76h31v1h-31z M39,76h6v1h-6z M51,76h4v2h-4z M77,76h2v3h-2z M93,76h1v2h-1z M101,76h1v2h-1z M105,76h1v2h-1z M107,76h9v1h-9z M0,77h2v1h-2z M19,77h5v1h-5z M32,77h12v1h-12z M79,77h3v1h-3z M108,77h10v1h-10z M120,77h3v1h-3z M2,78h5v1h-5z M11,78h7v1h-7z M26,78h17v1h-17z M110,78h2v1h-2z M7,79h6v1h-6z M20,79h22v1h-22z M51,79h8v1h-8z M90,79h9v1h-9z M100,79h2v1h-2z M103,79h2v1h-2z M106,79h3v1h-3z M13,80h28v1h-28z M52,80h2v1h-2z M57,80h1v3h-1z M75,80h4v1h-4z M93,80h2v1h-2z M98,80h1v2h-1z M111,80h9v1h-9z M5,81h2v1h-2z M53,81h1v3h-1z M55,81h2v1h-2z M89,81h5v1h-5z M95,81h3v1h-3z M99,81h9v1h-9z M112,81h3v1h-3z M116,81h2v1h-2z M7,82h7v1h-7z M58,82h4v1h-4z M74,82h2v1h-2z M114,82h3v1h-3z M0,83h4v2h-4z M58,83h2v1h-2z M94,83h3v1h-3z M100,83h6v1h-6z M108,83h3v1h-3z M114,83h2v1h-2z M4,84h4v1h-4z M15,84h10v4h-10z M88,84h1v2h-1z M96,84h6v1h-6z M105,84h3v1h-3z M111,84h3v2h-3z M8,85h7v4h-7z M25,85h45v1h-45z M89,85h6v1h-6z M99,85h3v1h-3z M105,85h2v1h-2z M108,85h3v1h-3z M116,85h5v1h-5z M0,86h8v1h-8z M25,86h14v1h-14z M46,86h20v2h-20z M91,86h4v1h-4z M101,86h2v1h-2z M107,86h2v1h-2z M111,86h2v1h-2z M117,86h11v4h-11z M0,87h7v2h-7z M39,87h7v1h-7z M66,87h11v2h-11z M27,88h17v1h-17z M56,88h10v1h-10z M77,88h40v1h-40z M20,89h15v1h-15z M49,89h6v1h-6z M69,89h30v1h-30z M110,89h7v2h-7z M6,90h15v1h-15z M56,90h9v1h-9z M101,90h9v1h-9z M125,90h3v3h-3z M91,91h8v1h-8z M119,91h6v2h-6z M0,92h3v1h-3z M68,92h4v1h-4z M107,92h12v1h-12z M21,93h32v1h-32z M77,93h6v1h-6z M89,93h19v1h-19z M0,94h43v1h-43z M61,94h10v1h-10z M83,94h7v1h-7z M0,95h15v1h-15z M43,95h5v1h-5z M94,95h9v1h-9z M108,95h5v1h-5z M127,95h1v8h-1z M15,96h15v1h-15z M81,96h11v1h-11z M103,96h3v1h-3z M118,96h9v1h-9z M43,97h14v2h-14z M65,97h7v1h-7z M73,97h10v1h-10z M122,97h5v6h-5z M4,98h21v1h-21z M26,98h14v1h-14z M41,98h2v1h-2z M109,98h13v5h-13z M65,99h9v1h-9z M88,99h21v1h-21z M0,100h36v1h-36z M50,100h16v1h-16z M79,100h10v3h-10z M90,100h19v3h-19z M0,101h25v1h-25z M36,101h18v1h-18z M69,101h10v3h-10z M89,101h1v2h-1z M0,102h15v1h-15z M25,102h28v1h-28z M61,102h8v2h-8z M0,103h7v1h-7z M15,103h31v1h-31z M53,103h8v1h-8z M79,103h8v1h-8z M7,104h34v1h-34z M46,104h5v1h-5z M52,104h4v1h-4z M94,104h30v1h-30z M0,105h35v1h-35z M78,105h41v1h-41z M124,105h2v1h-2z M6,106h3v1h-3z M39,106h9v1h-9z M57,106h35v1h-35z M9,107h30v1h-30z M48,107h15v1h-15z M64,107h7v1h-7z M92,107h12v1h-12z M124,107h4v5h-4z M10,108h14v1h-14z M39,108h3v1h-3z M71,108h16v1h-16z M104,108h20v3h-20z M11,109h4v1h-4z M42,109h36v1h-36z M95,109h9v2h-9z M21,110h47v1h-47z M85,110h10v1h-10z M13,111h36v1h-36z M76,111h15v1h-15z M92,111h9v1h-9z M123,111h1v2h-1z M14,112h26v1h-26z M49,112h9v1h-9z M66,112h13v1h-13z M101,112h15v1h-15z M120,112h3v1h-3z M20,113h9v1h-9z M40,113h5v2h-5z M46,113h5v1h-5z M58,113h10v1h-10z M79,113h7v1h-7z M21,114h5v1h-5z M112,114h16v3h-16z M68,115h24v1h-24z M99,115h13v2h-13z M45,116h38v1h-38z M92,116h7v1h-7z M42,117h34v1h-34z M83,117h12v1h-12z M99,118h14v1h-14z M44,119h17v1h-17z M68,119h11v1h-11z M89,119h10v1h-10z M122,119h6v1h-6z M45,120h10v1h-10z M61,120h8v1h-8z M79,120h2v1h-2z M103,120h23v1h-23z M55,121h5v1h-5z M91,121h29v1h-29z M76,122h11v1h-11z M87,124h14v1h-14z M67,125h30v1h-30z M61,126h35v1h-35z M64,127h26v1h-26z" /><path fill="#FFF2A9" d="M96,25h1v1h-1z M95,27h1v1h-1z M102,28h1v1h-1z M94,29h1v1h-1z M103,29h1v1h-1z M92,34h1v1h-1z M113,37h1v1h-1z M117,52h1v1h-1z M99,59h1v1h-1z M101,75h1v1h-1z M97,83h1v1h-1z M116,86h1v1h-1z M89,84h4v1h-4z" /><path fill="#562F30" d="M94,26h1v1h-1z M89,33h1v1h-1z M85,39h1v1h-1z M79,41h1v1h-1z M88,42h1v1h-1z M77,43h1v1h-1z M79,43h1v1h-1z M75,45h1v1h-1z M83,45h1v1h-1z M78,46h1v1h-1z M75,48h1v1h-1z M87,48h1v1h-1z M72,49h1v1h-1z M76,50h1v1h-1z M80,51h1v1h-1z M69,52h1v1h-1z M73,52h1v1h-1z M79,52h1v1h-1z M86,52h1v1h-1z M85,53h1v1h-1z M69,54h1v1h-1z M65,56h1v1h-1z M69,56h1v1h-1z M72,58h1v1h-1z M75,58h1v1h-1z M80,58h1v1h-1z M62,59h1v1h-1z M82,60h1v1h-1z M76,61h1v1h-1z M62,62h1v1h-1z M77,62h1v1h-1z M79,62h1v1h-1z M82,62h1v1h-1z M68,63h1v1h-1z M70,63h1v1h-1z M60,64h1v1h-1z M62,64h1v1h-1z M67,64h1v1h-1z M69,64h1v1h-1z M80,64h1v1h-1z M56,65h1v1h-1z M55,66h1v1h-1z M64,66h1v1h-1z M74,66h1v1h-1z M81,66h1v1h-1z M93,66h1v1h-1z M54,67h1v1h-1z M79,67h1v1h-1z M53,68h1v1h-1z M57,68h1v1h-1z M93,68h1v1h-1z M89,69h1v1h-1z M51,70h1v1h-1z M57,70h1v1h-1z M65,70h1v1h-1z M71,70h1v1h-1z M77,70h1v1h-1z M88,70h1v1h-1z M76,71h1v1h-1z M49,72h1v1h-1z M78,72h1v1h-1z M48,73h1v1h-1z M52,73h1v1h-1z M54,73h1v1h-1z M63,73h1v1h-1z M49,74h1v1h-1z M74,74h1v1h-1z M126,74h1v1h-1z M48,75h1v1h-1z M52,75h1v1h-1z M60,75h1v1h-1z M77,75h1v1h-1z M125,75h1v1h-1z M46,76h1v1h-1z M56,76h1v1h-1z M90,76h1v1h-1z M74,78h1v1h-1z M43,79h1v1h-1z M65,79h1v1h-1z M80,79h1v1h-1z M126,79h1v1h-1z M61,80h1v1h-1z M64,80h1v1h-1z M79,80h1v1h-1z M89,80h1v1h-1z M122,80h1v1h-1z M41,81h1v1h-1z M44,81h1v1h-1z M78,81h1v1h-1z M83,81h1v1h-1z M52,82h1v1h-1z M72,83h1v1h-1z M75,83h1v1h-1z M121,83h1v1h-1z M123,83h1v1h-1z M65,84h1v1h-1z M5,110h1v1h-1z M7,111h1v1h-1z M40,116h1v1h-1z M25,117h1v1h-1z M19,119h1v1h-1z M27,123h1v1h-1z M31,125h1v1h-1z M32,126h1v1h-1z M56,126h1v1h-1z M42,127h1v1h-1z M92,29h2v1h-2z M89,30h2v1h-2z M86,33h2v1h-2z M88,39h2v1h-2z M84,40h1v5h-1z M86,40h2v2h-2z M89,40h2v1h-2z M85,41h1v2h-1z M89,41h1v2h-1z M78,42h1v3h-1z M80,42h2v1h-2z M83,42h1v2h-1z M82,43h1v2h-1z M86,43h1v2h-1z M80,44h2v1h-2z M85,44h1v7h-1z M77,45h1v6h-1z M79,45h2v1h-2z M74,46h1v2h-1z M80,46h3v1h-3z M84,46h1v3h-1z M86,46h2v2h-2z M73,47h1v2h-1z M75,47h2v1h-2z M80,47h1v2h-1z M78,48h2v1h-2z M81,48h3v1h-3z M86,49h1v2h-1z M71,50h1v2h-1z M74,50h1v5h-1z M78,50h1v3h-1z M81,50h2v3h-2z M70,51h1v2h-1z M72,51h1v2h-1z M75,51h1v4h-1z M76,52h2v1h-2z M83,52h2v1h-2z M68,53h1v3h-1z M71,53h1v3h-1z M80,53h1v2h-1z M67,54h1v5h-1z M72,54h2v1h-2z M76,54h4v1h-4z M82,54h2v1h-2z M66,55h1v3h-1z M70,55h1v3h-1z M77,55h1v2h-1z M75,56h2v1h-2z M78,56h7v1h-7z M71,57h2v1h-2z M76,57h1v2h-1z M79,57h1v2h-1z M81,57h1v4h-1z M63,58h3v2h-3z M68,58h2v3h-2z M82,58h2v1h-2z M74,59h1v3h-1z M64,60h4v1h-4z M72,60h1v3h-1z M75,60h3v1h-3z M79,60h2v1h-2z M60,61h3v1h-3z M65,61h1v2h-1z M73,61h1v2h-1z M59,62h2v1h-2z M64,62h1v2h-1z M66,62h2v1h-2z M69,62h3v1h-3z M75,62h1v2h-1z M63,63h1v2h-1z M66,63h1v2h-1z M78,63h1v3h-1z M81,63h1v2h-1z M57,64h1v3h-1z M71,64h1v3h-1z M73,64h1v3h-1z M76,64h2v3h-2z M58,65h2v2h-2z M65,65h1v2h-1z M68,65h1v6h-1z M74,65h2v1h-2z M60,66h3v1h-3z M66,66h2v1h-2z M69,66h2v1h-2z M76,67h1v2h-1z M60,68h6v1h-6z M67,68h1v2h-1z M69,68h7v1h-7z M52,69h1v3h-1z M54,69h2v3h-2z M58,69h2v1h-2z M63,69h2v4h-2z M66,69h1v2h-1z M69,69h2v2h-2z M72,69h1v2h-1z M74,69h1v2h-1z M53,70h1v6h-1z M59,70h4v1h-4z M73,70h1v5h-1z M75,70h1v2h-1z M50,71h1v4h-1z M62,71h1v2h-1z M51,72h1v3h-1z M55,72h1v2h-1z M58,72h4v1h-4z M65,72h2v1h-2z M72,72h1v3h-1z M56,73h3v2h-3z M69,73h2v2h-2z M75,73h3v1h-3z M47,74h1v2h-1z M61,74h2v1h-2z M64,74h5v1h-5z M71,74h1v3h-1z M76,74h2v1h-2z M55,75h3v1h-3z M64,75h2v2h-2z M70,75h1v4h-1z M83,75h2v1h-2z M62,76h2v1h-2z M67,76h3v1h-3z M72,76h5v1h-5z M44,77h2v1h-2z M57,77h2v1h-2z M60,77h3v1h-3z M65,77h4v1h-4z M50,78h3v1h-3z M58,78h3v1h-3z M62,78h4v1h-4z M68,78h2v1h-2z M71,78h2v1h-2z M126,78h2v1h-2z M60,79h4v1h-4z M69,79h1v2h-1z M44,80h4v1h-4z M66,80h3v2h-3z M71,80h4v1h-4z M24,81h16v1h-16z M14,82h25v2h-25z M40,82h1v3h-1z M48,82h2v1h-2z M65,82h2v1h-2z M68,82h4v1h-4z M73,82h1v2h-1z M122,82h1v2h-1z M126,82h2v1h-2z M4,83h10v1h-10z M39,83h1v2h-1z M41,83h1v2h-1z M45,83h1v2h-1z M48,83h1v2h-1z M64,83h1v2h-1z M66,83h4v2h-4z M80,83h2v1h-2z M25,84h14v1h-14z M42,84h3v1h-3z M46,84h2v1h-2z M49,84h15v1h-15z M70,84h2v3h-2z M74,84h1v3h-1z M85,84h2v1h-2z M118,84h3v1h-3z M124,84h1v2h-1z M72,85h2v2h-2z M75,85h1v2h-1z M121,85h3v1h-3z M125,85h2v1h-2z M66,86h4v1h-4z M76,86h6v1h-6z M77,87h40v1h-40z M1,106h5v4h-5z M0,107h1v3h-1z M6,107h2v4h-2z M8,108h2v5h-2z M10,109h1v8h-1z M11,110h1v7h-1z M12,111h1v6h-1z M13,112h1v5h-1z M9,113h1v4h-1z M14,113h6v4h-6z M29,113h7v4h-7z M8,114h1v2h-1z M20,114h1v7h-1z M28,114h1v3h-1z M36,114h3v3h-3z M21,115h1v7h-1z M27,115h1v2h-1z M39,115h1v2h-1z M0,116h3v9h-3z M26,116h1v2h-1z M3,117h1v10h-1z M15,117h5v1h-5z M22,117h1v6h-1z M31,117h6v1h-6z M4,118h1v9h-1z M17,118h3v1h-3z M32,118h7v1h-7z M5,119h1v8h-1z M33,119h9v1h-9z M34,120h11v1h-11z M126,120h2v4h-2z M6,121h1v6h-1z M26,121h2v2h-2z M34,121h10v1h-10z M46,121h8v4h-8z M122,121h4v4h-4z M7,122h6v5h-6z M28,122h1v3h-1z M34,122h7v1h-7z M54,122h2v5h-2z M110,122h12v4h-12z M13,123h1v4h-1z M29,123h1v3h-1z M35,123h7v1h-7z M45,123h1v2h-1z M56,123h1v2h-1z M105,123h5v5h-5z M14,124h1v3h-1z M30,124h1v2h-1z M36,124h7v1h-7z M57,124h2v1h-2z M101,124h4v4h-4z M1,125h2v1h-2z M15,125h2v2h-2z M38,125h3v1h-3z M42,125h2v1h-2z M49,125h5v1h-5z M97,125h4v3h-4z M122,125h3v1h-3z M17,126h2v1h-2z M39,126h2v1h-2z M43,126h1v2h-1z M46,126h2v2h-2z M51,126h3v1h-3z M96,126h1v2h-1z M110,126h6v1h-6z M7,127h3v1h-3z M19,127h3v1h-3z M44,127h2v1h-2z M90,127h6v1h-6z M110,127h4v1h-4z" /><path fill="#381E23" d="M93,27h1v1h-1z M92,32h1v1h-1z M84,39h1v1h-1z M90,39h1v1h-1z M79,40h1v1h-1z M85,40h1v1h-1z M79,42h1v1h-1z M82,42h1v1h-1z M85,43h1v1h-1z M79,44h1v1h-1z M83,44h1v1h-1z M78,45h1v1h-1z M84,45h1v1h-1z M86,45h1v1h-1z M75,46h1v1h-1z M88,46h1v1h-1z M78,47h1v1h-1z M86,48h1v1h-1z M72,50h1v1h-1z M79,51h1v1h-1z M71,52h1v1h-1z M80,52h1v1h-1z M70,54h1v1h-1z M69,55h1v1h-1z M69,57h1v1h-1z M80,57h1v1h-1z M67,59h1v1h-1z M82,59h1v1h-1z M73,60h1v1h-1z M83,60h1v1h-1z M75,61h1v1h-1z M77,61h1v1h-1z M63,62h1v1h-1z M68,62h1v1h-1z M62,63h1v1h-1z M67,63h1v1h-1z M69,63h1v1h-1z M77,63h1v1h-1z M68,64h1v1h-1z M75,64h1v1h-1z M60,65h1v1h-1z M69,65h1v1h-1z M54,68h1v1h-1z M66,68h1v1h-1z M53,69h1v1h-1z M57,69h1v1h-1z M65,69h1v1h-1z M71,69h1v1h-1z M73,69h1v1h-1z M76,70h1v1h-1z M51,71h1v1h-1z M52,72h1v1h-1z M54,72h1v1h-1z M49,73h1v1h-1z M68,73h1v1h-1z M71,73h1v1h-1z M48,74h1v1h-1z M52,74h1v1h-1z M54,75h1v1h-1z M76,75h1v1h-1z M45,76h1v1h-1z M57,76h1v1h-1z M66,76h1v1h-1z M59,77h1v1h-1z M69,77h1v1h-1z M49,78h1v1h-1z M61,78h1v1h-1z M64,79h1v1h-1z M68,79h1v1h-1z M41,80h1v1h-1z M58,80h1v1h-1z M40,81h1v1h-1z M52,81h1v1h-1z M69,81h1v1h-1z M122,81h1v1h-1z M39,82h1v1h-1z M41,82h1v1h-1z M67,82h1v1h-1z M72,82h1v1h-1z M49,83h1v1h-1z M52,83h1v1h-1z M55,83h1v1h-1z M61,83h1v1h-1z M65,83h1v1h-1z M116,83h1v1h-1z M75,84h1v1h-1z M125,84h1v1h-1z M127,85h1v1h-1z M8,113h1v1h-1z M4,117h1v1h-1z M14,123h1v1h-1z M30,123h1v1h-1z M42,126h1v1h-1z M32,127h1v1h-1z M91,35h2v3h-2z M88,36h3v3h-3z M93,36h3v2h-3z M84,37h4v2h-4z M96,37h5v2h-5z M83,38h1v4h-1z M101,38h10v1h-10z M80,39h3v3h-3z M86,39h2v1h-2z M109,39h5v1h-5z M88,40h1v2h-1z M86,42h2v1h-2z M80,43h2v1h-2z M87,43h3v1h-3z M76,44h2v1h-2z M87,44h2v2h-2z M76,45h1v2h-1z M81,45h2v1h-2z M79,46h1v2h-1z M83,46h1v2h-1z M81,47h2v1h-2z M74,48h1v2h-1z M76,48h1v2h-1z M73,49h1v3h-1z M75,49h1v2h-1z M78,49h7v1h-7z M79,50h2v1h-2z M83,50h2v2h-2z M76,51h2v1h-2z M85,51h1v2h-1z M69,53h2v1h-2z M72,53h2v1h-2z M76,53h4v1h-4z M81,53h4v1h-4z M81,54h1v2h-1z M84,54h3v1h-3z M72,55h5v1h-5z M78,55h3v1h-3z M82,55h3v1h-3z M68,56h1v2h-1z M71,56h4v1h-4z M64,57h2v1h-2z M73,57h3v1h-3z M77,57h2v3h-2z M82,57h2v1h-2z M66,58h1v2h-1z M70,58h2v4h-2z M73,58h2v1h-2z M72,59h2v1h-2z M75,59h2v1h-2z M79,59h2v1h-2z M61,60h3v1h-3z M78,60h1v3h-1z M63,61h2v1h-2z M66,61h4v1h-4z M79,61h4v1h-4z M61,62h1v4h-1z M74,62h1v3h-1z M76,62h1v2h-1z M80,62h2v1h-2z M58,63h3v1h-3z M65,63h1v2h-1z M71,63h3v1h-3z M79,63h2v1h-2z M58,64h2v1h-2z M64,64h1v2h-1z M70,64h1v2h-1z M72,64h1v4h-1z M79,64h1v3h-1z M62,65h2v1h-2z M66,65h2v1h-2z M80,65h1v2h-1z M56,66h1v7h-1z M63,66h1v2h-1z M75,66h1v2h-1z M78,66h1v6h-1z M55,67h1v2h-1z M57,67h6v1h-6z M64,67h4v1h-4z M69,67h3v1h-3z M73,67h2v1h-2z M77,67h1v3h-1z M92,67h2v1h-2z M58,68h2v1h-2z M79,68h1v2h-1z M91,68h2v3h-2z M60,69h3v1h-3z M75,69h2v1h-2z M90,69h1v7h-1z M58,70h1v2h-1z M67,70h1v4h-1z M89,70h1v10h-1z M57,71h1v2h-1z M59,71h3v1h-3z M65,71h2v1h-2z M68,71h5v1h-5z M74,71h1v3h-1z M77,71h1v2h-1z M87,71h2v13h-2z M91,71h1v4h-1z M68,72h4v1h-4z M75,72h2v1h-2z M86,72h1v12h-1z M59,73h4v1h-4z M64,73h3v1h-3z M127,73h1v5h-1z M54,74h2v1h-2z M59,74h2v1h-2z M63,74h1v2h-1z M75,74h1v2h-1z M85,74h1v10h-1z M45,75h2v1h-2z M58,75h2v2h-2z M61,75h2v1h-2z M66,75h4v1h-4z M72,75h3v1h-3z M126,75h1v3h-1z M48,76h2v1h-2z M60,76h2v1h-2z M83,76h2v5h-2z M124,76h2v8h-2z M46,77h3v3h-3z M63,77h2v1h-2z M71,77h5v1h-5z M82,77h1v10h-1z M90,77h2v1h-2z M123,77h1v6h-1z M43,78h3v1h-3z M66,78h2v2h-2z M73,78h1v2h-1z M75,78h2v1h-2z M81,78h1v5h-1z M122,78h1v2h-1z M42,79h1v5h-1z M44,79h2v1h-2z M70,79h3v1h-3z M74,79h2v1h-2z M121,79h1v4h-1z M127,79h1v3h-1z M43,80h1v4h-1z M48,80h4v2h-4z M62,80h2v4h-2z M65,80h1v2h-1z M70,80h1v2h-1z M80,80h1v3h-1z M120,80h1v4h-1z M126,80h1v2h-1z M45,81h3v2h-3z M64,81h1v2h-1z M71,81h4v1h-4z M79,81h1v5h-1z M84,81h1v6h-1z M118,81h2v3h-2z M44,82h1v2h-1z M50,82h2v2h-2z M76,82h3v4h-3z M83,82h1v5h-1z M117,82h1v3h-1z M46,83h2v1h-2z M70,83h2v1h-2z M126,83h2v2h-2z M72,84h2v1h-2z M80,84h2v2h-2z M87,84h1v3h-1z M121,84h3v1h-3z M85,85h2v2h-2z M0,110h5v6h-5z M5,111h2v8h-2z M7,112h1v10h-1z M3,116h2v1h-2z M8,116h1v6h-1z M9,117h6v5h-6z M24,117h1v11h-1z M27,117h4v4h-4z M37,117h5v1h-5z M15,118h2v7h-2z M23,118h1v10h-1z M25,118h2v3h-2z M31,118h1v7h-1z M39,118h4v1h-4z M6,119h1v2h-1z M17,119h2v7h-2z M32,119h1v7h-1z M42,119h2v1h-2z M19,120h1v7h-1z M33,120h1v8h-1z M20,121h1v6h-1z M25,121h1v7h-1z M28,121h3v1h-3z M44,121h2v2h-2z M13,122h2v1h-2z M21,122h1v5h-1z M29,122h2v1h-2z M41,122h3v1h-3z M22,123h1v5h-1z M26,123h1v5h-1z M34,123h1v5h-1z M42,123h3v1h-3z M27,124h1v4h-1z M35,124h1v4h-1z M43,124h2v1h-2z M126,124h2v4h-2z M0,125h1v3h-1z M28,125h1v3h-1z M36,125h2v3h-2z M41,125h1v3h-1z M44,125h5v1h-5z M56,125h5v1h-5z M125,125h1v3h-1z M1,126h2v2h-2z M29,126h3v2h-3z M38,126h1v2h-1z M44,126h2v1h-2z M48,126h3v2h-3z M57,126h4v2h-4z M116,126h9v2h-9z M3,127h4v1h-4z M10,127h9v1h-9z M39,127h2v1h-2z M51,127h6v1h-6z M61,127h3v1h-3z M114,127h2v1h-2z" /><path fill="#421714" d="M94,27h1v1h-1z M90,32h1v1h-1z" /><path fill="#FFFFE2" d="M103,27h1v1h-1z M105,29h1v1h-1z M104,34h1v1h-1z M48,35h1v1h-1z M107,35h1v1h-1z M100,36h1v1h-1z M113,36h1v1h-1z M114,39h1v1h-1z M115,40h1v1h-1z M119,44h1v1h-1z M121,46h1v1h-1z M123,48h1v1h-1z M124,49h1v1h-1z M35,52h1v1h-1z M45,52h1v1h-1z M127,52h1v1h-1z M27,53h1v1h-1z M67,53h1v1h-1z M26,54h1v1h-1z M25,55h1v1h-1z M62,58h1v1h-1z M42,63h1v1h-1z M53,63h1v1h-1z M46,64h1v1h-1z M97,67h1v1h-1z M98,68h1v1h-1z M99,69h1v1h-1z M100,70h1v1h-1z M101,71h1v1h-1z M103,73h1v1h-1z M104,74h1v1h-1z M49,75h1v1h-1z M51,75h1v1h-1z M105,75h1v1h-1z M55,76h1v1h-1z M106,76h1v1h-1z M56,77h1v1h-1z M107,77h1v1h-1z M108,78h1v1h-1z M59,79h1v1h-1z M109,79h1v1h-1z M60,80h1v1h-1z M110,80h1v1h-1z M61,81h1v1h-1z M111,81h1v1h-1z M113,83h1v1h-1z M114,84h1v1h-1z M49,28h8v1h-8z M50,29h8v23h-8z M58,30h1v21h-1z M59,31h1v19h-1z M49,32h1v13h-1z M60,32h1v8h-1z M47,33h2v2h-2z M103,33h1v2h-1z M61,34h1v5h-1z M111,35h2v2h-2z M62,36h1v2h-1z M109,36h2v1h-2z M46,37h3v7h-3z M45,38h1v5h-1z M44,39h1v3h-1z M60,41h1v8h-1z M61,42h1v16h-1z M62,43h3v14h-3z M65,44h1v12h-1z M66,45h1v3h-1z M49,47h1v9h-1z M48,48h1v6h-1z M42,49h3v1h-3z M66,49h1v6h-1z M43,50h3v1h-3z M60,50h1v8h-1z M67,50h4v1h-4z M29,51h6v2h-6z M44,51h2v1h-2z M59,51h1v6h-1z M67,51h3v1h-3z M28,52h1v2h-1z M50,52h7v1h-7z M58,52h1v4h-1z M67,52h2v1h-2z M33,53h2v1h-2z M50,53h6v1h-6z M50,54h4v3h-4z M37,56h4v1h-4z M38,57h5v6h-5z M51,57h3v1h-3z M62,57h2v1h-2z M37,58h1v5h-1z M43,58h1v5h-1z M52,58h3v1h-3z M31,59h6v4h-6z M44,59h3v5h-3z M25,60h6v3h-6z M47,60h1v5h-1z M59,60h2v1h-2z M24,61h1v3h-1z M58,61h2v1h-2z M22,62h2v2h-2z M48,62h5v3h-5z M19,63h3v1h-3z M25,63h2v1h-2z" /><path fill="#8CC0C8" d="M84,33h1v1h-1z M114,38h1v1h-1z M60,40h1v1h-1z M117,41h1v1h-1z M76,43h1v1h-1z M121,45h1v1h-1z M66,48h1v1h-1z M35,51h1v1h-1z M127,51h1v1h-1z M13,62h1v1h-1z M57,63h1v1h-1z M54,66h1v1h-1z M46,74h1v1h-1z M44,75h1v1h-1z M76,28h8v7h-8z M13,29h9v27h-9z M75,29h1v16h-1z M84,29h5v1h-5z M122,29h6v18h-6z M8,30h5v33h-5z M22,30h7v22h-7z M74,30h1v16h-1z M84,30h4v1h-4z M107,30h3v1h-3z M118,30h4v13h-4z M7,31h1v33h-1z M29,31h3v20h-3z M35,31h11v1h-11z M65,31h9v13h-9z M84,31h3v1h-3z M108,31h10v1h-10z M3,32h4v32h-4z M32,32h13v2h-13z M61,32h4v2h-4z M84,32h2v1h-2z M109,32h9v1h-9z M0,33h3v43h-3z M110,33h8v1h-8z M32,34h11v1h-11z M62,34h3v2h-3z M111,34h7v1h-7z M32,35h10v1h-10z M76,35h7v1h-7z M113,35h5v1h-5z M32,36h9v4h-9z M63,36h2v7h-2z M76,36h6v1h-6z M114,36h4v1h-4z M76,37h5v1h-5z M115,37h3v3h-3z M62,38h1v5h-1z M76,38h4v2h-4z M61,39h1v3h-1z M32,40h6v1h-6z M76,40h3v2h-3z M116,40h2v1h-2z M32,41h5v2h-5z M76,42h2v1h-2z M32,43h4v8h-4z M119,43h3v1h-3z M66,44h8v1h-8z M120,44h2v1h-2z M67,45h7v2h-7z M36,47h1v3h-1z M67,47h6v2h-6z M123,47h5v1h-5z M124,48h4v1h-4z M67,49h5v1h-5z M125,49h3v1h-3z M126,50h2v1h-2z M22,52h6v1h-6z M22,53h5v1h-5z M22,54h4v1h-4z M22,55h3v1h-3z M13,56h5v1h-5z M13,57h4v1h-4z M13,58h3v1h-3z M13,59h2v3h-2z M54,60h3v5h-3z M53,61h1v2h-1z M57,62h2v1h-2z M3,64h3v1h-3z M44,64h2v11h-2z M53,64h1v4h-1z M3,65h2v11h-2z M31,65h1v11h-1z M42,65h2v11h-2z M46,65h7v4h-7z M54,65h2v1h-2z M5,66h13v10h-13z M28,66h3v10h-3z M32,66h2v10h-2z M36,66h6v10h-6z M18,67h10v9h-10z M34,67h2v9h-2z M46,69h6v1h-6z M46,70h5v1h-5z M46,71h4v1h-4z M46,72h3v1h-3z M46,73h2v1h-2z" /><path fill="#D0CDC8" d="M48,36h1v1h-1z M60,49h1v1h-1z M59,50h1v1h-1z M58,51h1v1h-1z M37,57h1v1h-1z M47,59h1v1h-1z M52,61h1v1h-1z M42,64h1v1h-1z M5,65h1v1h-1z M27,66h1v1h-1z M47,29h3v3h-3z M46,30h1v7h-1z M45,32h1v6h-1z M47,32h2v1h-2z M43,34h2v5h-2z M42,35h1v14h-1z M47,35h1v2h-1z M41,36h1v21h-1z M43,39h1v10h-1z M38,40h3v16h-3z M37,41h1v15h-1z M44,42h1v7h-1z M36,43h1v4h-1z M45,43h1v7h-1z M46,44h3v4h-3z M49,45h1v2h-1z M46,48h2v11h-2z M36,50h1v9h-1z M42,50h1v7h-1z M43,51h1v7h-1z M44,52h1v7h-1z M57,52h1v10h-1z M29,53h4v6h-4z M35,53h1v6h-1z M45,53h1v6h-1z M56,53h1v7h-1z M27,54h2v6h-2z M33,54h2v5h-2z M48,54h1v8h-1z M54,54h2v4h-2z M26,55h1v5h-1z M18,56h8v4h-8z M49,56h1v6h-1z M58,56h1v5h-1z M17,57h1v9h-1z M50,57h1v5h-1z M59,57h1v3h-1z M16,58h1v8h-1z M51,58h1v4h-1z M55,58h1v2h-1z M60,58h2v2h-2z M15,59h1v7h-1z M29,59h2v1h-2z M52,59h3v1h-3z M18,60h7v1h-7z M52,60h2v1h-2z M18,61h6v1h-6z M14,62h1v4h-1z M18,62h4v1h-4z M8,63h6v3h-6z M18,63h1v4h-1z M27,63h15v2h-15z M43,63h1v2h-1z M6,64h2v2h-2z M19,64h8v3h-8z M27,65h4v1h-4z M32,65h10v1h-10z M34,66h2v1h-2z" /><path fill="#8D989B" d="M84,34h1v1h-1z" /><path fill="#2D202D" d="M91,38h1v1h-1z M54,81h1v1h-1z" /><path fill="#D07737" d="M107,41h1v1h-1z M109,42h1v1h-1z M111,42h1v1h-1z M97,44h1v1h-1z M91,45h1v1h-1z M95,45h1v1h-1z M99,45h1v1h-1z M105,45h1v1h-1z M101,46h1v1h-1z M116,48h1v1h-1z M99,49h1v1h-1z M102,49h1v1h-1z M122,49h1v1h-1z M103,51h1v1h-1z M97,52h1v1h-1z M106,52h1v1h-1z M118,53h1v1h-1z M101,56h1v1h-1z M109,56h1v1h-1z M114,56h1v1h-1z M118,56h1v1h-1z M105,59h1v1h-1z M86,60h1v1h-1z M116,60h1v1h-1z M91,63h1v1h-1z M98,63h1v1h-1z M106,63h1v1h-1z M109,63h1v1h-1z M126,63h1v1h-1z M115,64h1v1h-1z M105,65h1v1h-1z M111,65h1v1h-1z M86,67h1v1h-1z M88,68h1v1h-1z M121,68h1v1h-1z M98,69h1v1h-1z M113,69h1v1h-1z M120,69h1v1h-1z M113,71h1v1h-1z M115,71h1v1h-1z M83,72h1v1h-1z M96,72h1v1h-1z M107,72h1v1h-1z M110,72h1v1h-1z M121,72h1v1h-1z M82,74h1v1h-1z M116,76h1v1h-1z M123,76h1v1h-1z M80,78h1v1h-1z M109,78h1v1h-1z M112,78h1v1h-1z M50,79h1v1h-1z M59,80h1v1h-1z M94,81h1v1h-1z M109,81h1v1h-1z M115,81h1v1h-1z M113,82h1v1h-1z M57,83h1v1h-1z M111,83h1v1h-1z M90,86h1v1h-1z M109,86h1v1h-1z M111,38h3v1h-3z M104,41h2v1h-2z M90,44h1v2h-1z M112,44h2v1h-2z M108,45h2v1h-2z M118,49h2v1h-2z M98,51h2v1h-2z M88,52h1v2h-1z M93,52h1v2h-1z M103,55h1v2h-1z M115,55h1v2h-1z M116,56h1v2h-1z M87,57h2v1h-2z M91,60h2v1h-2z M92,61h1v2h-1z M97,61h1v2h-1z M101,61h1v2h-1z M111,61h5v2h-5z M124,61h2v2h-2z M83,62h9v1h-9z M93,62h4v1h-4z M98,62h3v1h-3z M102,62h9v1h-9z M116,62h8v1h-8z M126,62h2v1h-2z M103,63h1v2h-1z M111,63h3v1h-3z M116,63h2v1h-2z M120,63h5v1h-5z M88,64h1v2h-1z M104,64h1v2h-1z M120,64h2v1h-2z M85,65h2v1h-2z M102,68h2v1h-2z M82,71h1v2h-1z M106,71h2v1h-2z M92,72h3v1h-3z M92,73h2v1h-2z M98,73h5v1h-5z M95,75h2v1h-2z M102,75h1v2h-1z M79,76h3v1h-3z M118,77h2v1h-2z M99,79h1v2h-1z M54,80h3v1h-3z M95,80h3v1h-3z M100,80h2v1h-2z M108,80h1v2h-1z M54,82h2v1h-2z M89,83h5v1h-5z M106,83h2v1h-2z M93,84h3v1h-3z M102,84h3v2h-3z M108,84h3v1h-3z M95,85h1v2h-1z M97,85h2v1h-2z M96,86h2v1h-2z M103,86h3v1h-3z M113,86h2v1h-2z" /><path fill="#BD753D" d="M108,52h1v1h-1z M110,52h1v1h-1z M100,56h1v1h-1z M102,56h1v1h-1z M108,58h1v1h-1z M119,58h1v1h-1z M117,60h1v1h-1z M83,64h1v1h-1z M99,67h1v1h-1z M115,67h1v1h-1z M125,68h1v1h-1z M111,71h1v1h-1z M114,71h1v1h-1z M121,71h1v1h-1z M123,71h1v1h-1z M125,71h1v1h-1z M81,72h1v1h-1z M116,84h1v1h-1z M91,40h24v1h-24z M105,42h1v2h-1z M90,43h15v1h-15z M106,43h12v1h-12z M117,46h1v2h-1z M88,47h29v1h-29z M118,47h4v1h-4z M100,49h1v2h-1z M87,50h13v1h-13z M101,50h23v1h-23z M90,53h1v2h-1z M94,53h2v2h-2z M122,53h1v2h-1z M87,54h3v1h-3z M91,54h3v1h-3z M96,54h26v1h-26z M123,54h5v1h-5z M106,57h2v2h-2z M109,57h1v2h-1z M113,57h1v2h-1z M118,57h1v2h-1z M120,57h2v2h-2z M84,58h22v1h-22z M110,58h3v1h-3z M114,58h4v1h-4z M122,58h6v1h-6z M82,66h11v1h-11z M97,66h31v1h-31z M102,67h4v1h-4z M108,67h4v1h-4z M122,67h2v2h-2z M125,67h3v1h-3z M79,70h9v1h-9z M93,70h7v1h-7z M101,70h27v1h-27z M92,74h12v1h-12z M78,75h5v1h-5z M106,75h19v1h-19z M90,78h18v1h-18z M76,79h4v1h-4z M110,79h11v1h-11z M75,81h2v1h-2z M89,82h23v1h-23z" /><path fill="#C26A2F" d="M96,44h1v1h-1z M119,48h1v1h-1z M116,55h1v1h-1z M115,57h1v1h-1z M110,61h1v1h-1z M121,67h1v1h-1z M117,68h1v1h-1z M119,68h1v1h-1z M124,68h1v1h-1z M112,69h1v1h-1z M114,69h1v1h-1z M116,69h1v1h-1z M112,71h1v1h-1z M122,71h1v1h-1z M126,71h1v1h-1z M81,73h1v1h-1z M126,73h1v1h-1z M80,74h1v1h-1z M117,74h1v1h-1z M120,78h1v1h-1z M59,81h1v1h-1z M56,83h1v1h-1z M60,83h1v1h-1z M112,83h1v1h-1z M96,85h1v1h-1z M107,85h1v1h-1z M106,86h1v1h-1z M110,86h1v1h-1z M114,44h3v1h-3z M102,48h4v1h-4z M124,53h2v1h-2z M108,60h3v1h-3z M110,64h2v1h-2z M122,64h2v1h-2z M106,67h2v1h-2z M94,68h2v1h-2z M109,71h2v1h-2z M116,71h2v1h-2z M119,71h2v1h-2z M120,73h2v1h-2z M121,76h2v1h-2z M95,77h5v1h-5z M102,79h1v2h-1z M105,79h1v2h-1z M90,80h3v1h-3z M103,80h2v1h-2z M106,80h2v1h-2z M98,86h3v1h-3z" /><path fill="#B55F28" d="M126,53h1v1h-1z M108,57h1v1h-1z M114,57h1v1h-1z M120,60h1v1h-1z M94,63h1v1h-1z M118,63h1v1h-1z M82,64h1v1h-1z M116,67h1v1h-1z M120,67h1v1h-1z M124,67h1v1h-1z M96,68h1v1h-1z M118,68h1v1h-1z M108,71h1v1h-1z M118,71h1v1h-1z M124,71h1v1h-1z M127,71h1v1h-1z M94,77h1v1h-1z M118,78h1v1h-1z M58,81h1v1h-1z M60,81h1v1h-1z M77,81h1v1h-1z M99,83h1v1h-1z M115,84h1v1h-1z M88,86h1v1h-1z M120,48h1v2h-1z M110,57h3v1h-3z M84,64h2v1h-2z M112,67h3v1h-3z M124,73h2v1h-2z M117,76h4v1h-4z M53,78h2v1h-2z M114,78h3v1h-3z" /><path fill="#A6501B" d="M121,60h1v1h-1z" /><path fill="#903C1A" d="M99,68h1v1h-1z" /><path fill="#FCCE7E" d="M7,87h1v1h-1z M89,100h1v1h-1z M127,106h1v1h-1z M8,107h1v1h-1z M25,109h1v1h-1z M45,113h1v1h-1z M51,115h1v1h-1z M54,121h1v1h-1z M59,124h1v1h-1z M31,76h8v1h-8z M2,77h17v1h-17z M24,77h8v1h-8z M0,78h2v1h-2z M7,78h4v1h-4z M18,78h8v1h-8z M1,79h6v2h-6z M13,79h7v1h-7z M0,80h1v3h-1z M7,80h6v2h-6z M1,81h4v2h-4z M13,81h11v1h-11z M5,82h2v1h-2z M8,84h7v1h-7z M0,85h8v1h-8z M39,86h7v1h-7z M26,87h13v1h-13z M16,88h11v1h-11z M44,88h12v1h-12z M0,89h20v1h-20z M35,89h14v4h-14z M55,89h14v1h-14z M99,89h11v1h-11z M0,90h6v2h-6z M21,90h14v3h-14z M49,90h7v3h-7z M65,90h36v1h-36z M118,90h7v1h-7z M6,91h15v3h-15z M56,91h35v1h-35z M99,91h20v1h-20z M3,92h3v2h-3z M56,92h12v2h-12z M72,92h35v1h-35z M0,93h3v1h-3z M53,93h3v4h-3z M68,93h9v1h-9z M83,93h6v1h-6z M108,93h20v2h-20z M43,94h10v1h-10z M56,94h5v3h-5z M71,94h12v2h-12z M90,94h18v1h-18z M15,95h28v1h-28z M48,95h5v2h-5z M61,95h10v2h-10z M83,95h11v1h-11z M103,95h5v1h-5z M113,95h14v1h-14z M0,96h15v2h-15z M30,96h18v1h-18z M71,96h10v1h-10z M92,96h11v3h-11z M106,96h12v2h-12z M15,97h28v1h-28z M57,97h8v1h-8z M72,97h1v2h-1z M83,97h9v2h-9z M103,97h3v2h-3z M118,97h4v1h-4z M0,98h4v2h-4z M25,98h1v2h-1z M40,98h1v3h-1z M58,98h14v1h-14z M73,98h10v1h-10z M106,98h3v1h-3z M4,99h21v1h-21z M26,99h14v1h-14z M41,99h24v1h-24z M74,99h14v1h-14z M36,100h4v1h-4z M41,100h9v1h-9z M66,100h13v1h-13z M25,101h11v1h-11z M54,101h15v1h-15z M15,102h10v1h-10z M53,102h8v1h-8z M7,103h8v1h-8z M46,103h7v1h-7z M87,103h41v1h-41z M0,104h7v1h-7z M41,104h5v2h-5z M51,104h1v3h-1z M56,104h38v1h-38z M124,104h4v1h-4z M35,105h6v1h-6z M46,105h5v1h-5z M52,105h26v1h-26z M119,105h5v3h-5z M126,105h1v2h-1z M9,106h30v1h-30z M48,106h3v1h-3z M52,106h5v1h-5z M92,106h27v1h-27z M124,106h2v1h-2z M39,107h9v1h-9z M63,107h1v2h-1z M71,107h21v1h-21z M104,107h15v1h-15z M24,108h1v2h-1z M26,108h13v2h-13z M42,108h21v1h-21z M64,108h7v1h-7z M87,108h17v1h-17z M15,109h9v1h-9z M39,109h3v1h-3z M78,109h17v1h-17z M12,110h9v1h-9z M68,110h17v1h-17z M49,111h27v1h-27z M91,111h1v4h-1z M101,111h22v1h-22z M40,112h9v1h-9z M58,112h8v1h-8z M79,112h12v1h-12z M92,112h9v3h-9z M116,112h4v2h-4z M124,112h4v2h-4z M36,113h4v1h-4z M51,113h7v1h-7z M68,113h11v2h-11z M86,113h5v2h-5z M101,113h15v1h-15z M120,113h4v1h-4z M26,114h2v1h-2z M46,114h5v2h-5z M52,114h16v2h-16z M79,114h7v1h-7z M101,114h11v1h-11z M22,115h4v2h-4z M40,115h6v1h-6z M92,115h7v1h-7z M41,116h4v1h-4z M83,116h9v1h-9z M76,117h7v2h-7z M95,117h33v1h-33z M43,118h33v1h-33z M83,118h16v1h-16z M113,118h15v1h-15z M61,119h7v1h-7z M79,119h10v1h-10z M99,119h23v1h-23z M55,120h6v1h-6z M69,120h10v1h-10z M81,120h22v1h-22z M60,121h9v4h-9z M70,121h21v1h-21z M120,121h2v1h-2z M56,122h4v1h-4z M69,122h7v3h-7z M87,122h23v1h-23z M57,123h3v1h-3z M76,123h29v1h-29z M76,124h11v1h-11z M61,125h6v1h-6z" /></svg>