<svg xmlns="http://www.w3.org/2000/svg" version="1.1" width="128" height="128" shape-rendering="crispEdges"><path fill="#87DCFE" d="M42,22h1v1h-1z M45,35h1v1h-1z M31,40h1v1h-1z M88,40h1v1h-1z M86,41h1v1h-1z M6,44h1v1h-1z M62,45h1v1h-1z M83,46h1v1h-1z M104,46h1v1h-1z M115,48h1v1h-1z M0,0h128v5h-128z M0,5h40v7h-40z M41,5h87v1h-87z M41,6h49v1h-49z M99,6h29v1h-29z M41,7h48v1h-48z M100,7h28v1h-28z M41,8h46v1h-46z M101,8h27v2h-27z M41,9h45v1h-45z M41,10h44v1h-44z M102,10h26v3h-26z M41,11h40v1h-40z M0,12h39v1h-39z M41,12h39v1h-39z M0,13h38v1h-38z M43,13h36v1h-36z M108,13h20v1h-20z M0,14h37v1h-37z M43,14h27v1h-27z M77,14h2v1h-2z M114,14h14v1h-14z M0,15h36v19h-36z M44,15h25v1h-25z M118,15h10v1h-10z M44,16h24v19h-24z M119,16h9v1h-9z M125,17h3v1h-3z M36,18h1v13h-1z M43,18h1v13h-1z M68,18h1v29h-1z M69,19h3v28h-3z M107,19h21v21h-21z M72,20h7v25h-7z M86,20h2v21h-2z M103,20h4v24h-4z M79,21h7v22h-7z M88,21h15v16h-15z M0,34h35v3h-35z M49,35h19v1h-19z M50,36h18v1h-18z M0,37h34v1h-34z M51,37h17v1h-17z M88,37h4v1h-4z M98,37h5v1h-5z M0,38h33v1h-33z M52,38h16v2h-16z M88,38h3v1h-3z M100,38h3v1h-3z M3,39h23v1h-23z M30,39h2v1h-2z M88,39h2v1h-2z M101,39h2v1h-2z M4,40h21v1h-21z M52,40h11v3h-11z M64,40h4v5h-4z M102,40h1v2h-1z M107,40h20v1h-20z M5,41h19v1h-19z M107,41h19v1h-19z M6,42h4v2h-4z M11,42h12v2h-12z M107,42h17v1h-17z M59,43h4v1h-4z M79,43h6v1h-6z M107,43h16v1h-16z M12,44h11v1h-11z M61,44h2v1h-2z M79,44h5v1h-5z M104,44h18v1h-18z M13,45h9v1h-9z M65,45h3v2h-3z M72,45h2v1h-2z M80,45h4v1h-4z M104,45h2v1h-2z M113,45h8v1h-8z M14,46h8v1h-8z M114,46h7v1h-7z M15,47h6v1h-6z M69,47h2v1h-2z M115,47h3v1h-3z" /><path fill="#6A3B11" d="M37,14h1v1h-1z M37,26h1v1h-1z M35,43h1v1h-1z M34,44h1v1h-1z M48,47h1v1h-1z M10,48h1v1h-1z M62,50h1v1h-1z M10,52h1v1h-1z M4,61h1v1h-1z M50,61h1v1h-1z M8,63h1v1h-1z M50,64h1v1h-1z M4,67h1v1h-1z M12,67h1v1h-1z M53,68h1v1h-1z M3,69h1v1h-1z M8,69h1v1h-1z M15,70h1v1h-1z M51,70h1v1h-1z M49,71h1v1h-1z M3,72h1v1h-1z M17,72h1v1h-1z M48,72h1v1h-1z M50,72h1v1h-1z M7,73h1v1h-1z M51,73h1v1h-1z M47,74h1v1h-1z M38,75h1v1h-1z M48,75h1v1h-1z M50,75h1v1h-1z M7,76h1v1h-1z M44,76h1v1h-1z M49,76h1v1h-1z M51,76h1v1h-1z M53,76h1v1h-1z M55,76h1v1h-1z M57,76h1v1h-1z M56,77h1v1h-1z M58,77h1v1h-1z M51,78h1v1h-1z M53,78h1v1h-1z M6,79h1v1h-1z M14,79h1v1h-1z M0,81h1v1h-1z M12,81h1v1h-1z M59,81h1v1h-1z M8,83h1v1h-1z M44,83h1v1h-1z M0,84h1v1h-1z M1,85h1v1h-1z M7,85h1v1h-1z M15,86h1v1h-1z M5,87h1v1h-1z M19,87h1v1h-1z M0,88h1v1h-1z M17,88h1v1h-1z M31,88h1v1h-1z M9,90h1v1h-1z M5,91h1v1h-1z M6,92h1v1h-1z M10,95h1v1h-1z M16,95h1v1h-1z M12,97h1v1h-1z M18,97h1v1h-1z M0,99h1v1h-1z M16,99h1v1h-1z M85,99h1v1h-1z M55,100h1v1h-1z M88,101h1v1h-1z M6,102h1v1h-1z M11,102h1v1h-1z M54,102h1v1h-1z M13,103h1v1h-1z M49,103h1v1h-1z M74,103h1v1h-1z M82,103h1v1h-1z M84,103h1v1h-1z M76,104h1v1h-1z M8,105h1v1h-1z M12,106h1v1h-1z M3,107h1v1h-1z M2,108h1v1h-1z M67,108h1v1h-1z M84,108h1v1h-1z M89,108h1v1h-1z M87,111h1v1h-1z M52,112h1v1h-1z M95,112h1v1h-1z M34,113h1v1h-1z M90,113h1v1h-1z M31,115h1v1h-1z M92,116h1v1h-1z M8,118h1v1h-1z M83,118h1v1h-1z M40,5h1v7h-1z M39,12h1v2h-1z M38,13h1v2h-1z M36,15h1v3h-1z M39,15h1v3h-1z M38,16h1v2h-1z M40,16h1v2h-1z M37,17h1v2h-1z M41,17h2v1h-2z M38,25h2v1h-2z M31,46h3v1h-3z M62,46h2v1h-2z M44,62h6v1h-6z M2,63h1v2h-1z M17,63h2v2h-2z M50,63h2v1h-2z M5,65h2v3h-2z M17,65h1v2h-1z M29,65h5v1h-5z M60,65h5v1h-5z M10,66h2v4h-2z M16,66h1v2h-1z M26,66h4v1h-4z M58,66h2v1h-2z M15,67h1v2h-1z M9,68h1v2h-1z M14,68h1v3h-1z M12,69h2v2h-2z M49,73h1v2h-1z M52,74h1v2h-1z M54,74h1v2h-1z M0,75h2v1h-2z M42,75h1v2h-1z M45,75h1v2h-1z M40,76h2v1h-2z M46,76h2v1h-2z M50,77h1v2h-1z M52,77h1v2h-1z M54,77h1v2h-1z M7,82h1v2h-1z M6,83h1v2h-1z M5,84h1v2h-1z M4,85h1v6h-1z M18,85h1v3h-1z M3,86h1v5h-1z M19,86h2v1h-2z M1,87h2v2h-2z M16,87h2v1h-2z M7,93h1v5h-1z M9,93h2v1h-2z M8,94h2v2h-2z M8,96h1v4h-1z M9,97h2v1h-2z M1,98h1v2h-1z M3,98h1v2h-1z M10,98h2v1h-2z M83,98h1v3h-1z M2,99h1v2h-1z M4,99h4v1h-4z M82,99h1v3h-1z M4,100h3v1h-3z M81,100h1v7h-1z M87,100h1v2h-1z M0,101h1v2h-1z M4,101h2v3h-2z M10,101h1v3h-1z M12,101h1v3h-1z M1,102h3v1h-3z M8,102h2v1h-2z M36,102h2v1h-2z M41,102h2v1h-2z M46,102h2v1h-2z M51,102h2v1h-2z M80,102h1v12h-1z M2,103h2v2h-2z M9,103h1v6h-1z M87,103h1v2h-1z M0,104h2v5h-2z M4,104h1v4h-1z M10,105h2v3h-2z M13,105h1v2h-1z M79,105h1v9h-1z M82,105h1v3h-1z M84,105h2v3h-2z M2,106h2v1h-2z M5,106h3v1h-3z M63,106h2v1h-2z M83,106h1v4h-1z M88,106h2v2h-2z M5,107h2v1h-2z M64,107h3v1h-3z M78,107h1v7h-1z M86,107h2v2h-2z M90,107h1v2h-1z M6,108h3v1h-3z M81,108h1v3h-1z M0,109h1v4h-1z M5,109h1v10h-1z M7,109h2v1h-2z M42,109h11v1h-11z M68,109h1v3h-1z M82,109h1v4h-1z M86,109h1v2h-1z M1,110h1v2h-1z M77,110h1v4h-1z M85,111h1v4h-1z M81,112h1v4h-1z M83,112h2v2h-2z M86,112h1v2h-1z M88,112h2v1h-2z M87,113h2v2h-2z M93,113h2v1h-2z M84,114h1v2h-1z M89,114h1v2h-1z M88,115h1v2h-1z M90,115h2v2h-2z" /><path fill="#F6FFFF" d="M85,10h1v1h-1z M107,15h1v1h-1z M23,73h1v1h-1z M98,95h1v1h-1z M113,95h1v1h-1z M100,96h1v1h-1z M104,102h1v1h-1z M90,6h9v7h-9z M89,7h1v6h-1z M99,7h1v6h-1z M87,8h2v5h-2z M100,8h1v6h-1z M86,9h1v3h-1z M101,10h1v5h-1z M91,13h3v1h-3z M102,13h6v1h-6z M71,14h6v1h-6z M102,14h5v2h-5z M109,14h5v1h-5z M72,15h8v1h-8z M111,15h7v1h-7z M73,16h9v1h-9z M116,16h3v1h-3z M74,17h9v1h-9z M21,66h3v5h-3z M25,66h1v10h-1z M20,67h1v3h-1z M24,67h1v8h-1z M26,67h1v8h-1z M18,68h1v2h-1z M17,69h1v3h-1z M16,71h1v2h-1z M22,71h2v2h-2z M125,72h3v11h-3z M123,73h2v9h-2z M122,74h1v7h-1z M121,75h1v5h-1z M120,76h1v3h-1z M73,84h5v8h-5z M78,85h2v9h-2z M106,85h8v7h-8z M80,86h2v8h-2z M103,86h3v6h-3z M114,86h1v10h-1z M82,87h2v7h-2z M102,87h1v12h-1z M115,87h1v9h-1z M84,88h1v6h-1z M116,88h1v8h-1z M85,89h1v6h-1z M89,89h8v4h-8z M101,89h1v9h-1z M117,89h1v7h-1z M86,90h1v6h-1z M88,90h1v3h-1z M97,90h2v5h-2z M87,91h1v6h-1z M99,91h2v5h-2z M74,92h4v1h-4z M103,92h1v5h-1z M108,92h6v1h-6z M118,92h1v4h-1z M76,93h2v1h-2z M94,93h3v1h-3z M110,93h4v1h-4z M119,93h1v3h-1z M112,94h2v1h-2z M120,94h4v1h-4z M120,95h2v1h-2z M109,99h7v3h-7z M107,100h2v2h-2z M116,100h4v3h-4z M105,101h2v2h-2z M120,101h2v3h-2z M111,102h5v1h-5z M122,102h1v2h-1z M123,103h1v2h-1z M124,104h1v2h-1z" /><path fill="#D9FBFF" d="M102,20h1v1h-1z M114,85h1v1h-1z M117,88h1v1h-1z M119,92h1v1h-1z M86,96h1v1h-1z M108,99h1v1h-1z M104,101h1v1h-1z M123,102h1v1h-1z M81,11h5v5h-5z M80,12h1v4h-1z M86,12h1v8h-1z M79,13h1v2h-1z M87,13h4v7h-4z M94,13h6v8h-6z M70,14h1v5h-1z M91,14h3v7h-3z M100,14h1v7h-1z M107,14h2v1h-2z M69,15h1v4h-1z M71,15h1v4h-1z M101,15h1v6h-1z M108,15h3v4h-3z M68,16h1v2h-1z M72,16h1v4h-1z M82,16h4v1h-4z M102,16h6v3h-6z M111,16h5v3h-5z M73,17h1v3h-1z M83,17h3v4h-3z M116,17h9v2h-9z M74,18h9v2h-9z M125,18h3v1h-3z M102,19h5v1h-5z M79,20h4v1h-4z M88,20h3v1h-3z M118,78h2v14h-2z M115,79h3v8h-3z M120,79h1v15h-1z M113,80h2v5h-2z M121,80h1v14h-1z M122,81h1v13h-1z M112,82h1v3h-1z M123,82h2v12h-2z M125,83h3v28h-3z M116,87h2v1h-2z M73,92h1v4h-1z M104,92h4v8h-4z M74,93h2v7h-2z M88,93h6v5h-6z M108,93h2v6h-2z M76,94h9v3h-9z M94,94h3v14h-3z M110,94h2v5h-2z M124,94h1v10h-1z M85,95h1v2h-1z M97,95h1v16h-1z M112,95h1v4h-1z M122,95h2v7h-2z M98,96h2v15h-2z M113,96h9v3h-9z M76,97h8v1h-8z M100,97h1v14h-1z M103,97h1v13h-1z M76,98h7v1h-7z M89,98h5v1h-5z M101,98h1v12h-1z M76,99h6v1h-6z M90,99h4v1h-4z M102,99h1v11h-1z M116,99h6v1h-6z M75,100h6v1h-6z M91,100h3v1h-3z M104,100h3v1h-3z M120,100h2v1h-2z M78,101h3v1h-3z M92,101h2v4h-2z M78,102h2v3h-2z M107,102h4v8h-4z M77,103h1v3h-1z M104,103h3v7h-3z M111,103h9v7h-9z M120,104h3v6h-3z M78,105h1v2h-1z M93,105h1v2h-1z M123,105h1v6h-1z M124,106h1v5h-1z M95,108h2v2h-2z M105,110h2v1h-2z M109,110h8v1h-8z" /><path fill="#E2AB2A" d="M41,25h1v1h-1z M42,42h1v1h-1z M43,43h1v1h-1z M42,44h1v1h-1z M47,44h1v1h-1z M48,46h1v1h-1z M64,46h1v1h-1z M11,47h1v1h-1z M32,47h1v1h-1z M63,48h1v1h-1z M9,58h1v1h-1z M13,64h1v1h-1z M35,66h1v1h-1z M65,66h1v1h-1z M69,66h1v1h-1z M34,69h1v1h-1z M3,70h1v1h-1z M53,70h1v1h-1z M55,70h1v1h-1z M57,70h1v1h-1z M52,72h1v1h-1z M53,73h1v1h-1z M55,73h1v1h-1z M12,75h1v1h-1z M58,75h1v1h-1z M59,76h1v1h-1z M1,78h1v1h-1z M14,78h1v1h-1z M55,78h1v1h-1z M0,79h1v1h-1z M15,79h1v1h-1z M19,79h1v1h-1z M3,80h1v1h-1z M12,80h1v1h-1z M14,80h1v1h-1z M7,81h1v1h-1z M24,81h1v1h-1z M73,81h1v1h-1z M12,82h1v1h-1z M21,82h1v1h-1z M21,84h1v1h-1z M20,85h1v1h-1z M16,86h1v1h-1z M26,86h1v1h-1z M0,87h1v1h-1z M28,87h1v1h-1z M63,87h1v1h-1z M7,90h1v1h-1z M4,91h1v1h-1z M10,92h1v1h-1z M16,94h1v1h-1z M0,98h1v1h-1z M4,98h1v1h-1z M7,98h1v1h-1z M11,101h1v1h-1z M16,102h1v1h-1z M82,102h1v1h-1z M54,104h1v1h-1z M82,104h1v1h-1z M84,104h1v1h-1z M7,105h1v1h-1z M12,105h1v1h-1z M59,107h1v1h-1z M81,107h1v1h-1z M87,109h1v1h-1z M89,110h1v1h-1z M90,112h1v1h-1z M89,113h1v1h-1z M30,117h1v1h-1z M33,117h1v1h-1z M76,117h1v1h-1z M79,117h1v1h-1z M9,118h1v1h-1z M40,12h1v4h-1z M41,13h2v1h-2z M43,15h1v3h-1z M41,16h2v1h-2z M63,50h2v1h-2z M11,54h1v4h-1z M10,57h1v3h-1z M44,60h1v2h-1z M12,63h1v2h-1z M34,65h1v2h-1z M1,66h2v4h-2z M0,67h1v6h-1z M3,67h1v2h-1z M4,68h2v3h-2z M6,71h2v1h-2z M54,71h1v2h-1z M1,72h2v2h-2z M7,72h2v1h-2z M8,73h2v1h-2z M59,73h1v2h-1z M2,74h2v6h-2z M6,74h3v1h-3z M10,74h2v2h-2z M4,75h1v7h-1z M6,75h2v1h-2z M14,75h1v2h-1z M0,76h1v2h-1z M5,76h2v2h-2z M9,76h1v8h-1z M13,76h1v12h-1z M7,77h2v1h-2z M10,77h3v3h-3z M8,78h1v4h-1z M18,78h1v2h-1z M21,79h2v3h-2z M5,80h3v1h-3z M20,80h1v4h-1z M23,80h1v6h-1z M72,80h1v2h-1z M1,81h2v1h-2z M5,81h1v2h-1z M10,81h2v1h-2z M16,81h4v3h-4z M14,82h2v2h-2z M22,83h1v3h-1z M10,84h3v1h-3z M15,84h2v2h-2z M18,84h2v1h-2z M24,84h2v3h-2z M14,85h1v7h-1z M17,85h1v2h-1z M0,86h2v1h-2z M10,86h1v2h-1z M9,87h1v3h-1z M11,87h2v1h-2z M15,87h1v4h-1z M5,88h2v1h-2z M8,88h1v4h-1z M12,88h1v2h-1z M16,88h1v2h-1z M62,88h1v2h-1z M64,88h1v2h-1z M1,89h2v6h-2z M6,89h2v1h-2z M13,89h1v2h-1z M0,90h1v2h-1z M61,90h1v2h-1z M65,90h1v2h-1z M9,91h2v1h-2z M3,92h1v3h-1z M12,92h1v2h-1z M60,92h1v2h-1z M66,92h1v2h-1z M4,93h2v2h-2z M11,93h1v3h-1z M15,93h1v4h-1z M0,94h1v2h-1z M6,94h1v2h-1z M14,94h1v13h-1z M59,94h1v2h-1z M67,94h1v2h-1z M12,95h2v1h-2z M2,96h3v2h-3z M13,96h1v2h-1z M16,96h2v3h-2z M58,96h1v2h-1z M68,96h1v2h-1z M84,97h4v1h-4z M15,98h1v2h-1z M57,98h1v2h-1z M69,98h1v2h-1z M85,98h4v1h-4z M9,99h5v2h-5z M84,99h1v4h-1z M86,99h4v1h-4z M7,100h2v1h-2z M50,100h3v1h-3z M56,100h1v2h-1z M70,100h1v2h-1z M85,100h1v4h-1z M88,100h3v1h-3z M8,101h2v1h-2z M13,101h1v2h-1z M15,101h1v3h-1z M83,101h1v5h-1z M86,101h1v3h-1z M89,101h3v5h-3z M55,102h1v3h-1z M71,102h1v3h-1z M88,102h1v4h-1z M6,103h3v2h-3z M11,103h1v2h-1z M60,103h7v1h-7z M12,104h2v1h-2z M56,104h5v1h-5z M67,104h4v1h-4z M92,105h1v2h-1z M90,106h2v1h-2z M93,107h1v4h-1z M88,108h1v2h-1z M91,108h2v6h-2z M94,108h1v3h-1z M76,109h2v1h-2z M89,109h2v1h-2z M95,110h1v2h-1z M83,111h2v1h-2z M92,114h2v2h-2z" /><path fill="#907045" d="M39,14h1v1h-1z M37,16h1v1h-1z M40,30h1v1h-1z M32,49h1v1h-1z M46,53h1v1h-1z M8,56h1v1h-1z M10,56h1v1h-1z M7,57h1v1h-1z M69,57h1v1h-1z M6,58h1v1h-1z M5,59h1v1h-1z M4,60h1v1h-1z M7,61h1v1h-1z M9,61h1v1h-1z M15,62h1v1h-1z M17,62h1v1h-1z M5,64h1v1h-1z M46,75h1v1h-1z M25,80h1v1h-1z M40,81h1v1h-1z M34,102h1v1h-1z M58,105h1v1h-1z M37,15h2v1h-2z M63,40h1v6h-1z M36,44h6v1h-6z M9,54h1v2h-1z M8,59h1v3h-1z M3,61h1v2h-1z M19,62h1v8h-1z M53,62h1v5h-1z M11,64h1v2h-1z M31,66h3v1h-3z M60,66h5v1h-5z M55,68h1v2h-1z M43,75h2v1h-2z M28,80h6v1h-6z M62,80h5v1h-5z" /><path fill="#EADCD3" d="M43,38h1v1h-1z M44,42h1v1h-1z M42,43h1v1h-1z M33,45h1v1h-1z M33,50h1v1h-1z M34,51h1v1h-1z M35,52h1v1h-1z M43,52h1v1h-1z M48,53h1v1h-1z M36,54h1v1h-1z M37,55h1v1h-1z M43,55h1v1h-1z M48,56h1v1h-1z M46,58h1v1h-1z M35,65h1v1h-1z M43,65h1v1h-1z M69,67h1v1h-1z M43,74h1v1h-1z M35,78h1v1h-1z M68,78h1v1h-1z M72,79h1v1h-1z M68,80h1v1h-1z M55,84h1v1h-1z M70,85h1v1h-1z M51,89h1v1h-1z M58,90h1v1h-1z M69,90h1v1h-1z M56,93h1v1h-1z M58,93h1v1h-1z M35,102h1v1h-1z M73,102h1v1h-1z M76,102h1v1h-1z M45,104h1v1h-1z M72,107h1v1h-1z M57,108h1v1h-1z M69,108h1v1h-1z M74,108h1v1h-1z M56,110h1v1h-1z M72,112h1v1h-1z M56,114h1v1h-1z M79,114h1v1h-1z M83,117h1v1h-1z M77,118h1v1h-1z M79,120h1v1h-1z M41,14h2v2h-2z M42,19h1v2h-1z M42,23h1v2h-1z M41,26h2v1h-2z M42,36h2v1h-2z M43,41h2v1h-2z M43,44h4v1h-4z M47,45h2v1h-2z M44,50h2v1h-2z M32,53h1v7h-1z M45,53h1v2h-1z M44,54h1v2h-1z M35,55h1v2h-1z M38,56h1v3h-1z M36,57h1v4h-1z M45,57h1v2h-1z M44,58h1v2h-1z M39,59h1v4h-1z M45,61h2v1h-2z M66,66h2v1h-2z M33,68h5v1h-5z M65,68h4v1h-4z M33,70h5v1h-5z M66,70h3v1h-3z M35,71h1v4h-1z M67,71h1v4h-1z M37,72h1v3h-1z M36,77h1v3h-1z M55,79h2v1h-2z M69,79h1v2h-1z M34,80h2v1h-2z M56,80h1v5h-1z M70,80h2v1h-2z M34,82h5v1h-5z M39,84h1v6h-1z M67,84h3v1h-3z M72,84h1v8h-1z M67,85h1v6h-1z M71,86h1v4h-1z M57,88h1v2h-1z M36,89h2v1h-2z M56,89h1v2h-1z M59,89h1v2h-1z M37,90h1v4h-1z M69,92h1v3h-1z M34,96h8v1h-8z M55,96h3v1h-3z M69,97h5v1h-5z M75,104h1v5h-1z M55,105h2v1h-2z M60,105h6v1h-6z M73,105h1v4h-1z M76,105h1v4h-1z M55,106h1v15h-1z M58,106h2v1h-2z M66,106h2v1h-2z M71,106h1v15h-1z M77,106h1v3h-1z M54,107h1v14h-1z M57,107h2v1h-2z M67,107h2v1h-2z M73,110h2v1h-2z M76,111h1v6h-1z M72,114h1v7h-1z M77,115h2v3h-2z M80,116h3v1h-3z M84,116h1v3h-1z M87,116h1v3h-1z M81,117h1v2h-1z M88,117h1v2h-1z M89,118h1v2h-1z" /><path fill="#A26C22" d="M42,18h1v1h-1z M40,25h1v1h-1z M36,42h1v1h-1z M49,47h1v1h-1z M63,47h1v1h-1z M62,49h1v1h-1z M10,51h1v1h-1z M9,52h1v1h-1z M17,61h1v1h-1z M50,62h1v1h-1z M2,65h1v1h-1z M36,65h1v1h-1z M12,66h1v1h-1z M30,66h1v1h-1z M52,71h1v1h-1z M58,71h1v1h-1z M3,73h1v1h-1z M1,74h1v1h-1z M5,75h1v1h-1z M56,75h1v1h-1z M0,78h1v1h-1z M57,78h1v1h-1z M5,79h1v1h-1z M7,79h1v1h-1z M20,79h1v1h-1z M0,80h1v1h-1z M2,80h1v1h-1z M59,80h1v1h-1z M8,82h1v1h-1z M22,82h1v1h-1z M5,83h1v1h-1z M12,83h1v1h-1z M21,83h1v1h-1z M14,84h1v1h-1z M17,84h1v1h-1z M20,84h1v1h-1z M0,85h1v1h-1z M19,85h1v1h-1z M5,86h1v1h-1z M7,88h1v1h-1z M13,88h1v1h-1z M18,88h1v1h-1z M0,89h1v1h-1z M3,91h1v1h-1z M6,93h1v1h-1z M8,93h1v1h-1z M14,93h1v1h-1z M12,94h1v1h-1z M11,97h1v1h-1z M15,97h1v1h-1z M2,98h1v1h-1z M9,98h1v1h-1z M32,98h1v1h-1z M84,98h1v1h-1z M86,100h1v1h-1z M7,102h1v1h-1z M87,102h1v1h-1z M76,103h1v1h-1z M10,104h1v1h-1z M6,105h1v1h-1z M60,106h1v1h-1z M65,106h1v1h-1z M87,106h1v1h-1z M2,107h1v1h-1z M82,108h1v1h-1z M84,110h1v1h-1z M58,117h1v1h-1z M59,118h1v1h-1z M38,18h2v1h-2z M9,47h2v1h-2z M41,61h3v1h-3z M6,62h3v1h-3z M6,63h2v2h-2z M12,65h2v1h-2z M65,65h3v1h-3z M6,69h2v2h-2z M1,70h2v2h-2z M3,71h3v1h-3z M4,72h3v2h-3z M0,73h1v2h-1z M4,74h2v1h-2z M9,74h1v2h-1z M8,75h1v2h-1z M39,75h3v1h-3z M1,76h1v2h-1z M10,76h3v1h-3z M5,78h3v1h-3z M1,79h1v2h-1z M10,80h2v1h-2z M18,80h2v1h-2z M26,80h2v1h-2z M3,81h1v5h-1z M6,81h1v2h-1z M0,82h3v2h-3z M4,82h1v3h-1z M10,82h2v2h-2z M1,84h2v1h-2z M7,84h3v1h-3z M2,85h1v2h-1z M6,85h1v3h-1z M8,85h5v1h-5z M21,85h1v2h-1z M7,86h3v1h-3z M11,86h2v1h-2z M22,86h2v1h-2z M7,87h2v1h-2z M10,88h2v3h-2z M5,89h1v2h-1z M6,90h1v2h-1z M12,90h1v2h-1z M7,91h1v2h-1z M11,91h1v2h-1z M13,91h1v4h-1z M15,91h2v1h-2z M0,92h1v2h-1z M4,92h2v1h-2z M8,92h2v1h-2z M14,92h2v1h-2z M1,95h5v1h-5z M0,96h2v2h-2z M5,96h2v3h-2z M9,96h4v1h-4z M12,98h2v1h-2z M45,100h4v1h-4z M6,101h2v1h-2z M5,104h1v2h-1z M85,104h2v1h-2z M86,105h2v1h-2z M91,107h2v1h-2z M6,109h1v10h-1z M87,110h2v1h-2z M90,110h1v2h-1z M88,111h2v1h-2z M93,111h2v2h-2z M90,114h2v1h-2z" /><path fill="#E4B462" d="M64,45h1v1h-1z M49,46h1v1h-1z M33,49h1v1h-1z M63,49h1v1h-1z M11,52h1v1h-1z M13,56h1v1h-1z M15,61h1v1h-1z M47,61h1v1h-1z M36,66h1v1h-1z M38,66h1v1h-1z M68,66h1v1h-1z M58,72h1v1h-1z M13,75h1v1h-1z M56,78h1v1h-1z M35,79h1v1h-1z M24,80h1v1h-1z M67,80h1v1h-1z M66,104h1v1h-1z M76,110h1v1h-1z M79,115h1v1h-1z M40,18h2v1h-2z M32,39h1v7h-1z M10,42h1v5h-1z M10,49h1v2h-1z M14,57h1v7h-1z M53,57h1v5h-1z M9,59h1v2h-1z M13,61h1v3h-1z M37,65h1v2h-1z M56,71h1v2h-1z M57,73h1v2h-1z M36,80h4v1h-4z M60,80h2v1h-2z" /><path fill="#64718D" d="M37,19h1v1h-1z M39,21h1v1h-1z M38,22h1v1h-1z M38,24h1v1h-1z M37,25h1v1h-1z M36,34h1v1h-1z M40,41h1v1h-1z M47,42h1v1h-1z M31,50h1v1h-1z M47,52h1v1h-1z M35,53h1v1h-1z M28,56h1v1h-1z M36,56h1v1h-1z M30,64h1v1h-1z M39,66h1v1h-1z M41,67h1v1h-1z M27,68h1v1h-1z M32,70h1v1h-1z M59,70h1v1h-1z M14,74h1v1h-1z M45,74h1v1h-1z M64,77h1v1h-1z M61,78h1v1h-1z M70,78h1v1h-1z M29,79h1v1h-1z M31,79h1v1h-1z M26,85h1v1h-1z M62,85h1v1h-1z M43,86h1v1h-1z M58,86h1v1h-1z M53,93h1v1h-1z M44,102h1v1h-1z M10,109h1v1h-1z M0,114h1v1h-1z M80,115h1v1h-1z M25,117h1v1h-1z M80,117h1v1h-1z M75,118h1v1h-1z M80,119h1v1h-1z M39,19h2v1h-2z M38,26h2v1h-2z M38,49h2v1h-2z M29,57h1v7h-1z M25,61h1v2h-1z M28,61h1v2h-1z M31,61h1v2h-1z M35,61h1v3h-1z M26,62h1v2h-1z M32,62h1v3h-1z M8,70h4v1h-4z M12,73h2v1h-2z M25,78h2v1h-2z M51,79h3v1h-3z M63,84h2v1h-2z M40,87h1v4h-1z M47,96h3v1h-3z M34,106h19v1h-19z M7,110h1v9h-1z M34,110h10v1h-10z M8,111h2v7h-2z M35,111h5v2h-5z M42,111h1v8h-1z M1,112h2v1h-2z M2,114h2v1h-2z M3,115h1v4h-1z M94,115h34v4h-34z M93,116h1v3h-1z M90,117h3v1h-3z M90,118h2v1h-2z M101,119h27v1h-27z M119,120h9v1h-9z M125,121h3v7h-3z M117,122h8v6h-8z M96,123h21v5h-21z M28,124h68v1h-68z M66,125h30v3h-30z M47,126h19v2h-19z M40,127h7v1h-7z" /><path fill="#504E5A" d="M40,21h1v1h-1z M38,23h1v1h-1z M31,45h1v1h-1z M64,52h1v1h-1z M65,56h1v1h-1z M69,61h1v1h-1z M2,62h1v1h-1z M40,66h1v1h-1z M58,70h1v1h-1z M15,71h1v1h-1z M21,72h1v1h-1z M47,73h1v1h-1z M26,77h1v1h-1z M26,79h1v1h-1z M32,79h1v1h-1z M50,79h1v1h-1z M26,84h1v1h-1z M44,84h1v1h-1z M31,89h1v1h-1z M32,99h1v1h-1z M39,102h1v1h-1z M8,110h1v1h-1z M2,111h1v1h-1z M52,111h1v1h-1z M10,112h1v1h-1z M1,114h1v1h-1z M57,117h1v1h-1z M33,118h1v1h-1z M37,119h1v1h-1z M41,119h1v1h-1z M79,119h1v1h-1z M85,119h1v1h-1z M8,120h1v1h-1z M73,120h1v1h-1z M86,120h1v1h-1z M33,121h1v1h-1z M38,19h1v2h-1z M40,39h1v2h-1z M58,68h2v1h-2z M38,74h4v1h-4z M64,79h2v1h-2z M45,83h1v2h-1z M46,84h4v1h-4z M40,85h2v1h-2z M70,107h1v2h-1z M9,109h1v2h-1z M0,113h3v1h-3z M52,114h1v3h-1z M94,114h34v1h-34z M30,118h2v1h-2z M51,118h1v2h-1z M9,119h1v2h-1z M47,119h4v1h-4z M57,119h2v1h-2z M10,120h1v2h-1z M49,120h1v2h-1z M59,120h2v1h-2z M90,120h2v1h-2z M30,121h2v1h-2z" /><path fill="#8B8B9C" d="M41,19h1v1h-1z M37,27h1v1h-1z M42,27h1v1h-1z M36,36h1v1h-1z M39,37h1v1h-1z M35,38h1v1h-1z M34,42h1v1h-1z M35,44h1v1h-1z M44,49h1v1h-1z M36,51h1v1h-1z M41,51h1v1h-1z M42,52h1v1h-1z M30,53h1v1h-1z M37,53h1v1h-1z M38,54h1v1h-1z M46,54h1v1h-1z M27,55h1v1h-1z M29,55h1v1h-1z M42,55h1v1h-1z M47,55h1v1h-1z M41,58h1v1h-1z M47,58h1v1h-1z M39,63h1v1h-1z M27,64h1v1h-1z M35,64h1v1h-1z M25,65h1v1h-1z M16,73h1v1h-1z M15,74h1v1h-1z M44,74h1v1h-1z M29,78h1v1h-1z M32,78h1v1h-1z M37,78h1v1h-1z M69,78h1v1h-1z M25,79h1v1h-1z M30,79h1v1h-1z M61,79h1v1h-1z M68,79h1v1h-1z M70,79h1v1h-1z M43,85h1v1h-1z M32,89h1v1h-1z M54,89h1v1h-1z M48,93h1v1h-1z M50,93h1v1h-1z M52,93h1v1h-1z M55,93h1v1h-1z M55,101h1v1h-1z M72,102h1v1h-1z M77,102h1v1h-1z M33,103h1v1h-1z M75,103h1v1h-1z M34,105h1v1h-1z M39,105h1v1h-1z M49,105h1v1h-1z M66,105h1v1h-1z M10,108h1v1h-1z M33,108h1v1h-1z M56,108h1v1h-1z M68,108h1v1h-1z M79,116h1v1h-1z M83,116h1v1h-1z M75,117h1v1h-1z M89,117h1v1h-1z M49,118h1v1h-1z M80,118h1v1h-1z M30,119h1v1h-1z M33,119h1v1h-1z M37,20h1v5h-1z M40,22h1v2h-1z M40,35h1v2h-1z M39,40h1v2h-1z M34,41h2v1h-2z M37,50h4v1h-4z M31,51h1v2h-1z M39,53h2v2h-2z M41,54h1v2h-1z M26,56h1v3h-1z M40,57h1v2h-1z M25,59h1v2h-1z M33,60h1v4h-1z M41,60h2v1h-2z M48,61h2v1h-2z M36,62h1v2h-1z M40,65h3v1h-3z M44,66h6v1h-6z M28,68h5v1h-5z M41,68h1v5h-1z M47,68h1v4h-1z M60,68h5v1h-5z M27,70h5v1h-5z M60,70h5v1h-5z M28,71h1v4h-1z M31,71h1v4h-1z M60,71h1v3h-1z M63,71h1v3h-1z M30,77h2v2h-2z M63,77h1v3h-1z M68,77h2v1h-2z M62,78h1v2h-1z M64,78h2v1h-2z M51,80h1v5h-1z M26,82h8v1h-8z M40,83h4v1h-4z M28,84h1v3h-1z M33,84h1v9h-1z M52,84h2v1h-2z M60,84h2v1h-2z M65,84h2v1h-2z M60,85h1v6h-1z M66,85h1v5h-1z M43,87h1v3h-1z M48,88h1v2h-1z M53,88h2v1h-2z M47,89h1v2h-1z M49,89h1v2h-1z M52,92h2v1h-2z M43,96h4v1h-4z M54,100h1v2h-1z M32,101h22v1h-22z M71,101h7v1h-7z M43,102h1v4h-1z M48,102h3v1h-3z M53,102h1v22h-1z M74,102h2v1h-2z M38,103h1v3h-1z M40,103h1v3h-1z M48,103h1v3h-1z M50,103h1v3h-1z M35,104h1v2h-1z M36,105h2v1h-2z M41,105h2v1h-2z M44,105h4v1h-4z M51,105h2v1h-2z M70,105h1v2h-1z M72,105h1v2h-1z M74,105h1v2h-1z M34,107h19v2h-19z M69,109h2v15h-2z M51,110h2v1h-2z M47,115h5v1h-5z M47,116h1v3h-1z M50,116h2v1h-2z M50,117h1v2h-1z M81,119h1v5h-1z M93,119h8v4h-8z M50,120h1v4h-1z M57,120h1v4h-1z M80,120h1v4h-1z M101,120h18v2h-18z M51,121h1v3h-1z M54,121h3v3h-3z M58,121h11v3h-11z M71,121h9v3h-9z M82,121h11v3h-11z M119,121h6v1h-6z M0,122h50v2h-50z M52,122h1v2h-1z M101,122h16v1h-16z M93,123h3v1h-3z M0,124h28v4h-28z M28,125h38v1h-38z M28,126h19v1h-19z M28,127h12v1h-12z" /><path fill="#651E28" d="M39,20h1v1h-1z M38,21h1v1h-1z M40,29h1v1h-1z M40,34h1v1h-1z M36,35h1v1h-1z M39,35h1v1h-1z M40,37h1v1h-1z M35,39h1v1h-1z M38,48h1v1h-1z M48,48h1v1h-1z M37,49h1v1h-1z M40,49h1v1h-1z M30,50h1v1h-1z M34,50h1v1h-1z M42,51h1v1h-1z M46,52h1v1h-1z M59,56h1v1h-1z M57,58h1v1h-1z M41,59h1v1h-1z M40,64h1v1h-1z M63,64h1v1h-1z M66,64h1v1h-1z M68,65h1v1h-1z M58,67h1v1h-1z M58,69h1v1h-1z M48,71h1v1h-1z M47,72h1v1h-1z M38,73h1v1h-1z M41,73h1v1h-1z M63,74h1v1h-1z M30,76h1v1h-1z M39,76h1v1h-1z M63,76h1v1h-1z M29,77h1v1h-1z M62,77h1v1h-1z M72,78h1v1h-1z M40,82h1v1h-1z M24,83h1v1h-1z M58,84h1v1h-1z M32,88h1v1h-1z M47,88h1v1h-1z M32,90h1v1h-1z M43,90h1v1h-1z M66,90h1v1h-1z M60,91h1v1h-1z M48,92h1v1h-1z M54,92h1v1h-1z M48,94h1v1h-1z M50,94h1v1h-1z M41,98h1v1h-1z M74,112h1v1h-1z M12,118h1v1h-1z M24,118h1v1h-1z M39,22h1v3h-1z M38,27h3v1h-3z M37,28h2v3h-2z M36,31h2v3h-2z M39,31h2v3h-2z M35,34h1v4h-1z M37,34h1v5h-1z M34,37h1v3h-1z M36,37h1v4h-1z M41,39h1v3h-1z M33,40h1v2h-1z M35,45h8v1h-8z M34,46h8v1h-8z M33,47h3v2h-3z M37,47h5v1h-5z M40,48h2v1h-2z M35,49h1v2h-1z M45,49h2v1h-2z M41,50h2v1h-2z M47,50h1v2h-1z M37,51h4v2h-4z M41,52h1v2h-1z M42,53h1v2h-1z M47,53h1v2h-1z M62,53h1v2h-1z M38,55h3v1h-3z M59,55h2v1h-2z M39,56h4v1h-4z M47,56h1v2h-1z M41,57h2v1h-2z M58,57h1v2h-1z M61,57h1v2h-1z M42,58h1v2h-1z M48,59h1v2h-1z M56,59h1v2h-1z M59,59h2v2h-2z M57,61h2v2h-2z M61,61h1v2h-1z M41,62h3v1h-3z M41,63h2v2h-2z M45,63h5v3h-5z M66,63h2v1h-2z M41,66h2v1h-2z M27,67h6v1h-6z M39,67h2v7h-2z M42,67h1v7h-1z M44,67h6v1h-6z M60,67h5v1h-5z M38,68h1v3h-1z M44,68h1v6h-1z M46,68h1v7h-1z M48,68h2v3h-2z M27,69h6v1h-6z M60,69h5v1h-5z M8,71h7v1h-7z M27,71h1v9h-1z M29,71h2v5h-2z M32,71h1v7h-1z M59,71h1v2h-1z M61,71h2v5h-2z M64,71h1v6h-1z M9,72h7v1h-7z M10,73h2v1h-2z M14,73h2v1h-2z M12,74h2v1h-2z M60,74h1v3h-1z M26,75h1v2h-1z M28,75h1v2h-1z M31,75h1v2h-1z M65,75h1v3h-1z M25,76h1v2h-1z M33,76h1v4h-1z M36,76h2v1h-2z M43,76h1v7h-1z M66,76h1v4h-1z M70,76h1v2h-1z M24,77h1v3h-1z M37,77h2v1h-2z M40,77h3v4h-3z M44,77h1v6h-1z M59,77h1v3h-1z M71,77h1v3h-1z M38,78h1v2h-1z M50,80h1v5h-1z M52,80h1v4h-1z M25,81h9v1h-9z M38,81h2v1h-2z M41,81h2v2h-2z M60,81h7v3h-7z M68,81h4v1h-4z M24,82h2v1h-2z M59,82h1v5h-1z M26,83h8v1h-8z M27,84h1v3h-1z M29,84h4v4h-4z M40,84h4v1h-4z M37,85h1v4h-1z M44,85h1v6h-1z M61,85h1v5h-1z M63,85h3v2h-3z M40,86h3v1h-3z M62,86h1v2h-1z M70,86h1v4h-1z M41,87h2v4h-2z M49,87h1v2h-1z M64,87h2v1h-2z M50,88h1v5h-1z M58,88h1v2h-1z M65,88h1v2h-1z M47,91h1v4h-1z M49,91h1v4h-1z M51,91h4v1h-4z M70,91h1v4h-1z M51,92h1v3h-1z M52,94h2v1h-2z M33,97h2v1h-2z M40,97h18v1h-18z M34,109h8v1h-8z M40,111h2v8h-2z M35,113h5v6h-5z M14,114h1v5h-1z M33,114h2v3h-2z M0,115h3v4h-3z M15,115h1v4h-1z M32,115h1v3h-1z M13,116h1v3h-1z M16,116h4v3h-4z M27,116h3v1h-3z M26,117h3v2h-3z M34,117h1v2h-1z" /><path fill="#A4362E" d="M40,20h1v1h-1z M41,21h1v1h-1z M40,28h1v1h-1z M42,35h1v1h-1z M39,36h1v1h-1z M43,37h1v1h-1z M44,38h1v1h-1z M42,49h1v1h-1z M46,50h1v1h-1z M35,51h1v1h-1z M45,52h1v1h-1z M63,52h1v1h-1z M37,54h1v1h-1z M65,54h1v1h-1z M66,55h1v1h-1z M61,56h1v1h-1z M67,56h1v1h-1z M68,57h1v1h-1z M70,63h1v1h-1z M69,64h1v1h-1z M44,65h1v1h-1z M37,67h1v1h-1z M68,76h1v1h-1z M34,78h1v1h-1z M67,81h1v1h-1z M62,84h1v1h-1z M70,84h1v1h-1z M51,88h1v1h-1z M56,88h1v1h-1z M59,88h1v1h-1z M66,91h1v1h-1z M54,94h1v1h-1z M67,105h1v1h-1z M69,106h1v1h-1z M38,38h3v1h-3z M45,40h1v2h-1z M43,45h4v1h-4z M44,48h3v1h-3z M36,49h1v2h-1z M48,51h1v2h-1z M63,54h1v3h-1z M64,55h1v2h-1z M48,57h1v2h-1z M62,57h1v2h-1z M65,57h2v2h-2z M63,59h2v2h-2z M67,59h1v2h-1z M69,59h1v2h-1z M65,61h1v2h-1z M65,67h4v1h-4z M69,75h1v2h-1z M34,77h2v1h-2z M67,77h1v2h-1z M53,80h1v4h-1z M34,81h4v1h-4z M68,85h2v1h-2z M52,87h2v1h-2z M55,87h1v5h-1z M57,87h2v1h-2z M35,97h5v1h-5z M72,109h4v1h-4z M73,113h2v1h-2z" /><path fill="#C1B1AD" d="M41,20h1v1h-1z M42,21h1v1h-1z M40,24h1v1h-1z M40,26h1v1h-1z M43,35h1v1h-1z M44,51h1v1h-1z M46,51h1v1h-1z M38,53h1v1h-1z M30,54h1v1h-1z M29,56h1v1h-1z M46,57h1v1h-1z M47,59h1v1h-1z M43,60h1v1h-1z M36,61h1v1h-1z M18,62h1v1h-1z M65,70h1v1h-1z M37,79h1v1h-1z M54,79h1v1h-1z M57,79h1v1h-1z M35,84h1v1h-1z M54,84h1v1h-1z M34,86h1v1h-1z M34,88h1v1h-1z M51,90h1v1h-1z M68,90h1v1h-1z M70,90h1v1h-1z M69,91h1v1h-1z M33,102h1v1h-1z M38,102h1v1h-1z M40,102h1v1h-1z M45,102h1v1h-1z M35,103h1v1h-1z M57,105h1v1h-1z M59,105h1v1h-1z M71,105h1v1h-1z M74,107h1v1h-1z M72,108h1v1h-1z M73,111h1v1h-1z M41,22h1v3h-1z M36,43h6v1h-6z M28,57h1v4h-1z M32,60h1v2h-1z M38,62h1v3h-1z M43,67h1v7h-1z M71,84h1v2h-1z M34,90h1v4h-1z M39,90h1v4h-1z M71,91h1v4h-1z M67,92h1v2h-1z M72,92h1v3h-1z M50,96h5v1h-5z M73,103h1v2h-1z M61,104h5v1h-5z M54,105h1v2h-1z M68,105h2v1h-2z M72,110h1v2h-1z M75,110h1v7h-1z M77,114h2v1h-2z" /><path fill="#D58D68" d="M42,25h1v1h-1z M42,34h1v1h-1z M43,46h1v1h-1z M15,60h1v1h-1z M17,60h1v1h-1z M68,69h1v1h-1z M67,79h1v1h-1z M34,87h1v1h-1z M34,89h1v1h-1z M74,111h1v1h-1z M73,112h1v1h-1z M72,113h1v1h-1z M59,119h1v1h-1z M45,60h2v1h-2z M34,84h1v2h-1z M35,85h1v4h-1z M38,87h1v2h-1z M36,91h1v3h-1z" /><path fill="#D45642" d="M37,48h1v1h-1z M45,51h1v1h-1z M64,53h1v1h-1z M68,58h1v1h-1z M47,60h1v1h-1z M43,66h1v1h-1z M38,67h1v1h-1z M33,69h1v1h-1z M37,75h1v1h-1z M63,75h1v1h-1z M70,75h1v1h-1z M29,76h1v1h-1z M34,76h1v1h-1z M38,76h1v1h-1z M67,76h1v1h-1z M71,76h1v1h-1z M72,77h1v1h-1z M34,79h1v1h-1z M36,90h1v1h-1z M34,94h1v1h-1z M39,94h1v1h-1z M58,94h1v1h-1z M73,96h1v1h-1z M68,106h1v1h-1z M56,107h1v1h-1z M69,107h1v1h-1z M41,27h1v12h-1z M39,28h1v3h-1z M42,28h1v6h-1z M38,31h1v7h-1z M43,31h1v4h-1z M44,35h1v3h-1z M42,37h1v4h-1z M37,39h1v3h-1z M43,39h3v1h-3z M42,46h1v3h-1z M44,46h4v2h-4z M36,47h1v2h-1z M43,47h1v5h-1z M47,48h1v2h-1z M36,52h1v2h-1z M44,52h1v2h-1z M43,53h1v2h-1z M48,54h1v2h-1z M45,55h2v2h-2z M49,55h1v3h-1z M44,56h1v2h-1z M43,57h1v3h-1z M45,59h2v1h-2z M49,59h1v2h-1z M68,61h1v2h-1z M43,63h2v2h-2z M33,67h4v1h-4z M35,69h3v1h-3z M65,69h3v1h-3z M33,71h2v5h-2z M36,71h2v1h-2z M65,71h2v4h-2z M68,71h1v5h-1z M36,72h1v4h-1z M35,75h1v2h-1z M66,75h2v1h-2z M61,76h2v1h-2z M28,77h1v3h-1z M39,77h1v3h-1z M60,77h2v1h-2z M60,78h1v2h-1z M54,80h2v4h-2z M57,80h1v5h-1z M39,82h1v2h-1z M67,82h6v2h-6z M34,83h5v1h-5z M38,84h1v3h-1z M36,85h1v4h-1z M68,86h2v4h-2z M35,89h1v6h-1z M38,89h1v6h-1z M59,91h1v3h-1z M55,92h4v1h-4z M57,93h1v2h-1z M68,93h1v3h-1z M36,94h2v1h-2z M55,94h2v1h-2z M69,95h4v1h-4z M33,98h8v1h-8z M70,98h4v1h-4z M56,106h2v1h-2z M73,114h2v5h-2z" /><path fill="#B38E66" d="M39,34h1v1h-1z M32,48h1v1h-1z M13,57h1v1h-1z M13,60h1v1h-1z M69,68h1v1h-1z M42,74h1v1h-1z M37,84h1v1h-1z M32,91h1v1h-1z M68,91h1v1h-1z M54,93h1v1h-1z M53,100h1v1h-1z M45,103h1v1h-1z M61,106h1v1h-1z M56,109h1v1h-1z M57,116h1v1h-1z M57,118h1v1h-1z M33,120h1v1h-1z M12,61h1v2h-1z" /><path fill="#70ADE9" d="M38,41h1v1h-1z M59,54h1v1h-1z M36,55h1v1h-1z M68,55h1v1h-1z M43,56h1v1h-1z M49,58h1v1h-1z M18,67h1v1h-1z M55,67h1v1h-1z M124,72h1v1h-1z M82,86h1v1h-1z M52,88h1v1h-1z M97,89h1v1h-1z M71,90h1v1h-1z M87,90h1v1h-1z M99,90h1v1h-1z M67,91h1v1h-1z M46,35h3v6h-3z M45,36h1v3h-1z M49,36h1v9h-1z M50,37h1v24h-1z M92,37h6v52h-6z M33,38h1v2h-1z M51,38h1v25h-1z M91,38h1v51h-1z M98,38h2v52h-2z M0,39h3v22h-3z M26,39h4v14h-4z M90,39h1v50h-1z M100,39h1v52h-1z M3,40h1v20h-1z M25,40h1v17h-1z M30,40h1v10h-1z M89,40h1v49h-1z M101,40h1v49h-1z M127,40h1v32h-1z M4,41h1v18h-1z M24,41h1v18h-1z M31,41h1v3h-1z M47,41h2v1h-2z M87,41h2v49h-2z M126,41h1v31h-1z M5,42h1v16h-1z M23,42h1v24h-1z M48,42h1v2h-1z M86,42h1v48h-1z M102,42h1v45h-1z M124,42h2v30h-2z M52,43h7v13h-7z M85,43h1v46h-1z M123,43h1v30h-1z M7,44h3v3h-3z M11,44h1v3h-1z M59,44h2v10h-2z M84,44h1v44h-1z M103,44h1v42h-1z M122,44h1v30h-1z M6,45h1v12h-1z M12,45h1v10h-1z M22,45h1v21h-1z M61,45h1v7h-1z M74,45h6v39h-6z M106,45h7v37h-7z M121,45h1v30h-1z M13,46h1v10h-1z M72,46h2v31h-2z M80,46h3v40h-3z M105,46h1v40h-1z M113,46h1v34h-1z M7,47h2v7h-2z M14,47h1v10h-1z M21,47h1v19h-1z M62,47h1v2h-1z M64,47h5v3h-5z M71,47h1v29h-1z M83,47h1v40h-1z M104,47h1v39h-1z M114,47h1v33h-1z M118,47h3v29h-3z M9,48h1v4h-1z M11,48h1v4h-1z M15,48h6v10h-6z M49,48h1v7h-1z M69,48h2v9h-2z M116,48h2v31h-2z M48,49h1v2h-1z M115,49h1v30h-1z M65,50h4v3h-4z M33,51h1v2h-1z M34,52h1v3h-1z M26,53h3v1h-3z M66,53h3v1h-3z M7,54h1v2h-1z M26,54h2v1h-2z M67,54h2v1h-2z M31,55h1v6h-1z M33,55h1v5h-1z M37,56h1v5h-1z M52,56h6v1h-6z M35,57h1v4h-1z M39,57h1v2h-1z M52,57h1v10h-1z M54,57h3v2h-3z M70,57h1v2h-1z M16,58h5v1h-5z M17,59h4v1h-4z M38,59h1v3h-1z M40,59h1v5h-1z M54,59h2v8h-2z M18,60h3v2h-3z M0,61h2v2h-2z M20,62h1v5h-1z M0,63h1v4h-1z M24,64h1v3h-1z M51,64h1v5h-1z M56,65h1v4h-1z M70,65h1v10h-1z M50,66h1v4h-1z M57,67h1v3h-1z M69,69h1v6h-1z M118,76h2v2h-2z M73,77h1v4h-1z M73,82h1v2h-1z M106,82h6v3h-6z M78,84h2v1h-2z" /><path fill="#356F61" d="M38,40h1v1h-1z M43,42h1v1h-1z M47,43h1v1h-1z M33,44h1v1h-1z M48,44h1v1h-1z M49,45h1v1h-1z M61,52h1v1h-1z M11,53h1v1h-1z M63,53h1v1h-1z M65,53h1v1h-1z M64,54h1v1h-1z M66,54h1v1h-1z M65,55h1v1h-1z M67,55h1v1h-1z M66,56h1v1h-1z M68,56h1v1h-1z M8,58h1v1h-1z M15,58h1v1h-1z M69,58h1v1h-1z M9,62h1v1h-1z M68,63h1v1h-1z M14,64h1v1h-1z M70,64h1v1h-1z M50,65h1v1h-1z M54,73h1v1h-1z M55,74h1v1h-1z M59,75h1v1h-1z M52,86h1v1h-1z M56,87h1v1h-1z M59,87h1v1h-1z M38,39h2v1h-2z M43,40h2v1h-2z M46,41h1v3h-1z M37,42h5v1h-5z M44,43h2v1h-2z M63,51h2v1h-2z M12,55h1v6h-1z M8,57h2v1h-2z M63,57h2v2h-2z M67,57h1v2h-1z M11,58h1v5h-1z M13,58h1v2h-1z M65,59h2v2h-2z M68,59h1v2h-1z M10,60h1v5h-1z M70,60h1v3h-1z M66,61h2v2h-2z M69,62h1v2h-1z M15,63h1v2h-1z M54,67h1v4h-1z M56,69h1v2h-1z M53,71h1v2h-1z M55,71h1v2h-1z M57,71h1v2h-1z M56,73h1v2h-1z M58,73h1v2h-1z M53,85h5v2h-5z M63,88h1v15h-1z M62,90h1v13h-1z M64,90h1v13h-1z M61,92h1v11h-1z M65,92h1v11h-1z M60,94h1v9h-1z M66,94h1v9h-1z M34,95h6v1h-6z M50,95h9v1h-9z M59,96h1v8h-1z M67,96h1v8h-1z M69,96h4v1h-4z M50,98h7v1h-7z M58,98h1v6h-1z M68,98h1v6h-1z M33,99h8v1h-8z M47,99h7v1h-7z M70,99h4v1h-4z M33,100h6v1h-6z M57,100h1v4h-1z M69,100h1v4h-1z M71,100h4v1h-4z M56,102h1v2h-1z M70,102h1v2h-1z" /><path fill="#22353A" d="M36,41h1v1h-1z M42,41h1v1h-1z M35,42h1v1h-1z M45,42h1v1h-1z M34,43h1v1h-1z M31,44h1v1h-1z M7,56h1v1h-1z M9,56h1v1h-1z M58,56h1v1h-1z M62,56h1v1h-1z M6,57h1v1h-1z M5,58h1v1h-1z M4,59h1v1h-1z M3,60h1v1h-1z M2,61h1v1h-1z M59,62h1v1h-1z M11,63h1v1h-1z M62,63h1v1h-1z M29,64h1v1h-1z M10,65h1v1h-1z M69,65h1v1h-1z M13,66h1v1h-1z M59,67h1v1h-1z M50,70h1v1h-1z M52,70h1v1h-1z M49,72h1v1h-1z M52,73h1v1h-1z M15,75h1v1h-1z M24,75h1v1h-1z M47,75h1v1h-1z M49,75h1v1h-1z M55,75h1v1h-1z M57,75h1v1h-1z M21,76h1v1h-1z M48,76h1v1h-1z M54,76h1v1h-1z M56,76h1v1h-1z M58,76h1v1h-1z M51,87h1v1h-1z M54,87h1v1h-1z M46,94h1v1h-1z M49,100h1v1h-1z M56,118h1v1h-1z M79,118h1v1h-1z M0,120h1v1h-1z M11,120h1v1h-1z M30,120h1v1h-1z M51,120h1v1h-1z M56,120h1v1h-1z M65,120h1v1h-1z M78,120h1v1h-1z M5,121h1v1h-1z M8,121h1v1h-1z M14,121h1v1h-1z M16,121h1v1h-1z M36,121h1v1h-1z M40,121h1v1h-1z M34,40h2v1h-2z M33,42h1v2h-1z M62,51h1v2h-1z M9,53h2v1h-2z M8,54h1v2h-1z M10,54h1v2h-1z M60,54h2v1h-2z M61,55h2v1h-2z M60,56h1v3h-1z M59,57h1v2h-1z M7,58h1v2h-1z M6,59h1v3h-1z M16,59h1v7h-1z M57,59h2v2h-2z M61,59h2v2h-2z M5,60h1v4h-1z M56,61h1v2h-1z M59,61h2v1h-2z M62,61h3v2h-3z M4,62h1v4h-1z M1,63h1v3h-1z M9,63h1v4h-1z M57,63h1v2h-1z M64,63h2v2h-2z M3,64h1v2h-1z M8,64h1v3h-1z M67,64h2v1h-2z M7,65h1v2h-1z M14,65h2v2h-2z M27,65h2v1h-2z M51,69h2v1h-2z M19,70h2v1h-2z M20,71h2v1h-2z M51,71h1v2h-1z M18,72h3v2h-3z M17,73h1v6h-1z M21,73h2v3h-2z M48,73h1v2h-1z M50,73h1v2h-1z M16,74h1v3h-1z M18,74h1v3h-1z M20,74h1v3h-1z M23,74h1v2h-1z M51,74h1v2h-1z M53,74h1v2h-1z M49,85h4v1h-4z M48,86h4v1h-4z M47,87h2v1h-2z M40,91h5v1h-5z M40,92h4v3h-4z M44,93h2v2h-2z M41,95h4v1h-4z M47,95h3v1h-3z M42,98h8v1h-8z M41,99h6v1h-6z M54,99h3v1h-3z M39,100h6v1h-6z M10,114h2v6h-2z M12,115h1v3h-1z M29,118h1v4h-1z M52,118h1v4h-1z M92,118h1v3h-1z M0,119h8v1h-8z M12,119h17v1h-17z M31,119h2v2h-2z M34,119h3v1h-3z M38,119h3v2h-3z M42,119h5v1h-5z M60,119h9v1h-9z M73,119h3v1h-3z M77,119h2v1h-2z M82,119h3v1h-3z M86,119h3v1h-3z M90,119h2v1h-2z M2,120h2v2h-2z M5,120h3v1h-3z M13,120h1v2h-1z M15,120h9v1h-9z M25,120h1v2h-1z M27,120h2v2h-2z M35,120h1v2h-1z M42,120h2v2h-2z M45,120h1v2h-1z M61,120h3v1h-3z M67,120h2v1h-2z M74,120h2v1h-2z M83,120h3v1h-3z M87,120h3v1h-3z M18,121h6v1h-6z M46,121h2v1h-2z" /><path fill="#241F18" d="M34,45h1v1h-1z M39,48h1v1h-1z M34,49h1v1h-1z M41,49h1v1h-1z M61,53h1v1h-1z M57,57h1v1h-1z M63,63h1v1h-1z M62,64h1v1h-1z M52,68h1v1h-1z M15,69h1v1h-1z M59,69h1v1h-1z M19,71h1v1h-1z M50,71h1v1h-1z M50,76h1v1h-1z M52,76h1v1h-1z M14,77h1v1h-1z M18,77h1v1h-1z M51,77h1v1h-1z M53,77h1v1h-1z M55,77h1v1h-1z M57,77h1v1h-1z M23,79h1v1h-1z M14,81h1v1h-1z M25,83h1v1h-1z M36,84h1v1h-1z M42,85h1v1h-1z M58,85h1v1h-1z M50,87h1v1h-1z M16,90h1v1h-1z M54,90h1v1h-1z M58,91h1v1h-1z M28,92h1v1h-1z M44,92h1v1h-1z M68,92h1v1h-1z M29,93h1v1h-1z M46,93h1v1h-1z M10,94h1v1h-1z M28,94h1v1h-1z M40,95h1v1h-1z M18,96h1v1h-1z M42,96h1v1h-1z M24,97h1v1h-1z M24,100h1v1h-1z M32,100h1v1h-1z M16,101h1v1h-1z M22,101h1v1h-1z M24,102h1v1h-1z M26,102h1v1h-1z M25,103h1v1h-1z M54,103h1v1h-1z M23,104h1v1h-1z M49,104h1v1h-1z M74,104h1v1h-1z M86,106h1v1h-1z M7,107h1v1h-1z M26,107h1v1h-1z M33,107h1v1h-1z M22,109h1v1h-1z M28,109h1v1h-1z M84,109h1v1h-1z M23,110h1v1h-1z M83,110h1v1h-1z M26,111h1v1h-1z M81,111h1v1h-1z M86,111h1v1h-1z M28,112h1v1h-1z M87,112h1v1h-1z M10,113h1v1h-1z M52,113h1v1h-1z M80,114h1v1h-1z M13,115h1v1h-1z M27,115h1v1h-1z M87,115h1v1h-1z M26,116h1v1h-1z M89,116h1v1h-1z M29,117h1v1h-1z M59,117h1v1h-1z M25,118h1v1h-1z M32,118h1v1h-1z M48,118h1v1h-1z M58,118h1v1h-1z M78,118h1v1h-1z M8,119h1v1h-1z M56,119h1v1h-1z M14,120h1v1h-1z M58,120h1v1h-1z M64,120h1v1h-1z M66,120h1v1h-1z M77,120h1v1h-1z M82,120h1v1h-1z M0,121h1v1h-1z M9,121h1v1h-1z M11,121h1v1h-1z M15,121h1v1h-1z M17,121h1v1h-1z M32,121h1v1h-1z M48,121h1v1h-1z M31,47h1v3h-1z M60,62h1v3h-1z M56,63h1v2h-1z M58,63h2v3h-2z M61,63h1v2h-1z M18,65h1v2h-1z M57,65h1v2h-1z M3,66h2v1h-2z M7,67h3v1h-3z M13,67h2v1h-2z M17,67h1v2h-1z M52,67h2v1h-2z M6,68h3v1h-3z M12,68h2v1h-2z M16,68h1v3h-1z M45,68h1v6h-1z M18,70h1v2h-1z M38,71h1v2h-1z M19,74h1v5h-1z M15,76h1v3h-1z M22,76h3v1h-3z M16,77h1v4h-1z M20,77h4v2h-4z M45,77h5v6h-5z M58,78h1v6h-1z M17,79h1v2h-1z M15,80h1v2h-1z M46,83h4v1h-4z M45,85h4v1h-4z M45,86h3v1h-3z M20,87h3v1h-3z M45,87h2v6h-2z M19,88h3v3h-3z M24,88h1v5h-1z M17,89h2v7h-2z M23,89h1v10h-1z M52,89h2v2h-2z M22,90h1v4h-1z M48,90h1v2h-1z M57,90h1v2h-1z M19,91h2v25h-2z M25,91h2v2h-2z M16,92h1v2h-1z M21,92h1v2h-1z M21,95h2v5h-2z M45,95h2v1h-2z M24,96h2v1h-2z M18,98h1v11h-1z M17,99h1v11h-1z M25,99h1v2h-1z M0,100h2v1h-2z M3,100h1v2h-1z M15,100h2v1h-2z M21,100h1v7h-1z M1,101h2v1h-2z M0,103h2v1h-2z M16,103h1v13h-1z M22,103h1v2h-1z M34,103h1v2h-1z M36,103h2v2h-2z M39,103h1v2h-1z M41,103h2v2h-2z M44,103h1v2h-1z M46,103h2v2h-2z M51,103h2v2h-2z M72,103h1v2h-1z M15,104h1v11h-1z M2,105h2v1h-2z M8,106h1v2h-1z M22,106h2v1h-2z M62,106h1v13h-1z M12,107h3v7h-3z M23,107h2v1h-2z M60,107h2v12h-2z M63,107h1v12h-1z M3,108h3v1h-3z M11,108h1v6h-1z M21,108h2v1h-2z M27,108h1v4h-1z M58,108h2v9h-2z M64,108h3v11h-3z M85,108h1v3h-1z M1,109h4v1h-4z M57,109h1v7h-1z M67,109h1v10h-1z M2,110h3v1h-3z M10,110h1v2h-1z M21,110h1v9h-1z M44,110h7v5h-7z M3,111h2v3h-2z M17,111h2v5h-2z M22,111h1v8h-1z M43,111h1v8h-1z M51,111h1v4h-1z M56,111h1v3h-1z M68,112h1v7h-1z M23,113h1v6h-1z M82,113h1v3h-1z M4,114h1v5h-1z M12,114h2v1h-2z M24,114h1v4h-1z M83,114h1v2h-1z M86,114h1v5h-1z M25,115h1v2h-1z M30,115h1v2h-1z M44,115h3v4h-3z M56,115h1v3h-1z M85,115h1v4h-1z M20,116h1v3h-1z M31,116h1v2h-1z M48,116h2v2h-2z M51,117h2v1h-2z M82,117h1v2h-1z M76,118h1v3h-1z M1,120h1v2h-1z M4,120h1v2h-1z M12,120h1v2h-1z M24,120h1v2h-1z M26,120h1v2h-1z M34,120h1v2h-1z M36,120h2v1h-2z M41,120h1v2h-1z M44,120h1v2h-1z M46,120h3v1h-3z M6,121h2v1h-2z M37,121h3v1h-3z" /><path fill="#11528B" d="M35,54h1v1h-1z M26,55h1v1h-1z M33,64h1v1h-1z M36,64h1v1h-1z M38,65h1v1h-1z M32,50h1v3h-1z M30,51h1v2h-1z M29,53h1v2h-1z M31,53h1v2h-1z M33,53h1v2h-1z M28,54h1v2h-1z M30,55h1v9h-1z M34,55h1v10h-1z M27,56h1v8h-1z M25,57h1v2h-1z M24,59h1v5h-1z M26,59h1v3h-1z M37,61h1v4h-1z M25,63h1v2h-1z M28,63h1v2h-1z M31,63h1v2h-1z M26,64h1v2h-1z M39,64h1v2h-1z" /><path fill="#74712E" d="M15,59h1v1h-1z M70,59h1v1h-1z M7,60h1v1h-1z M3,63h1v1h-1z M53,69h1v1h-1z M22,89h1v1h-1z M21,91h1v1h-1z M56,91h1v1h-1z M28,93h1v1h-1z M22,100h1v1h-1z M22,102h1v1h-1z M25,102h1v1h-1z M21,109h1v1h-1z M17,110h1v1h-1z M22,110h1v1h-1z M95,113h1v1h-1z M26,115h1v1h-1z M23,87h5v1h-5z M22,88h2v1h-2z M25,88h6v3h-6z M31,90h1v25h-1z M27,91h4v1h-4z M27,92h1v16h-1z M29,92h2v1h-2z M32,92h1v6h-1z M24,93h3v3h-3z M30,93h1v22h-1z M33,93h1v4h-1z M21,94h2v1h-2z M29,94h1v22h-1z M28,95h1v14h-1z M26,96h1v6h-1z M25,97h1v2h-1z M24,98h1v2h-1z M23,99h1v5h-1z M24,101h2v1h-2z M32,102h1v13h-1z M24,103h1v4h-1z M26,103h1v4h-1z M25,104h1v11h-1z M33,104h1v3h-1z M22,105h2v1h-2z M21,107h2v1h-2z M23,108h2v2h-2z M26,108h1v3h-1z M18,109h1v2h-1z M33,109h1v5h-1z M24,110h1v4h-1z M28,110h1v2h-1z M96,110h1v4h-1z M101,110h4v4h-4z M107,110h2v4h-2z M117,110h6v4h-6z M23,111h1v2h-1z M34,111h1v2h-1z M97,111h4v3h-4z M105,111h2v3h-2z M109,111h8v3h-8z M123,111h5v3h-5z M26,112h2v3h-2z M28,113h1v3h-1z" /></svg>