<svg xmlns="http://www.w3.org/2000/svg" version="1.1" width="128" height="128" shape-rendering="crispEdges"><path fill="#47D6FF" d="M105,18h1v1h-1z M59,24h1v1h-1z M0,30h1v1h-1z M127,32h1v1h-1z M103,33h1v1h-1z M109,33h1v1h-1z M115,33h1v1h-1z M108,36h1v1h-1z M118,36h1v1h-1z M0,0h128v14h-128z M0,14h38v1h-38z M48,14h80v1h-80z M0,15h36v1h-36z M49,15h79v1h-79z M0,16h35v1h-35z M50,16h78v2h-78z M0,17h34v1h-34z M0,18h33v1h-33z M53,18h51v1h-51z M107,18h21v11h-21z M0,19h32v2h-32z M54,19h49v1h-49z M55,20h48v1h-48z M106,20h1v2h-1z M0,21h31v3h-31z M56,21h16v1h-16z M80,21h23v1h-23z M56,22h15v1h-15z M82,22h20v2h-20z M57,23h13v1h-13z M0,24h24v1h-24z M66,24h3v1h-3z M84,24h19v3h-19z M106,24h1v5h-1z M0,25h22v1h-22z M0,26h20v1h-20z M0,27h19v1h-19z M85,27h18v3h-18z M0,28h18v1h-18z M0,29h17v1h-17z M107,29h5v2h-5z M113,29h15v2h-15z M9,30h8v1h-8z M87,30h17v1h-17z M15,31h2v1h-2z M88,31h16v1h-16z M107,31h1v4h-1z M109,31h3v1h-3z M113,31h3v1h-3z M117,31h11v1h-11z M91,32h5v1h-5z M101,32h3v1h-3z M108,32h1v3h-1z M110,32h2v1h-2z M113,32h2v1h-2z M116,32h5v1h-5z M118,33h2v1h-2z M116,34h3v1h-3z M109,37h1v2h-1z" /><path fill="#FAFDFD" d="M83,26h1v1h-1z M38,27h1v1h-1z M24,30h1v1h-1z M37,31h1v1h-1z M60,32h1v1h-1z M51,37h1v1h-1z M7,41h1v1h-1z M21,43h1v1h-1z M50,43h1v1h-1z M37,45h1v1h-1z M35,46h1v1h-1z M15,58h1v1h-1z M13,59h1v1h-1z M64,64h1v1h-1z M77,66h1v1h-1z M79,66h1v1h-1z M62,67h1v1h-1z M38,71h1v1h-1z M58,71h1v1h-1z M105,71h1v1h-1z M23,72h1v1h-1z M55,72h1v1h-1z M19,75h1v1h-1z M5,77h1v1h-1z M4,78h1v1h-1z M48,79h1v1h-1z M55,79h1v1h-1z M97,87h1v1h-1z M38,14h10v10h-10z M36,15h2v16h-2z M48,15h1v10h-1z M35,16h1v13h-1z M49,16h1v8h-1z M34,17h1v11h-1z M33,18h1v10h-1z M50,18h3v7h-3z M32,19h1v9h-1z M53,19h1v8h-1z M54,20h1v8h-1z M31,21h1v6h-1z M55,21h1v16h-1z M72,21h8v3h-8z M71,22h1v6h-1z M80,22h2v4h-2z M56,23h1v12h-1z M70,23h1v5h-1z M24,24h7v3h-7z M38,24h7v1h-7z M57,24h2v10h-2z M60,24h6v2h-6z M69,24h1v4h-1z M72,24h3v1h-3z M78,24h2v1h-2z M82,24h2v2h-2z M22,25h2v9h-2z M38,25h4v1h-4z M51,25h2v1h-2z M59,25h1v9h-1z M66,25h3v2h-3z M72,25h2v1h-2z M20,26h2v17h-2z M38,26h3v1h-3z M60,26h3v5h-3z M19,27h1v15h-1z M24,27h5v1h-5z M63,27h1v3h-1z M18,28h1v13h-1z M24,28h3v1h-3z M17,29h1v12h-1z M24,29h2v1h-2z M54,31h1v6h-1z M60,31h2v1h-2z M16,32h1v8h-1z M7,34h6v6h-6z M22,34h1v3h-1z M52,34h2v4h-2z M5,35h2v11h-2z M13,35h3v5h-3z M4,36h1v13h-1z M50,36h2v1h-2z M3,37h1v12h-1z M2,38h1v12h-1z M39,38h8v6h-8z M37,39h2v6h-2z M47,39h3v5h-3z M7,40h2v1h-2z M22,40h1v5h-1z M35,40h2v6h-2z M50,40h3v3h-3z M56,40h6v1h-6z M34,41h1v6h-1z M53,41h4v1h-4z M1,42h1v9h-1z M33,42h1v7h-1z M32,43h1v10h-1z M31,44h1v10h-1z M39,44h2v1h-2z M44,44h5v1h-5z M0,45h1v7h-1z M5,46h1v2h-1z M30,46h1v9h-1z M27,47h3v8h-3z M26,48h1v7h-1z M25,49h1v6h-1z M18,52h7v3h-7z M15,53h3v5h-3z M13,54h2v5h-2z M12,55h1v5h-1z M18,55h6v1h-6z M11,56h1v5h-1z M18,56h3v1h-3z M10,57h1v5h-1z M18,57h2v1h-2z M64,58h9v4h-9z M9,59h1v5h-1z M62,59h2v8h-2z M73,59h5v4h-5z M61,60h1v9h-1z M78,60h2v3h-2z M80,61h2v2h-2z M60,62h1v8h-1z M64,62h5v1h-5z M82,62h7v1h-7z M57,63h3v7h-3z M64,63h3v1h-3z M75,63h4v1h-4z M47,64h3v1h-3z M56,64h1v6h-1z M76,64h2v2h-2z M45,65h3v1h-3z M55,65h1v4h-1z M78,65h1v2h-1z M27,66h4v5h-4z M44,66h2v1h-2z M26,67h1v4h-1z M31,67h1v5h-1z M42,67h2v1h-2z M19,68h4v5h-4z M25,68h1v4h-1z M32,68h6v4h-6z M41,68h2v1h-2z M17,69h2v7h-2z M23,69h2v3h-2z M38,69h4v1h-4z M120,69h4v4h-4z M16,70h1v5h-1z M38,70h2v1h-2z M57,70h2v1h-2z M124,70h1v4h-1z M127,70h1v5h-1z M11,71h3v4h-3z M15,71h1v4h-1z M29,71h2v1h-2z M50,71h5v3h-5z M125,71h2v2h-2z M10,72h1v4h-1z M14,72h1v3h-1z M34,72h4v1h-4z M49,72h1v10h-1z M9,73h1v3h-1z M19,73h3v1h-3z M121,73h3v1h-3z M8,74h1v2h-1z M19,74h2v1h-2z M47,74h2v5h-2z M50,74h4v1h-4z M121,74h2v1h-2z M7,75h1v2h-1z M46,75h1v4h-1z M50,75h3v4h-3z M6,76h1v2h-1z M45,76h1v4h-1z M53,76h1v3h-1z M55,76h2v1h-2z M44,77h1v5h-1z M54,77h1v2h-1z M43,78h1v7h-1z M50,79h2v2h-2z M101,82h2v2h-2z M99,83h2v2h-2z M127,83h1v2h-1z M97,84h2v3h-2z M96,86h1v3h-1z M99,86h2v1h-2z" /><path fill="#EA781C" d="M104,18h1v1h-1z M104,20h1v1h-1z M106,18h1v2h-1z M105,19h1v2h-1z" /><path fill="#FAD02C" d="M103,20h1v1h-1z M103,19h2v1h-2z" /><path fill="#2A766F" d="M103,21h1v1h-1z M104,31h1v1h-1z M116,33h1v1h-1z M107,35h1v1h-1z M107,37h1v1h-1z M104,39h1v1h-1z M112,41h1v1h-1z M107,42h1v1h-1z M105,44h1v1h-1z M108,44h1v1h-1z M106,45h1v1h-1z M111,45h1v1h-1z M111,48h1v1h-1z M107,52h1v1h-1z M108,53h1v1h-1z M117,53h1v1h-1z M111,61h1v1h-1z M110,63h1v1h-1z M108,66h1v1h-1z M107,69h1v1h-1z M110,70h1v1h-1z M111,71h1v1h-1z M116,71h1v1h-1z M114,44h1v2h-1z M120,48h1v2h-1z M112,50h1v2h-1z M108,55h2v1h-2z M112,56h1v2h-1z M115,67h1v5h-1z M109,69h2v1h-2z" /><path fill="#06414C" d="M106,22h1v1h-1z M105,25h1v1h-1z M103,26h1v1h-1z M105,27h1v1h-1z M106,29h1v1h-1z M108,31h1v1h-1z M115,32h1v1h-1z M117,33h1v1h-1z M111,34h1v1h-1z M113,34h1v1h-1z M106,37h1v1h-1z M104,38h1v1h-1z M112,38h1v1h-1z M108,40h1v1h-1z M105,43h1v1h-1z M113,43h1v1h-1z M115,43h1v1h-1z M109,46h1v1h-1z M124,49h1v1h-1z M116,50h1v1h-1z M123,50h1v1h-1z M109,64h1v1h-1z M116,64h1v1h-1z M107,65h1v1h-1z M115,66h1v1h-1z M119,73h1v1h-1z M104,21h2v1h-2z M112,29h1v4h-1z M114,35h1v2h-1z M108,37h1v2h-1z M113,37h1v2h-1z M111,39h1v3h-1z M109,41h2v1h-2z M114,42h1v2h-1z M111,44h2v1h-2z M116,44h2v3h-2z M118,45h1v5h-1z M112,46h1v2h-1z M113,47h1v3h-1z M117,47h1v2h-1z M119,47h1v2h-1z M115,49h1v3h-1z M120,50h1v5h-1z M109,51h1v2h-1z M117,51h1v2h-1z M118,58h1v16h-1z M113,59h1v7h-1z M114,65h1v2h-1z M113,68h1v3h-1z M116,69h1v2h-1z" /><path fill="#6EF8C7" d="M108,42h1v1h-1z M107,48h1v1h-1z M122,49h1v1h-1z M107,61h1v1h-1z M108,62h1v1h-1z M108,70h1v1h-1z M109,71h1v1h-1z M102,22h2v1h-2z M106,38h2v1h-2z M108,47h2v1h-2z M112,48h1v2h-1z M109,49h2v1h-2z M108,50h2v1h-2z M111,50h1v7h-1z M110,51h1v3h-1z M110,59h1v2h-1z M109,60h1v2h-1z M110,66h1v2h-1z" /><path fill="#135E60" d="M104,25h1v1h-1z M104,28h1v1h-1z M116,31h1v1h-1z M112,35h1v1h-1z M111,37h1v1h-1z M109,40h1v1h-1z M106,41h1v1h-1z M121,46h1v1h-1z M116,47h1v1h-1z M123,49h1v1h-1z M110,57h1v1h-1z M112,59h1v1h-1z M108,65h1v1h-1z M113,66h1v1h-1z M109,67h1v1h-1z M108,68h1v1h-1z M107,71h1v1h-1z M104,22h2v1h-2z M105,31h1v4h-1z M109,42h2v1h-2z M106,43h2v1h-2z M116,51h1v11h-1z M115,58h1v5h-1z" /><path fill="#192544" d="M105,26h1v1h-1z M104,27h1v1h-1z M109,32h1v1h-1z M110,34h1v1h-1z M112,34h1v1h-1z M107,36h1v1h-1z M115,36h1v1h-1z M109,39h1v1h-1z M106,40h1v1h-1z M112,40h1v1h-1z M108,41h1v1h-1z M116,42h1v1h-1z M117,43h1v1h-1z M106,46h1v1h-1z M111,47h1v1h-1z M125,47h1v1h-1z M110,48h1v1h-1z M115,48h1v1h-1z M124,48h1v1h-1z M124,50h1v1h-1z M107,51h1v1h-1z M112,58h1v1h-1z M116,63h1v1h-1z M115,65h1v1h-1z M107,66h1v1h-1z M110,68h1v1h-1z M110,71h1v1h-1z M102,23h5v1h-5z M103,24h3v1h-3z M105,28h1v3h-1z M104,29h1v2h-1z M106,31h1v5h-1z M110,33h5v1h-5z M114,34h2v1h-2z M108,35h2v1h-2z M115,35h2v1h-2z M111,36h3v1h-3z M110,37h1v4h-1z M114,37h1v5h-1z M115,38h1v2h-1z M107,39h1v2h-1z M113,39h1v3h-1z M104,41h2v1h-2z M115,41h1v2h-1z M105,42h2v1h-2z M107,44h1v2h-1z M116,49h2v1h-2z M117,50h2v1h-2z M118,51h1v7h-1z M122,51h2v2h-2z M106,52h1v2h-1z M119,52h1v20h-1z M121,53h2v1h-2z M121,54h1v2h-1z M120,55h1v2h-1z M107,56h1v3h-1z M111,59h1v2h-1z M110,61h1v2h-1z M109,62h1v2h-1z M117,62h1v10h-1z M108,63h1v2h-1z M114,64h2v1h-2z M112,67h3v1h-3z M112,68h1v4h-1z M114,68h1v4h-1z M120,73h1v2h-1z M118,74h2v1h-2z M108,82h2v4h-2z M111,82h3v4h-3z M115,82h2v4h-2z M108,99h2v2h-2z M112,99h1v2h-1z M115,99h2v2h-2z M0,117h128v1h-128z" /><path fill="#CBEFF7" d="M47,38h1v1h-1z M53,40h1v1h-1z M32,42h1v1h-1z M29,46h1v1h-1z M17,52h1v1h-1z M73,58h1v1h-1z M82,61h1v1h-1z M78,64h1v1h-1z M44,65h1v1h-1z M41,67h1v1h-1z M16,69h1v1h-1z M14,71h1v1h-1z M46,74h1v1h-1z M53,75h1v1h-1z M44,76h1v1h-1z M102,81h1v1h-1z M59,82h1v1h-1z M24,83h1v1h-1z M67,84h1v1h-1z M6,86h1v1h-1z M15,86h1v1h-1z M17,86h1v1h-1z M33,86h1v1h-1z M54,86h1v1h-1z M38,87h1v1h-1z M71,87h1v1h-1z M35,88h1v1h-1z M74,88h1v1h-1z M74,90h1v1h-1z M80,91h1v1h-1z M78,93h1v1h-1z M90,98h1v1h-1z M45,24h3v14h-3z M49,24h1v15h-1z M75,24h3v35h-3z M42,25h3v13h-3z M48,25h1v14h-1z M50,25h1v11h-1z M74,25h1v34h-1z M78,25h2v35h-2z M41,26h1v12h-1z M51,26h2v8h-2z M63,26h3v1h-3z M72,26h2v32h-2z M80,26h3v35h-3z M29,27h3v17h-3z M39,27h2v11h-2z M53,27h1v7h-1z M64,27h5v31h-5z M83,27h2v35h-2z M27,28h2v19h-2z M32,28h3v13h-3z M38,28h1v11h-1z M54,28h1v3h-1z M69,28h3v30h-3z M26,29h1v19h-1z M35,29h1v11h-1z M25,30h1v19h-1z M63,30h1v29h-1z M85,30h1v32h-1z M24,31h1v21h-1z M36,31h1v9h-1z M62,31h1v28h-1z M86,31h2v31h-2z M37,32h1v7h-1z M61,32h1v8h-1z M88,32h1v30h-1z M60,33h1v7h-1z M89,33h1v63h-1z M23,34h1v18h-1z M51,34h1v2h-1z M57,34h3v6h-3z M90,34h1v6h-1z M56,35h1v5h-1z M22,37h1v3h-1z M50,37h1v3h-1z M54,37h2v4h-2z M51,38h3v2h-3z M9,40h8v13h-8z M8,41h1v33h-1z M17,41h2v11h-2z M32,41h2v1h-2z M57,41h5v19h-5z M7,42h1v33h-1z M19,42h1v10h-1z M53,42h4v22h-4z M20,43h1v9h-1z M51,43h2v28h-2z M21,44h1v8h-1z M29,44h2v2h-2z M41,44h3v23h-3z M49,44h2v20h-2z M90,44h1v52h-1z M22,45h1v7h-1z M38,45h3v24h-3z M44,45h5v19h-5z M91,45h1v53h-1z M6,46h1v30h-1z M36,46h2v22h-2z M92,46h1v52h-1z M34,47h2v21h-2z M93,47h1v51h-1z M5,48h1v29h-1z M94,48h1v6h-1z M3,49h2v29h-2z M33,49h1v19h-1z M2,50h1v34h-1z M95,50h1v3h-1z M1,51h1v33h-1z M0,52h1v31h-1z M9,53h6v1h-6z M32,53h1v15h-1z M9,54h4v1h-4z M31,54h1v13h-1z M9,55h3v1h-3z M24,55h7v11h-7z M9,56h2v1h-2z M21,56h3v12h-3z M95,56h6v27h-6z M9,57h1v2h-1z M20,57h1v11h-1z M94,57h1v39h-1z M101,57h2v20h-2z M16,58h4v10h-4z M103,58h1v12h-1z M14,59h2v12h-2z M104,59h1v9h-1z M12,60h2v11h-2z M57,60h4v2h-4z M11,61h1v10h-1z M105,61h1v5h-1z M10,62h1v10h-1z M57,62h3v1h-3z M69,62h4v23h-4z M67,63h2v21h-2z M73,63h2v25h-2z M79,63h10v3h-10z M9,64h1v9h-1z M44,64h3v1h-3z M50,64h1v7h-1z M53,64h3v1h-3z M65,64h2v19h-2z M75,64h1v29h-1z M48,65h2v7h-2z M53,65h2v6h-2z M64,65h1v17h-1z M24,66h3v1h-3z M46,66h2v8h-2z M76,66h1v27h-1z M80,66h9v25h-9z M24,67h2v1h-2z M44,67h2v9h-2z M63,67h1v15h-1z M77,67h3v25h-3z M16,68h3v1h-3z M23,68h2v1h-2z M43,68h1v10h-1z M62,68h1v14h-1z M42,69h1v20h-1z M55,69h1v3h-1z M61,69h1v12h-1z M40,70h2v19h-2z M56,70h1v6h-1z M59,70h2v12h-2z M26,71h3v11h-3z M39,71h1v18h-1z M57,71h1v12h-1z M103,71h2v6h-2z M24,72h2v11h-2z M29,72h5v12h-5z M38,72h1v14h-1z M48,72h1v2h-1z M58,72h1v11h-1z M22,73h2v10h-2z M34,73h4v14h-4z M55,73h1v3h-1z M125,73h2v27h-2z M21,74h1v9h-1z M54,74h1v3h-1z M123,74h2v20h-2z M11,75h6v10h-6z M20,75h1v9h-1z M121,75h2v2h-2z M127,75h1v8h-1z M8,76h3v11h-3z M17,76h3v9h-3z M7,77h1v9h-1z M55,77h2v2h-2z M101,77h1v5h-1z M3,78h1v5h-1z M5,78h2v8h-2z M4,79h1v6h-1z M46,79h2v9h-2z M52,79h3v7h-3z M56,79h1v7h-1z M45,80h1v8h-1z M48,80h1v8h-1z M55,80h1v6h-1z M50,81h2v6h-2z M122,81h1v11h-1z M26,82h1v2h-1z M28,82h1v2h-1z M44,82h1v6h-1z M49,82h1v6h-1z M66,83h1v2h-1z M95,83h4v1h-4z M30,84h4v1h-4z M95,84h2v2h-2z M101,84h2v8h-2z M11,85h4v2h-4z M16,85h3v1h-3z M31,85h3v1h-3z M43,85h1v3h-1z M72,85h1v2h-1z M99,85h2v1h-2z M127,85h1v13h-1z M52,86h1v2h-1z M95,86h1v10h-1z M9,87h2v1h-2z M13,87h2v1h-2z M34,87h3v1h-3z M98,87h3v10h-3z M97,88h1v9h-1z M96,89h1v8h-1z M83,91h6v1h-6z M78,92h2v1h-2z M84,92h5v1h-5z M101,92h1v2h-1z M86,93h3v1h-3z M87,94h2v1h-2z M124,94h1v5h-1z M99,97h2v1h-2z M100,98h1v2h-1z" /><path fill="#3AA78E" d="M103,25h1v1h-1z M104,26h1v1h-1z M113,35h1v1h-1z M110,36h1v1h-1z M112,37h1v1h-1z M111,38h1v1h-1z M106,39h1v1h-1z M112,39h1v1h-1z M106,44h1v1h-1z M113,44h1v1h-1z M112,45h1v1h-1z M107,47h1v1h-1z M110,47h1v1h-1z M116,48h1v1h-1z M111,49h1v1h-1z M122,50h1v1h-1z M106,51h1v1h-1z M110,58h1v1h-1z M116,62h1v1h-1z M115,63h1v1h-1z M107,68h1v1h-1z M109,68h1v1h-1z M108,69h1v1h-1z M107,70h1v1h-1z M109,70h1v1h-1z M103,27h1v3h-1z M104,32h1v3h-1z M105,35h1v6h-1z M110,35h2v1h-2z M103,40h2v1h-2z M111,42h3v1h-3z M108,43h4v1h-4z M109,44h2v1h-2z M115,44h1v4h-1z M108,45h2v1h-2z M107,46h2v1h-2z M110,46h2v1h-2z M113,46h2v1h-2z M122,46h3v2h-3z M114,47h1v17h-1z M121,47h1v6h-1z M108,48h2v1h-2z M122,48h2v1h-2z M107,49h2v1h-2z M106,50h2v1h-2z M113,50h1v9h-1z M108,51h1v2h-1z M112,52h1v4h-1z M115,52h1v6h-1z M107,53h1v2h-1z M109,53h1v2h-1z M110,54h1v3h-1z M117,54h1v8h-1z M106,56h1v4h-1z M108,56h2v4h-2z M111,57h1v2h-1z M107,59h1v2h-1z M108,60h1v2h-1z M112,60h1v7h-1z M107,62h1v3h-1z M111,62h1v9h-1z M110,64h1v2h-1z M109,65h1v2h-1z M116,65h1v4h-1z M107,67h2v1h-2z M108,71h1v3h-1z M113,71h1v3h-1z M105,72h3v2h-3z M109,72h4v2h-4z M114,72h4v2h-4z" /><path fill="#8DF2FD" d="M86,30h1v1h-1z M109,34h1v1h-1z M109,36h1v1h-1z M115,37h1v1h-1z M115,40h1v1h-1z M117,42h1v1h-1z M103,70h1v1h-1z M1,30h8v4h-8z M0,31h1v14h-1z M9,31h6v3h-6z M15,32h1v3h-1z M89,32h2v1h-2z M96,32h5v24h-5z M121,32h6v14h-6z M90,33h6v1h-6z M101,33h2v24h-2z M120,33h1v14h-1z M127,33h1v37h-1z M1,34h6v1h-6z M13,34h2v1h-2z M91,34h5v11h-5z M103,34h1v6h-1z M119,34h1v13h-1z M1,35h4v1h-4z M104,35h1v3h-1z M1,36h3v1h-3z M116,36h2v6h-2z M1,37h2v1h-2z M118,37h1v8h-1z M1,38h1v4h-1z M90,40h1v4h-1z M103,41h1v17h-1z M104,42h1v17h-1z M92,45h4v1h-4z M105,45h1v16h-1z M93,46h3v1h-3z M125,46h2v1h-2z M94,47h2v1h-2z M126,47h1v24h-1z M95,48h1v2h-1z M106,48h1v2h-1z M125,48h1v23h-1z M124,51h1v19h-1z M95,53h1v3h-1z M123,53h1v16h-1z M94,54h1v3h-1z M106,54h1v2h-1z M122,54h1v15h-1z M121,56h1v13h-1z M120,57h1v12h-1z M106,60h1v12h-1z M105,66h1v5h-1z M104,68h1v3h-1z" /><path fill="#011C2A" d="M106,30h1v1h-1z M106,36h1v1h-1z M108,39h1v1h-1z M107,41h1v1h-1z M116,43h1v1h-1z M110,45h1v1h-1z M113,45h1v1h-1z M106,47h1v1h-1z M120,47h1v1h-1z M108,54h1v1h-1z M107,55h1v1h-1z M117,35h2v1h-2z M119,49h1v3h-1z" /><path fill="#194C52" d="M112,43h1v1h-1z M110,50h1v1h-1z M119,72h1v1h-1z" /><path fill="#453C49" d="M104,81h1v1h-1z M111,81h1v1h-1z M105,83h1v1h-1z M105,85h1v1h-1z M119,86h1v1h-1z M121,94h1v1h-1z M117,96h1v1h-1z M72,106h1v1h-1z M113,108h1v1h-1z M120,110h1v1h-1z M122,110h1v1h-1z M127,114h1v1h-1z M25,115h1v1h-1z M80,115h1v1h-1z M6,116h1v1h-1z M8,116h1v1h-1z M32,116h1v1h-1z M47,116h1v1h-1z M61,116h1v1h-1z M63,116h1v1h-1z M87,116h1v1h-1z M102,116h1v1h-1z M106,116h1v1h-1z M108,116h1v1h-1z M117,116h1v1h-1z M105,74h13v1h-13z M119,83h2v1h-2z M120,85h1v2h-1z M104,89h2v2h-2z M119,90h2v1h-2z M119,96h3v1h-3z M73,107h1v6h-1z M81,107h9v1h-9z M114,107h2v2h-2z M120,107h4v1h-4z M74,108h13v1h-13z M89,108h4v1h-4z M116,108h5v1h-5z M123,108h1v3h-1z M78,109h4v1h-4z M85,109h7v1h-7z M118,109h2v2h-2z M74,110h6v1h-6z M83,110h2v2h-2z M113,110h1v3h-1z M115,110h3v1h-3z M77,111h6v1h-6z M85,111h7v1h-7z M114,111h2v2h-2z M74,112h5v1h-5z M86,112h4v1h-4z M116,112h5v1h-5z M43,115h4v2h-4z M49,115h3v1h-3z M98,115h4v2h-4z M40,116h3v1h-3z M50,116h4v1h-4z M95,116h3v1h-3z" /><path fill="#D4A885" d="M16,114h1v1h-1z M44,114h1v1h-1z M71,114h1v1h-1z M99,114h1v1h-1z M117,114h1v1h-1z M105,75h1v3h-1z M106,76h12v2h-12z M102,77h3v1h-3z M118,77h5v1h-5z M110,85h1v3h-1z M114,85h1v3h-1z M108,86h2v2h-2z M111,86h3v2h-3z M115,86h2v2h-2z M102,92h1v2h-1z M94,101h34v1h-34z M72,105h41v1h-41z M95,106h1v7h-1z M112,106h1v7h-1z M72,107h1v6h-1z M0,114h2v1h-2z M6,114h3v1h-3z M10,114h2v1h-2z M22,114h2v1h-2z M26,114h2v1h-2z M32,114h3v1h-3z M39,114h4v1h-4z M53,114h4v1h-4z M61,114h3v1h-3z M65,114h2v1h-2z M77,114h2v1h-2z M81,114h2v1h-2z M87,114h3v1h-3z M94,114h4v1h-4z M104,114h12v1h-12z M6,115h2v1h-2z M61,115h2v1h-2z" /><path fill="#7B605B" d="M117,82h1v1h-1z M123,94h1v1h-1z M102,98h1v1h-1z M124,100h1v1h-1z M94,104h1v1h-1z M111,109h1v1h-1z M91,112h1v1h-1z M3,114h1v1h-1z M24,114h1v1h-1z M45,114h1v1h-1z M58,114h1v1h-1z M79,114h1v1h-1z M100,114h1v1h-1z M7,116h1v1h-1z M62,116h1v1h-1z M106,75h15v1h-15z M118,76h3v1h-3z M103,85h1v3h-1z M122,92h1v3h-1z M101,94h2v1h-2z M123,96h1v5h-1z M119,97h1v4h-1z M117,99h2v2h-2z M103,100h5v1h-5z M110,100h2v1h-2z M113,100h2v1h-2z M120,100h3v1h-3z M125,102h3v2h-3z M94,103h31v1h-31z M96,104h2v1h-2z M126,104h2v2h-2z M113,105h13v1h-13z M93,107h1v2h-1z M98,107h5v1h-5z M105,107h7v1h-7z M101,108h2v1h-2z M94,109h1v2h-1z M97,109h3v1h-3z M106,109h4v1h-4z M101,110h2v1h-2z M92,111h1v2h-1z M96,111h4v1h-4z M109,111h3v1h-3z M104,112h7v1h-7z M9,114h1v2h-1z M64,114h1v2h-1z M24,116h2v1h-2z M79,116h2v1h-2z" /><path fill="#967464" d="M103,89h1v1h-1z M121,92h1v1h-1z M111,99h1v1h-1z M100,100h1v1h-1z M102,100h1v1h-1z M95,104h1v1h-1z M94,107h1v1h-1z M92,109h1v1h-1z M96,112h1v1h-1z M15,114h1v1h-1z M35,114h1v1h-1z M70,114h1v1h-1z M90,114h1v1h-1z M3,115h1v1h-1z M58,115h1v1h-1z M102,78h21v1h-21z M107,83h1v2h-1z M110,83h1v2h-1z M114,83h1v2h-1z M117,83h1v2h-1z M107,90h11v1h-11z M103,92h1v2h-1z M107,92h11v1h-11z M107,94h11v1h-11z M101,96h2v1h-2z M122,96h1v4h-1z M101,97h1v4h-1z M103,97h16v2h-16z M120,97h2v2h-2z M103,99h5v1h-5z M94,102h7v1h-7z M99,104h16v1h-16z M94,111h1v2h-1z M107,111h2v1h-2z M28,114h4v1h-4z M83,114h4v1h-4z M47,115h2v1h-2z M102,115h2v1h-2z" /><path fill="#322E3D" d="M113,107h1v1h-1z M120,109h1v1h-1z M114,110h1v1h-1z M116,115h1v1h-1z M119,115h1v1h-1z M102,79h21v2h-21z M105,81h2v1h-2z M118,81h4v1h-4z M106,82h1v14h-1z M118,82h1v14h-1z M121,82h1v10h-1z M103,94h1v2h-1z M101,95h2v1h-2z M104,95h2v1h-2z M107,95h11v1h-11z M119,95h5v1h-5z M73,106h22v1h-22z M96,106h16v1h-16z M113,106h15v1h-15z M74,107h7v1h-7z M90,107h3v1h-3z M116,107h4v1h-4z M124,107h4v6h-4z M87,108h2v1h-2z M121,108h2v2h-2z M74,109h4v1h-4z M82,109h3v1h-3z M113,109h5v1h-5z M80,110h3v1h-3z M85,110h7v1h-7z M121,110h1v3h-1z M74,111h3v1h-3z M116,111h5v1h-5z M122,111h2v2h-2z M79,112h7v1h-7z M104,115h3v1h-3z" /><path fill="#498821" d="M60,82h1v1h-1z M64,82h1v1h-1z M63,83h1v1h-1z M15,85h1v1h-1z M38,86h1v1h-1z M53,86h1v1h-1z M32,90h1v1h-1z M28,91h1v1h-1z M65,91h1v1h-1z M29,92h1v1h-1z M48,92h1v1h-1z M58,94h1v1h-1z M4,95h1v1h-1z M63,96h1v1h-1z M68,97h1v1h-1z M0,98h1v1h-1z M93,98h1v1h-1z M59,99h1v1h-1z M62,100h1v1h-1z M126,100h1v1h-1z M68,101h1v1h-1z M32,102h1v1h-1z M32,104h1v1h-1z M21,106h1v1h-1z M62,113h1v1h-1z M64,113h1v1h-1z M61,81h1v9h-1z M27,82h1v11h-1z M62,82h1v5h-1z M0,83h1v3h-1z M3,83h1v4h-1z M21,83h3v6h-3z M25,83h1v7h-1z M57,83h3v10h-3z M1,84h2v7h-2z M20,84h1v6h-1z M24,84h1v2h-1z M26,84h1v6h-1z M28,84h2v7h-2z M60,84h1v5h-1z M68,84h1v5h-1z M4,85h1v3h-1z M19,85h1v8h-1z M30,85h1v8h-1z M64,85h1v7h-1z M67,85h1v7h-1z M69,85h1v2h-1z M5,86h1v6h-1z M7,86h1v6h-1z M16,86h1v9h-1z M18,86h1v4h-1z M31,86h2v3h-2z M55,86h2v13h-2z M63,86h1v8h-1z M65,86h2v4h-2z M0,87h1v10h-1z M6,87h1v4h-1z M8,87h1v5h-1z M11,87h2v2h-2z M15,87h1v12h-1z M17,87h1v4h-1z M24,87h1v6h-1z M33,87h1v3h-1z M37,87h1v4h-1z M50,87h1v4h-1z M54,87h1v3h-1z M3,88h1v3h-1z M9,88h2v4h-2z M13,88h2v10h-2z M36,88h1v2h-1z M38,88h1v4h-1z M43,88h7v1h-7z M62,88h1v6h-1z M4,89h1v3h-1z M11,89h1v6h-1z M22,89h2v1h-2z M31,89h1v3h-1z M39,89h2v4h-2z M42,89h5v1h-5z M48,89h2v3h-2z M23,90h1v2h-1z M41,90h1v3h-1z M43,90h5v2h-5z M66,90h1v2h-1z M2,91h1v6h-1z M12,91h1v10h-1z M18,91h1v3h-1z M25,91h2v2h-2z M42,91h1v2h-1z M53,91h2v6h-2z M61,91h1v2h-1z M81,91h2v5h-2z M1,92h1v7h-1z M10,92h1v7h-1z M17,92h1v4h-1z M43,92h4v1h-4z M52,92h1v3h-1z M60,92h1v2h-1z M80,92h1v5h-1z M83,92h1v5h-1z M9,93h1v5h-1z M44,93h2v1h-2z M57,93h2v1h-2z M79,93h1v2h-1z M84,93h2v3h-2z M3,94h1v3h-1z M8,95h1v3h-1z M57,95h1v4h-1z M59,95h4v3h-4z M69,95h3v1h-3z M11,96h1v4h-1z M16,96h1v3h-1z M30,96h6v2h-6z M52,96h1v7h-1z M58,96h1v3h-1z M67,96h3v1h-3z M82,96h1v2h-1z M94,96h2v3h-2z M29,97h1v8h-1z M36,97h1v5h-1z M51,97h1v2h-1z M54,97h1v4h-1z M96,97h3v1h-3z M13,98h1v3h-1z M28,98h1v3h-1z M30,98h4v3h-4z M35,98h1v5h-1z M37,98h1v3h-1z M53,98h1v5h-1z M60,98h2v2h-2z M70,98h1v2h-1z M97,98h2v1h-2z M23,99h1v5h-1z M25,99h1v9h-1z M27,99h1v4h-1z M34,99h1v4h-1z M38,99h2v1h-2z M55,99h1v5h-1z M62,99h2v1h-2z M68,99h2v2h-2z M22,100h1v4h-1z M26,100h1v8h-1z M51,100h1v2h-1z M56,100h1v2h-1z M67,100h1v3h-1z M21,101h1v2h-1z M24,101h1v7h-1z M30,101h2v5h-2z M33,101h1v2h-1z M28,102h1v4h-1z M54,102h1v2h-1z M27,104h1v3h-1z M22,105h2v3h-2z M29,106h2v1h-2z M28,107h2v1h-2z M21,112h2v2h-2z M26,112h1v2h-1z M32,112h1v2h-1z M42,112h1v2h-1z M61,112h1v2h-1z M63,112h1v2h-1z M65,112h1v2h-1z M69,112h2v2h-2z M0,113h21v1h-21z M23,113h3v1h-3z M27,113h5v1h-5z M33,113h9v1h-9z M43,113h18v1h-18z M66,113h3v1h-3z M71,113h57v1h-57z M36,114h3v1h-3z M91,114h3v1h-3z M119,114h3v1h-3z M123,114h4v1h-4z" /><path fill="#584A50" d="M107,82h1v1h-1z M110,82h1v1h-1z M114,82h1v1h-1z M105,84h1v1h-1z M119,85h1v1h-1z M103,90h1v1h-1z M118,96h1v1h-1z M25,114h1v1h-1z M43,114h1v1h-1z M80,114h1v1h-1z M98,114h1v1h-1z M116,114h1v1h-1z M8,115h1v1h-1z M63,115h1v1h-1z M14,116h1v1h-1z M16,116h1v1h-1z M23,116h1v1h-1z M49,116h1v1h-1z M69,116h1v1h-1z M71,116h1v1h-1z M78,116h1v1h-1z M109,116h1v1h-1z M103,81h1v4h-1z M107,81h4v1h-4z M112,81h6v1h-6z M104,82h2v1h-2z M119,82h2v1h-2z M104,83h1v6h-1z M119,84h2v1h-2z M105,86h1v3h-1z M119,87h2v3h-2z M107,88h11v1h-11z M104,91h2v4h-2z M119,91h2v4h-2z M103,96h14v1h-14z M0,115h2v2h-2z M4,115h2v1h-2z M10,115h2v2h-2z M14,115h6v1h-6z M22,115h3v1h-3z M26,115h7v1h-7z M34,115h1v2h-1z M38,115h2v1h-2z M53,115h4v1h-4z M59,115h2v1h-2z M65,115h2v2h-2z M69,115h6v1h-6z M77,115h3v1h-3z M81,115h7v1h-7z M89,115h1v2h-1z M93,115h2v1h-2z M109,115h4v1h-4z M2,116h2v1h-2z M18,116h2v1h-2z M26,116h5v1h-5z M55,116h4v1h-4z M73,116h2v1h-2z M81,116h5v1h-5z" /><path fill="#104835" d="M63,82h1v1h-1z M60,83h1v1h-1z M0,86h1v1h-1z M24,86h1v1h-1z M3,87h1v1h-1z M62,87h1v1h-1z M4,88h1v1h-1z M32,89h1v1h-1z M41,89h1v1h-1z M47,89h1v1h-1z M74,89h1v1h-1z M18,90h1v1h-1z M42,90h1v1h-1z M54,90h1v1h-1z M61,90h1v1h-1z M65,90h1v1h-1z M1,91h1v1h-1z M17,91h1v1h-1z M29,91h1v1h-1z M57,94h1v1h-1z M60,94h1v1h-1z M11,95h1v1h-1z M16,95h1v1h-1z M52,95h1v1h-1z M58,95h1v1h-1z M63,95h1v1h-1z M29,96h1v1h-1z M0,97h1v1h-1z M53,97h1v1h-1z M34,98h1v1h-1z M59,98h1v1h-1z M62,98h1v1h-1z M68,98h1v1h-1z M26,99h1v1h-1z M51,99h1v1h-1z M124,99h1v1h-1z M125,100h1v1h-1z M28,101h1v1h-1z M32,101h1v1h-1z M54,101h1v1h-1z M27,103h1v1h-1z M29,105h1v1h-1z M28,106h1v1h-1z M43,112h1v1h-1z M64,112h1v1h-1z M66,112h1v1h-1z M52,115h1v1h-1z M9,116h1v1h-1z M15,116h1v1h-1z M17,116h1v1h-1z M22,116h1v1h-1z M31,116h1v1h-1z M48,116h1v1h-1z M54,116h1v1h-1z M64,116h1v1h-1z M70,116h1v1h-1z M72,116h1v1h-1z M77,116h1v1h-1z M86,116h1v1h-1z M107,116h1v1h-1z M116,116h1v1h-1z M64,83h2v2h-2z M63,84h1v2h-1z M65,85h2v1h-2z M70,85h2v2h-2z M51,87h1v10h-1z M53,87h1v4h-1z M69,87h2v8h-2z M72,87h1v18h-1z M34,88h1v8h-1z M52,88h1v4h-1z M71,88h1v7h-1z M73,88h1v17h-1z M12,89h1v2h-1z M21,89h1v12h-1z M35,89h1v7h-1z M60,89h1v3h-1z M68,89h1v7h-1z M20,90h1v23h-1z M22,90h1v10h-1z M25,90h2v1h-2z M33,90h1v6h-1z M36,90h1v7h-1z M3,91h1v3h-1z M6,91h1v22h-1z M32,91h1v5h-1z M37,91h1v7h-1z M50,91h1v22h-1z M74,91h1v14h-1z M4,92h2v3h-2z M7,92h3v1h-3z M23,92h1v7h-1z M28,92h1v6h-1z M31,92h1v4h-1z M38,92h1v7h-1z M47,92h1v21h-1z M49,92h1v21h-1z M64,92h4v4h-4z M77,92h1v13h-1z M7,93h2v2h-2z M19,93h1v20h-1z M24,93h4v6h-4z M29,93h2v3h-2z M39,93h5v6h-5z M46,93h1v20h-1z M48,93h1v20h-1z M59,93h1v2h-1z M61,93h1v2h-1z M75,93h2v12h-2z M18,94h1v19h-1z M44,94h2v19h-2z M62,94h2v1h-2z M78,94h1v11h-1z M86,94h1v11h-1z M5,95h1v18h-1z M7,95h1v18h-1z M79,95h1v10h-1z M87,95h2v10h-2z M4,96h1v17h-1z M17,96h1v17h-1z M64,96h3v16h-3z M70,96h2v2h-2z M81,96h1v9h-1z M84,96h2v9h-2z M89,96h2v2h-2z M2,97h2v16h-2z M63,97h1v2h-1z M67,97h1v3h-1z M69,97h1v2h-1z M80,97h1v8h-1z M83,97h1v8h-1z M8,98h2v15h-2z M14,98h1v15h-1z M71,98h1v15h-1z M82,98h1v7h-1z M89,98h1v7h-1z M91,98h2v7h-2z M96,98h1v3h-1z M99,98h1v3h-1z M127,98h1v3h-1z M0,99h2v14h-2z M10,99h1v14h-1z M15,99h2v14h-2z M24,99h1v2h-1z M40,99h4v13h-4z M56,99h3v1h-3z M90,99h1v6h-1z M93,99h3v2h-3z M97,99h2v2h-2z M11,100h1v13h-1z M38,100h2v13h-2z M57,100h5v12h-5z M63,100h1v12h-1z M70,100h1v12h-1z M12,101h2v12h-2z M37,101h1v12h-1z M62,101h1v12h-1z M69,101h1v11h-1z M93,101h1v4h-1z M36,102h1v11h-1z M51,102h1v11h-1z M56,102h1v11h-1z M68,102h1v11h-1z M21,103h1v3h-1z M32,103h4v1h-4z M52,103h2v10h-2z M67,103h1v10h-1z M22,104h2v1h-2z M33,104h3v9h-3z M54,104h2v9h-2z M32,105h1v7h-1z M31,106h1v7h-1z M21,107h1v5h-1z M27,107h1v6h-1z M30,107h1v6h-1z M22,108h5v4h-5z M28,108h2v5h-2z M23,112h3v1h-3z M40,112h2v1h-2z M57,112h4v1h-4z M122,114h1v3h-1z M12,115h2v2h-2z M20,115h2v2h-2z M33,115h1v2h-1z M35,115h3v2h-3z M40,115h3v1h-3z M67,115h2v2h-2z M75,115h2v2h-2z M88,115h1v2h-1z M90,115h3v2h-3z M95,115h3v1h-3z M107,115h2v1h-2z M113,115h3v2h-3z M117,115h2v1h-2z M120,115h2v2h-2z M123,115h5v2h-5z M4,116h2v1h-2z M38,116h2v1h-2z M59,116h2v1h-2z M93,116h2v1h-2z M103,116h3v1h-3z M110,116h3v1h-3z M118,116h2v1h-2z" /><path fill="#A37D69" d="M103,88h1v1h-1z M103,91h1v1h-1z M121,93h1v1h-1z M102,97h1v1h-1z M102,99h1v1h-1z M110,99h1v1h-1z M98,104h1v1h-1z M94,108h1v1h-1z M92,110h1v1h-1z M111,110h1v1h-1z M106,111h1v1h-1z M90,112h1v1h-1z M103,112h1v1h-1z M111,112h1v1h-1z M49,114h1v1h-1z M107,85h1v3h-1z M117,85h1v3h-1z M107,89h11v1h-11z M107,91h11v1h-11z M107,93h11v1h-11z M113,99h2v1h-2z M120,99h2v1h-2z M101,102h24v1h-24z M115,104h11v1h-11z M96,107h2v2h-2z M103,107h2v5h-2z M98,108h3v1h-3z M105,108h7v1h-7z M93,109h1v4h-1z M96,109h1v2h-1z M100,109h3v1h-3z M105,109h1v3h-1z M110,109h1v2h-1z M97,110h4v1h-4z M106,110h4v1h-4z M100,111h3v2h-3z M97,112h3v1h-3z M12,114h3v1h-3z M67,114h3v1h-3z" /><path fill="#C59C81" d="M118,114h1v1h-1z M2,114h1v2h-1z M4,114h2v1h-2z M17,114h5v1h-5z M46,114h3v1h-3z M50,114h3v1h-3z M57,114h1v2h-1z M59,114h2v1h-2z M72,114h5v1h-5z M101,114h3v1h-3z" /><path fill="#3B516C" d="M109,126h1v1h-1z M117,126h1v1h-1z M108,127h1v1h-1z M0,118h128v1h-128z M72,119h5v1h-5z M82,119h7v1h-7z M102,119h6v1h-6z M110,119h18v1h-18z M113,120h1v2h-1z M118,120h6v1h-6z M98,121h15v1h-15z M114,121h3v1h-3z M118,121h3v1h-3z M122,121h2v1h-2z M119,122h4v1h-4z M108,123h3v3h-3z M113,123h9v1h-9z M104,124h4v2h-4z M111,124h10v2h-10z M100,125h4v1h-4z M121,125h3v1h-3z M103,127h4v1h-4z" /><path fill="#2ABCDC" d="M31,123h1v1h-1z M76,124h1v1h-1z M125,124h1v1h-1z M127,124h1v1h-1z M122,127h1v1h-1z M0,119h72v2h-72z M77,119h5v4h-5z M92,119h3v4h-3z M72,120h5v3h-5z M82,120h10v3h-10z M95,120h8v1h-8z M0,121h24v1h-24z M28,121h44v1h-44z M95,121h2v2h-2z M125,121h3v1h-3z M4,122h10v1h-10z M22,122h6v1h-6z M32,122h3v2h-3z M39,122h33v1h-33z M97,122h5v1h-5z M126,122h2v1h-2z M0,123h5v1h-5z M9,123h2v1h-2z M18,123h3v1h-3z M35,123h4v1h-4z M51,123h3v1h-3z M65,123h4v3h-4z M70,123h5v1h-5z M77,123h2v2h-2z M85,123h9v1h-9z M97,123h4v1h-4z M123,123h2v2h-2z M126,123h1v2h-1z M27,124h4v3h-4z M43,124h8v1h-8z M54,124h11v1h-11z M79,124h4v1h-4z M88,124h8v1h-8z M101,124h3v1h-3z M121,124h2v1h-2z M11,125h16v1h-16z M31,125h13v1h-13z M49,125h1v2h-1z M69,125h4v1h-4z M94,125h5v1h-5z M0,126h10v1h-10z M20,126h7v1h-7z M50,126h6v1h-6z M75,126h15v1h-15z" /><path fill="#516179" d="M121,121h1v1h-1z M118,122h1v1h-1z M123,122h1v1h-1z M125,122h1v1h-1z M122,123h1v1h-1z M107,127h1v1h-1z M109,127h1v1h-1z M89,119h3v1h-3z M95,119h7v1h-7z M108,119h2v2h-2z M103,120h5v1h-5z M110,120h3v1h-3z M114,120h4v1h-4z M124,120h4v1h-4z M117,121h1v2h-1z M124,121h1v2h-1z M102,122h15v1h-15z M101,123h7v1h-7z M111,123h2v1h-2z M101,126h8v1h-8z M110,126h7v2h-7z M118,126h6v1h-6z M117,127h5v1h-5z" /><path fill="#1889C4" d="M97,121h1v1h-1z M125,123h1v1h-1z M127,123h1v1h-1z M50,125h1v1h-1z M123,127h1v1h-1z M24,121h4v1h-4z M0,122h4v1h-4z M14,122h8v1h-8z M28,122h4v1h-4z M35,122h4v1h-4z M5,123h4v3h-4z M11,123h7v2h-7z M21,123h10v1h-10z M39,123h12v1h-12z M54,123h11v1h-11z M69,123h1v2h-1z M75,123h2v1h-2z M79,123h6v1h-6z M94,123h3v1h-3z M0,124h5v2h-5z M9,124h2v2h-2z M18,124h9v1h-9z M31,124h12v1h-12z M51,124h3v2h-3z M70,124h6v1h-6z M83,124h5v2h-5z M96,124h5v1h-5z M44,125h5v3h-5z M54,125h11v1h-11z M73,125h10v1h-10z M88,125h6v1h-6z M99,125h1v3h-1z M124,125h4v3h-4z M10,126h10v2h-10z M31,126h13v2h-13z M56,126h19v2h-19z M90,126h9v2h-9z M100,126h1v2h-1z M0,127h10v1h-10z M20,127h11v1h-11z M49,127h7v1h-7z M75,127h15v1h-15z M101,127h2v1h-2z" /></svg>