<svg xmlns="http://www.w3.org/2000/svg" version="1.1" width="128" height="128" shape-rendering="crispEdges"><path fill="#3ACFFF" d="M11,26h1v1h-1z M0,0h128v9h-128z M0,9h126v1h-126z M0,10h125v1h-125z M0,11h124v1h-124z M0,12h18v1h-18z M25,12h91v1h-91z M121,12h2v1h-2z M0,13h17v1h-17z M26,13h81v1h-81z M108,13h7v1h-7z M0,14h16v1h-16z M27,14h80v1h-80z M108,14h6v2h-6z M0,15h15v2h-15z M28,15h2v1h-2z M36,15h71v1h-71z M38,16h69v1h-69z M108,16h5v3h-5z M0,17h14v1h-14z M39,17h68v1h-68z M0,18h9v1h-9z M40,18h67v1h-67z M113,18h2v1h-2z M0,20h8v1h-8z M44,20h63v1h-63z M108,20h10v3h-10z M0,21h7v2h-7z M46,21h61v1h-61z M118,21h7v2h-7z M47,22h60v1h-60z M125,22h3v1h-3z M0,25h11v2h-11z M44,25h62v2h-62z M109,25h19v2h-19z M17,26h2v1h-2z M40,26h4v1h-4z" /><path fill="#E5FFFF" d="M115,13h1v1h-1z M121,13h1v1h-1z M127,13h1v1h-1z M28,19h1v1h-1z M124,19h1v1h-1z M37,20h1v1h-1z M15,22h1v1h-1z M18,22h1v1h-1z M24,22h1v1h-1z M28,23h1v1h-1z M126,9h2v4h-2z M125,10h1v2h-1z M18,12h7v5h-7z M116,12h5v3h-5z M25,13h1v7h-1z M26,14h1v6h-1z M27,15h1v5h-1z M30,15h6v4h-6z M28,16h2v3h-2z M36,16h2v4h-2z M121,16h4v2h-4z M19,17h6v1h-6z M38,17h1v5h-1z M125,17h1v3h-1z M20,18h5v1h-5z M39,18h1v4h-1z M122,18h3v1h-3z M126,18h1v3h-1z M12,19h4v2h-4z M21,19h4v1h-4z M31,19h5v1h-5z M10,20h2v1h-2z M16,20h1v3h-1z M32,20h4v1h-4z M40,20h4v3h-4z M14,21h2v1h-2z M17,21h1v3h-1z M25,21h4v2h-4z M44,21h2v2h-2z M29,22h2v2h-2z M31,23h1v3h-1z M30,24h1v2h-1z M32,24h1v3h-1z" /><path fill="#B0EDFF" d="M115,18h1v1h-1z M9,24h1v1h-1z M124,11h1v5h-1z M123,12h1v4h-1z M125,12h1v5h-1z M17,13h1v8h-1z M122,13h1v3h-1z M126,13h1v5h-1z M16,14h1v6h-1z M114,14h2v4h-2z M121,14h1v2h-1z M127,14h1v8h-1z M15,15h1v4h-1z M116,15h5v4h-5z M113,16h1v2h-1z M14,17h1v2h-1z M18,17h1v5h-1z M9,18h5v1h-5z M19,18h1v9h-1z M121,18h1v3h-1z M8,19h4v1h-4z M20,19h1v9h-1z M29,19h2v3h-2z M117,19h4v1h-4z M122,19h2v2h-2z M8,20h2v4h-2z M21,20h8v1h-8z M31,20h1v3h-1z M36,20h1v7h-1z M118,20h3v1h-3z M124,20h2v1h-2z M7,21h1v2h-1z M10,21h4v4h-4z M21,21h4v1h-4z M32,21h4v3h-4z M37,21h1v6h-1z M125,21h2v1h-2z M14,22h1v5h-1z M21,22h3v6h-3z M38,22h2v5h-2z M46,22h1v3h-1z M15,23h2v4h-2z M18,23h1v3h-1z M24,23h4v5h-4z M40,23h6v2h-6z M47,23h2v2h-2z M17,24h1v2h-1z M28,24h2v4h-2z M33,24h3v3h-3z M49,24h9v1h-9z M11,25h3v1h-3z M40,25h4v1h-4z M12,26h2v1h-2z M30,26h2v2h-2z M32,27h3v1h-3z M22,28h4v1h-4z" /><path fill="#F54F51" d="M108,24h1v1h-1z M109,36h1v1h-1z M108,39h1v1h-1z M108,41h1v1h-1z M108,44h1v1h-1z M109,59h1v1h-1z M111,59h1v1h-1z M110,60h1v1h-1z M109,61h1v1h-1z M111,61h1v1h-1z M109,63h1v1h-1z M111,63h1v1h-1z M111,79h1v1h-1z M102,85h1v1h-1z M117,97h1v1h-1z M100,98h1v1h-1z M97,103h1v1h-1z M107,13h1v11h-1z M108,33h2v1h-2z M108,35h2v1h-2z M109,38h1v4h-1z M109,43h1v2h-1z M108,48h2v1h-2z M108,51h2v1h-2z M108,55h2v1h-2z M109,58h3v1h-3z M110,62h1v2h-1z M109,76h5v1h-5z M109,77h2v3h-2z M113,77h1v3h-1z M112,78h1v2h-1z M109,81h6v2h-6z M109,83h2v4h-2z M113,83h2v1h-2z M114,84h1v3h-1z M111,86h3v1h-3z M110,88h6v1h-6z M110,89h2v5h-2z M114,89h2v1h-2z M102,90h1v2h-1z M115,90h2v4h-2z M112,92h3v2h-3z M111,95h7v2h-7z M118,96h1v3h-1z M111,97h3v1h-3z M111,98h2v5h-2z M119,98h1v3h-1z M99,99h1v2h-1z M120,100h1v3h-1z M98,101h1v2h-1z M121,102h1v2h-1z" /><path fill="#6DECFF" d="M8,24h1v1h-1z M0,19h8v1h-8z M40,19h67v1h-67z M108,19h9v1h-9z M0,23h8v2h-8z M49,23h58v1h-58z M108,23h20v1h-20z M58,24h48v1h-48z M109,24h19v1h-19z M0,27h20v28h-20z M35,27h71v6h-71z M109,27h19v6h-19z M20,28h2v27h-2z M26,28h9v19h-9z M22,29h4v23h-4z M35,33h70v4h-70z M110,33h18v12h-18z M35,37h15v2h-15z M56,37h49v8h-49z M35,39h14v1h-14z M35,40h13v1h-13z M35,41h11v10h-11z M56,45h48v10h-48z M111,45h17v10h-17z M26,47h1v5h-1z M34,47h1v5h-1z M35,51h5v1h-5z M41,51h5v1h-5z M22,52h3v3h-3z M36,52h3v2h-3z M42,52h4v2h-4z M36,54h2v1h-2z M43,54h3v1h-3z M0,57h6v2h-6z M22,57h3v2h-3z M36,57h2v2h-2z M43,57h3v2h-3z M56,57h48v1h-48z M111,57h10v1h-10z M56,58h47v1h-47z M112,58h9v1h-9z" /><path fill="#881929" d="M108,25h1v1h-1z M105,36h1v1h-1z M107,36h1v1h-1z M106,39h1v1h-1z M106,41h1v1h-1z M106,44h1v1h-1z M105,59h1v1h-1z M110,59h1v1h-1z M104,60h1v1h-1z M106,60h1v1h-1z M111,60h1v1h-1z M105,61h1v1h-1z M110,61h1v1h-1z M111,62h1v1h-1z M105,63h1v1h-1z M117,98h1v1h-1z M120,103h1v1h-1z M106,24h2v1h-2z M105,33h3v1h-3z M108,34h2v1h-2z M105,35h3v1h-3z M108,37h2v1h-2z M105,38h1v4h-1z M107,38h1v4h-1z M108,42h2v1h-2z M105,43h1v2h-1z M107,43h1v2h-1z M109,45h2v1h-2z M105,48h3v1h-3z M105,51h3v1h-3z M105,55h3v1h-3z M103,58h6v1h-6z M103,59h1v5h-1z M107,59h2v1h-2z M108,60h2v1h-2z M107,61h2v1h-2z M104,62h1v2h-1z M106,62h1v2h-1z M108,62h2v1h-2z M107,63h2v1h-2z M102,76h6v1h-6z M102,77h1v3h-1z M107,77h1v3h-1z M103,79h4v1h-4z M101,81h7v2h-7z M101,83h2v1h-2z M106,83h2v4h-2z M101,84h1v3h-1z M111,84h1v2h-1z M102,86h4v1h-4z M101,88h8v1h-8z M100,89h2v1h-2z M106,89h3v1h-3z M100,90h1v4h-1z M107,90h2v4h-2z M112,90h1v2h-1z M99,92h1v2h-1z M101,93h6v1h-6z M98,95h12v2h-12z M97,97h4v1h-4z M107,97h3v1h-3z M97,98h3v1h-3z M106,98h1v7h-1z M108,98h2v5h-2z M96,99h3v2h-3z M118,99h1v2h-1z M95,101h3v2h-3z M119,101h1v2h-1z M94,103h3v1h-3z" /><path fill="#620D22" d="M104,59h1v1h-1z M106,59h1v1h-1z M105,60h1v1h-1z M107,60h1v1h-1z M104,61h1v1h-1z M106,61h1v1h-1z M105,62h1v1h-1z M107,62h1v1h-1z M112,77h1v1h-1z M102,84h1v1h-1z M113,85h1v1h-1z M113,91h1v1h-1z M106,25h2v1h-2z M105,34h3v1h-3z M105,37h3v1h-3z M105,42h3v1h-3z M104,45h5v1h-5z M104,64h7v1h-7z M99,73h17v1h-17z M100,74h15v1h-15z M101,75h13v1h-13z M101,76h1v5h-1z M108,76h1v12h-1z M102,80h6v1h-6z M100,81h1v8h-1z M103,83h3v1h-3z M111,83h2v1h-2z M112,84h2v1h-2z M101,87h7v1h-7z M109,88h1v7h-1z M99,89h1v3h-1z M102,89h4v1h-4z M112,89h2v1h-2z M101,90h1v3h-1z M106,90h1v3h-1z M114,90h1v2h-1z M98,92h1v3h-1z M99,94h10v1h-10z M97,95h1v2h-1z M110,95h1v9h-1z M96,97h1v2h-1z M101,97h6v1h-6z M114,97h3v1h-3z M105,98h1v7h-1z M107,98h1v5h-1z M113,98h1v5h-1z M95,99h1v2h-1z M94,101h1v2h-1z M93,103h1v2h-1z" /><path fill="#7890A0" d="M107,28h1v1h-1z M107,32h1v1h-1z M50,42h1v1h-1z M50,45h1v1h-1z M50,48h1v1h-1z M50,50h1v1h-1z M35,52h1v1h-1z M32,53h1v1h-1z M50,53h1v1h-1z M35,54h1v1h-1z M32,55h1v1h-1z M50,55h1v1h-1z M35,56h1v1h-1z M32,57h1v1h-1z M35,58h1v1h-1z M50,58h1v1h-1z M32,59h1v1h-1z M35,60h1v1h-1z M32,61h1v1h-1z M50,61h1v1h-1z M35,62h1v1h-1z M32,63h1v1h-1z M35,64h1v1h-1z M32,65h1v1h-1z M35,66h1v1h-1z M50,66h1v1h-1z M112,66h1v1h-1z M32,67h1v1h-1z M35,68h1v1h-1z M50,68h1v1h-1z M32,69h1v1h-1z M35,70h1v1h-1z M115,70h1v1h-1z M32,71h1v1h-1z M35,72h1v1h-1z M32,73h1v1h-1z M98,73h1v1h-1z M35,74h1v1h-1z M97,74h1v1h-1z M32,75h1v1h-1z M35,76h1v1h-1z M32,77h1v1h-1z M35,78h1v1h-1z M32,79h1v1h-1z M35,80h1v1h-1z M89,80h1v1h-1z M32,81h1v1h-1z M35,82h1v1h-1z M32,83h1v1h-1z M35,84h1v1h-1z M89,84h1v1h-1z M32,85h1v1h-1z M35,86h1v1h-1z M106,26h1v7h-1z M50,37h4v2h-4z M51,39h3v48h-3z M104,46h7v1h-7z M104,47h5v1h-5z M104,48h1v10h-1z M105,49h4v2h-4z M109,50h2v1h-2z M105,52h4v3h-4z M109,53h2v1h-2z M105,56h4v2h-4z M109,65h3v2h-3z M0,66h2v7h-2z M110,68h7v1h-7z M114,69h1v2h-1z M112,70h2v1h-2z M22,72h2v9h-2z M50,72h1v2h-1z M111,72h6v1h-6z M100,75h1v6h-1z M24,77h1v4h-1z M50,77h1v2h-1z M94,79h1v6h-1z M50,80h1v2h-1z M99,81h1v4h-1z M50,83h1v4h-1z M89,86h1v3h-1z M101,98h2v3h-2z M101,101h1v2h-1z" /><path fill="#DFE9E5" d="M109,49h1v1h-1z M109,52h1v1h-1z M107,26h2v2h-2z M107,29h2v3h-2z M55,37h1v50h-1z M109,47h2v1h-2z M110,48h1v2h-1z M110,51h1v2h-1z M109,54h2v1h-2z M110,55h1v3h-1z M109,56h1v2h-1z M109,67h5v1h-5z M111,70h1v2h-1z M116,70h1v2h-1z M112,71h4v1h-4z M104,77h1v2h-1z M103,90h2v1h-2z M93,92h5v1h-5z M66,95h7v1h-7z M66,100h4v1h-4z M66,106h4v1h-4z" /><path fill="#9CD3E0" d="M108,28h1v1h-1z M108,32h1v1h-1z" /><path fill="#77D4F5" d="M106,36h1v1h-1z M108,36h1v1h-1z M106,38h1v1h-1z M108,38h1v1h-1z M106,40h1v1h-1z M106,43h1v1h-1z" /><path fill="#97A6B2" d="M50,49h1v1h-1z M50,54h1v1h-1z M50,67h1v1h-1z M50,79h1v1h-1z M50,82h1v1h-1z M89,85h1v1h-1z M54,37h1v50h-1z M50,39h1v3h-1z M50,43h1v2h-1z M50,46h1v2h-1z M50,51h1v2h-1z M50,56h1v2h-1z M50,59h1v2h-1z M50,62h1v4h-1z M50,69h1v3h-1z M50,74h1v3h-1z M89,74h1v6h-1z M89,81h1v3h-1z" /><path fill="#436D87" d="M108,70h1v1h-1z M1,75h1v1h-1z M3,75h1v1h-1z M1,77h1v1h-1z M3,77h1v1h-1z M1,79h1v1h-1z M3,79h1v1h-1z M1,81h1v1h-1z M3,81h1v1h-1z M1,83h1v1h-1z M3,83h1v1h-1z M1,85h1v1h-1z M3,85h1v1h-1z M1,87h1v1h-1z M3,87h1v1h-1z M1,89h1v1h-1z M3,89h1v1h-1z M86,89h1v1h-1z M119,89h1v1h-1z M127,89h1v1h-1z M1,91h1v1h-1z M3,91h1v1h-1z M1,93h1v1h-1z M3,93h1v1h-1z M1,95h1v1h-1z M3,95h1v1h-1z M1,97h1v1h-1z M3,97h1v1h-1z M3,99h1v1h-1z M21,122h1v1h-1z M21,124h1v1h-1z M49,39h1v46h-1z M48,40h1v45h-1z M46,41h2v32h-2z M25,52h7v1h-7z M39,52h1v2h-1z M25,53h1v36h-1z M31,53h1v34h-1z M26,54h5v1h-5z M26,56h5v1h-5z M126,56h2v33h-2z M123,57h2v2h-2z M26,58h5v1h-5z M26,60h5v1h-5z M123,60h2v2h-2z M26,62h5v1h-5z M123,63h2v2h-2z M26,64h5v1h-5z M26,66h5v1h-5z M123,66h2v2h-2z M101,67h8v1h-8z M26,68h5v1h-5z M59,68h3v11h-3z M63,68h1v19h-1z M82,69h4v2h-4z M101,69h1v2h-1z M104,69h1v2h-1z M107,69h1v2h-1z M123,69h2v2h-2z M26,70h5v1h-5z M99,70h2v1h-2z M102,70h2v1h-2z M105,70h2v1h-2z M68,71h1v9h-1z M70,71h1v9h-1z M82,71h1v10h-1z M86,71h2v1h-2z M26,72h5v1h-5z M83,72h3v1h-3z M98,72h13v1h-13z M123,72h2v2h-2z M0,73h5v1h-5z M39,73h3v1h-3z M86,73h2v1h-2z M0,74h1v25h-1z M2,74h1v25h-1z M4,74h1v27h-1z M26,74h5v1h-5z M83,74h3v1h-3z M119,74h2v15h-2z M39,75h3v1h-3z M86,75h2v1h-2z M123,75h2v2h-2z M26,76h5v1h-5z M83,76h3v1h-3z M39,77h3v1h-3z M86,77h2v1h-2z M26,78h5v1h-5z M78,78h2v3h-2z M83,78h3v1h-3z M123,78h2v2h-2z M39,79h3v1h-3z M60,79h2v8h-2z M77,79h1v2h-1z M86,79h2v1h-2z M26,80h5v1h-5z M83,80h3v1h-3z M39,81h3v1h-3z M67,81h2v1h-2z M86,81h2v1h-2z M123,81h2v2h-2z M26,82h5v1h-5z M39,83h3v1h-3z M67,83h2v1h-2z M86,83h2v1h-2z M92,83h2v2h-2z M26,84h5v1h-5z M123,84h2v2h-2z M39,85h3v1h-3z M67,85h2v1h-2z M86,85h2v1h-2z M26,86h5v1h-5z M48,87h1v13h-1z M86,87h2v1h-2z M123,87h2v2h-2z M26,88h4v1h-4z M84,92h9v1h-9z M118,93h7v1h-7z M5,97h1v5h-1z M25,97h16v1h-16z M67,97h15v1h-15z M67,98h14v1h-14z M114,98h2v2h-2z M25,99h16v1h-16z M50,100h16v1h-16z M114,100h1v2h-1z M25,101h16v1h-16z M47,101h3v4h-3z M51,101h1v6h-1z M53,101h1v6h-1z M55,101h1v6h-1z M57,101h1v6h-1z M59,101h1v6h-1z M25,103h16v1h-16z M25,105h16v1h-16z M47,106h3v1h-3z M60,106h6v1h-6z M49,107h1v7h-1z M14,108h1v11h-1z M16,108h1v12h-1z M18,108h1v13h-1z M20,108h2v14h-2z M23,108h1v16h-1z M77,108h6v1h-6z M94,126h3v2h-3z M86,127h7v1h-7z" /><path fill="#94DBF2" d="M108,40h1v1h-1z M108,43h1v1h-1z" /><path fill="#2C5572" d="M99,69h1v1h-1z M1,74h1v1h-1z M3,74h1v1h-1z M1,76h1v1h-1z M3,76h1v1h-1z M1,78h1v1h-1z M3,78h1v1h-1z M1,80h1v1h-1z M3,80h1v1h-1z M1,82h1v1h-1z M3,82h1v1h-1z M1,84h1v1h-1z M3,84h1v1h-1z M1,86h1v1h-1z M3,86h1v1h-1z M1,88h1v1h-1z M3,88h1v1h-1z M1,90h1v1h-1z M3,90h1v1h-1z M54,90h1v1h-1z M61,90h1v1h-1z M1,92h1v1h-1z M3,92h1v1h-1z M17,92h1v1h-1z M19,92h1v1h-1z M21,92h1v1h-1z M23,92h1v1h-1z M25,92h1v1h-1z M52,92h1v1h-1z M54,92h1v1h-1z M61,92h1v1h-1z M63,92h1v1h-1z M1,94h1v1h-1z M3,94h1v1h-1z M17,94h1v1h-1z M19,94h1v1h-1z M21,94h1v1h-1z M23,94h1v1h-1z M25,94h1v1h-1z M52,94h1v1h-1z M54,94h1v1h-1z M61,94h1v1h-1z M63,94h1v1h-1z M1,96h1v1h-1z M3,96h1v1h-1z M17,96h1v1h-1z M19,96h1v1h-1z M21,96h1v1h-1z M23,96h1v1h-1z M25,96h1v1h-1z M52,96h1v1h-1z M54,96h1v1h-1z M61,96h1v1h-1z M63,96h1v1h-1z M91,96h1v1h-1z M90,97h1v1h-1z M1,98h1v1h-1z M3,98h1v1h-1z M17,98h1v1h-1z M19,98h1v1h-1z M21,98h1v1h-1z M23,98h1v1h-1z M52,98h1v1h-1z M54,98h1v1h-1z M61,98h1v1h-1z M63,98h1v1h-1z M116,98h1v1h-1z M71,100h1v1h-1z M73,100h1v1h-1z M75,100h1v1h-1z M77,100h1v1h-1z M79,100h1v1h-1z M71,102h1v1h-1z M75,102h1v1h-1z M79,102h1v1h-1z M79,104h1v1h-1z M54,108h1v1h-1z M7,110h1v1h-1z M54,110h1v1h-1z M79,110h1v1h-1z M78,111h1v1h-1z M54,112h1v1h-1z M78,113h1v1h-1z M54,114h1v1h-1z M54,116h1v1h-1z M54,118h1v1h-1z M54,120h1v1h-1z M54,122h1v1h-1z M54,124h1v1h-1z M54,126h1v1h-1z M27,47h5v5h-5z M26,53h5v1h-5z M38,54h2v19h-2z M26,55h5v1h-5z M6,56h10v1h-10z M121,56h5v1h-5z M6,57h1v56h-1z M15,57h1v46h-1z M26,57h5v1h-5z M121,57h2v32h-2z M125,57h1v32h-1z M7,58h8v1h-8z M26,59h5v1h-5z M123,59h2v1h-2z M7,60h8v1h-8z M26,61h5v1h-5z M7,62h8v1h-8z M123,62h2v1h-2z M26,63h5v1h-5z M7,64h8v1h-8z M26,65h5v1h-5z M123,65h2v1h-2z M7,66h8v1h-8z M102,66h7v1h-7z M26,67h5v1h-5z M7,68h8v1h-8z M43,68h3v5h-3z M98,68h12v1h-12z M123,68h2v1h-2z M26,69h5v1h-5z M111,69h3v1h-3z M115,69h2v1h-2z M7,70h8v1h-8z M68,70h4v1h-4z M26,71h5v1h-5z M69,71h1v16h-1z M71,71h1v9h-1z M83,71h3v1h-3z M123,71h2v1h-2z M7,72h8v1h-8z M26,73h5v1h-5z M37,73h2v14h-2z M42,73h1v14h-1z M83,73h3v1h-3z M7,74h8v1h-8z M36,74h1v13h-1z M39,74h3v1h-3z M123,74h2v1h-2z M26,75h5v1h-5z M83,75h3v1h-3z M7,76h8v1h-8z M39,76h3v1h-3z M26,77h5v1h-5z M83,77h3v1h-3z M105,77h1v2h-1z M123,77h2v1h-2z M7,78h8v1h-8z M39,78h3v1h-3z M114,78h3v1h-3z M26,79h5v1h-5z M58,79h2v8h-2z M83,79h3v1h-3z M7,80h8v1h-8z M39,80h3v1h-3z M66,80h3v1h-3z M114,80h3v1h-3z M123,80h2v1h-2z M22,81h3v8h-3z M26,81h5v1h-5z M66,81h1v6h-1z M73,81h1v11h-1z M7,82h8v1h-8z M39,82h3v1h-3z M67,82h2v1h-2z M115,82h2v1h-2z M26,83h5v1h-5z M74,83h7v1h-7z M123,83h2v1h-2z M7,84h8v1h-8z M39,84h3v1h-3z M67,84h2v1h-2z M115,84h2v1h-2z M26,85h5v1h-5z M48,85h2v2h-2z M74,85h7v1h-7z M90,85h2v4h-2z M93,85h1v4h-1z M95,85h1v6h-1z M97,85h1v6h-1z M99,85h1v4h-1z M7,86h8v1h-8z M39,86h3v1h-3z M67,86h2v1h-2z M115,86h2v1h-2z M123,86h2v1h-2z M26,87h4v1h-4z M44,87h4v10h-4z M49,87h1v13h-1z M74,87h7v1h-7z M117,87h2v3h-2z M7,88h8v1h-8z M31,88h7v1h-7z M50,88h3v1h-3z M54,88h8v1h-8z M116,88h1v2h-1z M55,89h1v11h-1z M60,89h1v11h-1z M74,89h7v1h-7z M122,89h3v1h-3z M7,90h8v1h-8z M16,90h14v1h-14z M31,90h7v1h-7z M51,90h2v1h-2z M56,90h4v1h-4z M117,90h1v4h-1z M16,91h1v12h-1z M18,91h1v14h-1z M20,91h1v14h-1z M22,91h1v13h-1z M24,91h1v14h-1z M26,91h1v6h-1z M51,91h1v9h-1z M74,91h7v1h-7z M84,91h9v1h-9z M7,92h8v1h-8z M27,92h3v1h-3z M31,92h7v1h-7z M56,92h4v1h-4z M74,93h7v1h-7z M7,94h8v1h-8z M27,94h3v1h-3z M31,94h7v1h-7z M56,94h4v1h-4z M84,94h9v1h-9z M78,95h3v1h-3z M119,95h1v3h-1z M121,95h1v7h-1z M123,95h1v6h-1z M7,96h8v1h-8z M56,96h4v1h-4z M47,97h1v3h-1z M7,98h8v1h-8z M41,98h6v1h-6z M56,98h4v1h-4z M7,100h8v1h-8z M41,100h6v1h-6z M50,101h1v6h-1z M52,101h1v6h-1z M54,101h1v6h-1z M56,101h1v6h-1z M58,101h1v6h-1z M7,102h8v1h-8z M41,102h6v1h-6z M119,103h1v2h-1z M7,104h4v1h-4z M41,104h6v1h-6z M7,106h3v1h-3z M41,106h6v1h-6z M7,108h3v1h-3z M24,108h1v16h-1z M51,108h2v1h-2z M77,109h5v1h-5z M51,110h2v1h-2z M77,110h1v6h-1z M51,112h2v1h-2z M51,114h2v1h-2z M51,116h2v1h-2z M103,116h7v1h-7z M51,118h2v1h-2z M103,118h7v1h-7z M51,120h2v1h-2z M51,122h2v1h-2z M51,124h2v1h-2z" /><path fill="#5C7E92" d="M116,87h1v1h-1z M105,90h1v1h-1z M113,90h1v1h-1z M32,47h2v5h-2z M88,74h1v15h-1z M92,74h1v9h-1z M98,74h2v5h-2z M90,75h2v10h-2z M96,75h2v4h-2z M114,77h4v1h-4z M117,78h1v9h-1z M57,79h1v8h-1z M95,79h2v6h-2z M99,79h1v2h-1z M114,79h3v1h-3z M75,80h2v1h-2z M70,81h3v1h-3z M115,81h2v1h-2z M70,83h3v1h-3z M115,83h2v1h-2z M70,85h3v1h-3z M115,85h2v1h-2z M50,87h3v1h-3z M70,87h3v1h-3z M70,89h3v1h-3z M70,91h3v1h-3z" /><path fill="#BCAE96" d="M73,71h1v1h-1z M5,73h1v1h-1z M73,73h1v1h-1z M73,75h1v1h-1z M73,77h1v1h-1z M73,79h1v1h-1z M83,92h1v1h-1z M83,94h1v1h-1z M83,96h1v1h-1z M40,51h1v22h-1z M41,52h1v21h-1z M42,54h1v19h-1z M16,56h6v1h-6z M16,57h1v33h-1z M21,57h1v33h-1z M17,58h4v1h-4z M17,60h4v1h-4z M17,62h4v1h-4z M17,64h4v1h-4z M2,66h3v7h-3z M17,66h4v1h-4z M17,68h4v1h-4z M17,70h4v1h-4z M72,70h1v10h-1z M74,70h1v11h-1z M17,72h4v1h-4z M44,73h4v1h-4z M17,74h4v1h-4z M47,74h1v13h-1z M5,75h1v19h-1z M44,75h3v1h-3z M17,76h4v1h-4z M44,77h3v1h-3z M118,77h1v10h-1z M17,78h4v1h-4z M44,79h3v1h-3z M17,80h4v1h-4z M44,81h3v1h-3z M82,81h4v2h-4z M17,82h4v1h-4z M44,83h3v1h-3z M82,83h1v14h-1z M17,84h4v1h-4z M83,84h3v1h-3z M44,85h3v1h-3z M17,86h4v1h-4z M83,86h3v1h-3z M39,87h5v2h-5z M17,88h4v1h-4z M63,88h6v1h-6z M83,88h3v1h-3z M27,89h3v1h-3z M39,89h1v8h-1z M43,89h1v8h-1z M91,89h4v2h-4z M40,90h3v1h-3z M63,90h6v1h-6z M83,90h3v1h-3z M93,91h6v1h-6z M125,91h3v1h-3z M40,92h3v1h-3z M65,92h9v1h-9z M65,93h1v7h-1z M73,93h1v4h-1z M93,93h5v1h-5z M125,93h3v1h-3z M40,94h3v1h-3z M77,94h1v3h-1z M94,95h3v1h-3z M125,95h3v1h-3z M40,96h3v1h-3z M66,96h7v1h-7z M66,97h1v3h-1z M94,97h2v1h-2z M125,97h3v1h-3z M125,99h3v1h-3z" /><path fill="#91C7D2" d="M86,90h1v1h-1z M32,52h2v1h-2z M34,53h2v1h-2z M32,54h2v1h-2z M34,55h2v1h-2z M32,56h2v1h-2z M34,57h2v1h-2z M32,58h2v1h-2z M34,59h2v1h-2z M32,60h2v1h-2z M34,61h2v1h-2z M32,62h2v1h-2z M34,63h2v1h-2z M32,64h2v1h-2z M34,65h2v1h-2z M32,66h2v1h-2z M34,67h2v1h-2z M32,68h2v1h-2z M34,69h2v1h-2z M86,69h2v2h-2z M32,70h2v1h-2z M34,71h2v1h-2z M32,72h2v1h-2z M86,72h2v1h-2z M34,73h2v1h-2z M32,74h2v1h-2z M86,74h2v1h-2z M34,75h2v1h-2z M32,76h2v1h-2z M86,76h2v1h-2z M34,77h2v1h-2z M32,78h2v1h-2z M86,78h2v1h-2z M34,79h2v1h-2z M32,80h2v1h-2z M70,80h4v1h-4z M86,80h2v1h-2z M34,81h2v1h-2z M32,82h2v1h-2z M70,82h3v1h-3z M86,82h2v1h-2z M34,83h2v1h-2z M32,84h2v1h-2z M70,84h3v1h-3z M86,84h2v1h-2z M34,85h2v1h-2z M32,86h2v1h-2z M70,86h3v1h-3z M86,86h2v1h-2z M70,88h3v1h-3z M86,88h2v1h-2z M70,90h3v1h-3z" /><path fill="#81B1BC" d="M34,52h1v1h-1z M33,53h1v1h-1z M34,54h1v1h-1z M33,55h1v1h-1z M34,56h1v1h-1z M33,57h1v1h-1z M34,58h1v1h-1z M33,59h1v1h-1z M34,60h1v1h-1z M33,61h1v1h-1z M34,62h1v1h-1z M33,63h1v1h-1z M34,64h1v1h-1z M33,65h1v1h-1z M34,66h1v1h-1z M33,67h1v1h-1z M34,68h1v1h-1z M33,69h1v1h-1z M34,70h1v1h-1z M33,71h1v1h-1z M34,72h1v1h-1z M33,73h1v1h-1z M34,74h1v1h-1z M33,75h1v1h-1z M34,76h1v1h-1z M33,77h1v1h-1z M34,78h1v1h-1z M33,79h1v1h-1z M34,80h1v1h-1z M33,81h1v1h-1z M34,82h1v1h-1z M33,83h1v1h-1z M34,84h1v1h-1z M33,85h1v1h-1z M34,86h1v1h-1z" /><path fill="#BBFFF8" d="M103,64h1v1h-1z M111,64h1v1h-1z M36,73h1v1h-1z M0,55h25v1h-25z M36,55h2v2h-2z M43,55h3v2h-3z M56,55h48v2h-48z M111,55h17v1h-17z M0,56h6v1h-6z M22,56h3v1h-3z M111,56h10v1h-10z M0,59h6v7h-6z M22,59h3v13h-3z M36,59h2v14h-2z M43,59h3v9h-3z M56,59h47v7h-47z M112,59h9v7h-9z M5,66h1v7h-1z M56,66h46v1h-46z M113,66h8v1h-8z M56,67h45v1h-45z M114,67h7v1h-7z M56,68h3v8h-3z M66,68h32v1h-32z M117,68h4v6h-4z M67,69h15v1h-15z M88,69h10v5h-10z M67,70h1v10h-1z M75,70h7v8h-7z M24,72h1v5h-1z M116,73h1v4h-1z M90,74h2v1h-2z M93,74h4v1h-4z M115,74h1v3h-1z M117,74h2v3h-2z M94,75h2v4h-2z M114,75h1v2h-1z M57,76h2v3h-2z M75,78h3v1h-3z M80,78h2v2h-2z M75,79h2v1h-2z" /><path fill="#384450" d="M54,89h1v1h-1z M61,89h1v1h-1z M17,91h1v1h-1z M19,91h1v1h-1z M21,91h1v1h-1z M23,91h1v1h-1z M25,91h1v1h-1z M52,91h1v1h-1z M54,91h1v1h-1z M61,91h1v1h-1z M17,93h1v1h-1z M19,93h1v1h-1z M21,93h1v1h-1z M23,93h1v1h-1z M25,93h1v1h-1z M52,93h1v1h-1z M54,93h1v1h-1z M61,93h1v1h-1z M63,93h1v1h-1z M17,95h1v1h-1z M19,95h1v1h-1z M21,95h1v1h-1z M23,95h1v1h-1z M25,95h1v1h-1z M52,95h1v1h-1z M54,95h1v1h-1z M61,95h1v1h-1z M63,95h1v1h-1z M118,95h1v1h-1z M84,96h1v1h-1z M90,96h1v1h-1z M17,97h1v1h-1z M19,97h1v1h-1z M21,97h1v1h-1z M23,97h1v1h-1z M52,97h1v1h-1z M54,97h1v1h-1z M61,97h1v1h-1z M63,97h1v1h-1z M91,97h1v1h-1z M52,99h1v1h-1z M54,99h1v1h-1z M61,99h1v1h-1z M63,99h1v1h-1z M71,101h1v1h-1z M73,101h1v1h-1z M75,101h1v1h-1z M77,101h1v1h-1z M79,101h1v1h-1z M79,103h1v1h-1z M98,103h1v1h-1z M7,111h1v1h-1z M7,57h8v1h-8z M7,59h8v1h-8z M7,61h8v1h-8z M7,63h8v1h-8z M7,65h8v1h-8z M7,67h8v1h-8z M7,69h8v1h-8z M7,71h8v1h-8z M7,73h8v1h-8z M7,75h8v1h-8z M7,77h8v1h-8z M7,79h8v1h-8z M7,81h8v1h-8z M74,81h8v2h-8z M7,83h8v1h-8z M81,83h1v14h-1z M74,84h7v1h-7z M7,85h8v1h-8z M92,85h1v4h-1z M94,85h1v4h-1z M96,85h1v6h-1z M98,85h1v6h-1z M74,86h7v1h-7z M7,87h8v1h-8z M30,87h9v1h-9z M53,87h10v1h-10z M30,88h1v8h-1z M38,88h1v9h-1z M53,88h1v12h-1z M62,88h1v12h-1z M74,88h7v1h-7z M7,89h8v1h-8z M22,89h5v1h-5z M31,89h7v1h-7z M50,89h3v1h-3z M56,89h4v1h-4z M50,90h1v10h-1z M74,90h7v1h-7z M7,91h8v1h-8z M27,91h3v1h-3z M31,91h7v1h-7z M56,91h4v1h-4z M64,92h1v8h-1z M74,92h7v1h-7z M7,93h8v1h-8z M27,93h3v1h-3z M31,93h7v1h-7z M56,93h4v1h-4z M78,94h3v1h-3z M118,94h7v1h-7z M7,95h8v1h-8z M27,95h3v1h-3z M31,95h7v1h-7z M56,95h4v1h-4z M84,95h9v1h-9z M120,95h1v5h-1z M122,95h1v7h-1z M124,95h1v6h-1z M78,96h3v1h-3z M92,96h1v3h-1z M7,97h8v1h-8z M56,97h4v1h-4z M7,99h8v1h-8z M17,99h1v5h-1z M19,99h1v6h-1z M21,99h1v6h-1z M23,99h1v5h-1z M56,99h4v1h-4z M100,99h1v8h-1z M70,100h1v4h-1z M72,100h1v2h-1z M74,100h1v2h-1z M76,100h1v2h-1z M78,100h1v4h-1z M80,100h1v2h-1z M7,101h8v1h-8z M99,101h1v5h-1z M118,101h1v5h-1z M7,103h6v1h-6z M7,105h3v1h-3z M7,107h3v1h-3z M7,109h2v1h-2z" /><path fill="#9A8E84" d="M73,70h1v1h-1z M73,72h1v1h-1z M5,74h1v1h-1z M73,74h1v1h-1z M73,76h1v1h-1z M73,78h1v1h-1z M125,89h1v1h-1z M83,91h1v1h-1z M83,93h1v1h-1z M17,57h4v1h-4z M17,59h4v1h-4z M17,61h4v1h-4z M17,63h4v1h-4z M17,65h4v1h-4z M17,67h4v1h-4z M17,69h4v1h-4z M64,70h2v1h-2z M17,71h4v1h-4z M64,72h2v1h-2z M17,73h4v1h-4z M44,74h3v1h-3z M64,74h2v1h-2z M17,75h4v1h-4z M44,76h3v1h-3z M64,76h2v1h-2z M17,77h4v1h-4z M44,78h3v1h-3z M64,78h2v1h-2z M17,79h4v1h-4z M44,80h3v1h-3z M64,80h2v1h-2z M17,81h4v1h-4z M44,82h3v1h-3z M64,82h2v1h-2z M17,83h4v1h-4z M83,83h3v1h-3z M44,84h3v1h-3z M64,84h2v1h-2z M17,85h4v1h-4z M83,85h3v1h-3z M44,86h3v1h-3z M64,86h2v1h-2z M17,87h4v1h-4z M83,87h3v1h-3z M17,89h4v1h-4z M40,89h3v1h-3z M83,89h3v1h-3z M120,89h1v2h-1z M118,90h2v1h-2z M121,90h4v1h-4z M40,91h3v1h-3z M125,92h3v1h-3z M40,93h3v1h-3z M66,93h7v2h-7z M125,94h3v1h-3z M40,95h3v1h-3z M125,96h3v1h-3z M125,98h3v1h-3z" /><path fill="#091D39" d="M98,69h1v1h-1z M100,69h1v1h-1z M103,65h6v1h-6z M102,69h2v1h-2z M105,69h2v1h-2z M108,69h3v1h-3z" /><path fill="#D2C3AB" d="M62,77h1v1h-1z M62,79h1v1h-1z M121,89h1v1h-1z M125,90h1v1h-1z M127,90h1v1h-1z M62,68h1v2h-1z M62,71h1v3h-1z M62,81h1v3h-1z M126,89h1v2h-1z M115,100h1v4h-1z M70,106h3v1h-3z" /><path fill="#BBB3AD" d="M62,70h1v1h-1z M62,78h1v1h-1z M62,80h1v1h-1z M64,68h2v2h-2z M66,69h1v11h-1z M64,71h2v1h-2z M64,73h2v1h-2z M62,74h1v3h-1z M64,75h2v1h-2z M93,75h1v8h-1z M56,76h1v11h-1z M64,77h2v1h-2z M64,79h2v1h-2z M97,79h2v6h-2z M64,81h2v1h-2z M64,83h2v1h-2z M62,84h1v3h-1z M64,85h2v1h-2z M5,94h1v3h-1z M33,96h5v1h-5z M41,97h6v1h-6z M41,99h6v1h-6z M41,101h6v1h-6z M41,103h6v1h-6z M41,105h6v1h-6z" /><path fill="#9EB7B0" d="M98,70h1v2h-1z M109,70h2v2h-2z M99,71h10v1h-10z" /><path fill="#B59E8C" d="M43,73h1v14h-1z M63,87h7v1h-7z M69,88h1v4h-1z M63,89h6v1h-6z M63,91h6v1h-6z M74,94h3v1h-3z M76,95h1v2h-1z M44,107h5v1h-5z M70,107h14v1h-14z M44,108h1v16h-1z M48,108h1v16h-1z M70,108h1v10h-1z M45,109h3v1h-3z M71,109h4v1h-4z M45,111h3v1h-3z M71,111h4v1h-4z M45,113h3v1h-3z M71,113h4v1h-4z M45,115h3v1h-3z M71,115h4v1h-4z M45,117h3v1h-3z M71,117h4v1h-4z M45,119h3v1h-3z M101,119h2v1h-2z M45,121h3v1h-3z M45,123h3v1h-3z" /><path fill="#E5473E" d="M103,84h1v1h-1z M103,77h1v2h-1z" /><path fill="#6E676E" d="M49,114h1v1h-1z M106,77h1v2h-1z" /><path fill="#51667C" d="M102,92h1v1h-1z M114,102h1v1h-1z M20,122h1v1h-1z M21,123h1v1h-1z M111,77h1v2h-1z M80,80h2v1h-2z M105,84h1v2h-1z M103,91h3v2h-3z M102,101h1v6h-1z M101,103h1v4h-1z M56,107h10v1h-10z M56,108h1v20h-1z M57,109h9v1h-9z M57,111h9v1h-9z M57,113h9v1h-9z M57,115h9v1h-9z M57,117h9v1h-9z M103,117h7v1h-7z M57,119h9v1h-9z M103,119h7v1h-7z M57,121h9v1h-9z M57,123h9v1h-9z M57,125h9v1h-9z M57,127h9v1h-9z" /><path fill="#FE8B71" d="M109,80h5v1h-5z M109,87h7v1h-7z M110,94h8v1h-8z" /><path fill="#D4CEC2" d="M110,119h1v1h-1z M104,84h1v2h-1z M110,116h3v2h-3z M110,118h2v1h-2z" /><path fill="#4B3834" d="M103,85h1v1h-1z" /><path fill="#657181" d="M112,85h1v1h-1z" /><path fill="#1E3045" d="M54,109h1v1h-1z M78,110h1v1h-1z M54,111h1v1h-1z M78,112h1v1h-1z M54,113h1v1h-1z M54,115h1v1h-1z M54,117h1v1h-1z M54,119h1v1h-1z M54,121h1v1h-1z M54,123h1v1h-1z M54,125h1v1h-1z M54,127h1v1h-1z M85,127h1v1h-1z M93,127h1v1h-1z M87,89h4v2h-4z M118,91h7v2h-7z M84,93h9v1h-9z M27,96h6v1h-6z M25,98h16v1h-16z M67,99h14v1h-14z M25,100h16v1h-16z M47,100h3v1h-3z M25,102h16v1h-16z M25,104h16v1h-16z M47,105h3v1h-3z M25,106h16v1h-16z M50,107h6v1h-6z M13,108h1v11h-1z M15,108h1v11h-1z M17,108h1v13h-1z M19,108h1v13h-1z M22,108h1v17h-1z M50,108h1v18h-1z M53,108h1v18h-1z M55,108h1v20h-1z M57,108h9v1h-9z M51,109h2v1h-2z M57,110h9v1h-9z M51,111h2v1h-2z M57,112h9v1h-9z M51,113h2v1h-2z M57,114h9v1h-9z M51,115h2v1h-2z M57,116h9v1h-9z M51,117h2v1h-2z M57,118h9v1h-9z M51,119h2v1h-2z M57,120h9v1h-9z M51,121h2v1h-2z M57,122h9v1h-9z M51,123h2v1h-2z M57,124h9v1h-9z M51,125h2v1h-2z M57,126h9v1h-9z M85,126h9v1h-9z" /><path fill="#908176" d="M94,99h1v1h-1z M93,94h5v1h-5z M74,95h2v2h-2z M93,95h1v5h-1z M94,96h3v1h-3z M94,98h2v1h-2z M45,108h3v1h-3z M45,110h3v1h-3z M45,112h3v1h-3z M45,114h3v1h-3z M45,116h3v1h-3z M45,118h3v1h-3z M45,120h3v1h-3z M45,122h3v1h-3z" /><path fill="#A49A91" d="M83,95h1v1h-1z" /><path fill="#8EC83B" d="M84,99h1v1h-1z M93,100h1v1h-1z M89,101h1v1h-1z M71,103h1v1h-1z M70,104h1v1h-1z M74,104h1v1h-1z M121,104h1v1h-1z M77,105h1v1h-1z M79,105h1v1h-1z M124,106h1v1h-1z M23,107h1v1h-1z M99,107h1v1h-1z M127,108h1v1h-1z M85,109h1v1h-1z M82,111h1v1h-1z M127,112h1v1h-1z M88,114h1v1h-1z M113,115h1v1h-1z M85,116h1v1h-1z M4,117h1v1h-1z M91,117h1v1h-1z M127,120h1v1h-1z M3,121h1v1h-1z M116,122h1v1h-1z M36,123h1v1h-1z M29,124h1v1h-1z M110,124h1v1h-1z M122,124h1v1h-1z M112,126h1v1h-1z M85,96h5v4h-5z M83,97h2v2h-2z M90,98h2v4h-2z M92,99h1v2h-1z M88,100h2v1h-2z M125,100h3v7h-3z M123,101h2v5h-2z M72,102h3v2h-3z M76,102h2v3h-2z M13,103h4v1h-4z M75,103h1v2h-1z M111,103h4v6h-4z M122,103h1v3h-1z M15,104h3v1h-3z M22,104h2v3h-2z M78,104h1v2h-1z M94,104h5v1h-5z M110,104h1v4h-1z M115,104h1v13h-1z M16,105h6v1h-6z M24,105h1v3h-1z M86,105h5v5h-5z M96,105h3v1h-3z M109,105h1v2h-1z M116,105h1v12h-1z M18,106h3v1h-3z M84,106h2v3h-2z M91,106h2v6h-2z M97,106h3v1h-3z M104,106h2v1h-2z M117,106h2v1h-2z M93,107h2v6h-2z M126,107h2v1h-2z M83,108h1v2h-1z M95,108h1v10h-1z M105,108h4v1h-4z M117,108h1v2h-1z M96,109h1v10h-1z M106,109h4v1h-4z M113,109h2v1h-2z M80,110h2v1h-2z M88,110h3v1h-3z M107,110h3v1h-3z M97,111h1v8h-1z M110,111h2v1h-2z M117,111h1v7h-1z M0,112h5v5h-5z M86,112h3v2h-3z M113,112h2v1h-2z M118,112h4v6h-4z M5,113h1v6h-1z M83,113h1v2h-1z M89,113h3v4h-3z M94,113h1v5h-1z M114,113h1v3h-1z M122,113h2v8h-2z M6,114h4v5h-4z M84,114h1v2h-1z M92,114h1v4h-1z M124,114h1v7h-1z M10,115h1v5h-1z M93,115h1v3h-1z M98,115h1v5h-1z M125,115h1v6h-1z M11,116h1v4h-1z M99,116h1v4h-1z M126,116h1v5h-1z M12,118h1v2h-1z M100,118h1v2h-1z M119,118h3v1h-3z M2,119h2v2h-2z M8,119h2v1h-2z M13,119h3v4h-3z M115,119h2v3h-2z M120,119h2v1h-2z M4,120h1v3h-1z M16,120h1v5h-1z M117,120h1v3h-1z M5,121h1v2h-1z M11,121h2v3h-2z M17,121h3v5h-3z M29,121h4v3h-4z M118,121h2v3h-2z M6,122h1v2h-1z M9,122h2v1h-2z M28,122h1v4h-1z M33,122h3v2h-3z M120,122h1v3h-1z M15,123h1v2h-1z M20,123h1v4h-1z M27,123h1v3h-1z M111,123h2v3h-2z M121,123h1v2h-1z M23,124h4v1h-4z M31,124h4v2h-4z M21,125h1v2h-1z M24,125h3v1h-3z M113,125h1v2h-1z M18,126h2v1h-2z M32,126h2v1h-2z M114,126h2v1h-2z" /><path fill="#1B6A3A" d="M2,102h1v1h-1z M122,102h1v1h-1z M15,105h1v1h-1z M70,105h1v1h-1z M91,105h1v1h-1z M73,106h1v1h-1z M10,107h1v1h-1z M22,107h1v1h-1z M95,107h1v1h-1z M99,108h1v1h-1z M123,108h1v1h-1z M101,110h1v1h-1z M112,111h1v1h-1z M124,113h1v1h-1z M93,114h1v1h-1z M110,115h1v1h-1z M112,115h1v1h-1z M118,120h1v1h-1z M114,121h1v1h-1z M1,122h1v1h-1z M115,122h1v1h-1z M122,123h1v1h-1z M7,125h1v1h-1z M114,125h1v1h-1z M120,125h1v1h-1z M22,126h1v1h-1z M125,126h1v1h-1z M82,97h1v10h-1z M81,98h1v9h-1z M0,99h3v2h-3z M83,99h1v8h-1z M3,100h1v5h-1z M84,100h4v5h-4z M1,101h2v1h-2z M4,101h1v5h-1z M88,101h1v4h-1z M92,101h2v2h-2z M5,102h1v4h-1z M80,102h1v5h-1z M89,102h3v3h-3z M92,103h1v3h-1z M107,103h3v2h-3z M11,104h4v1h-4z M71,104h3v2h-3z M120,104h1v3h-1z M10,105h3v1h-3z M74,105h3v2h-3z M84,105h2v1h-2z M93,105h3v2h-3z M105,105h4v1h-4z M119,105h1v2h-1z M121,105h1v3h-1z M10,106h2v1h-2z M16,106h2v1h-2z M21,106h1v2h-1z M77,106h3v1h-3z M96,106h1v3h-1z M106,106h3v2h-3z M122,106h2v2h-2z M18,107h3v1h-3z M97,107h2v2h-2z M100,107h2v3h-2z M109,107h1v2h-1z M124,107h2v5h-2z M102,108h1v4h-1z M110,108h1v3h-1z M126,108h1v8h-1z M82,109h1v2h-1z M84,109h1v5h-1z M103,109h1v4h-1z M111,109h2v2h-2z M127,109h1v3h-1z M83,110h1v3h-1z M85,110h3v2h-3z M104,110h1v3h-1z M106,110h1v4h-1z M113,110h2v2h-2z M79,111h3v8h-3z M88,111h3v1h-3z M107,111h3v2h-3z M82,112h1v9h-1z M85,112h1v4h-1z M89,112h4v1h-4z M105,112h1v2h-1z M125,112h1v3h-1z M92,113h2v1h-2z M107,113h2v1h-2z M112,113h2v2h-2z M127,113h1v7h-1z M78,114h1v3h-1z M86,114h2v8h-2z M111,114h1v2h-1z M83,115h1v6h-1z M88,115h1v5h-1z M84,116h1v5h-1z M113,116h2v5h-2z M0,117h4v2h-4z M85,117h1v5h-1z M89,117h2v3h-2z M115,117h2v2h-2z M4,118h1v2h-1z M91,118h5v2h-5z M112,118h1v2h-1z M117,118h2v2h-2z M0,119h2v3h-2z M5,119h3v2h-3z M80,119h2v1h-2z M96,119h2v1h-2z M119,119h1v2h-1z M8,120h5v1h-5z M120,120h2v2h-2z M2,121h1v3h-1z M6,121h5v1h-5z M122,121h3v1h-3z M3,122h1v3h-1z M7,122h2v3h-2z M121,122h3v1h-3z M4,123h2v3h-2z M9,123h2v2h-2z M13,123h2v3h-2z M117,123h1v5h-1z M126,123h2v5h-2z M6,124h1v3h-1z M11,124h2v2h-2z M30,124h1v4h-1z M115,124h2v2h-2z M118,124h2v4h-2z M123,124h3v1h-3z M15,125h2v1h-2z M22,125h2v1h-2z M29,125h1v3h-1z M124,125h2v1h-2z M16,126h2v1h-2z M25,126h4v1h-4z M31,126h1v2h-1z M116,126h1v2h-1z M18,127h4v1h-4z M32,127h2v1h-2z" /><path fill="#F469B7" d="M116,100h1v1h-1z M116,102h1v1h-1z M103,98h2v3h-2z M117,99h1v7h-1z M103,101h1v4h-1z" /><path fill="#B05391" d="M116,99h1v1h-1z M116,101h1v1h-1z M104,101h1v5h-1z M116,103h1v2h-1z M103,105h1v2h-1z" /><path fill="#302721" d="M94,100h1v1h-1z M49,116h1v1h-1z M49,118h1v1h-1z M49,120h1v1h-1z M49,122h1v1h-1z M26,123h1v1h-1z M37,123h1v1h-1z M25,107h18v2h-18z M25,109h1v15h-1z M30,109h2v12h-2z M36,109h2v14h-2z M42,109h1v15h-1z M26,110h4v1h-4z M32,110h4v1h-4z M38,110h4v1h-4z M26,112h4v1h-4z M32,112h4v1h-4z M38,112h4v1h-4z M26,114h4v1h-4z M32,114h4v1h-4z M38,114h4v1h-4z M26,116h4v1h-4z M32,116h4v1h-4z M38,116h4v1h-4z M26,118h4v1h-4z M32,118h4v1h-4z M38,118h4v1h-4z M26,120h4v1h-4z M32,120h4v1h-4z M38,120h4v1h-4z M26,122h2v1h-2z M38,122h4v2h-4z" /><path fill="#13523E" d="M117,110h1v1h-1z M5,112h1v1h-1z M122,112h1v1h-1z M124,112h1v1h-1z M6,113h1v1h-1z M99,115h1v1h-1z M123,123h1v1h-1z M125,123h1v1h-1z M87,125h1v1h-1z M6,127h1v1h-1z M22,127h1v1h-1z M125,127h1v1h-1z M0,101h1v11h-1z M1,102h1v10h-1z M2,103h1v9h-1z M3,105h1v7h-1z M13,105h2v3h-2z M4,106h2v6h-2z M12,106h1v12h-1z M15,106h1v2h-1z M11,107h1v9h-1z M16,107h2v1h-2z M102,107h4v1h-4z M117,107h4v1h-4z M10,108h1v7h-1z M103,108h2v1h-2z M118,108h5v4h-5z M9,109h1v5h-1z M97,109h3v2h-3z M104,109h2v1h-2z M123,109h1v4h-1z M8,110h1v4h-1z M100,110h1v8h-1z M105,110h1v2h-1z M98,111h2v4h-2z M101,111h1v8h-1z M7,112h1v2h-1z M102,112h1v7h-1z M110,112h3v1h-3z M103,113h2v3h-2z M109,113h3v1h-3z M105,114h6v1h-6z M105,115h5v1h-5z M77,116h1v9h-1z M78,117h1v8h-1z M79,119h1v6h-1z M111,119h1v4h-1z M80,120h2v5h-2z M110,120h1v4h-1z M112,120h1v3h-1z M76,121h1v4h-1z M82,121h3v4h-3z M109,121h1v2h-1z M113,121h1v4h-1z M125,121h3v2h-3z M0,122h1v6h-1z M85,122h3v3h-3z M114,122h1v3h-1z M124,122h1v2h-1z M1,123h1v5h-1z M115,123h2v1h-2z M2,124h1v4h-1z M3,125h1v3h-1z M8,125h3v3h-3z M110,125h1v3h-1z M121,125h3v3h-3z M4,126h2v2h-2z M7,126h1v2h-1z M11,126h5v2h-5z M23,126h2v2h-2z M111,126h1v2h-1z M120,126h1v2h-1z M124,126h1v2h-1z M16,127h2v1h-2z M25,127h4v1h-4z M112,127h4v1h-4z" /><path fill="#B22338" d="M60,101h6v5h-6z" /><path fill="#E74747" d="M66,101h4v5h-4z" /><path fill="#A78A79" d="M43,107h1v19h-1z M90,120h10v1h-10z M38,124h5v2h-5z M44,124h6v2h-6z M46,127h7v1h-7z" /><path fill="#484347" d="M49,115h1v1h-1z M49,117h1v1h-1z M49,119h1v1h-1z M49,121h1v1h-1z M49,123h1v1h-1z M44,127h1v1h-1z M66,107h4v1h-4z M67,108h1v20h-1z M69,108h1v20h-1z M70,118h3v1h-3z M72,119h1v6h-1z M88,120h2v2h-2z M100,120h2v8h-2z M107,120h3v1h-3z M90,121h10v1h-10z M102,121h7v1h-7z M88,122h1v4h-1z M107,122h2v6h-2z M89,123h11v1h-11z M102,123h5v1h-5z M109,123h1v5h-1z M35,124h3v3h-3z M78,125h9v1h-9z M89,125h11v1h-11z M102,125h5v1h-5z M34,126h1v2h-1z M38,126h7v1h-7z M78,126h1v2h-1z M79,127h6v1h-6z M97,127h3v1h-3z M102,127h5v1h-5z" /><path fill="#3A3739" d="M66,108h1v20h-1z M68,108h1v20h-1z M75,108h2v1h-2z M26,109h4v1h-4z M32,109h4v1h-4z M38,109h4v1h-4z M75,110h2v1h-2z M26,111h4v1h-4z M32,111h4v1h-4z M38,111h4v1h-4z M75,112h2v1h-2z M26,113h4v1h-4z M32,113h4v1h-4z M38,113h4v1h-4z M75,114h2v1h-2z M26,115h4v1h-4z M32,115h4v1h-4z M38,115h4v1h-4z M75,116h2v1h-2z M26,117h4v1h-4z M32,117h4v1h-4z M38,117h4v1h-4z M75,118h2v3h-2z M26,119h4v1h-4z M32,119h4v1h-4z M38,119h4v1h-4z M70,119h2v6h-2z M26,121h3v1h-3z M33,121h3v1h-3z M38,121h4v1h-4z M75,121h1v4h-1z M89,122h11v1h-11z M89,124h11v1h-11z M70,125h1v3h-1z M97,126h3v1h-3z M35,127h9v1h-9z" /><path fill="#5C5353" d="M71,108h4v1h-4z M71,110h4v1h-4z M71,112h4v1h-4z M71,114h4v1h-4z M71,116h4v1h-4z" /><path fill="#827065" d="M75,109h2v1h-2z M75,111h2v1h-2z M75,113h2v1h-2z M75,115h2v1h-2z M75,117h2v1h-2z M73,118h2v7h-2z M102,120h5v1h-5z M102,122h5v1h-5z M102,124h5v1h-5z M102,126h5v1h-5z" /><path fill="#271B15" d="M71,125h7v3h-7z M79,126h6v1h-6z" /><path fill="#A67562" d="M45,127h1v1h-1z M53,127h1v1h-1z M45,126h9v1h-9z" /></svg>