<svg xmlns="http://www.w3.org/2000/svg" version="1.1" width="128" height="128" shape-rendering="crispEdges"><path fill="#151516" d="M45,65h1v1h-1z M71,65h1v1h-1z M53,66h1v1h-1z M79,66h1v1h-1z M48,49h5v3h-5z M74,49h5v3h-5z M46,50h2v4h-2z M53,50h2v2h-2z M72,50h2v4h-2z M79,50h2v2h-2z M45,51h1v3h-1z M55,51h1v4h-1z M71,51h1v3h-1z M81,51h1v4h-1z M44,52h1v13h-1z M50,52h2v2h-2z M54,52h1v2h-1z M56,52h1v13h-1z M70,52h1v13h-1z M76,52h2v2h-2z M80,52h1v2h-1z M82,52h1v13h-1z M43,53h1v11h-1z M57,53h1v11h-1z M69,53h1v11h-1z M83,53h1v11h-1z M42,55h1v7h-1z M58,55h1v7h-1z M68,55h1v7h-1z M84,55h1v7h-1z M45,56h1v6h-1z M50,56h4v2h-4z M71,56h1v6h-1z M76,56h4v2h-4z M46,57h1v4h-1z M72,57h1v4h-1z M55,58h1v2h-1z M81,58h1v2h-1z M50,60h4v2h-4z M76,60h4v2h-4z M55,63h1v3h-1z M81,63h1v3h-1z M46,64h2v1h-2z M50,64h2v2h-2z M54,64h1v3h-1z M72,64h2v1h-2z M76,64h2v2h-2z M80,64h1v3h-1z M46,66h2v1h-2z M72,66h2v1h-2z M48,67h5v1h-5z M74,67h5v1h-5z" /><path fill="#F7941D" d="M52,55h1v1h-1z M78,55h1v1h-1z M45,63h1v1h-1z M71,63h1v1h-1z M48,52h1v14h-1z M52,52h1v2h-1z M74,52h1v14h-1z M78,52h1v2h-1z M45,54h3v1h-3z M49,54h3v2h-3z M71,54h3v1h-3z M75,54h3v2h-3z M46,55h2v1h-2z M54,55h1v3h-1z M72,55h2v1h-2z M80,55h1v3h-1z M47,56h1v8h-1z M73,56h1v8h-1z M49,58h5v2h-5z M75,58h5v2h-5z M54,60h1v3h-1z M80,60h1v3h-1z M46,62h1v2h-1z M49,62h5v2h-5z M72,62h1v2h-1z M75,62h5v2h-5z M52,64h1v2h-1z M78,64h1v2h-1z" /><path fill="#FAD348" d="M52,54h1v1h-1z M54,54h1v1h-1z M78,54h1v1h-1z M80,54h1v1h-1z M45,55h1v1h-1z M71,55h1v1h-1z M46,56h1v1h-1z M72,56h1v1h-1z M46,61h1v1h-1z M72,61h1v1h-1z M45,62h1v1h-1z M71,62h1v1h-1z M54,63h1v1h-1z M80,63h1v1h-1z M49,52h1v2h-1z M53,52h1v4h-1z M75,52h1v2h-1z M79,52h1v4h-1z M55,55h1v3h-1z M81,55h1v3h-1z M49,56h1v2h-1z M75,56h1v2h-1z M54,58h1v2h-1z M80,58h1v2h-1z M49,60h1v2h-1z M55,60h1v3h-1z M75,60h1v2h-1z M81,60h1v3h-1z M49,64h1v2h-1z M53,64h1v2h-1z M75,64h1v2h-1z M79,64h1v2h-1z" /><path fill="#19476E" d="M45,64h1v1h-1z M71,64h1v1h-1z M46,65h2v1h-2z M72,65h2v1h-2z M48,66h5v1h-5z M74,66h5v1h-5z" /></svg>