<svg xmlns="http://www.w3.org/2000/svg" version="1.1" width="128" height="128" shape-rendering="crispEdges"><path fill="#151516" d="M45,51h1v1h-1z M55,51h1v1h-1z M71,51h1v1h-1z M81,51h1v1h-1z M44,52h1v1h-1z M56,52h1v1h-1z M70,52h1v1h-1z M82,52h1v1h-1z M44,64h1v1h-1z M56,64h1v1h-1z M70,64h1v1h-1z M82,64h1v1h-1z M45,65h1v1h-1z M55,65h1v1h-1z M71,65h1v1h-1z M81,65h1v1h-1z M48,49h5v1h-5z M74,49h5v1h-5z M46,50h2v1h-2z M53,50h2v1h-2z M72,50h2v1h-2z M79,50h2v1h-2z M43,53h1v2h-1z M57,53h1v2h-1z M69,53h1v2h-1z M83,53h1v2h-1z M42,55h1v7h-1z M58,55h1v7h-1z M68,55h1v7h-1z M84,55h1v7h-1z M43,62h1v2h-1z M57,62h1v2h-1z M69,62h1v2h-1z M83,62h1v2h-1z M46,66h2v1h-2z M53,66h2v1h-2z M72,66h2v1h-2z M79,66h2v1h-2z M48,67h5v1h-5z M74,67h5v1h-5z" /><path fill="#B89B15" d="M45,52h1v1h-1z M71,52h1v1h-1z M54,53h1v1h-1z M80,53h1v1h-1z M48,50h5v1h-5z M74,50h5v1h-5z M46,51h5v2h-5z M53,51h2v2h-2z M72,51h5v2h-5z M79,51h2v2h-2z M55,52h1v3h-1z M81,52h1v3h-1z M44,53h1v9h-1z M56,53h1v3h-1z M70,53h1v9h-1z M82,53h1v3h-1z M43,55h1v4h-1z M57,55h1v7h-1z M69,55h1v4h-1z M83,55h1v7h-1z M45,56h2v5h-2z M50,56h2v5h-2z M71,56h2v5h-2z M76,56h2v5h-2z M52,57h1v3h-1z M78,57h1v3h-1z M56,61h1v3h-1z M82,61h1v3h-1z M55,62h1v2h-1z M81,62h1v2h-1z M54,63h1v2h-1z M80,63h1v2h-1z M47,64h7v1h-7z M73,64h7v1h-7z M50,65h3v1h-3z M76,65h3v1h-3z" /><path fill="#E4D93D" d="M55,64h1v1h-1z M81,64h1v1h-1z M51,51h2v2h-2z M77,51h2v2h-2z M43,59h1v3h-1z M69,59h1v3h-1z M44,62h1v2h-1z M70,62h1v2h-1z M45,64h2v1h-2z M71,64h2v1h-2z M46,65h4v1h-4z M53,65h2v1h-2z M72,65h4v1h-4z M79,65h2v1h-2z M48,66h5v1h-5z M74,66h5v1h-5z" /><path fill="#FFFFFF" d="M45,53h9v3h-9z M71,53h9v3h-9z M54,54h1v9h-1z M80,54h1v9h-1z M55,55h1v7h-1z M81,55h1v7h-1z M47,56h3v8h-3z M52,56h2v1h-2z M56,56h1v5h-1z M73,56h3v8h-3z M78,56h2v1h-2z M82,56h1v5h-1z M53,57h1v7h-1z M79,57h1v7h-1z M52,60h1v4h-1z M78,60h1v4h-1z M45,61h2v3h-2z M50,61h2v3h-2z M71,61h2v3h-2z M76,61h2v3h-2z" /></svg>