<svg xmlns="http://www.w3.org/2000/svg" version="1.1" width="128" height="128" shape-rendering="crispEdges"><path fill="#151516" d="M46,52h1v1h-1z M72,52h1v1h-1z M48,61h1v1h-1z M74,61h1v1h-1z M45,63h1v1h-1z M54,63h1v1h-1z M71,63h1v1h-1z M80,63h1v1h-1z M44,64h1v1h-1z M56,64h1v1h-1z M70,64h1v1h-1z M82,64h1v1h-1z M45,65h1v1h-1z M55,65h1v1h-1z M71,65h1v1h-1z M81,65h1v1h-1z M48,49h5v1h-5z M74,49h5v1h-5z M46,50h3v2h-3z M52,50h3v2h-3z M72,50h3v2h-3z M78,50h3v2h-3z M45,51h1v3h-1z M55,51h1v2h-1z M71,51h1v3h-1z M81,51h1v2h-1z M44,52h1v11h-1z M56,52h1v3h-1z M70,52h1v11h-1z M82,52h1v3h-1z M43,53h1v11h-1z M57,53h1v3h-1z M69,53h1v11h-1z M83,53h1v3h-1z M48,54h1v2h-1z M52,54h1v3h-1z M74,54h1v2h-1z M78,54h1v3h-1z M42,55h1v7h-1z M53,55h3v1h-3z M58,55h1v7h-1z M68,55h1v7h-1z M79,55h3v1h-3z M84,55h1v7h-1z M53,56h2v1h-2z M79,56h2v1h-2z M45,57h1v4h-1z M54,57h2v1h-2z M57,57h1v7h-1z M71,57h1v4h-1z M80,57h2v1h-2z M83,57h1v7h-1z M46,58h1v3h-1z M55,58h2v1h-2z M72,58h1v3h-1z M81,58h2v1h-2z M47,59h2v2h-2z M56,59h1v4h-1z M73,59h2v2h-2z M82,59h1v4h-1z M52,60h1v2h-1z M78,60h1v2h-1z M55,62h1v2h-1z M81,62h1v2h-1z M47,64h2v1h-2z M52,64h2v1h-2z M73,64h2v1h-2z M78,64h2v1h-2z M46,66h2v1h-2z M53,66h2v1h-2z M72,66h2v1h-2z M79,66h2v1h-2z M48,67h5v1h-5z M74,67h5v1h-5z" /><path fill="#F6B635" d="M49,50h2v16h-2z M75,50h2v16h-2z M47,52h2v2h-2z M51,52h1v2h-1z M73,52h2v2h-2z M77,52h1v2h-1z M46,53h1v5h-1z M52,53h3v1h-3z M72,53h1v5h-1z M78,53h3v1h-3z M45,54h1v3h-1z M53,54h3v1h-3z M71,54h1v3h-1z M79,54h3v1h-3z M47,56h1v3h-1z M73,56h1v3h-1z M48,57h1v2h-1z M51,57h1v2h-1z M74,57h1v2h-1z M77,57h1v2h-1z M52,58h2v2h-2z M78,58h2v2h-2z M54,59h1v4h-1z M80,59h1v4h-1z M53,60h1v4h-1z M79,60h1v4h-1z M45,61h1v2h-1z M71,61h1v2h-1z M46,62h3v2h-3z M51,62h2v2h-2z M72,62h3v2h-3z M77,62h2v2h-2z" /><path fill="#F8E466" d="M55,53h1v1h-1z M81,53h1v1h-1z M48,56h1v1h-1z M74,56h1v1h-1z M54,58h1v1h-1z M80,58h1v1h-1z M51,50h1v2h-1z M77,50h1v2h-1z M52,52h3v1h-3z M78,52h3v1h-3z M47,54h1v2h-1z M51,54h1v3h-1z M73,54h1v2h-1z M77,54h1v3h-1z M52,57h2v1h-2z M78,57h2v1h-2z M51,59h1v3h-1z M55,59h1v3h-1z M77,59h1v3h-1z M81,59h1v3h-1z M46,61h2v1h-2z M72,61h2v1h-2z M51,64h1v2h-1z M77,64h1v2h-1z" /><path fill="#FFFFFF" d="M55,56h1v1h-1z M57,56h1v1h-1z M81,56h1v1h-1z M83,56h1v1h-1z M56,55h1v3h-1z M82,55h1v3h-1z" /><path fill="#62DCDC" d="M44,63h1v1h-1z M56,63h1v1h-1z M70,63h1v1h-1z M82,63h1v1h-1z M45,64h2v1h-2z M54,64h2v1h-2z M71,64h2v1h-2z M80,64h2v1h-2z M46,65h3v1h-3z M52,65h3v1h-3z M72,65h3v1h-3z M78,65h3v1h-3z M48,66h5v1h-5z M74,66h5v1h-5z" /></svg>