<svg xmlns="http://www.w3.org/2000/svg" version="1.1" width="128" height="128" shape-rendering="crispEdges"><path fill="#151516" d="M51,53h1v1h-1z M77,53h1v1h-1z M47,62h1v1h-1z M73,62h1v1h-1z M53,63h1v1h-1z M79,63h1v1h-1z M44,64h1v1h-1z M56,64h1v1h-1z M70,64h1v1h-1z M82,64h1v1h-1z M45,65h1v1h-1z M55,65h1v1h-1z M71,65h1v1h-1z M81,65h1v1h-1z M48,49h5v2h-5z M74,49h5v2h-5z M46,50h2v7h-2z M53,50h2v4h-2z M72,50h2v7h-2z M79,50h2v4h-2z M45,51h1v12h-1z M48,51h2v1h-2z M52,51h1v4h-1z M55,51h1v3h-1z M71,51h1v12h-1z M74,51h2v1h-2z M78,51h1v4h-1z M81,51h1v3h-1z M44,52h1v10h-1z M56,52h1v11h-1z M70,52h1v10h-1z M82,52h1v11h-1z M43,53h1v11h-1z M57,53h1v11h-1z M69,53h1v11h-1z M83,53h1v11h-1z M53,54h1v6h-1z M79,54h1v6h-1z M42,55h1v7h-1z M48,55h1v2h-1z M58,55h1v7h-1z M68,55h1v7h-1z M74,55h1v2h-1z M84,55h1v7h-1z M54,56h2v8h-2z M80,56h2v8h-2z M46,57h1v6h-1z M72,57h1v6h-1z M51,58h2v2h-2z M77,58h2v2h-2z M47,61h2v1h-2z M73,61h2v1h-2z M51,64h2v1h-2z M77,64h2v1h-2z M46,66h2v1h-2z M53,66h2v1h-2z M72,66h2v1h-2z M79,66h2v1h-2z M48,67h5v1h-5z M74,67h5v1h-5z" /><path fill="#FFFFFF" d="M52,63h1v1h-1z M78,63h1v1h-1z M45,64h1v1h-1z M50,64h1v1h-1z M71,64h1v1h-1z M76,64h1v1h-1z M48,65h1v1h-1z M74,65h1v1h-1z M50,51h2v2h-2z M76,51h2v2h-2z M48,52h2v2h-2z M74,52h2v2h-2z M51,55h2v3h-2z M77,55h2v3h-2z M49,56h2v3h-2z M75,56h2v3h-2z M47,57h2v3h-2z M73,57h2v3h-2z M52,60h2v3h-2z M78,60h2v3h-2z M50,61h2v3h-2z M76,61h2v3h-2z M48,62h2v3h-2z M74,62h2v3h-2z M46,63h2v3h-2z M72,63h2v3h-2z" /><path fill="#A0A0A0" d="M50,53h1v1h-1z M76,53h1v1h-1z M48,54h2v1h-2z M74,54h2v1h-2z M49,59h2v1h-2z M75,59h2v1h-2z M47,60h2v1h-2z M73,60h2v1h-2z" /><path fill="#727272" d="M49,61h1v1h-1z M75,61h1v1h-1z M50,54h2v1h-2z M76,54h2v1h-2z M49,55h2v1h-2z M75,55h2v1h-2z M49,60h3v1h-3z M75,60h3v1h-3z" /><path fill="#2E89B1" d="M54,54h2v2h-2z M80,54h2v2h-2z" /><path fill="#19476E" d="M45,63h1v1h-1z M56,63h1v1h-1z M71,63h1v1h-1z M82,63h1v1h-1z M44,62h1v2h-1z M70,62h1v2h-1z M53,64h3v1h-3z M79,64h3v1h-3z M49,65h6v1h-6z M75,65h6v1h-6z M48,66h5v1h-5z M74,66h5v1h-5z" /></svg>