<svg xmlns="http://www.w3.org/2000/svg" version="1.1" width="128" height="128" shape-rendering="crispEdges"><path fill="#151516" d="M54,53h1v1h-1z M44,64h1v1h-1z M56,64h1v1h-1z M45,65h1v1h-1z M55,65h1v1h-1z M48,49h5v4h-5z M46,50h2v11h-2z M53,50h2v3h-2z M45,51h1v12h-1z M55,51h1v13h-1z M44,52h1v10h-1z M56,52h1v11h-1z M43,53h1v11h-1z M48,53h3v1h-3z M57,53h1v11h-1z M74,53h5v3h-5z M48,54h2v7h-2z M72,54h2v3h-2z M79,54h2v3h-2z M42,55h1v7h-1z M58,55h1v7h-1z M70,55h2v3h-2z M81,55h2v3h-2z M69,56h1v3h-1z M83,56h1v3h-1z M50,57h1v8h-1z M54,57h1v7h-1z M51,58h3v6h-3z M68,58h1v2h-1z M84,58h1v2h-1z M46,61h1v3h-1z M49,61h1v2h-1z M47,63h2v1h-2z M48,64h2v1h-2z M51,64h2v1h-2z M46,66h2v1h-2z M53,66h2v1h-2z M48,67h5v1h-5z" /><path fill="#FFFFFF" d="M51,53h3v5h-3z M50,54h1v3h-1z M54,54h1v3h-1z" /><path fill="#552982" d="M49,63h1v1h-1z M47,61h2v2h-2z" /><path fill="#19476E" d="M56,63h1v1h-1z M44,62h1v2h-1z M45,63h1v2h-1z M46,64h2v2h-2z M53,64h3v1h-3z M48,65h7v1h-7z M48,66h5v1h-5z" /></svg>