<svg xmlns="http://www.w3.org/2000/svg" version="1.1" width="128" height="128" shape-rendering="crispEdges"><path fill="#E68311" d="M33,44h1v1h-1z M93,44h1v1h-1z M36,46h1v1h-1z M43,46h1v1h-1z M83,46h1v1h-1z M90,46h1v1h-1z M37,47h1v1h-1z M44,47h1v1h-1z M82,47h1v1h-1z M89,47h1v1h-1z M38,48h1v1h-1z M88,48h1v1h-1z M37,49h1v1h-1z M89,49h1v1h-1z M36,50h1v1h-1z M55,50h1v1h-1z M71,50h1v1h-1z M90,50h1v1h-1z M56,51h1v1h-1z M70,51h1v1h-1z M57,52h1v1h-1z M69,52h1v1h-1z M43,64h1v1h-1z M57,64h1v1h-1z M69,64h1v1h-1z M83,64h1v1h-1z M44,65h1v1h-1z M56,65h1v1h-1z M70,65h1v1h-1z M82,65h1v1h-1z M45,66h1v1h-1z M55,66h1v1h-1z M71,66h1v1h-1z M81,66h1v1h-1z M34,43h3v1h-3z M90,43h3v1h-3z M37,44h3v1h-3z M87,44h3v1h-3z M34,45h2v1h-2z M40,45h3v1h-3z M84,45h3v1h-3z M91,45h2v1h-2z M42,48h2v1h-2z M48,48h5v1h-5z M74,48h5v1h-5z M83,48h2v1h-2z M43,49h5v1h-5z M53,49h2v1h-2z M72,49h2v1h-2z M79,49h5v1h-5z M37,51h2v1h-2z M88,51h2v1h-2z M39,52h3v1h-3z M85,52h3v1h-3z M42,53h1v2h-1z M58,53h1v2h-1z M68,53h1v2h-1z M84,53h1v2h-1z M41,55h1v7h-1z M59,55h1v7h-1z M67,55h1v7h-1z M85,55h1v7h-1z M42,62h1v2h-1z M58,62h1v2h-1z M68,62h1v2h-1z M84,62h1v2h-1z M46,67h2v1h-2z M53,67h2v1h-2z M72,67h2v1h-2z M79,67h2v1h-2z M48,68h5v1h-5z M74,68h5v1h-5z" /><path fill="#FBCD27" d="M37,46h1v1h-1z M89,46h1v1h-1z M39,48h1v1h-1z M87,48h1v1h-1z M42,49h1v1h-1z M84,49h1v1h-1z M37,50h1v1h-1z M89,50h1v1h-1z M42,52h1v1h-1z M54,52h1v1h-1z M72,52h1v1h-1z M84,52h1v1h-1z M34,44h3v1h-3z M90,44h3v1h-3z M36,45h4v1h-4z M87,45h4v1h-4z M40,46h3v1h-3z M84,46h3v1h-3z M38,47h2v1h-2z M42,47h2v1h-2z M83,47h2v1h-2z M87,47h2v1h-2z M41,48h1v2h-1z M85,48h1v2h-1z M38,49h1v2h-1z M48,49h5v2h-5z M74,49h5v2h-5z M88,49h1v2h-1z M39,50h1v2h-1z M43,50h5v1h-5z M53,50h2v2h-2z M72,50h2v2h-2z M79,50h5v1h-5z M87,50h1v2h-1z M40,51h2v1h-2z M45,51h3v1h-3z M55,51h1v3h-1z M71,51h1v3h-1z M79,51h3v1h-3z M85,51h2v1h-2z M56,52h1v4h-1z M70,52h1v4h-1z M43,53h2v3h-2z M57,53h1v11h-1z M69,53h1v11h-1z M82,53h2v3h-2z M42,55h1v7h-1z M58,55h1v7h-1z M68,55h1v7h-1z M84,55h1v7h-1z M43,56h1v8h-1z M83,56h1v8h-1z M44,61h1v4h-1z M56,61h1v4h-1z M70,61h1v4h-1z M82,61h1v4h-1z M45,63h1v3h-1z M55,63h1v3h-1z M71,63h1v3h-1z M81,63h1v3h-1z M46,64h1v3h-1z M54,64h1v3h-1z M72,64h1v3h-1z M80,64h1v3h-1z M47,65h1v2h-1z M53,65h1v2h-1z M73,65h1v2h-1z M79,65h1v2h-1z M48,66h5v2h-5z M74,66h5v2h-5z" /><path fill="#F5EC7F" d="M38,46h1v1h-1z M88,46h1v1h-1z M42,50h1v1h-1z M84,50h1v1h-1z M40,47h1v2h-1z M86,47h1v2h-1z M43,51h2v1h-2z M82,51h2v1h-2z" /><path fill="#FFFDEA" d="M39,46h1v1h-1z M87,46h1v1h-1z M41,47h1v1h-1z M85,47h1v1h-1z M42,51h1v1h-1z M84,51h1v1h-1z M47,64h1v1h-1z M79,64h1v1h-1z M39,49h2v1h-2z M86,49h2v1h-2z M40,50h2v1h-2z M85,50h2v1h-2z M48,51h5v15h-5z M74,51h5v15h-5z M43,52h5v1h-5z M53,52h1v13h-1z M73,52h1v13h-1z M79,52h5v1h-5z M45,53h3v10h-3z M54,53h1v11h-1z M72,53h1v11h-1z M79,53h3v10h-3z M55,54h1v9h-1z M71,54h1v9h-1z M44,56h1v5h-1z M56,56h1v5h-1z M70,56h1v5h-1z M82,56h1v5h-1z M46,63h2v1h-2z M79,63h2v1h-2z" /></svg>